# vtk DataFile Version 3.0
Broken Mesh Solution
ASCII
DATASET UNSTRUCTURED_GRID

POINTS 968 float
-0.5 -0.5 0.0
0.5 -0.5 0.0
0.5 0.5 0.0
-0.5 0.5 0.0
-0.4500000000001387 -0.5 0.0
-0.4000000000002774 -0.5 0.0
-0.3500000000004161 -0.5 0.0
-0.3000000000005548 -0.5 0.0
-0.2500000000006935 -0.5 0.0
-0.2000000000008322 -0.5 0.0
-0.1500000000009709 -0.5 0.0
-0.1000000000011096 -0.5 0.0
-0.05000000000124821 -0.5 0.0
-1.376121439022882e-12 -0.5 0.0
0.04999999999875171 -0.5 0.0
0.09999999999889042 -0.5 0.0
0.1499999999990291 -0.5 0.0
0.1999999999991677 -0.5 0.0
0.2499999999993064 -0.5 0.0
0.2999999999994452 -0.5 0.0
0.349999999999584 -0.5 0.0
0.3999999999997227 -0.5 0.0
0.4499999999998613 -0.5 0.0
0.5 -0.4500000000001387 0.0
0.5 -0.4000000000002774 0.0
0.5 -0.3500000000004161 0.0
0.5 -0.3000000000005548 0.0
0.5 -0.2500000000006935 0.0
0.5 -0.2000000000008322 0.0
0.5 -0.1500000000009709 0.0
0.5 -0.1000000000011096 0.0
0.5 -0.05000000000124821 0.0
0.5 -1.376121439022882e-12 0.0
0.5 0.04999999999875171 0.0
0.5 0.09999999999889042 0.0
0.5 0.1499999999990291 0.0
0.5 0.1999999999991677 0.0
0.5 0.2499999999993064 0.0
0.5 0.2999999999994452 0.0
0.5 0.349999999999584 0.0
0.5 0.3999999999997227 0.0
0.5 0.4499999999998613 0.0
0.4500000000001387 0.5 0.0
0.4000000000002774 0.5 0.0
0.3500000000004161 0.5 0.0
0.3000000000005548 0.5 0.0
0.2500000000006935 0.5 0.0
0.2000000000008322 0.5 0.0
0.1500000000009709 0.5 0.0
0.1000000000011096 0.5 0.0
0.05000000000124821 0.5 0.0
1.376121439022882e-12 0.5 0.0
-0.04999999999875171 0.5 0.0
-0.09999999999889042 0.5 0.0
-0.1499999999990291 0.5 0.0
-0.1999999999991677 0.5 0.0
-0.2499999999993064 0.5 0.0
-0.2999999999994452 0.5 0.0
-0.349999999999584 0.5 0.0
-0.3999999999997227 0.5 0.0
-0.4499999999998613 0.5 0.0
-0.5 0.4500000000001387 0.0
-0.5 0.4000000000002774 0.0
-0.5 0.3500000000004161 0.0
-0.5 0.3000000000005548 0.0
-0.5 0.2500000000006935 0.0
-0.5 0.2000000000008322 0.0
-0.5 0.1500000000009709 0.0
-0.5 0.1000000000011096 0.0
-0.5 0.05000000000124821 0.0
-0.5 1.376121439022882e-12 0.0
-0.5 -0.04999999999875171 0.0
-0.5 -0.09999999999889042 0.0
-0.5 -0.1499999999990291 0.0
-0.5 -0.1999999999991677 0.0
-0.5 -0.2499999999993064 0.0
-0.5 -0.2999999999994452 0.0
-0.5 -0.349999999999584 0.0
-0.5 -0.3999999999997227 0.0
-0.5 -0.4499999999998613 0.0
0.4566987309199836 0.02500000005140989 0.0
-0.02281172168516951 0.4495334318524943 0.0
-0.458089859557602 -0.02299782465843925 0.0
0.02253286248246634 -0.4581231326562758 0.0
-0.174503680561526 -0.4534787949349919 0.0
0.1749999997605313 0.4566987300284767 0.0
-0.4550994794131522 0.172835509639693 0.0
0.4566987331042523 -0.1749999980004294 0.0
-0.1827059884477657 0.4524591026139226 0.0
0.4566987298471196 0.1750000014232302 0.0
-0.4566987298106581 -0.1749999999990983 0.0
0.1761391042497693 -0.4603040304105419 0.0
0.4566987300282364 0.3249999997591442 0.0
-0.3279237757611223 0.4601698447743342 0.0
-0.4566987298106578 -0.3249999999995147 0.0
0.3256550945045906 -0.4555434892684868 0.0
-0.4566987298108982 0.3250000000004855 0.0
0.3255139622609851 0.4555600266918058 0.0
-0.3279237679332165 -0.460169856848806 0.0
0.4566987388820809 -0.3249999979586331 0.0
0.4566987318359435 -0.07500000006411489 0.0
-0.07500000018145664 -0.456698729547736 0.0
0.07609504156368099 0.460428603778737 0.0
-0.4569339034294686 0.07499999996977591 0.0
0.4578151845509931 0.4230662430481319 0.0
-0.4250814320407744 0.4575917992648114 0.0
-0.4585503649557551 -0.4280278694577894 0.0
0.4204087265223604 -0.4547151351736423 0.0
0.456884805703924 0.3746777069226117 0.0
0.4134284724869516 0.3499462837730077 0.0
0.4134026290781021 0.2999910469402023 0.0
0.3701022201067178 0.3249895540149141 0.0
0.3700980571337412 0.2749967659375679 0.0
0.3267962362533561 0.299997718294437 0.0
0.32679545165055 0.2499990792271375 0.0
0.2834939581710985 0.2749994637488965 0.0
0.283493791419725 0.2249997550782698 0.0
0.2401924555276733 0.2499998666362281 0.0
0.2401924181857768 0.1999999342038112 0.0
0.1968911299888453 0.2249999627146971 0.0
0.196891122347809 0.1749999790721609 0.0
0.1570045567868039 0.2044465154917224 0.0
0.1535898462940805 0.1499999893465576 0.0
0.1102885742900422 0.1749999897819449 0.0
0.1102885754378573 0.1249999908875029 0.0
0.06698730416015763 0.1499999898211472 0.0
0.06698730600788136 0.09999999014877037 0.0
0.0236860349771485 0.1249999889481777 0.0
0.02368603695554816 0.07499998899657045 0.0
0.06698730809379617 0.04999999054428762 0.0
0.02368603917250045 0.02499998910885348 0.0
0.06698731025069403 -9.319207364133497e-09 0.0
0.02368604105456315 -0.02500001083960424 0.0
-0.01961523241389829 0.04999998800544936 0.0
0.06698731240628221 -0.05000000931686709 0.0
0.02368604306625954 -0.07500001050190896 0.0
0.06698731453830899 -0.1000000090656905 0.0
0.02368604555228807 -0.125000010989375 0.0
-0.01961522603671177 -0.1000000123221776 0.0
0.1102885810312898 -0.02500000731794831 0.0
0.06698731672846744 -0.1500000092390525 0.0
-0.01961522356948672 -0.150000013084764 0.0
-0.06291649508035457 -0.1250000146812991 0.0
-0.06291649260589147 -0.1750000150021927 0.0
-0.1062177641170514 -0.1500000167223287 0.0
0.02368603331807514 0.1749999886296555 0.0
0.2401923906938529 0.1499999839094892 0.0
-0.1062177618694818 -0.2000000170473907 0.0
-0.1495190329665907 -0.1750000192010941 0.0
-0.149519035947805 -0.1250000193664963 0.0
-0.1928203048327586 -0.1500000219963532 0.0
-0.1928203079944329 -0.1000000217423036 0.0
-0.1928203020134946 -0.2000000218898307 0.0
-0.06291649072360528 -0.2250000153725988 0.0
-0.2361215766256571 -0.1250000243908878 0.0
-0.2307782370124918 -0.07330280181533079 0.0
0.1535898445883362 0.2499999862769237 0.0
-0.01961523589131761 0.1499999876079523 0.0
-0.01961523763234496 0.1999999872564897 0.0
-0.06291650692659242 0.1749999860294769 0.0
-0.06291650883286673 0.2249999857102984 0.0
-0.106217778068876 0.1999999842190057 0.0
-0.020053776134036656 0.25558922308270715 0.0
-0.1062177797420636 0.2499999840860425 0.0
-0.1495190493158982 0.2249999823453323 0.0
-0.1495190474060577 0.1749999826125699 0.0
-0.1928203186863737 0.1999999808247287 0.0
-0.1928203167542025 0.149999981329808 0.0
-0.192820320302434 0.2499999808204752 0.0
-0.2361215894991991 0.2249999793472016 0.0
-0.1928203110378556 -0.05000002146558535 0.0
-0.2361215827204462 -0.02500002413496238 0.0
0.1102885856493816 -0.1250000074447876 0.0
0.1102885883138683 -0.1750000072323346 0.0
0.1535898570300779 -0.1500000050338198 0.0
0.15700456960394413 -0.20444653515617814 0.0
0.1968911286335259 -0.1750000023939993 0.0
0.1968911319558061 -0.2250000022961225 0.0
0.11275619381076965 -0.23003417197724849 0.0
0.1968911255377074 -0.1250000023006401 0.0
-0.1062177598215724 -0.2500000169726487 0.0
0.2401923972891293 -0.1499999995158983 0.0
0.2401923940741026 -0.09999999952497761 0.0
-0.2361215915518088 0.2749999788919164 0.0
-0.2794228484746316 -0.1000000265418179 0.0
-0.2794228457842816 -0.1500000265442128 0.0
-0.2794228608944936 0.2499999774356469 0.0
-0.2794228614357377 0.1999999756044907 0.0
-0.06291648879009101 -0.2750000153719601 0.0
0.2834936659746705 -0.1249999965741579 0.0
0.2834936691222645 -0.1749999966095462 0.0
0.2834936627596197 -0.07499999672349894 0.0
-0.1062177580131928 -0.3000000170448722 0.0
0.2401924432470267 0.2999998851271908 0.0
-0.2794228628047704 0.2999999771370188 0.0
-0.1928203219617424 0.2999999808218773 0.0
-0.06291649782264816 -0.0750000143361198 0.0
-0.1928203135464154 -2.064294921111376e-08 0.0
-0.2361215843790042 0.02499997716948299 0.0
-0.2794228548240909 -2.718963876269243e-08 0.0
-0.2794228578626055 0.04999997255445776 0.0
-0.1495190457442555 0.1249999832545121 0.0
0.1535898456653862 0.09999999250001644 0.0
0.2347036391126569 -0.04885742568132833 0.0
0.2834936594771013 -0.02499999697754573 0.0
0.3267950332536671 0.1999998059744248 0.0
-0.3227241322458269 0.2749999756906619 0.0
-0.3227241174791712 -0.1250000289868489 0.0
-0.3227241147097923 -0.1750000289827043 0.0
-0.3224889530456149 0.02499997004843824 0.0
-0.3224497597501842 0.0749999700275564 0.0
-0.06334754574216316 -0.324253399412453 0.0
-0.01968706075854848 -0.2998755778435394 0.0
-0.3227241338401081 0.3249999760701951 0.0
-0.2794228640762735 0.3499999784674362 0.0
0.2401923879104263 6.281362929794199e-11 0.0
0.283493656180216 0.02500000279763914 0.0
0.3267949297915752 -0.04999999643723113 0.0
0.3267949375351529 -0.1499999936378744 0.0
0.3267949410247059 -0.1999999936775116 0.0
-0.1067206581323474 -0.3491289648630592 0.0
-0.1496028440043389 -0.3248548437724674 0.0
-0.02080856110558978 -0.3464621213856544 0.0
0.02369418342370525 -0.324010313603925 0.0
0.3267961437177673 0.3499978771310411 0.0
-0.2793771304744661 0.09999997407787933 0.0
-0.3225878094307909 0.1249999698264475 0.0
-0.1495190421784021 -0.02500001850872768 0.0
-0.279422843212459 -0.2000000266540853 0.0
-0.3227241120740536 -0.2250000289509058 0.0
-0.2794228408753044 -0.2500000263448555 0.0
-0.3227241095250169 -0.2750000289130126 0.0
-0.2794228380372047 -0.3000000263664424 0.0
-0.322724106608287 -0.3250000288456228 0.0
-0.2794228352101779 -0.3500000262264711 0.0
-0.3660253810344992 -0.2500000309762747 0.0
0.0236754330618689 -0.2748143234350371 0.0
0.0669873223571371 -0.3000000115827139 0.0
0.06720767373478534 -0.3494557510486884 0.0
0.1103253188322978 -0.3249092993631095 0.0
0.2834936727185337 -0.2249999967146899 0.0
0.3267949447073594 -0.2499999935971476 0.0
0.2834936762610001 -0.2749999968514261 0.0
0.3267949484867373 -0.2999999936019029 0.0
0.2834936799693125 -0.3249999967736686 0.0
0.3267949520645502 -0.3499999935693554 0.0
0.2834936836509125 -0.375334489431183 0.0
0.2401924115778944 -0.3500557487577104 0.0
-0.149519044447362 0.02499998235479209 0.0
-0.1062177733286516 -1.582190822801977e-08 0.0
-0.06291650506204238 0.1249999863364309 0.0
-0.236121569475361 -0.2750000241007409 0.0
-0.3224497543305078 -0.02500002941887192 0.0
0.23470363297143715 0.048857425425839096 0.0
0.1968911170237609 0.02499999667215667 0.0
0.2834936536521049 0.07500000208988378 0.0
0.3267949245945585 0.0500000053386096 0.0
0.3267949216920214 0.1000000052153385 0.0
0.3700961932186895 0.075000006245217 0.0
0.3700962132912974 -0.2749999946127883 0.0
0.3700961906896364 0.125000005243999 0.0
0.3700961946151995 0.02500000311658145 0.0
0.1103314413087547 -0.3748941816434243 0.0
-0.366025397859377 0.04999996741521104 0.0
-0.3657902289530093 0.2999999743535651 0.0
-0.3657510350248321 0.3499999746359942 0.0
-0.3659862059503045 0.2499999743256346 0.0
-0.3657902137318372 -0.1500000315446744 0.0
-0.3659861938556757 -0.1000000317185889 0.0
0.2404997950901452 -0.3995427995041556 0.0
0.1974605192555567 -0.3740356369356694 0.0
0.1969860345440149 -0.3248485668413196 0.0
-0.1928203150256526 0.09999998195267715 0.0
-0.106217774776988 0.04999998473206392 0.0
0.4133986331322193 0.2499979686339791 0.0
0.4133974610305607 0.1000000033471542 0.0
0.3700962060395646 -0.1749999928538091 0.0
0.3700962038395695 -0.1249999948789427 0.0
-0.1503972725716039 -0.3734788497128874 0.0
-0.1929806399552886 -0.349722297130921 0.0
-0.3218605216587758 -0.3735042611052365 0.0
-0.3656462733144324 -0.3497507368503676 0.0
-0.2784270090724338 -0.3980744073956847 0.0
-0.3622082762078479 -0.3947911857079132 0.0
-0.4093266725028736 0.2749999727657793 0.0
-0.4094781606872062 -0.3725016030391045 0.0
-0.4093266580219565 -0.1250000344098658 0.0
0.07050415163252509 -0.4001194493930191 0.0
0.1131433101298932 -0.4221710146650837 0.0
-0.4102781318410604 -0.07773269933068605 0.0
-0.4003677931808811 0.2274025956983389 0.0
-0.3631345894394706 0.2024025897276064 0.0
-0.1053482349967569 -0.4014264132938991 0.0
-0.196259924222196 -0.4060694151172937 0.0
0.3266049781565746 -0.4013141508717752 0.0
0.3700645576909153 -0.3752190168103857 0.0
0.371855142062014 -0.4255496879747486 0.0
0.4150898315425275 -0.4005053205188204 0.0
0.2818694034276277 -0.4248392910027236 0.0
0.2320776274015917 -0.4530511203939123 0.0
0.15336096786735 -0.3960182596254189 0.0
-0.2361139663189464 0.1249999783546352 0.0
-0.2793912485628079 0.1499999743589189 0.0
0.1536756905784953 -0.3491176584159537 0.0
0.1536261054191597 -0.2998125904897682 0.0
-0.23076937001970058 0.07330269835069142 0.0
-0.1062177705665349 -0.05000001616880104 0.0
-0.06291650075309677 -0.02500001360710502 0.0
0.06698555091723193 -0.2499690626427793 0.0
0.02368398505642286 -0.2249639057354877 0.0
0.0236857035551682 -0.1749939935847172 0.0
-0.3222357974998695 0.2254004101434142 0.0
-0.0629165101257223 0.2749999855832336 0.0
-0.01961524073444712 0.2999999867658456 0.0
-0.06291651152120448 0.3249999854250444 0.0
0.02368603001124647 0.2749999880202242 0.0
0.02368602869520153 0.3249999877966514 0.0
0.06698729928400468 0.2999999890210884 0.0
0.06698729795092229 0.3499999886700041 0.0
0.1102885686246122 0.3249999904491667 0.0
0.1096064194994237 0.3738184753347942 0.0
0.1534761466621024 0.3498030728118924 0.0
0.02281461593226319 0.3734906588559431 0.0
0.06698730058790558 0.2499999893921714 0.0
0.1522950419837298 0.4070738943106009 0.0
0.1968911073871213 0.3749999933222903 0.0
-0.06291650220447667 0.0249999864000712 0.0
0.2401924041878556 -0.249999999776635 0.0
-0.1062177812572354 0.2999999840133174 0.0
-0.1062177825508834 0.3499999839728291 0.0
-0.06218448842474511 0.3737320813204674 0.0
-0.1037779557520895 0.4070278626979164 0.0
-0.1495190536957562 0.3749999828891951 0.0
-0.1495190524050229 0.3249999826284764 0.0
-0.1928203232388033 0.3499999812281329 0.0
-0.191214759202726 0.3995219995324775 0.0
-0.2358539999833749 0.3749203164836915 0.0
-0.2315329355574536 0.424907030963976 0.0
-0.2770127652344944 0.3995919044214221 0.0
-0.3214131436145069 0.3734362000896111 0.0
-0.36156422117928 0.394028843822799 0.0
-0.412842141250542 0.3738855456220256 0.0
-0.3657270229477081 -0.2999584821559425 0.0
-0.4093266503110347 -0.2750000327057662 0.0
-0.4093266522329925 -0.2250000326871486 0.0
0.1968911227540045 -0.07500000246463823 0.0
0.3701025671957398 0.3749889517596813 0.0
0.3264367301793797 0.4012543513459367 0.0
0.2834187736988174 0.3752125173777272 0.0
0.3700961882144365 0.4249999984258827 0.0
0.2815706096997986 0.424967843217109 0.0
0.240192377011847 0.4002674382823586 0.0
0.2336246806617057 0.4519912053112733 0.0
0.240208223707525 -0.2999840521460666 0.0
0.1968911356471641 -0.2750000033126188 0.0
-0.1495190391357165 -0.07500001907066245 0.0
0.4136207792793262 0.3996131972244872 0.0
0.4185613726548791 0.4539404639906658 0.0
-0.1062177671038621 -0.1000000168672195 0.0
0.3700909368197248 -0.3250364976640773 0.0
-0.01961562288199234 -0.1999929927396336 0.0
-0.02005754866359694 -0.2555739156141162 0.0
-0.236121574039517 -0.1750000245388785 0.0
-0.02541118931649567 -0.4569361302602182 0.0
-0.00274581628781146 -0.4181379338259734 0.0
-0.4572049541734321 0.0253336957159741 0.0
-0.4134797823180473 0.00766057816463081 0.0
0.4566987332544917 -0.1249999999340036 0.0
0.2834816554739344 0.3250345761190736 0.0
0.02868590794347903 0.4595282186138672 0.0
-0.01961522825541719 -0.0500000121547499 0.0
0.1102885831753187 -0.07500000726957155 0.0
-0.1495329985655973 -0.2749758234568457 0.0
0.110288578819502 0.02499999233419649 0.0
-0.04999999955070731 -0.4133974594749124 0.0
-0.1265089508716802 -0.4547488614784392 0.0
0.1968911196967487 0.2749999775313308 0.0
0.2401924007042353 -0.1999999995793817 0.0
0.06698662248127504 -0.199987831084883 0.0
-0.1062177764005907 0.1499999844116634 0.0
-0.1062177749531566 0.09999998501729634 0.0
-0.06291650401282901 0.07499998646201958 0.0
0.4566987305663286 -0.02499999990479822 0.0
0.4133974647166815 -0.04999999973063623 0.0
-0.0766856738948195 0.4551087642524275 0.0
0.4566987313649946 0.0750000012656096 0.0
-0.3763928372484824 0.461245527848547 0.0
-0.2227296880978467 -0.4555774872176648 0.0
-0.4564713838465019 0.1246392517052125 0.0
-0.4133974591161603 0.1000000003374132 0.0
-0.3769662295195773 -0.4630729122707906 0.0
0.4566987325030271 -0.2749999999154589 0.0
-0.2767482284494238 -0.4495807363926747 0.0
-0.3677309591090986 -0.05261996150233961 0.0
-0.1495190509155042 0.2749999824788154 0.0
-0.01963847327964705 0.3495371143890711 0.0
-0.02031447924924656 0.3966049771978482 0.0
-0.1249999996068789 0.456698730037026 0.0
-0.2360769939318343 0.3249867021144256 0.0
0.196891117186324 0.1249999897584365 0.0
0.1535959021289852 -0.2499687698502934 0.0
0.4566987347739846 -0.2249999975912721 0.0
-0.365751015338352 -0.2000000312366421 0.0
0.1265976271210252 0.4570186883172146 0.0
-0.2755731618210062 0.4523623185901287 0.0
0.3700962080653279 -0.2249999936730791 0.0
-0.279377123202512 -0.05000002688442384 0.0
0.02368603153599444 0.2249999883117546 0.0
0.2401923783244292 0.3499999952314637 0.0
-0.4146982873077291 0.1491924086056787 0.0
0.1968911199516459 -0.0250000026581097 0.0
0.1127561758447307 0.2300341540663178 0.0
-0.2361215716903455 -0.2250000241203206 0.0
-0.1928226283656377 -0.2499959889466335 0.0
0.3700968044984365 0.2249989371527306 0.0
0.1535898542643316 -0.1000000049231672 0.0
0.06698730274664291 0.1999999893488067 0.0
0.2834937010979887 0.1749999133491423 0.0
-0.2361150502268496 0.1749999782123272 0.0
-0.2361482908602937 -0.3249537364297861 0.0
-0.1928681618523797 -0.2999171191757506 0.0
0.1102885767025873 0.07499999172081318 0.0
0.3267949268880459 3.165198325660867e-09 0.0
0.4566997870310783 0.2749981692046665 0.0
-0.01961523430558373 0.09999998795950768 0.0
0.3267949329851543 -0.09999999616197175 0.0
0.1968721723905527 0.3249671528193706 0.0
0.06240602341586746 0.393737883488939 0.0
0.456698826667283 0.2249998322495149 0.0
-0.3229484993557722 -0.07543668410469981 0.0
0.1102885708131587 0.2749999896679832 0.0
-0.1495217470941839 -0.2249953146387195 0.0
0.1535677370668325 0.2999616949175419 0.0
0.413397463584482 8.681533374133021e-10 0.0
0.1535898517001787 -0.050000005030432 0.0
-0.1928188326944217 0.04999998056078314 0.0
0.4133977733995189 0.1999994580691104 0.0
-0.321897777476863 0.1754671476095471 0.0
-0.2361215638504976 -0.3750000224936452 0.0
0.1535898491671529 -5.322421614550876e-09 0.0
-0.01961523055304613 -1.217400469322172e-08 0.0
0.1103014649501485 -0.2749432902841453 0.0
-0.1495187980396098 0.07499998293002788 0.0
0.1535898469208282 0.04999999382710729 0.0
0.1968911160026613 0.0749999952305296 0.0
0.2401923857617067 0.0999999949561229 0.0
0.2834936623928888 0.1249999835234665 0.0
0.456698730749276 0.1250000027772553 0.0
0.3267949499428751 0.149999952769205 0.0
0.370096367886985 0.1749996940171055 0.0
0.4133974625095264 0.05000000250414216 0.0
0.4133975176466016 0.1499999020222107 0.0
0.3700961963966615 -0.02499999842027512 0.0
0.3700961983078543 -0.0749999985369006 0.0
0.4133974706700292 -0.1000000005608726 0.0
0.4133974690910971 -0.1499999955920507 0.0
0.4133974711074491 -0.1999999962343706 0.0
0.4133974741042643 -0.2499999984152977 0.0
0.4133965946573948 -0.300006079328375 0.0
0.4136732353502314 -0.3501278187098157 0.0
0.4572626906806336 -0.3746968718915607 0.0
0.07394053251001895 -0.4524121274686458 0.0
-0.4574564859326617 -0.3770998141416822 0.0
-0.401375367390021 -0.3244421710778662 0.0
-0.4581097623723187 -0.2749999999993757 0.0
-0.4598583226809201 -0.2250000016805648 0.0
-0.4013786538914946 -0.175000025981366 0.0
-0.4581097664252083 -0.1249999998826912 0.0
-0.4581097682768678 -0.07499999976628358 0.0
-0.367569344997337 -0.00392220239101812 0.0
-0.4214082994423997 0.05159884829559011 0.0
-0.4464706618859399 0.2267501621051163 0.0
-0.362844417342201 0.09999996940429345 0.0
-0.459709424331836 0.2751275608621944 0.0
-0.3664235280350335 0.1495937140321046 0.0
-0.4063970253467649 0.3249419552828631 0.0
-0.4655337151200153 0.3742902643070808 0.0
-0.4056656453593736 -0.4186986571848322 0.0
0.02132214798891753 -0.3779760431570962 0.0
0.4587497700481239 -0.4232305966022079 0.0
-0.4545881771992758 0.4204555662509527 0.0
-0.06455739789743464 -0.3704311942138721 0.0
0.1934736576309205 -0.4196930857910066 0.0
0.1996850128106901 0.4186008533693261 0.0
-0.150115459935114 0.4192743242888195 0.0
-0.4258241639263866 -0.4622603640692291 0.0
-0.3967448014038297 0.4231339164924117 0.0
0.09622912052165722 0.4205568009562829 0.0
0.1249999999989598 -0.4652238365263585 0.0
-0.05754615019710077 0.4166846056640572 0.0
-0.2420572825393491 -0.4168604137453797 0.0
-0.2250000001888517 0.4658420570231365 0.0
-0.1528905003707493 -0.4172358911168235 0.0
0.3735837926933726 -0.4671616624088997 0.0
0.3749999975984201 0.4665063493072145 0.0
-0.317542656021353 0.4160253925933661 0.0
-0.3175426096224448 -0.4160254213773621 0.0
0.01845755799613405 0.4159440154075532 0.0
0.2781418505960097 0.466503815059827 0.0
0.276035056158976 -0.4670564678498784 0.0
-0.4633974593019198 0.4633974595892635 0.0
0.4633974591132459 -0.4633974599148689 0.0
0.4633974594495996 0.4633974597071545 0.0
-0.4637627445166514 -0.4637627442875051 0.0
-0.4183053404152713 -0.03784336194196403 0.0
-0.4061824441141757 0.1877390853880229 0.0
0.03666119209761119 -0.4212861901510465 0.0
-0.02499999969330115 -0.386399273843766 0.0
0.1480396028291151 -0.4344053373562843 0.0
-0.3530783968703253 0.4312515676315223 0.0
-0.3580613057421737 -0.4305516066368316 0.0
0.05343587614903642 0.4306386912111593 0.0
-0.24035558846066343 0.06871135187880363 0.0
-0.2406138091134118 0.06786011246626865 0.0
-0.24309248009941914 0.05836134096397638 0.0
-0.2451963201008076 0.04877258050403215 0.0
-0.24692208514878441 0.039108616260057745 0.0
-0.24793051804396646 0.03181786642249386 0.0
-0.23264055531640968 0.09140232361834455 0.0
-0.23454783398062104 0.08652926426937321 0.0
-0.23776412907378838 0.07725424859373688 0.0
-0.23779266829737253 0.07716016738195404 0.0
0.06698574659593075 -0.24084197180933903 0.0
0.06786011246626847 -0.24061380911341185 0.0
0.07725424859373681 -0.2377641290737884 0.0
0.08652926426937325 -0.23454783398062104 0.0
0.09567085809127229 -0.23096988312782174 0.0
0.10466493438435713 -0.22703579345627029 0.0
0.10669146047217347 -0.22605285775429163 0.0
0.05598153741654394 -0.24361462536725123 0.0
0.05836134096397642 -0.24309248009941914 0.0
-0.020006795682374644 -0.2491907226609372 0.0
-0.019614773931961392 -0.249229333433282 0.0
-0.011661422555402963 -0.2496983671077683 0.0
-0.1977763550192218 0.1528617830141492 0.0
-0.20225424859373684 0.1469463130731183 0.0
-0.2050465496563378 0.14293991912665635 0.0
-0.20504505911200507 -0.14294205775986896 0.0
-0.2022542485937369 -0.14694631307311826 0.0
-0.19777655716568562 -0.15286151597088155 0.0
-0.06291649006992993 -0.24190382997522802 0.0
-0.0583613409639765 -0.2430924800994191 0.0
-0.048772580504031944 -0.24519632010080764 0.0
-0.03910861626005776 -0.24692208514878441 0.0
-0.030520653062473486 -0.24810994439289624 0.0
-0.22120632115120462 -0.11638869640552856 0.0
-0.21812400176819932 -0.12215531037423866 0.0
-0.21316004108852302 -0.13062464117898728 0.0
-0.2078674030756363 -0.13889255825490057 0.0
0.11245239295308969 -0.22325860494589048 0.0
0.22506117917081292 -0.1087360118259438 0.0
0.2270357934562703 -0.10466493438435702 0.0
0.23096988312782163 -0.0956708580912726 0.0
0.23128769026654158 -0.09485886712342406 0.0
-0.06291650926995117 0.24190382496505003 0.0
-0.0678601124662686 0.24061380911341182 0.0
-0.07725424859373684 0.2377641290737884 0.0
-0.08210886287072118 0.23608069557627967 0.0
-0.0293843493644594 -0.24826711423873157 0.0
-0.19282031710389191 0.15904911337690344 0.0
-0.19632923272018626 0.15477348732745846 0.0
-0.1963292327201863 -0.15477348732745844 0.0
-0.19282030432252212 -0.15904912895104803 0.0
-0.23264721503018299 -0.09138530818107715 0.0
-0.2309698831278217 -0.09567085809127242 0.0
-0.22703579345627037 -0.10466493438435694 0.0
-0.22275163104709197 -0.11349762493488667 0.0
-0.24936258264716885 0.017355281967224783 0.0
-0.24980725906018073 0.009814953939767126 0.0
-0.25 3.061616997868383e-17 0.0
-0.24980725906018073 -0.009814953939767066 0.0
-0.24936257968201972 -0.01735533224692629 0.0
0.2377543019393322 -0.07728258766819612 0.0
0.23776412907378838 -0.0772542485937369 0.0
0.24061380911341182 -0.06786011246626857 0.0
0.24309248009941917 -0.0583613409639763 0.0
0.24407588333659644 -0.05387924248186524 0.0
0.14993608484264495 -0.1999910505841977 0.0
0.1547734873274585 -0.19632923272018624 0.0
0.15641118540585758 -0.19498520864146288 0.0
0.23454783398062098 -0.08652926426937335 0.0
0.21139878160595188 -0.13337600020176701 0.0
0.21316004108852296 -0.13062464117898737 0.0
0.21812400176819932 -0.12215531037423864 0.0
0.22275163104709195 -0.11349762493488674 0.0
0.10669010530761601 0.22605351505627946 0.0
0.11245237662797582 0.22325861286413912 0.0
0.16236201208254597 -0.1901014914000077 0.0
0.16970018638323536 -0.18358062735892144 0.0
0.17677669529663684 -0.17677669529663692 0.0
0.18358062735892122 -0.16970018638323559 0.0
0.1849813564071126 -0.1681238931437351 0.0
0.15641117469176705 0.19498521743429048 0.0
0.1547734873274585 0.19632923272018624 0.0
0.14993609286919735 0.1999910445082562 0.0
-0.2377946687618241 -0.07715357273444436 0.0
-0.23776412907378844 -0.07725424859373672 0.0
-0.23454783398062104 -0.08652926426937327 0.0
0.21139878585313016 0.13337599356701968 0.0
0.2078674030756363 0.13889255825490054 0.0
0.20225424859373686 0.14694631307311828 0.0
0.19689112018320912 0.15403121233980088 0.0
-0.009814953939767253 -0.24980725906018073 0.0
-4.592425496802574e-17 -0.25 0.0
0.009814953939767161 -0.24980725906018073 0.0
0.019614773931961302 -0.249229333433282 0.0
0.023679890932938177 -0.24882895435504465 0.0
-0.14951904837269514 0.20030673893148773 0.0
-0.15477348732745844 0.1963292327201863 0.0
-0.1623620120825459 0.19010149140000776 0.0
-0.16760537185817215 0.18544212589377487 0.0
0.11349762493488666 -0.222751631047092 0.0
0.12215531037423874 -0.21812400176819927 0.0
0.1306246411789871 -0.21316004108852313 0.0
0.13889255825490046 -0.20786740307563636 0.0
0.14694631307311823 -0.2022542485937369 0.0
-0.08210881741095585 -0.2360807113403521 0.0
-0.07725424859373689 -0.23776412907378838 0.0
-0.06786011246626855 -0.24061380911341182 0.0
-0.10621776079299405 -0.22628261858958565 0.0
-0.10466493438435721 -0.22703579345627023 0.0
-0.09567085809127238 -0.2309698831278217 0.0
-0.08652926426937334 -0.234547833980621 0.0
0.02938434936445931 -0.24826711423873157 0.0
0.03910861626005767 -0.24692208514878444 0.0
0.048772580504031854 -0.24519632010080766 0.0
-0.03053721958149328 0.24810765296566167 0.0
-0.03910861626005765 0.24692208514878444 0.0
-0.04877258050403205 0.2451963201008076 0.0
-0.058361340963976334 0.24309248009941917 0.0
-0.22120516298011708 0.11639086319123094 0.0
-0.22275163104709195 0.11349762493488671 0.0
-0.22703579345627034 0.10466493438435699 0.0
-0.23096988312782168 0.09567085809127247 0.0
-0.19010149140000784 -0.1623620120825458 0.0
-0.18358062735892136 -0.16970018638323545 0.0
-0.17677669529663692 -0.17677669529663687 0.0
-0.16970018638323542 -0.1835806273589214 0.0
-0.16760533957001603 -0.18544215458574465 0.0
-0.24826711423873157 0.029384349364459387 0.0
-0.249229333433282 0.019614773931961267 0.0
0.19632923272018624 0.1547734873274585 0.0
0.19010149140000773 0.16236201208254591 0.0
0.1849813663245169 0.168123881983306 0.0
-0.02000330165221962 0.2491910667928706 0.0
-0.029384349364459394 0.24826711423873157 0.0
0.10466493438435703 0.2270357934562703 0.0
0.09567085809127246 0.23096988312782168 0.0
0.08652926426937325 0.23454783398062104 0.0
0.07725424859373686 0.23776412907378838 0.0
0.06786011246626858 0.24061380911341182 0.0
0.06698730098331815 0.24084156619742214 0.0
0.1835806273589214 0.16970018638323542 0.0
0.1767766952966369 0.17677669529663687 0.0
0.16970018638323545 0.1835806273589214 0.0
0.16236201208254594 0.1901014914000077 0.0
-0.12982422652464998 0.21362917223514638 0.0
-0.1306246411789872 0.21316004108852307 0.0
-0.13889255825490057 0.20786740307563628 0.0
-0.14694631307311826 0.20225424859373686 0.0
0.2461836123535957 0.0432439269712227 0.0
0.2451963201008076 0.04877258050403206 0.0
0.24407588246877035 0.05387924643719338 0.0
-0.08652926426937317 0.23454783398062107 0.0
-0.09567085809127243 0.23096988312782168 0.0
-0.10466493438435695 0.22703579345627037 0.0
-0.1062177789483913 0.22628260978358594 0.0
-0.1697001863832354 0.18358062735892144 0.0
-0.17677669529663687 0.1767766952966369 0.0
-0.18358062735892142 0.16970018638323542 0.0
-0.19010149140000773 0.16236201208254594 0.0
0.19689112733521397 -0.15403120289172686 0.0
0.20225424859373684 -0.14694631307311834 0.0
0.2078674030756363 -0.13889255825490054 0.0
0.14694631307311828 0.20225424859373686 0.0
0.13889255825490057 0.2078674030756363 0.0
0.13062464117898723 0.21316004108852304 0.0
0.12215531037423874 0.21812400176819927 0.0
0.1134976249348867 0.22275163104709195 0.0
-0.01163280421099032 0.24970005481985366 0.0
-0.01961477393196122 0.249229333433282 0.0
-0.11349762493488667 0.22275163104709197 0.0
-0.12215531037423877 0.21812400176819927 0.0
-0.24922933343328202 -0.019614773931961094 0.0
-0.24826711423873157 -0.029384349364459435 0.0
-0.24792958841310306 -0.03182458745083334 0.0
-0.24692208514878444 -0.03910861626005768 0.0
-0.2451963201008076 -0.04877258050403209 0.0
-0.24309248009941917 -0.05836134096397632 0.0
-0.24061380911341185 -0.06786011246626848 0.0
-0.24035587706917597 -0.06871040046404261 0.0
0.24519632010080758 -0.04877258050403218 0.0
0.24618361205978154 -0.043243928616527524 0.0
0.2498900507599316 0.005598949180158384 0.0
0.24980725906018073 0.009814953939767153 0.0
0.249229333433282 0.019614773931961236 0.0
0.24826711423873157 0.02938434936445941 0.0
0.24692208514878444 0.03910861626005772 0.0
0.19010149140000776 -0.16236201208254586 0.0
0.19632923272018615 -0.15477348732745858 0.0
-0.20786740307563625 0.13889255825490063 0.0
-0.21316004108852304 0.13062464117898723 0.0
-0.21812400176819924 0.12215531037423881 0.0
0.023686030809349525 0.24882834963000044 0.0
0.01961477393196125 0.249229333433282 0.0
0.009814953939767166 0.24980725906018073 0.0
1.5308084989341915e-17 0.25 0.0
-0.009814953939767081 0.24980725906018073 0.0
-0.1495204067533613 -0.20030571066422942 0.0
-0.1469463130731183 -0.20225424859373684 0.0
-0.13889255825490054 -0.2078674030756363 0.0
-0.13062464117898714 -0.2131600410885231 0.0
-0.12982712721452627 -0.2136274721113918 0.0
0.2377542965454466 0.07728260322285532 0.0
0.23454783398062104 0.08652926426937324 0.0
0.2312876904271665 0.0948588667130304 0.0
0.23096988312782168 0.09567085809127245 0.0
0.22703579345627034 0.104664934384357 0.0
0.22506118736432024 0.1087359949333267 0.0
0.24692208514878441 -0.03910861626005778 0.0
0.24826711423873155 -0.029384349364459637 0.0
0.249229333433282 -0.019614773931961187 0.0
0.24980725906018073 -0.009814953939767269 0.0
0.24989005079541174 -0.00559894737340034 0.0
0.25 0.0 0.0
-0.16236201208254603 -0.19010149140000765 0.0
-0.15477348732745858 -0.19632923272018618 0.0
-0.12215531037423882 -0.21812400176819924 0.0
-0.11349762493488673 -0.22275163104709195 0.0
0.05594239970398313 0.24362321245059648 0.0
0.04877258050403208 0.2451963201008076 0.0
0.03910861626005773 0.24692208514878444 0.0
0.029384349364459425 0.24826711423873157 0.0
0.05836134096397637 0.24309248009941914 0.0
0.24309248009941914 0.05836134096397635 0.0
0.24061380911341182 0.06786011246626857 0.0
0.23776412907378838 0.07725424859373685 0.0
0.22275163104709197 0.11349762493488669 0.0
0.2181240017681993 0.12215531037423873 0.0
0.21316004108852304 0.1306246411789872 0.0
-0.24035558846066343 0.06871135187880363 0.0
-0.2406138091134118 0.06786011246626865 0.0
-0.24309248009941914 0.05836134096397638 0.0
-0.2451963201008076 0.04877258050403215 0.0
-0.24692208514878441 0.039108616260057745 0.0
-0.24793051804396646 0.03181786642249386 0.0
-0.23264055531640968 0.09140232361834455 0.0
-0.23454783398062104 0.08652926426937321 0.0
-0.23776412907378838 0.07725424859373688 0.0
-0.23779266829737253 0.07716016738195404 0.0
0.06698574659593075 -0.24084197180933903 0.0
0.06786011246626847 -0.24061380911341185 0.0
0.07725424859373681 -0.2377641290737884 0.0
0.08652926426937325 -0.23454783398062104 0.0
0.09567085809127229 -0.23096988312782174 0.0
0.10466493438435713 -0.22703579345627029 0.0
0.10669146047217347 -0.22605285775429163 0.0
0.05598153741654394 -0.24361462536725123 0.0
0.05836134096397642 -0.24309248009941914 0.0
-0.020006795682374644 -0.2491907226609372 0.0
-0.019614773931961392 -0.249229333433282 0.0
-0.011661422555402963 -0.2496983671077683 0.0
-0.1977763550192218 0.1528617830141492 0.0
-0.20225424859373684 0.1469463130731183 0.0
-0.2050465496563378 0.14293991912665635 0.0
-0.20504505911200507 -0.14294205775986896 0.0
-0.2022542485937369 -0.14694631307311826 0.0
-0.19777655716568562 -0.15286151597088155 0.0
-0.06291649006992993 -0.24190382997522802 0.0
-0.0583613409639765 -0.2430924800994191 0.0
-0.048772580504031944 -0.24519632010080764 0.0
-0.03910861626005776 -0.24692208514878441 0.0
-0.030520653062473486 -0.24810994439289624 0.0
-0.22120632115120462 -0.11638869640552856 0.0
-0.21812400176819932 -0.12215531037423866 0.0
-0.21316004108852302 -0.13062464117898728 0.0
-0.2078674030756363 -0.13889255825490057 0.0
0.11245239295308969 -0.22325860494589048 0.0
0.22506117917081292 -0.1087360118259438 0.0
0.2270357934562703 -0.10466493438435702 0.0
0.23096988312782163 -0.0956708580912726 0.0
0.23128769026654158 -0.09485886712342406 0.0
-0.06291650926995117 0.24190382496505003 0.0
-0.0678601124662686 0.24061380911341182 0.0
-0.07725424859373684 0.2377641290737884 0.0
-0.08210886287072118 0.23608069557627967 0.0
-0.0293843493644594 -0.24826711423873157 0.0
-0.19282031710389191 0.15904911337690344 0.0
-0.19632923272018626 0.15477348732745846 0.0
-0.1963292327201863 -0.15477348732745844 0.0
-0.19282030432252212 -0.15904912895104803 0.0
-0.23264721503018299 -0.09138530818107715 0.0
-0.2309698831278217 -0.09567085809127242 0.0
-0.22703579345627037 -0.10466493438435694 0.0
-0.22275163104709197 -0.11349762493488667 0.0
-0.24936258264716885 0.017355281967224783 0.0
-0.24980725906018073 0.009814953939767126 0.0
-0.25 3.061616997868383e-17 0.0
-0.24980725906018073 -0.009814953939767066 0.0
-0.24936257968201972 -0.01735533224692629 0.0
0.2377543019393322 -0.07728258766819612 0.0
0.23776412907378838 -0.0772542485937369 0.0
0.24061380911341182 -0.06786011246626857 0.0
0.24309248009941917 -0.0583613409639763 0.0
0.24407588333659644 -0.05387924248186524 0.0
0.14993608484264495 -0.1999910505841977 0.0
0.1547734873274585 -0.19632923272018624 0.0
0.15641118540585758 -0.19498520864146288 0.0
0.23454783398062098 -0.08652926426937335 0.0
0.21139878160595188 -0.13337600020176701 0.0
0.21316004108852296 -0.13062464117898737 0.0
0.21812400176819932 -0.12215531037423864 0.0
0.22275163104709195 -0.11349762493488674 0.0
0.10669010530761601 0.22605351505627946 0.0
0.11245237662797582 0.22325861286413912 0.0
0.16236201208254597 -0.1901014914000077 0.0
0.16970018638323536 -0.18358062735892144 0.0
0.17677669529663684 -0.17677669529663692 0.0
0.18358062735892122 -0.16970018638323559 0.0
0.1849813564071126 -0.1681238931437351 0.0
0.15641117469176705 0.19498521743429048 0.0
0.1547734873274585 0.19632923272018624 0.0
0.14993609286919735 0.1999910445082562 0.0
-0.2377946687618241 -0.07715357273444436 0.0
-0.23776412907378844 -0.07725424859373672 0.0
-0.23454783398062104 -0.08652926426937327 0.0
0.21139878585313016 0.13337599356701968 0.0
0.2078674030756363 0.13889255825490054 0.0
0.20225424859373686 0.14694631307311828 0.0
0.19689112018320912 0.15403121233980088 0.0
-0.009814953939767253 -0.24980725906018073 0.0
-4.592425496802574e-17 -0.25 0.0
0.009814953939767161 -0.24980725906018073 0.0
0.019614773931961302 -0.249229333433282 0.0
0.023679890932938177 -0.24882895435504465 0.0
-0.14951904837269514 0.20030673893148773 0.0
-0.15477348732745844 0.1963292327201863 0.0
-0.1623620120825459 0.19010149140000776 0.0
-0.16760537185817215 0.18544212589377487 0.0
0.11349762493488666 -0.222751631047092 0.0
0.12215531037423874 -0.21812400176819927 0.0
0.1306246411789871 -0.21316004108852313 0.0
0.13889255825490046 -0.20786740307563636 0.0
0.14694631307311823 -0.2022542485937369 0.0
-0.08210881741095585 -0.2360807113403521 0.0
-0.07725424859373689 -0.23776412907378838 0.0
-0.06786011246626855 -0.24061380911341182 0.0
-0.10621776079299405 -0.22628261858958565 0.0
-0.10466493438435721 -0.22703579345627023 0.0
-0.09567085809127238 -0.2309698831278217 0.0
-0.08652926426937334 -0.234547833980621 0.0
0.02938434936445931 -0.24826711423873157 0.0
0.03910861626005767 -0.24692208514878444 0.0
0.048772580504031854 -0.24519632010080766 0.0
-0.03053721958149328 0.24810765296566167 0.0
-0.03910861626005765 0.24692208514878444 0.0
-0.04877258050403205 0.2451963201008076 0.0
-0.058361340963976334 0.24309248009941917 0.0
-0.22120516298011708 0.11639086319123094 0.0
-0.22275163104709195 0.11349762493488671 0.0
-0.22703579345627034 0.10466493438435699 0.0
-0.23096988312782168 0.09567085809127247 0.0
-0.19010149140000784 -0.1623620120825458 0.0
-0.18358062735892136 -0.16970018638323545 0.0
-0.17677669529663692 -0.17677669529663687 0.0
-0.16970018638323542 -0.1835806273589214 0.0
-0.16760533957001603 -0.18544215458574465 0.0
-0.24826711423873157 0.029384349364459387 0.0
-0.249229333433282 0.019614773931961267 0.0
0.19632923272018624 0.1547734873274585 0.0
0.19010149140000773 0.16236201208254591 0.0
0.1849813663245169 0.168123881983306 0.0
-0.02000330165221962 0.2491910667928706 0.0
-0.029384349364459394 0.24826711423873157 0.0
0.10466493438435703 0.2270357934562703 0.0
0.09567085809127246 0.23096988312782168 0.0
0.08652926426937325 0.23454783398062104 0.0
0.07725424859373686 0.23776412907378838 0.0
0.06786011246626858 0.24061380911341182 0.0
0.06698730098331815 0.24084156619742214 0.0
0.1835806273589214 0.16970018638323542 0.0
0.1767766952966369 0.17677669529663687 0.0
0.16970018638323545 0.1835806273589214 0.0
0.16236201208254594 0.1901014914000077 0.0
-0.12982422652464998 0.21362917223514638 0.0
-0.1306246411789872 0.21316004108852307 0.0
-0.13889255825490057 0.20786740307563628 0.0
-0.14694631307311826 0.20225424859373686 0.0
0.2461836123535957 0.0432439269712227 0.0
0.2451963201008076 0.04877258050403206 0.0
0.24407588246877035 0.05387924643719338 0.0
-0.08652926426937317 0.23454783398062107 0.0
-0.09567085809127243 0.23096988312782168 0.0
-0.10466493438435695 0.22703579345627037 0.0
-0.1062177789483913 0.22628260978358594 0.0
-0.1697001863832354 0.18358062735892144 0.0
-0.17677669529663687 0.1767766952966369 0.0
-0.18358062735892142 0.16970018638323542 0.0
-0.19010149140000773 0.16236201208254594 0.0
0.19689112733521397 -0.15403120289172686 0.0
0.20225424859373684 -0.14694631307311834 0.0
0.2078674030756363 -0.13889255825490054 0.0
0.14694631307311828 0.20225424859373686 0.0
0.13889255825490057 0.2078674030756363 0.0
0.13062464117898723 0.21316004108852304 0.0
0.12215531037423874 0.21812400176819927 0.0
0.1134976249348867 0.22275163104709195 0.0
-0.01163280421099032 0.24970005481985366 0.0
-0.01961477393196122 0.249229333433282 0.0
-0.11349762493488667 0.22275163104709197 0.0
-0.12215531037423877 0.21812400176819927 0.0
-0.24922933343328202 -0.019614773931961094 0.0
-0.24826711423873157 -0.029384349364459435 0.0
-0.24792958841310306 -0.03182458745083334 0.0
-0.24692208514878444 -0.03910861626005768 0.0
-0.2451963201008076 -0.04877258050403209 0.0
-0.24309248009941917 -0.05836134096397632 0.0
-0.24061380911341185 -0.06786011246626848 0.0
-0.24035587706917597 -0.06871040046404261 0.0
0.24519632010080758 -0.04877258050403218 0.0
0.24618361205978154 -0.043243928616527524 0.0
0.2498900507599316 0.005598949180158384 0.0
0.24980725906018073 0.009814953939767153 0.0
0.249229333433282 0.019614773931961236 0.0
0.24826711423873157 0.02938434936445941 0.0
0.24692208514878444 0.03910861626005772 0.0
0.19010149140000776 -0.16236201208254586 0.0
0.19632923272018615 -0.15477348732745858 0.0
-0.20786740307563625 0.13889255825490063 0.0
-0.21316004108852304 0.13062464117898723 0.0
-0.21812400176819924 0.12215531037423881 0.0
0.023686030809349525 0.24882834963000044 0.0
0.01961477393196125 0.249229333433282 0.0
0.009814953939767166 0.24980725906018073 0.0
1.5308084989341915e-17 0.25 0.0
-0.009814953939767081 0.24980725906018073 0.0
-0.1495204067533613 -0.20030571066422942 0.0
-0.1469463130731183 -0.20225424859373684 0.0
-0.13889255825490054 -0.2078674030756363 0.0
-0.13062464117898714 -0.2131600410885231 0.0
-0.12982712721452627 -0.2136274721113918 0.0
0.2377542965454466 0.07728260322285532 0.0
0.23454783398062104 0.08652926426937324 0.0
0.2312876904271665 0.0948588667130304 0.0
0.23096988312782168 0.09567085809127245 0.0
0.22703579345627034 0.104664934384357 0.0
0.22506118736432024 0.1087359949333267 0.0
0.24692208514878441 -0.03910861626005778 0.0
0.24826711423873155 -0.029384349364459637 0.0
0.249229333433282 -0.019614773931961187 0.0
0.24980725906018073 -0.009814953939767269 0.0
0.24989005079541174 -0.00559894737340034 0.0
0.25 0.0 0.0
-0.16236201208254603 -0.19010149140000765 0.0
-0.15477348732745858 -0.19632923272018618 0.0
-0.12215531037423882 -0.21812400176819924 0.0
-0.11349762493488673 -0.22275163104709195 0.0
0.05594239970398313 0.24362321245059648 0.0
0.04877258050403208 0.2451963201008076 0.0
0.03910861626005773 0.24692208514878444 0.0
0.029384349364459425 0.24826711423873157 0.0
0.05836134096397637 0.24309248009941914 0.0
0.24309248009941914 0.05836134096397635 0.0
0.24061380911341182 0.06786011246626857 0.0
0.23776412907378838 0.07725424859373685 0.0
0.22275163104709197 0.11349762493488669 0.0
0.2181240017681993 0.12215531037423873 0.0
0.21316004108852304 0.1306246411789872 0.0

CELLS 1010 4428
3 88 337 335
3 344 464 343
3 344 465 464
3 284 473 471
3 284 471 290
3 289 467 286
3 289 468 467
3 389 474 409
3 472 474 389
3 17 299 91
3 88 491 337
3 94 462 285
3 285 463 94
3 90 465 344
3 344 466 90
3 389 470 263
3 263 472 389
3 96 473 284
3 284 475 96
3 94 463 343
3 343 464 94
3 90 466 286
3 286 467 90
3 366 469 263
3 263 470 366
3 96 475 341
3 341 476 96
3 85 352 47
3 106 477 462
3 462 477 285
3 86 505 471
3 469 504 393
3 471 505 290
3 366 504 469
3 293 387 84
3 384 397 331
3 341 486 480
3 341 480 476
3 85 403 324
3 101 374 292
3 107 297 296
3 292 375 101
3 293 490 387
3 331 489 384
3 18 299 17
3 11 375 10
3 47 352 46
3 299 482 91
3 43 357 42
3 85 483 352
3 403 487 324
3 296 493 107
3 95 296 294
3 347 349 97
3 396 497 81
3 357 502 42
3 404 495 338
3 282 496 392
3 97 350 347
3 101 375 11
3 10 375 84
3 324 483 85
3 294 298 95
3 287 461 288
3 337 404 338
3 107 479 297
3 397 484 331
3 81 497 369
3 335 484 88
3 374 481 292
3 93 495 404
3 392 496 98
3 84 492 293
3 477 510 283
3 390 510 477
3 392 490 282
3 81 489 396
3 347 350 348
3 246 298 294
3 269 298 246
3 287 506 461
3 350 351 348
3 269 299 298
3 95 493 296
3 349 494 97
3 351 408 348
3 325 408 351
3 102 511 487
3 350 352 351
3 311 437 187
3 258 450 275
3 270 303 300
3 187 437 302
3 262 303 239
3 302 418 187
3 301 418 302
3 300 303 262
3 301 302 225
3 271 354 304
3 275 450 385
3 197 435 198
3 198 435 305
3 354 400 304
3 422 452 261
3 178 441 400
3 303 304 239
3 291 437 311
3 271 304 303
3 307 440 326
3 135 370 138
3 326 381 273
3 273 381 380
3 338 339 214
3 336 338 214
3 213 339 265
3 214 398 336
3 400 441 304
3 336 398 334
3 34 447 385
3 214 339 213
3 310 360 309
3 385 447 275
3 196 307 306
3 326 440 133
3 138 370 196
3 132 370 135
3 308 441 178
3 248 435 197
3 268 429 393
3 334 398 195
3 327 377 177
3 339 340 265
3 128 424 133
3 177 400 354
3 248 442 435
3 333 334 195
3 362 412 152
3 177 354 327
3 133 381 326
3 89 451 447
3 306 358 196
3 142 358 144
3 333 394 328
3 233 342 281
3 273 442 248
3 196 370 307
3 170 355 227
3 227 355 306
3 177 377 176
3 370 440 307
3 185 362 154
3 328 394 163
3 348 408 368
3 104 357 356
3 412 413 152
3 228 362 185
3 144 358 149
3 133 424 381
3 69 365 103
3 346 356 349
3 261 452 433
3 309 378 310
3 141 360 310
3 231 342 233
3 104 108 40
3 196 358 142
3 12 363 101
3 249 326 273
3 372 431 413
3 195 394 333
3 149 151 150
3 149 358 355
3 348 368 224
3 413 431 152
3 393 429 252
3 144 147 143
3 363 374 101
3 332 333 329
3 126 421 124
3 312 328 163
3 356 357 349
3 104 356 108
3 212 361 188
3 355 358 306
3 221 278 220
3 332 334 333
3 103 389 388
3 151 170 155
3 218 425 189
3 103 388 68
3 192 372 221
3 147 153 143
3 186 311 187
3 413 420 372
3 240 377 327
3 345 415 179
3 151 355 170
3 70 365 69
3 346 347 224
3 127 424 128
3 224 368 113
3 175 177 176
3 245 359 243
3 268 289 286
3 327 354 353
3 340 341 265
3 100 367 30
3 184 207 185
3 192 221 220
3 20 95 19
3 67 86 66
3 69 103 68
3 12 101 11
3 142 144 143
3 268 393 289
3 207 208 185
3 135 138 137
3 423 428 37
3 243 359 259
3 138 141 137
3 331 332 329
3 128 129 126
3 109 356 346
3 227 306 249
3 231 233 232
3 68 388 67
3 291 311 266
3 244 353 247
3 105 386 59
3 209 252 199
3 144 148 147
3 238 239 237
3 382 383 100
3 170 171 155
3 127 128 126
3 249 273 248
3 170 227 197
3 306 307 249
3 129 421 126
3 207 429 268
3 235 343 342
3 194 213 206
3 193 376 117
3 190 219 218
3 67 388 86
3 242 353 244
3 244 245 243
3 252 406 199
3 159 379 250
3 190 240 219
3 295 359 245
3 322 396 395
3 143 360 141
3 329 333 328
3 183 194 186
3 206 311 186
3 372 420 221
3 327 353 242
3 335 337 336
3 149 355 151
3 235 344 343
3 128 133 130
3 208 228 185
3 13 363 12
3 141 310 137
3 168 195 183
3 194 206 186
3 233 234 232
3 140 378 173
3 238 262 239
3 228 412 362
3 170 197 171
3 213 264 206
3 287 288 262
3 244 246 245
3 14 83 13
3 17 91 16
3 36 89 35
3 60 105 59
3 41 104 40
3 31 100 30
3 59 386 58
3 111 346 224
3 208 229 228
3 186 187 169
3 88 397 54
3 233 280 234
3 264 266 206
3 213 265 264
3 184 185 154
3 244 247 246
3 246 294 245
3 149 150 148
3 233 281 280
3 242 244 243
3 294 295 245
3 247 269 246
3 281 283 280
3 33 80 32
3 52 81 51
3 281 285 283
3 74 90 73
3 79 106 78
3 22 107 21
3 77 94 76
3 10 84 9
3 9 387 8
3 84 387 9
3 27 391 26
3 64 96 63
3 26 99 25
3 7 98 6
3 26 391 99
3 180 192 188
3 135 136 134
3 156 432 430
3 132 135 134
3 189 191 182
3 81 369 51
3 132 134 131
3 190 377 240
3 279 293 278
3 115 117 116
3 227 248 197
3 219 276 218
3 235 342 231
3 130 132 131
3 345 434 415
3 37 428 36
3 117 376 119
3 237 308 236
3 415 434 371
3 183 186 169
3 142 143 141
3 144 149 148
3 161 379 159
3 115 116 114
3 138 196 142
3 313 395 314
3 137 140 136
3 200 225 210
3 31 382 100
3 258 275 260
3 227 249 248
3 194 214 213
3 236 361 212
3 238 287 262
3 364 374 363
3 128 130 129
3 140 173 172
3 140 172 136
3 83 363 13
3 231 232 230
3 229 235 231
3 271 303 270
3 330 331 329
3 181 190 189
3 197 198 171
3 221 279 278
3 40 108 39
3 259 405 241
3 33 385 80
3 288 300 262
3 240 242 241
3 280 282 234
3 189 425 191
3 153 360 143
3 113 368 115
3 180 372 192
3 192 220 211
3 225 302 226
3 207 268 267
3 335 336 334
3 135 137 136
3 52 384 81
3 307 326 249
3 109 111 110
3 211 222 212
3 83 364 363
3 82 365 70
3 119 120 118
3 137 310 140
3 316 395 313
3 164 168 166
3 130 131 129
3 242 243 241
3 168 394 195
3 211 212 188
3 109 346 111
3 173 174 172
3 6 390 5
3 347 348 224
3 111 224 113
3 131 373 129
3 116 205 114
3 172 371 136
3 276 277 218
3 183 398 194
3 319 321 320
3 207 267 208
3 278 292 220
3 138 142 141
3 176 377 181
3 124 421 202
3 163 394 164
3 314 395 330
3 296 297 295
3 268 286 267
3 310 378 140
3 240 327 242
3 111 113 112
3 36 428 89
3 314 330 329
3 119 121 120
3 194 398 214
3 225 226 210
3 30 367 29
3 346 349 347
3 165 379 161
3 332 335 334
3 304 441 239
3 162 313 312
3 181 189 182
3 113 115 114
3 313 314 312
3 266 311 206
3 379 380 250
3 321 325 324
3 164 394 168
3 264 284 266
3 294 296 295
3 71 82 70
3 53 384 52
3 34 385 33
3 55 88 54
3 58 93 57
3 39 92 38
3 51 369 50
3 48 85 47
3 29 87 28
3 50 369 102
3 50 102 49
3 45 97 44
3 200 210 209
3 134 139 131
3 117 119 118
3 261 450 258
3 277 425 218
3 54 397 53
3 223 238 237
3 232 251 230
3 321 324 320
3 190 218 189
3 258 260 257
3 108 356 109
3 167 272 201
3 337 338 336
3 241 405 219
3 193 426 376
3 267 402 208
3 243 259 241
3 192 211 188
3 408 426 193
3 117 118 116
3 98 390 6
3 27 401 391
3 217 422 204
3 210 263 209
3 108 109 92
3 160 161 159
3 58 386 93
3 380 381 250
3 134 371 139
3 29 367 87
3 229 231 230
3 223 237 236
3 314 329 328
3 395 396 330
3 247 271 270
3 158 160 159
3 168 183 169
3 167 201 165
3 317 319 318
3 115 193 117
3 229 230 228
3 251 420 413
3 158 159 157
3 28 401 27
3 223 236 212
3 191 217 204
3 247 353 271
3 315 316 313
3 222 223 212
3 125 127 126
3 247 270 269
3 216 256 255
3 256 257 255
3 252 429 406
3 111 112 110
3 123 124 122
3 125 126 124
3 195 398 183
3 109 110 92
3 240 241 219
3 113 114 112
3 136 371 134
3 49 403 48
3 322 395 316
3 112 274 110
3 314 328 312
3 87 401 28
3 114 414 112
3 120 146 118
3 82 366 365
3 125 145 127
3 315 317 316
3 159 250 157
3 112 414 274
3 168 169 166
3 253 254 215
3 235 402 344
3 39 108 92
3 123 125 124
3 219 405 276
3 201 379 165
3 317 318 316
3 284 290 266
3 205 414 114
3 200 209 199
3 139 373 131
3 115 368 193
3 204 422 216
3 48 403 85
3 102 403 49
3 80 382 32
3 162 315 313
3 282 438 234
3 119 156 121
3 145 407 158
3 389 409 388
3 318 322 316
3 315 323 317
3 201 380 379
3 119 376 156
3 32 382 31
3 179 415 174
3 256 258 257
3 38 423 37
3 387 392 8
3 7 392 98
3 156 411 121
3 124 202 122
3 181 377 190
3 368 408 193
3 216 422 256
3 290 291 266
3 319 320 318
3 202 399 122
3 325 426 408
3 380 442 273
3 353 354 271
3 145 158 157
3 371 434 139
3 145 157 127
3 175 400 177
3 146 417 118
3 53 397 384
3 234 419 232
3 208 402 229
3 256 261 258
3 388 409 86
3 430 432 319
3 274 428 423
3 118 417 116
3 57 404 56
3 373 421 129
3 323 430 317
3 321 426 325
3 274 423 110
3 411 430 323
3 203 410 345
3 406 429 184
3 229 402 235
3 230 412 228
3 254 410 215
3 419 420 251
3 116 417 205
3 239 441 237
3 174 415 172
3 232 419 251
3 191 425 217
3 156 430 411
3 172 415 371
3 184 429 207
3 178 400 175
3 376 432 156
3 251 413 412
3 251 412 230
3 92 423 38
3 110 423 92
3 426 432 376
3 321 432 426
3 130 440 132
3 180 431 372
3 132 440 370
3 145 416 407
3 215 410 203
3 319 432 321
3 414 436 274
3 123 416 125
3 8 392 7
3 317 430 319
3 256 422 261
3 456 457 401
3 169 418 166
3 201 442 380
3 157 424 127
3 125 416 145
3 382 433 383
3 381 424 250
3 187 418 169
3 318 427 322
3 93 404 57
3 80 433 382
3 305 435 272
3 221 420 279
3 274 436 428
3 279 438 293
3 254 439 410
3 410 434 345
3 250 424 157
3 320 427 318
3 279 420 419
3 428 436 89
3 410 439 434
3 435 442 272
3 405 457 456
3 133 440 130
3 302 437 226
3 202 444 399
3 421 443 202
3 234 438 419
3 139 439 373
3 459 460 99
3 237 441 308
3 434 439 139
3 447 451 275
3 35 447 34
3 419 438 279
3 439 443 373
3 254 443 439
3 272 442 201
3 453 454 383
3 373 443 421
3 297 460 459
3 80 450 433
3 443 444 202
3 433 450 261
3 253 444 254
3 146 446 417
3 217 452 422
3 446 448 417
3 436 451 89
3 254 444 443
3 257 446 255
3 257 448 446
3 414 449 436
3 448 449 205
3 89 447 35
3 217 453 452
3 417 448 205
3 260 448 257
3 260 449 448
3 445 446 146
3 277 455 454
3 255 446 445
3 383 454 100
3 385 450 80
3 425 453 217
3 205 449 414
3 276 455 277
3 275 451 260
3 449 451 436
3 433 452 383
3 87 456 401
3 452 453 383
3 277 454 453
3 260 451 449
3 277 453 425
3 259 457 405
3 259 458 457
3 297 459 295
3 100 454 367
3 359 458 259
3 99 460 25
3 454 455 367
3 367 455 87
3 405 456 276
3 401 457 391
3 457 458 391
3 391 458 99
3 295 459 359
3 455 456 87
3 276 456 455
3 25 460 24
3 458 459 99
3 359 459 458
3 300 508 482
3 487 511 427
3 486 509 386
3 15 461 14
3 343 463 342
3 106 462 78
3 77 462 94
3 281 463 285
3 94 464 76
3 74 465 90
3 286 466 267
3 90 467 73
3 402 466 344
3 291 474 437
3 71 468 82
3 263 469 209
3 103 470 389
3 366 470 365
3 252 469 393
3 86 471 66
3 210 472 263
3 64 473 96
3 341 475 265
3 264 475 284
3 96 476 63
3 393 504 289
3 409 505 86
3 340 509 486
3 238 478 287
3 222 478 223
3 24 479 23
3 297 479 460
3 62 480 61
3 14 461 83
3 342 463 281
3 78 462 77
3 76 464 75
3 464 465 75
3 75 465 74
3 267 466 402
3 73 467 72
3 467 468 72
3 72 468 71
3 209 469 252
3 365 470 103
3 66 471 65
3 226 472 210
3 471 473 65
3 65 473 64
3 226 474 472
3 265 475 264
3 63 476 62
3 437 474 226
3 482 508 91
3 285 477 283
3 387 490 392
3 292 481 220
3 211 481 222
3 15 488 461
3 300 482 270
3 223 478 238
3 384 489 81
3 325 483 324
3 480 486 105
3 460 479 24
3 292 492 375
3 390 485 5
3 97 498 350
3 269 482 299
3 324 487 320
3 461 488 288
3 91 488 16
3 337 491 404
3 291 505 474
3 468 504 82
3 330 489 331
3 438 490 293
3 352 483 351
3 55 491 88
3 404 491 56
3 278 492 292
3 20 493 95
3 107 493 21
3 97 494 44
3 476 480 62
3 339 495 340
3 283 496 280
3 427 497 322
3 102 487 403
3 298 499 95
3 474 505 409
3 289 504 468
3 104 502 357
3 23 501 1
3 61 500 3
3 3 500 60
3 2 502 41
3 42 502 2
3 1 501 22
3 105 486 386
3 331 484 332
3 477 485 390
3 45 498 97
3 106 485 477
3 4 503 0
3 0 503 79
3 95 499 19
3 332 484 335
3 222 507 478
3 220 481 211
3 461 506 83
3 351 483 325
3 270 482 269
3 88 484 397
3 478 506 287
3 478 507 364
3 375 492 84
3 5 485 4
3 43 494 357
3 340 486 341
3 320 487 427
3 364 506 478
3 16 488 15
3 396 489 330
3 282 490 438
3 18 499 299
3 352 498 46
3 56 491 55
3 293 492 278
3 21 493 20
3 44 494 43
3 357 494 349
3 19 499 18
3 338 495 339
3 280 496 282
3 322 497 396
3 46 498 45
3 299 499 298
3 350 498 352
3 481 507 222
3 479 501 23
3 480 500 61
3 427 511 497
3 283 510 496
3 495 509 340
3 106 503 485
3 79 503 106
3 60 500 105
3 41 502 104
3 22 501 107
3 91 508 488
3 82 504 366
3 290 505 291
3 83 506 364
3 364 507 374
3 288 508 300
3 369 511 102
3 386 509 93
3 98 510 390
3 107 501 479
3 105 500 480
3 374 507 481
3 485 503 4
3 488 508 288
3 93 509 495
3 496 510 98
3 497 511 369
