# vtk DataFile Version 3.0
Broken Mesh Solution
ASCII
DATASET UNSTRUCTURED_GRID

POINTS 33 float
0.0 0.0 0.0
-0.5 -0.249999999999307 0.0
-0.5 1.375122238300719e-12 0.0
-0.5 0.2500000000006933 0.0
-0.249999999999307 0.5 0.0
1.375122238300719e-12 0.5 0.0
0.2500000000006933 0.5 0.0
0.5 0.249999999999307 0.0
0.5 -1.375122238300719e-12 0.0
0.5 -0.2500000000006933 0.0
0.249999999999307 -0.5 0.0
-1.375122238300719e-12 -0.5 0.0
-0.2500000000006933 -0.5 0.0
-0.5 0.5 0.0
0.5 0.5 0.0
0.5 -0.5 0.0
-0.5 -0.5 0.0
-0.2500000000003467 -0.2499999999996536 0.0
-0.2500000000000002 6.875333635747438e-13 0.0
-0.2499999999996536 0.2500000000003468 0.0
-6.875333635747438e-13 -0.2500000000000002 0.0
6.874500968478969e-13 0.2500000000000002 0.0
0.2499999999996536 -0.2500000000003467 0.0
0.2500000000000002 -6.875472413625516e-13 0.0
0.2500000000003466 0.2499999999996536 0.0
-0.2500000000003467 -0.2499999999996536 0.0
-0.2500000000000002 6.875333635747438e-13 0.0
-0.2499999999996536 0.2500000000003468 0.0
-6.875333635747438e-13 -0.2500000000000002 0.0
6.874500968478969e-13 0.2500000000000002 0.0
0.2499999999996536 -0.2500000000003467 0.0
0.2500000000000002 -6.875472413625516e-13 0.0
0.2500000000003466 0.2499999999996536 0.0

CELLS 16 80
4 16 12 17 1
4 9 25 18 2
4 10 26 19 3
4 3 19 4 13
4 20 19 20 17
4 17 20 0 18
4 18 0 21 19
4 27 29 5 4
4 19 18 22 20
4 20 22 23 0
4 0 23 24 21
4 29 32 6 5
4 10 15 9 22
4 30 17 8 23
4 31 16 7 24
4 24 7 14 6

CELL_TYPES 16
9
9
9
9
9
9
9
9
9
9
9
9
9
9
9
9

POINT_DATA 33
SCALARS U float
LOOKUP_TABLE default
2235081744.6132526
-0.5000037199831798
-0.5000037199831798
-0.5000037199831798
-0.24998887772378847
1.374994101218868e-12
0.2499726549628557
0.5000037199831798
0.5000037199831798
0.5000037199831798
0.24998887772378847
-1.374994101218868e-12
-0.2499726549628557
-0.5000037199831798
0.5000037199831798
0.5000037199831798
-0.5000037199831798
-745021883.6291498
745021878.8406863
-745021884.6895877
745021879.6400878
745021875.0839155
-745021884.1130868
745021875.6969134
-745021883.803554
2.6024403759469648
2980103630.0595565
-0.6619323610159777
2980103631.9007754
2980103626.609096
1.152673646902192
2980103626.959091
-2.310276030778725
