$MeshFormat
2.2 0 8
$EndMeshFormat
$Nodes
144
1 -0.5 -0.5 0
2 0.5 -0.5 0
3 0.5 0.5 0
4 -0.5 0.5 0
5 -0.4090909090909091 -0.5 0
6 -0.3181818181818182 -0.5 0
7 -0.2272727272727273 -0.5 0
8 -0.1363636363636364 -0.5 0
9 -0.04545454545454547 -0.5 0
10 0.04545454545454541 -0.5 0
11 0.1363636363636364 -0.5 0
12 0.2272727272727273 -0.5 0
13 0.3181818181818182 -0.5 0
14 0.4090909090909091 -0.5 0
15 0.5 -0.4090909090909091 0
16 0.5 -0.3181818181818182 0
17 0.5 -0.2272727272727273 0
18 0.5 -0.1363636363636364 0
19 0.5 -0.04545454545454547 0
20 0.5 0.04545454545454541 0
21 0.5 0.1363636363636364 0
22 0.5 0.2272727272727273 0
23 0.5 0.3181818181818182 0
24 0.5 0.4090909090909091 0
25 0.4090909090909091 0.5 0
26 0.3181818181818182 0.5 0
27 0.2272727272727273 0.5 0
28 0.1363636363636364 0.5 0
29 0.04545454545454547 0.5 0
30 -0.04545454545454541 0.5 0
31 -0.1363636363636364 0.5 0
32 -0.2272727272727273 0.5 0
33 -0.3181818181818182 0.5 0
34 -0.4090909090909091 0.5 0
35 -0.5 0.4090909090909091 0
36 -0.5 0.3181818181818182 0
37 -0.5 0.2272727272727273 0
38 -0.5 0.1363636363636364 0
39 -0.5 0.04545454545454547 0
40 -0.5 -0.04545454545454541 0
41 -0.5 -0.1363636363636364 0
42 -0.5 -0.2272727272727273 0
43 -0.5 -0.3181818181818182 0
44 -0.5 -0.4090909090909091 0
45 -0.4090909090909091 -0.4090909090909091 0
46 -0.4090909090909091 -0.3181818181818182 0
47 -0.4090909090909091 -0.2272727272727273 0
48 -0.4090909090909091 -0.1363636363636364 0
49 -0.4090909090909091 -0.04545454545454539 0
50 -0.4090909090909091 0.04545454545454547 0
51 -0.4090909090909091 0.1363636363636364 0
52 -0.4090909090909091 0.2272727272727273 0
53 -0.4090909090909091 0.3181818181818182 0
54 -0.4090909090909091 0.4090909090909091 0
55 -0.3181818181818181 -0.4090909090909091 0
56 -0.3181818181818181 -0.3181818181818182 0
57 -0.3181818181818182 -0.2272727272727273 0
58 -0.3181818181818182 -0.1363636363636364 0
59 -0.3181818181818181 -0.04545454545454541 0
60 -0.3181818181818182 0.04545454545454544 0
61 -0.3181818181818182 0.1363636363636364 0
62 -0.3181818181818182 0.2272727272727273 0
63 -0.3181818181818182 0.3181818181818182 0
64 -0.3181818181818182 0.4090909090909091 0
65 -0.2272727272727272 -0.4090909090909091 0
66 -0.2272727272727273 -0.3181818181818182 0
67 -0.2272727272727273 -0.2272727272727273 0
68 -0.2272727272727273 -0.1363636363636364 0
69 -0.2272727272727273 -0.04545454545454541 0
70 -0.2272727272727273 0.0454545454545455 0
71 -0.2272727272727273 0.1363636363636364 0
72 -0.2272727272727273 0.2272727272727273 0
73 -0.2272727272727273 0.3181818181818182 0
74 -0.2272727272727273 0.4090909090909091 0
75 -0.1363636363636364 -0.4090909090909091 0
76 -0.1363636363636364 -0.3181818181818182 0
77 -0.1363636363636364 -0.2272727272727273 0
78 -0.1363636363636364 -0.1363636363636364 0
79 -0.1363636363636364 -0.04545454545454541 0
80 -0.1363636363636364 0.04545454545454544 0
81 -0.1363636363636364 0.1363636363636364 0
82 -0.1363636363636364 0.2272727272727273 0
83 -0.1363636363636364 0.3181818181818182 0
84 -0.1363636363636364 0.4090909090909091 0
85 -0.04545454545454546 -0.4090909090909091 0
86 -0.04545454545454548 -0.3181818181818182 0
87 -0.04545454545454548 -0.2272727272727273 0
88 -0.04545454545454547 -0.1363636363636364 0
89 -0.04545454545454544 -0.0454545454545454 0
90 -0.04545454545454544 0.04545454545454546 0
91 -0.04545454545454547 0.1363636363636364 0
92 -0.04545454545454546 0.2272727272727273 0
93 -0.04545454545454541 0.3181818181818182 0
94 -0.04545454545454541 0.4090909090909091 0
95 0.04545454545454541 -0.4090909090909091 0
96 0.04545454545454539 -0.3181818181818182 0
97 0.04545454545454546 -0.2272727272727273 0
98 0.04545454545454546 -0.1363636363636364 0
99 0.04545454545454546 -0.0454545454545454 0
100 0.04545454545454544 0.04545454545454544 0
101 0.04545454545454547 0.1363636363636364 0
102 0.04545454545454548 0.2272727272727273 0
103 0.04545454545454543 0.3181818181818182 0
104 0.04545454545454544 0.4090909090909091 0
105 0.1363636363636364 -0.4090909090909091 0
106 0.1363636363636364 -0.3181818181818182 0
107 0.1363636363636364 -0.2272727272727273 0
108 0.1363636363636364 -0.1363636363636364 0
109 0.1363636363636364 -0.04545454545454547 0
110 0.1363636363636364 0.04545454545454546 0
111 0.1363636363636364 0.1363636363636364 0
112 0.1363636363636364 0.2272727272727273 0
113 0.1363636363636364 0.3181818181818182 0
114 0.1363636363636364 0.4090909090909091 0
115 0.2272727272727272 -0.4090909090909091 0
116 0.2272727272727273 -0.3181818181818182 0
117 0.2272727272727273 -0.2272727272727273 0
118 0.2272727272727273 -0.1363636363636364 0
119 0.2272727272727273 -0.04545454545454548 0
120 0.2272727272727273 0.04545454545454543 0
121 0.2272727272727273 0.1363636363636364 0
122 0.2272727272727273 0.2272727272727273 0
123 0.2272727272727273 0.3181818181818182 0
124 0.2272727272727273 0.4090909090909091 0
125 0.3181818181818182 -0.4090909090909089 0
126 0.3181818181818183 -0.3181818181818182 0
127 0.3181818181818182 -0.2272727272727273 0
128 0.3181818181818182 -0.1363636363636364 0
129 0.3181818181818181 -0.04545454545454548 0
130 0.3181818181818183 0.04545454545454541 0
131 0.3181818181818182 0.1363636363636364 0
132 0.3181818181818182 0.2272727272727273 0
133 0.3181818181818182 0.3181818181818182 0
134 0.3181818181818182 0.4090909090909091 0
135 0.4090909090909091 -0.4090909090909091 0
136 0.4090909090909091 -0.3181818181818182 0
137 0.4090909090909091 -0.2272727272727273 0
138 0.4090909090909091 -0.1363636363636364 0
139 0.4090909090909091 -0.04545454545454546 0
140 0.4090909090909091 0.04545454545454541 0
141 0.4090909090909091 0.1363636363636364 0
142 0.4090909090909091 0.2272727272727273 0
143 0.4090909090909091 0.3181818181818182 0
144 0.4090909090909091 0.4090909090909091 0
$EndNodes
$Elements
290
1 15 2 0 1 1
2 15 2 0 2 2
3 15 2 0 3 3
4 15 2 0 4 4
5 1 2 0 1 1 5
6 1 2 0 1 5 6
7 1 2 0 1 6 7
8 1 2 0 1 7 8
9 1 2 0 1 8 9
10 1 2 0 1 9 10
11 1 2 0 1 10 11
12 1 2 0 1 11 12
13 1 2 0 1 12 13
14 1 2 0 1 13 14
15 1 2 0 1 14 2
16 1 2 0 2 2 15
17 1 2 0 2 15 16
18 1 2 0 2 16 17
19 1 2 0 2 17 18
20 1 2 0 2 18 19
21 1 2 0 2 19 20
22 1 2 0 2 20 21
23 1 2 0 2 21 22
24 1 2 0 2 22 23
25 1 2 0 2 23 24
26 1 2 0 2 24 3
27 1 2 0 3 3 25
28 1 2 0 3 25 26
29 1 2 0 3 26 27
30 1 2 0 3 27 28
31 1 2 0 3 28 29
32 1 2 0 3 29 30
33 1 2 0 3 30 31
34 1 2 0 3 31 32
35 1 2 0 3 32 33
36 1 2 0 3 33 34
37 1 2 0 3 34 4
38 1 2 0 4 4 35
39 1 2 0 4 35 36
40 1 2 0 4 36 37
41 1 2 0 4 37 38
42 1 2 0 4 38 39
43 1 2 0 4 39 40
44 1 2 0 4 40 41
45 1 2 0 4 41 42
46 1 2 0 4 42 43
47 1 2 0 4 43 44
48 1 2 0 4 44 1
49 2 2 0 1 1 5 44
50 2 2 0 1 44 5 45
51 2 2 0 1 44 45 43
52 2 2 0 1 43 45 46
53 2 2 0 1 43 46 42
54 2 2 0 1 42 46 47
55 2 2 0 1 42 47 41
56 2 2 0 1 41 47 48
57 2 2 0 1 41 48 40
58 2 2 0 1 40 48 49
59 2 2 0 1 40 49 39
60 2 2 0 1 39 49 50
61 2 2 0 1 39 50 38
62 2 2 0 1 38 50 51
63 2 2 0 1 38 51 37
64 2 2 0 1 37 51 52
65 2 2 0 1 37 52 36
66 2 2 0 1 36 52 53
67 2 2 0 1 36 53 35
68 2 2 0 1 35 53 54
69 2 2 0 1 35 54 4
70 2 2 0 1 4 54 34
71 2 2 0 1 5 6 45
72 2 2 0 1 45 6 55
73 2 2 0 1 45 55 46
74 2 2 0 1 46 55 56
75 2 2 0 1 46 56 47
76 2 2 0 1 47 56 57
77 2 2 0 1 47 57 48
78 2 2 0 1 48 57 58
79 2 2 0 1 48 58 49
80 2 2 0 1 49 58 59
81 2 2 0 1 49 59 50
82 2 2 0 1 50 59 60
83 2 2 0 1 50 60 51
84 2 2 0 1 51 60 61
85 2 2 0 1 51 61 52
86 2 2 0 1 52 61 62
87 2 2 0 1 52 62 53
88 2 2 0 1 53 62 63
89 2 2 0 1 53 63 54
90 2 2 0 1 54 63 64
91 2 2 0 1 54 64 34
92 2 2 0 1 34 64 33
93 2 2 0 1 6 7 55
94 2 2 0 1 55 7 65
95 2 2 0 1 55 65 56
96 2 2 0 1 56 65 66
97 2 2 0 1 56 66 57
98 2 2 0 1 57 66 67
99 2 2 0 1 57 67 58
100 2 2 0 1 58 67 68
101 2 2 0 1 58 68 59
102 2 2 0 1 59 68 69
103 2 2 0 1 59 69 60
104 2 2 0 1 60 69 70
105 2 2 0 1 60 70 61
106 2 2 0 1 61 70 71
107 2 2 0 1 61 71 62
108 2 2 0 1 62 71 72
109 2 2 0 1 62 72 63
110 2 2 0 1 63 72 73
111 2 2 0 1 63 73 64
112 2 2 0 1 64 73 74
113 2 2 0 1 64 74 33
114 2 2 0 1 33 74 32
115 2 2 0 1 7 8 65
116 2 2 0 1 65 8 75
117 2 2 0 1 65 75 66
118 2 2 0 1 66 75 76
119 2 2 0 1 66 76 67
120 2 2 0 1 67 76 77
121 2 2 0 1 67 77 68
122 2 2 0 1 68 77 78
123 2 2 0 1 68 78 69
124 2 2 0 1 69 78 79
125 2 2 0 1 69 79 70
126 2 2 0 1 70 79 80
127 2 2 0 1 70 80 71
128 2 2 0 1 71 80 81
129 2 2 0 1 71 81 72
130 2 2 0 1 72 81 82
131 2 2 0 1 72 82 73
132 2 2 0 1 73 82 83
133 2 2 0 1 73 83 74
134 2 2 0 1 74 83 84
135 2 2 0 1 74 84 32
136 2 2 0 1 32 84 31
137 2 2 0 1 8 9 75
138 2 2 0 1 75 9 85
139 2 2 0 1 75 85 76
140 2 2 0 1 76 85 86
141 2 2 0 1 76 86 77
142 2 2 0 1 77 86 87
143 2 2 0 1 77 87 78
144 2 2 0 1 78 87 88
145 2 2 0 1 78 88 79
146 2 2 0 1 79 88 89
147 2 2 0 1 79 89 80
148 2 2 0 1 80 89 90
149 2 2 0 1 80 90 81
150 2 2 0 1 81 90 91
151 2 2 0 1 81 91 82
152 2 2 0 1 82 91 92
153 2 2 0 1 82 92 83
154 2 2 0 1 83 92 93
155 2 2 0 1 83 93 84
156 2 2 0 1 84 93 94
157 2 2 0 1 84 94 31
158 2 2 0 1 31 94 30
159 2 2 0 1 9 10 85
160 2 2 0 1 85 10 95
161 2 2 0 1 85 95 86
162 2 2 0 1 86 95 96
163 2 2 0 1 86 96 87
164 2 2 0 1 87 96 97
165 2 2 0 1 87 97 88
166 2 2 0 1 88 97 98
167 2 2 0 1 88 98 89
168 2 2 0 1 89 98 99
169 2 2 0 1 89 99 90
170 2 2 0 1 90 99 100
171 2 2 0 1 90 100 91
172 2 2 0 1 91 100 101
173 2 2 0 1 91 101 92
174 2 2 0 1 92 101 102
175 2 2 0 1 92 102 93
176 2 2 0 1 93 102 103
177 2 2 0 1 93 103 94
178 2 2 0 1 94 103 104
179 2 2 0 1 94 104 30
180 2 2 0 1 30 104 29
181 2 2 0 1 10 11 95
182 2 2 0 1 95 11 105
183 2 2 0 1 95 105 96
184 2 2 0 1 96 105 106
185 2 2 0 1 96 106 97
186 2 2 0 1 97 106 107
187 2 2 0 1 97 107 98
188 2 2 0 1 98 107 108
189 2 2 0 1 98 108 99
190 2 2 0 1 99 108 109
191 2 2 0 1 99 109 100
192 2 2 0 1 100 109 110
193 2 2 0 1 100 110 101
194 2 2 0 1 101 110 111
195 2 2 0 1 101 111 102
196 2 2 0 1 102 111 112
197 2 2 0 1 102 112 103
198 2 2 0 1 103 112 113
199 2 2 0 1 103 113 104
200 2 2 0 1 104 113 114
201 2 2 0 1 104 114 29
202 2 2 0 1 29 114 28
203 2 2 0 1 11 12 105
204 2 2 0 1 105 12 115
205 2 2 0 1 105 115 106
206 2 2 0 1 106 115 116
207 2 2 0 1 106 116 107
208 2 2 0 1 107 116 117
209 2 2 0 1 107 117 108
210 2 2 0 1 108 117 118
211 2 2 0 1 108 118 109
212 2 2 0 1 109 118 119
213 2 2 0 1 109 119 110
214 2 2 0 1 110 119 120
215 2 2 0 1 110 120 111
216 2 2 0 1 111 120 121
217 2 2 0 1 111 121 112
218 2 2 0 1 112 121 122
219 2 2 0 1 112 122 113
220 2 2 0 1 113 122 123
221 2 2 0 1 113 123 114
222 2 2 0 1 114 123 124
223 2 2 0 1 114 124 28
224 2 2 0 1 28 124 27
225 2 2 0 1 12 13 115
226 2 2 0 1 115 13 125
227 2 2 0 1 115 125 116
228 2 2 0 1 116 125 126
229 2 2 0 1 116 126 117
230 2 2 0 1 117 126 127
231 2 2 0 1 117 127 118
232 2 2 0 1 118 127 128
233 2 2 0 1 118 128 119
234 2 2 0 1 119 128 129
235 2 2 0 1 119 129 120
236 2 2 0 1 120 129 130
237 2 2 0 1 120 130 121
238 2 2 0 1 121 130 131
239 2 2 0 1 121 131 122
240 2 2 0 1 122 131 132
241 2 2 0 1 122 132 123
242 2 2 0 1 123 132 133
243 2 2 0 1 123 133 124
244 2 2 0 1 124 133 134
245 2 2 0 1 124 134 27
246 2 2 0 1 27 134 26
247 2 2 0 1 13 14 125
248 2 2 0 1 125 14 135
249 2 2 0 1 125 135 126
250 2 2 0 1 126 135 136
251 2 2 0 1 126 136 127
252 2 2 0 1 127 136 137
253 2 2 0 1 127 137 128
254 2 2 0 1 128 137 138
255 2 2 0 1 128 138 129
256 2 2 0 1 129 138 139
257 2 2 0 1 129 139 130
258 2 2 0 1 130 139 140
259 2 2 0 1 130 140 131
260 2 2 0 1 131 140 141
261 2 2 0 1 131 141 132
262 2 2 0 1 132 141 142
263 2 2 0 1 132 142 133
264 2 2 0 1 133 142 143
265 2 2 0 1 133 143 134
266 2 2 0 1 134 143 144
267 2 2 0 1 134 144 26
268 2 2 0 1 26 144 25
269 2 2 0 1 14 2 135
270 2 2 0 1 135 2 15
271 2 2 0 1 135 15 136
272 2 2 0 1 136 15 16
273 2 2 0 1 136 16 137
274 2 2 0 1 137 16 17
275 2 2 0 1 137 17 138
276 2 2 0 1 138 17 18
277 2 2 0 1 138 18 139
278 2 2 0 1 139 18 19
279 2 2 0 1 139 19 140
280 2 2 0 1 140 19 20
281 2 2 0 1 140 20 141
282 2 2 0 1 141 20 21
283 2 2 0 1 141 21 142
284 2 2 0 1 142 21 22
285 2 2 0 1 142 22 143
286 2 2 0 1 143 22 23
287 2 2 0 1 143 23 144
288 2 2 0 1 144 23 24
289 2 2 0 1 144 24 25
290 2 2 0 1 25 24 3
$EndElements
