# vtk DataFile Version 3.0
Broken Mesh Solution
ASCII
DATASET UNSTRUCTURED_GRID

POINTS 1153 float
0.4687500000000812 0.4687499999999188 0.0
0.4687500000000756 0.4374999999998376 0.0
0.4687500000000703 0.4062499999997563 0.0
0.468750000000065 0.374999999999675 0.0
0.4687500000000594 0.3437499999995939 0.0
0.468750000000054 0.3124999999995126 0.0
0.4687500000000486 0.2812499999994316 0.0
0.4687500000000431 0.2499999999993503 0.0
0.4687500000000379 0.2187499999992693 0.0
0.4687500000000323 0.187499999999188 0.0
0.4687500000000269 0.1562499999991067 0.0
0.4687500000000215 0.1249999999990255 0.0
0.4687500000000162 0.09374999999894428 0.0
0.4687500000000107 0.062499999998863 0.0
0.4687500000000054 0.03124999999878197 0.0
0.4687500000000002 -1.289197915088636e-12 0.0
0.4687499999999947 -0.03125000000121814 0.0
0.4687499999999891 -0.06250000000113708 0.0
0.4687499999999838 -0.09375000000105599 0.0
0.4687499999999782 -0.1250000000009747 0.0
0.4687499999999729 -0.1562500000008934 0.0
0.4687499999999675 -0.1875000000008124 0.0
0.4687499999999621 -0.2187500000007312 0.0
0.4687499999999568 -0.25000000000065 0.0
0.4687499999999514 -0.2812500000005688 0.0
0.4687499999999459 -0.3125000000004874 0.0
0.4687499999999403 -0.3437500000004062 0.0
0.4687499999999349 -0.3750000000003249 0.0
0.4687499999999297 -0.4062500000002437 0.0
0.4687499999999241 -0.4375000000001625 0.0
0.4687499999999187 -0.4687500000000813 0.0
0.4375000000001624 0.4687499999999242 0.0
0.4375000000001515 0.4374999999998482 0.0
0.4375000000001409 0.4062499999997727 0.0
0.4375000000001301 0.3749999999996968 0.0
0.4375000000001191 0.343749999999621 0.0
0.4375000000001085 0.312499999999545 0.0
0.4375000000000974 0.2812499999994695 0.0
0.4375000000000868 0.2499999999993936 0.0
0.4375000000000761 0.2187499999993179 0.0
0.4375000000000651 0.1874999999992422 0.0
0.4375000000000543 0.1562499999991662 0.0
0.4375000000000433 0.1249999999990904 0.0
0.4375000000000325 0.09374999999901465 0.0
0.4375000000000216 0.06249999999893899 0.0
0.4375000000000109 0.03124999999886303 0.0
0.4374999999999999 -1.203266652982649e-12 0.0
0.437499999999989 -0.03125000000113697 0.0
0.4374999999999784 -0.06250000000106115 0.0
0.4374999999999676 -0.09375000000098548 0.0
0.4374999999999567 -0.1250000000009096 0.0
0.4374999999999458 -0.1562500000008339 0.0
0.4374999999999351 -0.1875000000007582 0.0
0.4374999999999243 -0.2187500000006824 0.0
0.4374999999999136 -0.2500000000006066 0.0
0.4374999999999024 -0.2812500000005308 0.0
0.4374999999998916 -0.3125000000004551 0.0
0.4374999999998807 -0.3437500000003791 0.0
0.43749999999987 -0.3750000000003034 0.0
0.4374999999998593 -0.4062500000002274 0.0
0.4374999999998485 -0.4375000000001517 0.0
0.4374999999998377 -0.4687500000000757 0.0
0.4062500000002437 0.4687499999999295 0.0
0.4062500000002274 0.4374999999998593 0.0
0.4062500000002111 0.4062499999997887 0.0
0.4062500000001949 0.3749999999997186 0.0
0.4062500000001785 0.3437499999996481 0.0
0.4062500000001626 0.3124999999995777 0.0
0.4062500000001462 0.2812499999995073 0.0
0.4062500000001299 0.2499999999994369 0.0
0.4062500000001137 0.2187499999993665 0.0
0.4062500000000974 0.1874999999992963 0.0
0.4062500000000815 0.1562499999992258 0.0
0.4062500000000648 0.1249999999991555 0.0
0.4062500000000487 0.09374999999908508 0.0
0.4062500000000325 0.06249999999901466 0.0
0.4062500000000163 0.03124999999894429 0.0
0.4062500000000001 -1.117328451982758e-12 0.0
0.4062499999999836 -0.03125000000105581 0.0
0.4062499999999675 -0.06250000000098543 0.0
0.4062499999999514 -0.09375000000091512 0.0
0.4062499999999351 -0.1250000000008448 0.0
0.4062499999999189 -0.1562500000007744 0.0
0.4062499999999027 -0.1875000000007041 0.0
0.4062499999998864 -0.2187500000006339 0.0
0.4062499999998702 -0.2500000000005634 0.0
0.4062499999998538 -0.2812500000004929 0.0
0.4062499999998374 -0.3125000000004225 0.0
0.4062499999998211 -0.3437500000003521 0.0
0.4062499999998052 -0.3750000000002816 0.0
0.4062499999997889 -0.4062500000002112 0.0
0.4062499999997727 -0.4375000000001408 0.0
0.4062499999997563 -0.4687500000000704 0.0
0.375000000000325 0.4687499999999348 0.0
0.3750000000003034 0.43749999999987 0.0
0.3750000000002817 0.4062499999998052 0.0
0.3750000000002599 0.3749999999997401 0.0
0.3750000000002385 0.3437499999996751 0.0
0.3750000000002167 0.3124999999996101 0.0
0.3750000000001952 0.281249999999545 0.0
0.3750000000001733 0.2499999999994802 0.0
0.3750000000001517 0.2187499999994154 0.0
0.3750000000001298 0.1874999999993505 0.0
0.3750000000001084 0.1562499999992855 0.0
0.3750000000000867 0.1249999999992205 0.0
0.3750000000000649 0.09374999999915547 0.0
0.3750000000000434 0.06249999999909039 0.0
0.3750000000000216 0.03124999999902557 0.0
0.3750000000000001 -1.031279228680404e-12 0.0
0.3749999999999784 -0.03125000000097456 0.0
0.3749999999999568 -0.0625000000009096 0.0
0.3749999999999352 -0.09375000000084473 0.0
0.3749999999999136 -0.1250000000007797 0.0
0.3749999999998919 -0.1562500000007149 0.0
0.3749999999998701 -0.1875000000006499 0.0
0.3749999999998487 -0.218750000000585 0.0
0.3749999999998268 -0.25000000000052 0.0
0.374999999999805 -0.2812500000004551 0.0
0.3749999999997834 -0.3125000000003899 0.0
0.3749999999997616 -0.343750000000325 0.0
0.37499999999974 -0.37500000000026 0.0
0.3749999999997186 -0.406250000000195 0.0
0.374999999999697 -0.4375000000001299 0.0
0.3749999999996751 -0.468750000000065 0.0
0.3437500000004061 0.4687499999999404 0.0
0.343750000000379 0.4374999999998809 0.0
0.343750000000352 0.4062499999998213 0.0
0.3437500000003251 0.3749999999997617 0.0
0.3437500000002978 0.3437499999997022 0.0
0.3437500000002707 0.3124999999996427 0.0
0.3437500000002435 0.2812499999995832 0.0
0.3437500000002169 0.2499999999995237 0.0
0.3437500000001896 0.2187499999994642 0.0
0.3437500000001625 0.1874999999994044 0.0
0.3437500000001354 0.156249999999345 0.0
0.3437500000001086 0.1249999999992853 0.0
0.3437500000000815 0.09374999999922587 0.0
0.3437500000000544 0.06249999999916633 0.0
0.3437500000000273 0.03124999999910684 0.0
0.3437500000000002 -9.453549054683208e-13 0.0
0.3437499999999729 -0.0312500000008934 0.0
0.3437499999999458 -0.06250000000083378 0.0
0.3437499999999187 -0.09375000000077433 0.0
0.3437499999998916 -0.1250000000007147 0.0
0.3437499999998646 -0.1562500000006551 0.0
0.3437499999998375 -0.1875000000005958 0.0
0.3437499999998104 -0.2187500000005362 0.0
0.3437499999997833 -0.2500000000004767 0.0
0.3437499999997565 -0.2812500000004171 0.0
0.3437499999997292 -0.3125000000003575 0.0
0.3437499999997022 -0.343750000000298 0.0
0.3437499999996752 -0.3750000000002383 0.0
0.3437499999996478 -0.4062500000001788 0.0
0.3437499999996207 -0.4375000000001192 0.0
0.3437499999995937 -0.4687500000000595 0.0
0.3125000000004874 0.4687499999999459 0.0
0.3125000000004549 0.4374999999998918 0.0
0.3125000000004226 0.4062499999998376 0.0
0.3125000000003902 0.3749999999997835 0.0
0.3125000000003577 0.3437499999997293 0.0
0.3125000000003251 0.3124999999996751 0.0
0.3125000000002924 0.281249999999621 0.0
0.31250000000026 0.249999999999567 0.0
0.3125000000002276 0.2187499999995128 0.0
0.3125000000001952 0.1874999999994587 0.0
0.3125000000001628 0.1562499999994047 0.0
0.3125000000001301 0.1249999999993502 0.0
0.3125000000000975 0.09374999999929623 0.0
0.3125000000000651 0.06249999999924206 0.0
0.3125000000000327 0.03124999999918809 0.0
0.3125 -8.594236433623337e-13 0.0
0.3124999999999675 -0.03125000000081211 0.0
0.3124999999999352 -0.06250000000075807 0.0
0.3124999999999025 -0.09375000000070394 0.0
0.31249999999987 -0.1250000000006499 0.0
0.3124999999998378 -0.1562500000005957 0.0
0.3124999999998052 -0.1875000000005416 0.0
0.3124999999997726 -0.2187500000004874 0.0
0.3124999999997401 -0.2500000000004335 0.0
0.3124999999997076 -0.2812500000003793 0.0
0.312499999999675 -0.3125000000003251 0.0
0.3124999999996427 -0.3437500000002709 0.0
0.31249999999961 -0.3750000000002166 0.0
0.3124999999995774 -0.4062500000001625 0.0
0.312499999999545 -0.4375000000001084 0.0
0.3124999999995126 -0.4687500000000542 0.0
0.2812500000005687 0.4687499999999512 0.0
0.2812500000005309 0.4374999999999024 0.0
0.2812500000004929 0.4062499999998538 0.0
0.281250000000455 0.3749999999998053 0.0
0.2812500000004172 0.3437499999997564 0.0
0.2812500000003793 0.3124999999997076 0.0
0.2812500000003413 0.2812499999996589 0.0
0.2812500000003033 0.2499999999996103 0.0
0.2812500000002653 0.2187499999995615 0.0
0.2812500000002277 0.1874999999995128 0.0
0.2812500000001894 0.1562499999994642 0.0
0.2812500000001517 0.1249999999994155 0.0
0.2812500000001139 0.09374999999936663 0.0
0.2812500000000759 0.06249999999931777 0.0
0.281250000000038 0.03124999999926935 0.0
0.2812500000000002 -7.734923812563466e-13 0.0
0.2812499999999623 -0.03125000000073098 0.0
0.2812499999999243 -0.06250000000068223 0.0
0.2812499999998863 -0.09375000000063366 0.0
0.2812499999998483 -0.1250000000005848 0.0
0.2812499999998106 -0.1562500000005362 0.0
0.2812499999997726 -0.1875000000004875 0.0
0.2812499999997347 -0.2187500000004387 0.0
0.2812499999996969 -0.25000000000039 0.0
0.2812499999996588 -0.2812500000003413 0.0
0.281249999999621 -0.3125000000002925 0.0
0.2812499999995832 -0.3437500000002438 0.0
0.2812499999995453 -0.375000000000195 0.0
0.2812499999995073 -0.4062500000001462 0.0
0.2812499999994693 -0.4375000000000975 0.0
0.2812499999994313 -0.4687500000000486 0.0
0.2500000000006499 0.4687499999999566 0.0
0.2500000000006069 0.4374999999999134 0.0
0.2500000000005633 0.4062499999998701 0.0
0.25000000000052 0.3749999999998268 0.0
0.2500000000004767 0.3437499999997835 0.0
0.2500000000004334 0.3124999999997402 0.0
0.2500000000003901 0.2812499999996969 0.0
0.2499999999996103 -0.2812500000003033 0.0
0.249999999999567 -0.31250000000026 0.0
0.2499999999995237 -0.3437500000002167 0.0
0.2499999999994804 -0.3750000000001733 0.0
0.2499999999994368 -0.40625000000013 0.0
0.2499999999993936 -0.4375000000000865 0.0
0.2499999999993503 -0.4687500000000433 0.0
0.2187500000007312 0.4687499999999619 0.0
0.2187500000006823 0.4374999999999242 0.0
0.2187500000006337 0.4062499999998863 0.0
0.2187500000005851 0.3749999999998483 0.0
0.2187500000005362 0.3437499999998106 0.0
0.2187500000004874 0.3124999999997726 0.0
0.2187500000004388 0.2812499999997347 0.0
0.2187500000003413 0.2187499999996592 0.0
0.2187500000002924 0.187499999999621 0.0
0.2187500000002438 0.1562499999995832 0.0
0.2187500000001952 0.1249999999995451 0.0
0.2187500000001463 0.0937499999995074 0.0
0.2187500000000975 0.06249999999946942 0.0
0.2187500000000488 0.03124999999943145 0.0
0.2187500000000002 -6.016298570443723e-13 0.0
0.2187499999999514 -0.03125000000056855 0.0
0.2187499999999027 -0.06250000000053058 0.0
0.2187499999998539 -0.0937500000004927 0.0
0.2187499999998053 -0.125000000000455 0.0
0.2187499999997564 -0.156250000000417 0.0
0.2187499999997078 -0.1875000000003791 0.0
0.218749999999659 -0.2187500000003413 0.0
0.2187499999995617 -0.2812500000002655 0.0
0.2187499999995131 -0.3125000000002276 0.0
0.218749999999464 -0.3437500000001896 0.0
0.2187499999994154 -0.3750000000001517 0.0
0.2187499999993665 -0.4062500000001137 0.0
0.2187499999993179 -0.4375000000000757 0.0
0.218749999999269 -0.468750000000038 0.0
0.1875000000008125 0.4687499999999675 0.0
0.1875000000007583 0.4374999999999349 0.0
0.1875000000007041 0.4062499999999024 0.0
0.18750000000065 0.3749999999998699 0.0
0.1875000000005957 0.3437499999998375 0.0
0.1875000000005416 0.3124999999998053 0.0
0.1875000000004874 0.2812499999997728 0.0
0.187500000000379 0.2187499999997078 0.0
0.1875000000003251 0.1874999999996754 0.0
0.1875000000002708 0.1562499999996427 0.0
0.1875000000002169 0.1249999999996102 0.0
0.1875000000001628 0.09374999999957777 0.0
0.1875000000001084 0.06249999999954513 0.0
0.1875000000000542 0.03124999999951271 0.0
0.1875000000000002 -5.156985949383852e-13 0.0
0.187499999999946 -0.03125000000048729 0.0
0.1874999999998919 -0.06250000000045484 0.0
0.1874999999998377 -0.09375000000042256 0.0
0.1874999999997836 -0.1250000000003898 0.0
0.1874999999997293 -0.1562500000003575 0.0
0.1874999999996751 -0.1875000000003251 0.0
0.1874999999996212 -0.2187500000002925 0.0
0.1874999999995129 -0.2812500000002276 0.0
0.1874999999994589 -0.3125000000001949 0.0
0.1874999999994044 -0.3437500000001625 0.0
0.1874999999993505 -0.3750000000001301 0.0
0.1874999999992961 -0.4062500000000975 0.0
0.1874999999992419 -0.4375000000000651 0.0
0.1874999999991879 -0.4687500000000324 0.0
0.1562500000008933 0.4687499999999729 0.0
0.1562500000008338 0.4374999999999459 0.0
0.1562500000007743 0.406249999999919 0.0
0.1562500000007147 0.3749999999998916 0.0
0.1562500000006553 0.3437499999998646 0.0
0.1562500000005958 0.3124999999998377 0.0
0.1562500000005362 0.2812499999998106 0.0
0.156250000000417 0.2187499999997564 0.0
0.1562500000003575 0.1874999999997293 0.0
0.156250000000298 0.1562499999997022 0.0
0.1562500000002383 0.1249999999996753 0.0
0.1562500000001787 0.09374999999964816 0.0
0.1562500000001192 0.06249999999962107 0.0
0.1562500000000597 0.03124999999959399 0.0
0.1562500000000002 -4.297534550445903e-13 0.0
0.1562499999999407 -0.03125000000040611 0.0
0.156249999999881 -0.06250000000037903 0.0
0.1562499999998215 -0.09375000000035207 0.0
0.156249999999762 -0.125000000000325 0.0
0.1562499999997025 -0.1562500000002979 0.0
0.1562499999996427 -0.1875000000002709 0.0
0.1562499999995832 -0.2187500000002438 0.0
0.1562499999994642 -0.2812500000001896 0.0
0.1562499999994047 -0.3125000000001625 0.0
0.156249999999345 -0.3437500000001354 0.0
0.1562499999992855 -0.3750000000001084 0.0
0.1562499999992257 -0.4062500000000813 0.0
0.1562499999991662 -0.4375000000000542 0.0
0.1562499999991067 -0.4687500000000271 0.0
0.1250000000009747 0.4687499999999785 0.0
0.1250000000009096 0.4374999999999565 0.0
0.1250000000008445 0.4062499999999349 0.0
0.1250000000007798 0.3749999999999135 0.0
0.1250000000007149 0.3437499999998916 0.0
0.1250000000006498 0.3124999999998701 0.0
0.1250000000005847 0.2812499999998486 0.0
0.1250000000004548 0.2187499999998053 0.0
0.1250000000003898 0.1874999999997835 0.0
0.125000000000325 0.156249999999762 0.0
0.1250000000002599 0.1249999999997401 0.0
0.1250000000001948 0.09374999999971857 0.0
0.12500000000013 0.06249999999969702 0.0
0.1250000000000649 0.03124999999967527 0.0
0.1249999999999999 -3.437250484239485e-13 0.0
0.1249999999999351 -0.03125000000032485 0.0
0.1249999999998702 -0.06250000000030331 0.0
0.1249999999998053 -0.09375000000028177 0.0
0.1249999999997402 -0.1250000000002599 0.0
0.1249999999996753 -0.1562500000002385 0.0
0.1249999999996102 -0.1875000000002167 0.0
0.1249999999995451 -0.2187500000001951 0.0
0.1249999999994152 -0.2812500000001518 0.0
0.1249999999993502 -0.3125000000001301 0.0
0.1249999999992853 -0.3437500000001084 0.0
0.1249999999992205 -0.3750000000000867 0.0
0.1249999999991555 -0.406250000000065 0.0
0.1249999999990906 -0.4375000000000433 0.0
0.1249999999990253 -0.4687500000000215 0.0
0.09375000000105593 0.4687499999999838 0.0
0.09375000000098535 0.4374999999999675 0.0
0.09375000000091513 0.4062499999999513 0.0
0.09375000000084455 0.3749999999999353 0.0
0.09375000000077441 0.343749999999919 0.0
0.09375000000070377 0.3124999999999025 0.0
0.09375000000063363 0.2812499999998863 0.0
0.09375000000049286 0.2187499999998539 0.0
0.09375000000042241 0.1874999999998377 0.0
0.09375000000035208 0.1562499999998215 0.0
0.09375000000028166 0.1249999999998052 0.0
0.09375000000021129 0.09374999999978896 0.0
0.09375000000014087 0.06249999999977253 0.0
0.09375000000007049 0.03124999999975654 0.0
0.09375000000000012 -2.578076641057692e-13 0.0
0.09374999999992972 -0.03125000000024369 0.0
0.09374999999985935 -0.06250000000022736 0.0
0.09374999999978906 -0.09375000000021139 0.0
0.09374999999971859 -0.1250000000001949 0.0
0.09374999999964816 -0.1562500000001789 0.0
0.09374999999957774 -0.1875000000001627 0.0
0.0937499999995074 -0.2187500000001464 0.0
0.09374999999936638 -0.2812500000001139 0.0
0.0937499999992962 -0.3125000000000976 0.0
0.09374999999922581 -0.3437500000000813 0.0
0.09374999999915531 -0.3750000000000651 0.0
0.09374999999908509 -0.4062500000000487 0.0
0.09374999999901487 -0.4375000000000324 0.0
0.0937499999989443 -0.4687500000000162 0.0
0.06250000000113701 0.468749999999989 0.0
0.06250000000106129 0.4374999999999782 0.0
0.06250000000098532 0.4062499999999675 0.0
0.0625000000009096 0.3749999999999566 0.0
0.06250000000083389 0.343749999999946 0.0
0.06250000000075792 0.3124999999999352 0.0
0.06250000000068223 0.2812499999999243 0.0
0.0625000000005306 0.2187499999999027 0.0
0.06250000000045483 0.1874999999998919 0.0
0.06250000000037914 0.156249999999881 0.0
0.06250000000030317 0.1249999999998702 0.0
0.06250000000022746 0.09374999999985911 0.0
0.06250000000015155 0.06249999999984845 0.0
0.06250000000007583 0.03124999999983757 0.0
0.0624999999999999 -1.71876401999782e-13 0.0
0.06249999999992441 -0.03125000000016244 0.0
0.06249999999984845 -0.06250000000015166 0.0
0.06249999999977275 -0.09375000000014098 0.0
0.06249999999969701 -0.1250000000001302 0.0
0.06249999999962105 -0.1562500000001192 0.0
0.06249999999954538 -0.1875000000001085 0.0
0.06249999999946942 -0.2187500000000975 0.0
0.06249999999931777 -0.2812500000000759 0.0
0.06249999999924193 -0.3125000000000651 0.0
0.06249999999916631 -0.3437500000000542 0.0
0.06249999999909064 -0.3750000000000432 0.0
0.06249999999901489 -0.4062500000000325 0.0
0.06249999999893896 -0.4375000000000216 0.0
0.06249999999886299 -0.4687500000000108 0.0
0.03125000000121803 0.4687499999999946 0.0
0.03125000000113695 0.437499999999989 0.0
0.03125000000105596 0.4062499999999837 0.0
0.03125000000097466 0.3749999999999784 0.0
0.0312500000008934 0.3437499999999729 0.0
0.0312500000008121 0.3124999999999676 0.0
0.03125000000073083 0.2812499999999623 0.0
0.03125000000056855 0.2187499999999514 0.0
0.0312500000004873 0.187499999999946 0.0
0.03125000000040604 0.1562499999999405 0.0
0.03125000000032496 0.1249999999999351 0.0
0.03125000000024369 0.09374999999992972 0.0
0.03125000000016245 0.06249999999992439 0.0
0.03125000000008116 0.03124999999991884 0.0
0.0312500000000001 -8.594513989379493e-14 0.0
0.03124999999991884 -0.03125000000008127 0.0
0.0312499999998378 -0.06250000000007583 0.0
0.03124999999975656 -0.09375000000007039 0.0
0.03124999999967534 -0.1250000000000651 0.0
0.0312499999995941 -0.1562500000000598 0.0
0.0312499999995127 -0.1875000000000543 0.0
0.03124999999943168 -0.218750000000049 0.0
0.03124999999926917 -0.281250000000038 0.0
0.0312499999991879 -0.3125000000000326 0.0
0.03124999999910683 -0.3437500000000271 0.0
0.03124999999902559 -0.3750000000000218 0.0
0.0312499999989445 -0.4062500000000162 0.0
0.03124999999886303 -0.4375000000000109 0.0
0.03124999999878199 -0.4687500000000053 0.0
1.289218731770347e-12 0.4687500000000001 0.0
1.203259714088745e-12 0.4375000000000001 0.0
1.117328451982758e-12 0.4062500000000001 0.0
1.031258411998692e-12 0.3750000000000001 0.0
9.454381721951677e-13 0.34375 0.0
8.595069100891806e-13 0.3125000000000002 0.0
7.735756479831934e-13 0.2812500000000002 0.0
6.017686349224505e-13 0.2187500000000002 0.0
5.155598170603071e-13 0.1875000000000002 0.0
4.296840661055512e-13 0.1562500000000002 0.0
3.437250484239485e-13 0.1250000000000001 0.0
2.57821541893577e-13 0.09374999999999989 0.0
1.718902797875899e-13 0.06249999999999989 0.0
8.595901768160275e-14 0.03124999999999989 0.0
0.0 0.0 0.0
-8.595901768160275e-14 -0.03124999999999999 0.0
-1.718347686363586e-13 -0.06250000000000001 0.0
-2.57821541893577e-13 -0.09375000000000022 0.0
-3.438985207715461e-13 -0.1250000000000003 0.0
-4.296198813369401e-13 -0.1562500000000002 0.0
-5.156985949383852e-13 -0.1875000000000002 0.0
-6.016298570443723e-13 -0.2187500000000001 0.0
-7.734923812563466e-13 -0.2812500000000001 0.0
-8.594826239605169e-13 -0.3124999999999999 0.0
-9.453549054683208e-13 -0.34375 0.0
-1.031369434301155e-12 -0.3749999999999999 0.0
-1.117231307468103e-12 -0.40625 0.0
-1.203273591876552e-12 -0.4375 0.0
-1.289151944916522e-12 -0.46875 0.0
-0.03124999999878189 0.4687500000000056 0.0
-0.03124999999886313 0.4375000000000108 0.0
-0.03124999999894437 0.4062500000000161 0.0
-0.03124999999902553 0.3750000000000219 0.0
-0.03124999999910669 0.3437500000000271 0.0
-0.03124999999918798 0.3125000000000326 0.0
-0.03124999999926925 0.281250000000038 0.0
-0.03124999999943159 0.2187500000000488 0.0
-0.03124999999951283 0.1875000000000544 0.0
-0.03124999999959391 0.1562500000000597 0.0
-0.03124999999967515 0.1250000000000652 0.0
-0.03124999999975644 0.0937500000000705 0.0
-0.03124999999983757 0.06250000000007583 0.0
-0.03124999999991873 0.03125000000008116 0.0
-0.03125 8.593126210598712e-14 0.0
-0.03125000000008127 -0.03124999999991884 0.0
-0.03125000000016256 -0.06249999999992427 0.0
-0.03125000000024364 -0.09374999999992982 0.0
-0.03125000000032496 -0.1249999999999351 0.0
-0.03125000000040609 -0.1562499999999407 0.0
-0.03125000000048739 -0.187499999999946 0.0
-0.03125000000056863 -0.2187499999999514 0.0
-0.03125000000073085 -0.2812499999999623 0.0
-0.0312500000008121 -0.3124999999999676 0.0
-0.0312500000008934 -0.3437499999999729 0.0
-0.03125000000097466 -0.3749999999999785 0.0
-0.03125000000105581 -0.4062499999999838 0.0
-0.03125000000113697 -0.4374999999999891 0.0
-0.03125000000121815 -0.4687499999999944 0.0
-0.06249999999886313 0.4687500000000109 0.0
-0.06249999999893885 0.4375000000000216 0.0
-0.06249999999901465 0.4062500000000325 0.0
-0.06249999999909048 0.3750000000000432 0.0
-0.06249999999916631 0.3437500000000542 0.0
-0.06249999999924216 0.3125000000000651 0.0
-0.06249999999931791 0.2812500000000759 0.0
-0.06249999999946942 0.2187500000000977 0.0
-0.06249999999954525 0.1875000000001086 0.0
-0.062499999999621 0.1562500000001192 0.0
-0.06249999999969691 0.12500000000013 0.0
-0.06249999999977265 0.09375000000014067 0.0
-0.06249999999984845 0.06250000000015177 0.0
-0.06249999999992417 0.03125000000016243 0.0
-0.0625 1.718625242119742e-13 0.0
-0.06250000000007583 -0.03124999999983769 0.0
-0.06250000000015166 -0.06249999999984845 0.0
-0.06250000000022748 -0.09374999999985946 0.0
-0.06250000000030327 -0.1249999999998701 0.0
-0.06250000000037914 -0.156249999999881 0.0
-0.06250000000045483 -0.1874999999998919 0.0
-0.06250000000053058 -0.2187499999999026 0.0
-0.06250000000068225 -0.2812499999999243 0.0
-0.06250000000075794 -0.3124999999999352 0.0
-0.06250000000083387 -0.3437499999999458 0.0
-0.06250000000090951 -0.3749999999999567 0.0
-0.0625000000009854 -0.4062499999999676 0.0
-0.06250000000106114 -0.4374999999999784 0.0
-0.06250000000113701 -0.4687499999999892 0.0
-0.09374999999894434 0.4687500000000162 0.0
-0.09374999999901479 0.4375000000000326 0.0
-0.09374999999908512 0.4062500000000486 0.0
-0.09374999999915554 0.375000000000065 0.0
-0.09374999999922592 0.3437500000000813 0.0
-0.09374999999929631 0.3125000000000975 0.0
-0.0937499999993665 0.2812500000001139 0.0
-0.09374999999950748 0.2187500000001463 0.0
-0.09374999999957785 0.1875000000001625 0.0
-0.09374999999964806 0.1562500000001787 0.0
-0.09374999999971863 0.1250000000001949 0.0
-0.09374999999978888 0.09375000000021141 0.0
-0.09374999999985925 0.06250000000022729 0.0
-0.0937499999999298 0.03125000000024367 0.0
-0.09375000000000003 2.57821541893577e-13 0.0
-0.09375000000007042 -0.03124999999975639 0.0
-0.0937500000001408 -0.06249999999977263 0.0
-0.09375000000021129 -0.09374999999978893 0.0
-0.09375000000028157 -0.1249999999998052 0.0
-0.09375000000035195 -0.1562499999998214 0.0
-0.09375000000042237 -0.1874999999998377 0.0
-0.09375000000049274 -0.2187499999998541 0.0
-0.09375000000063351 -0.2812499999998864 0.0
-0.09375000000070402 -0.3124999999999025 0.0
-0.09375000000077435 -0.3437499999999189 0.0
-0.0937500000008446 -0.374999999999935 0.0
-0.09375000000091509 -0.4062499999999513 0.0
-0.09375000000098553 -0.4374999999999675 0.0
-0.09375000000105585 -0.4687499999999837 0.0
-0.1249999999990254 0.4687500000000215 0.0
-0.1249999999990905 0.4375000000000433 0.0
-0.1249999999991554 0.4062500000000651 0.0
-0.1249999999992204 0.3750000000000868 0.0
-0.1249999999992854 0.3437500000001083 0.0
-0.1249999999993503 0.3125000000001301 0.0
-0.1249999999994152 0.2812500000001517 0.0
-0.1249999999995453 0.2187500000001952 0.0
-0.1249999999996103 0.1875000000002167 0.0
-0.1249999999996752 0.1562500000002383 0.0
-0.1249999999997402 0.12500000000026 0.0
-0.1249999999998051 0.09375000000028147 0.0
-0.1249999999998701 0.06250000000030323 0.0
-0.1249999999999351 0.0312500000003251 0.0
-0.125 3.437250484239485e-13 0.0
-0.125000000000065 -0.03124999999967518 0.0
-0.1250000000001301 -0.06249999999969694 0.0
-0.1250000000001951 -0.0937499999997187 0.0
-0.12500000000026 -0.1249999999997402 0.0
-0.125000000000325 -0.1562499999997619 0.0
-0.12500000000039 -0.1874999999997836 0.0
-0.125000000000455 -0.2187499999998052 0.0
-0.1250000000005849 -0.2812499999998485 0.0
-0.1250000000006498 -0.3124999999998701 0.0
-0.1250000000007148 -0.3437499999998918 0.0
-0.1250000000007798 -0.3749999999999134 0.0
-0.1250000000008447 -0.4062499999999351 0.0
-0.1250000000009097 -0.4374999999999567 0.0
-0.1250000000009746 -0.4687499999999784 0.0
-0.1562499999991067 0.4687500000000273 0.0
-0.1562499999991664 0.4375000000000544 0.0
-0.156249999999226 0.4062500000000815 0.0
-0.1562499999992854 0.3750000000001086 0.0
-0.156249999999345 0.3437500000001355 0.0
-0.1562499999994045 0.3125000000001626 0.0
-0.1562499999994642 0.2812500000001896 0.0
-0.1562499999995832 0.2187500000002438 0.0
-0.1562499999996427 0.1875000000002709 0.0
-0.1562499999997024 0.1562500000002977 0.0
-0.1562499999997619 0.1250000000003249 0.0
-0.1562499999998215 0.09375000000035208 0.0
-0.156249999999881 0.06250000000037916 0.0
-0.1562499999999407 0.03125000000040637 0.0
-0.1562500000000002 4.296840661055512e-13 0.0
-0.1562500000000597 -0.03124999999959399 0.0
-0.1562500000001192 -0.06249999999962103 0.0
-0.1562500000001787 -0.09374999999964828 0.0
-0.1562500000002384 -0.1249999999996752 0.0
-0.156250000000298 -0.1562499999997025 0.0
-0.1562500000003575 -0.1874999999997294 0.0
-0.156250000000417 -0.2187499999997564 0.0
-0.1562500000005361 -0.2812499999998106 0.0
-0.1562500000005958 -0.3124999999998378 0.0
-0.1562500000006553 -0.3437499999998647 0.0
-0.1562500000007148 -0.3749999999998918 0.0
-0.1562500000007745 -0.4062499999999186 0.0
-0.1562500000008339 -0.4374999999999458 0.0
-0.1562500000008935 -0.4687499999999729 0.0
-0.187499999999188 0.4687500000000325 0.0
-0.1874999999992421 0.4375000000000649 0.0
-0.1874999999992963 0.4062500000000974 0.0
-0.1874999999993504 0.3750000000001301 0.0
-0.1874999999994046 0.3437500000001625 0.0
-0.1874999999994588 0.3125000000001952 0.0
-0.1874999999995128 0.2812500000002276 0.0
-0.1874999999996212 0.2187500000002924 0.0
-0.1874999999996753 0.1875000000003251 0.0
-0.1874999999997294 0.1562500000003575 0.0
-0.1874999999997836 0.1250000000003898 0.0
-0.1874999999998377 0.09375000000042222 0.0
-0.1874999999998919 0.06250000000045486 0.0
-0.187499999999946 0.0312500000004875 0.0
-0.1875000000000002 5.156985949383852e-13 0.0
-0.1875000000000543 -0.03124999999951283 0.0
-0.1875000000001085 -0.06249999999954525 0.0
-0.1875000000001626 -0.0937499999995779 0.0
-0.1875000000002168 -0.1249999999996103 0.0
-0.1875000000002709 -0.1562499999996427 0.0
-0.1875000000003251 -0.1874999999996752 0.0
-0.1875000000003793 -0.2187499999997078 0.0
-0.1875000000004875 -0.2812499999997726 0.0
-0.1875000000005417 -0.312499999999805 0.0
-0.1875000000005958 -0.3437499999998375 0.0
-0.1875000000006499 -0.3749999999998701 0.0
-0.187500000000704 -0.4062499999999025 0.0
-0.1875000000007582 -0.4374999999999349 0.0
-0.1875000000008123 -0.4687499999999675 0.0
-0.2187499999992691 0.4687500000000379 0.0
-0.2187499999993179 0.4375000000000758 0.0
-0.2187499999993666 0.4062500000001138 0.0
-0.2187499999994154 0.3750000000001515 0.0
-0.2187499999994641 0.3437500000001896 0.0
-0.2187499999995128 0.3125000000002276 0.0
-0.2187499999995616 0.2812500000002656 0.0
-0.2187499999996591 0.2187500000003413 0.0
-0.2187499999997078 0.1875000000003793 0.0
-0.2187499999997565 0.156250000000417 0.0
-0.2187499999998052 0.1250000000004549 0.0
-0.218749999999854 0.09375000000049284 0.0
-0.2187499999999027 0.06250000000053058 0.0
-0.2187499999999515 0.03125000000056855 0.0
-0.2187500000000001 6.016298570443723e-13 0.0
-0.2187500000000488 -0.03124999999943159 0.0
-0.2187500000000976 -0.06249999999946942 0.0
-0.2187500000001465 -0.0937499999995075 0.0
-0.2187500000001951 -0.1249999999995452 0.0
-0.2187500000002439 -0.1562499999995833 0.0
-0.2187500000002925 -0.1874999999996211 0.0
-0.2187500000003413 -0.2187499999996591 0.0
-0.2187500000004388 -0.2812499999997348 0.0
-0.2187500000004876 -0.3124999999997726 0.0
-0.2187500000005363 -0.3437499999998105 0.0
-0.2187500000005851 -0.3749999999998483 0.0
-0.2187500000006337 -0.4062499999998863 0.0
-0.2187500000006825 -0.4374999999999242 0.0
-0.2187500000007312 -0.468749999999962 0.0
-0.2499999999993503 0.4687500000000432 0.0
-0.2499999999993936 0.4375000000000867 0.0
-0.2499999999994369 0.4062500000001298 0.0
-0.2499999999994803 0.3750000000001732 0.0
-0.2499999999995236 0.3437500000002165 0.0
-0.249999999999567 0.31250000000026 0.0
-0.2499999999996103 0.2812500000003033 0.0
-0.2500000000003901 -0.2812499999996969 0.0
-0.2500000000004334 -0.3124999999997402 0.0
-0.2500000000004767 -0.3437499999997834 0.0
-0.25000000000052 -0.3749999999998269 0.0
-0.2500000000005633 -0.4062499999998702 0.0
-0.2500000000006067 -0.4374999999999135 0.0
-0.25000000000065 -0.4687499999999567 0.0
-0.2812499999994316 0.4687500000000487 0.0
-0.2812499999994694 0.4375000000000974 0.0
-0.2812499999995073 0.4062500000001462 0.0
-0.2812499999995453 0.3750000000001951 0.0
-0.2812499999995831 0.3437500000002436 0.0
-0.2812499999996211 0.3125000000002924 0.0
-0.2812499999996589 0.2812500000003413 0.0
-0.2812499999996969 0.2500000000003901 0.0
-0.2812499999997348 0.218750000000439 0.0
-0.2812499999997726 0.1875000000004874 0.0
-0.2812499999998106 0.1562500000005362 0.0
-0.2812499999998486 0.1250000000005847 0.0
-0.2812499999998864 0.0937500000006336 0.0
-0.2812499999999243 0.06250000000068223 0.0
-0.2812499999999623 0.03125000000073086 0.0
-0.2812500000000002 7.734923812563466e-13 0.0
-0.281250000000038 -0.03124999999926922 0.0
-0.2812500000000759 -0.06249999999931791 0.0
-0.2812500000001139 -0.09374999999936673 0.0
-0.2812500000001518 -0.1249999999994154 0.0
-0.2812500000001896 -0.1562499999994643 0.0
-0.2812500000002277 -0.1874999999995128 0.0
-0.2812500000002655 -0.2187499999995615 0.0
-0.2812500000003033 -0.2499999999996103 0.0
-0.2812500000003412 -0.2812499999996589 0.0
-0.2812500000003791 -0.3124999999997076 0.0
-0.2812500000004172 -0.3437499999997563 0.0
-0.281250000000455 -0.374999999999805 0.0
-0.2812500000004931 -0.4062499999998538 0.0
-0.2812500000005308 -0.4374999999999025 0.0
-0.2812500000005688 -0.4687499999999513 0.0
-0.3124999999995126 0.4687500000000542 0.0
-0.3124999999995453 0.4375000000001084 0.0
-0.3124999999995777 0.4062500000001625 0.0
-0.3124999999996101 0.3750000000002167 0.0
-0.3124999999996428 0.3437500000002708 0.0
-0.3124999999996751 0.3125000000003252 0.0
-0.3124999999997075 0.2812500000003793 0.0
-0.3124999999997402 0.2500000000004334 0.0
-0.3124999999997726 0.2187500000004874 0.0
-0.312499999999805 0.1875000000005416 0.0
-0.3124999999998377 0.1562500000005957 0.0
-0.3124999999998701 0.1250000000006498 0.0
-0.3124999999999026 0.0937500000007038 0.0
-0.3124999999999352 0.06250000000075787 0.0
-0.3124999999999676 0.0312500000008121 0.0
-0.3125000000000001 8.592848654842555e-13 0.0
-0.3125000000000326 -0.03124999999918801 0.0
-0.3125000000000651 -0.06249999999924211 0.0
-0.3125000000000976 -0.09374999999929631 0.0
-0.3125000000001301 -0.1249999999993503 0.0
-0.3125000000001625 -0.1562499999994044 0.0
-0.3125000000001951 -0.1874999999994587 0.0
-0.3125000000002277 -0.2187499999995127 0.0
-0.3125000000002601 -0.2499999999995668 0.0
-0.3125000000002925 -0.281249999999621 0.0
-0.3125000000003249 -0.3124999999996751 0.0
-0.3125000000003575 -0.3437499999997292 0.0
-0.31250000000039 -0.3749999999997835 0.0
-0.3125000000004226 -0.4062499999998376 0.0
-0.312500000000455 -0.4374999999998916 0.0
-0.3125000000004875 -0.4687499999999458 0.0
-0.3437499999995939 0.4687500000000596 0.0
-0.343749999999621 0.4375000000001191 0.0
-0.3437499999996481 0.4062500000001786 0.0
-0.3437499999996751 0.3750000000002381 0.0
-0.3437499999997022 0.3437500000002978 0.0
-0.3437499999997293 0.3125000000003575 0.0
-0.3437499999997563 0.281250000000417 0.0
-0.3437499999997835 0.2500000000004767 0.0
-0.3437499999998105 0.2187500000005363 0.0
-0.3437499999998376 0.1875000000005957 0.0
-0.3437499999998647 0.1562500000006553 0.0
-0.3437499999998918 0.1250000000007148 0.0
-0.3437499999999187 0.09375000000077438 0.0
-0.3437499999999458 0.06250000000083386 0.0
-0.3437499999999729 0.0312500000008934 0.0
-0.34375 9.453826610439364e-13 0.0
-0.3437500000000271 -0.03124999999910671 0.0
-0.3437500000000542 -0.06249999999916622 0.0
-0.3437500000000813 -0.09374999999922573 0.0
-0.3437500000001083 -0.1249999999992855 0.0
-0.3437500000001354 -0.1562499999993449 0.0
-0.3437500000001625 -0.1874999999994047 0.0
-0.3437500000001896 -0.2187499999994642 0.0
-0.3437500000002167 -0.2499999999995237 0.0
-0.3437500000002437 -0.2812499999995831 0.0
-0.3437500000002708 -0.3124999999996428 0.0
-0.3437500000002979 -0.3437499999997022 0.0
-0.3437500000003249 -0.3749999999997617 0.0
-0.3437500000003522 -0.4062499999998212 0.0
-0.3437500000003791 -0.4374999999998808 0.0
-0.3437500000004063 -0.4687499999999403 0.0
-0.3749999999996751 0.4687500000000649 0.0
-0.3749999999996968 0.43750000000013 0.0
-0.3749999999997184 0.4062500000001951 0.0
-0.3749999999997401 0.3750000000002599 0.0
-0.3749999999997617 0.3437500000003249 0.0
-0.3749999999997836 0.3125000000003901 0.0
-0.374999999999805 0.281250000000455 0.0
-0.3749999999998269 0.25000000000052 0.0
-0.3749999999998485 0.2187500000005851 0.0
-0.3749999999998701 0.1875000000006499 0.0
-0.3749999999998918 0.1562500000007148 0.0
-0.3749999999999134 0.1250000000007797 0.0
-0.3749999999999351 0.09375000000084444 0.0
-0.3749999999999567 0.06250000000090963 0.0
-0.3749999999999785 0.03125000000097469 0.0
-0.375 1.031369434301155e-12 0.0
-0.3750000000000216 -0.03124999999902559 0.0
-0.3750000000000434 -0.06249999999909048 0.0
-0.3750000000000651 -0.09374999999915559 0.0
-0.3750000000000867 -0.1249999999992204 0.0
-0.3750000000001084 -0.1562499999992853 0.0
-0.3750000000001301 -0.1874999999993504 0.0
-0.3750000000001517 -0.2187499999994154 0.0
-0.3750000000001733 -0.2499999999994802 0.0
-0.375000000000195 -0.2812499999995453 0.0
-0.3750000000002166 -0.3124999999996101 0.0
-0.3750000000002384 -0.3437499999996751 0.0
-0.3750000000002601 -0.3749999999997402 0.0
-0.3750000000002816 -0.406249999999805 0.0
-0.3750000000003034 -0.43749999999987 0.0
-0.3750000000003249 -0.468749999999935 0.0
-0.4062499999997565 0.4687500000000703 0.0
-0.4062499999997727 0.4375000000001409 0.0
-0.4062499999997888 0.4062500000002111 0.0
-0.406249999999805 0.3750000000002817 0.0
-0.4062499999998213 0.343750000000352 0.0
-0.4062499999998376 0.3125000000004226 0.0
-0.4062499999998538 0.2812500000004929 0.0
-0.4062499999998701 0.2500000000005633 0.0
-0.4062499999998863 0.2187500000006337 0.0
-0.4062499999999025 0.1875000000007041 0.0
-0.4062499999999187 0.1562500000007742 0.0
-0.4062499999999351 0.1250000000008445 0.0
-0.4062499999999513 0.09375000000091513 0.0
-0.4062499999999675 0.06250000000098532 0.0
-0.4062499999999838 0.03125000000105591 0.0
-0.40625 1.117328451982758e-12 0.0
-0.4062500000000162 -0.03124999999894437 0.0
-0.4062500000000325 -0.06249999999901482 0.0
-0.4062500000000487 -0.09374999999908518 0.0
-0.4062500000000651 -0.1249999999991556 0.0
-0.4062500000000813 -0.156249999999226 0.0
-0.4062500000000975 -0.1874999999992963 0.0
-0.4062500000001137 -0.2187499999993666 0.0
-0.4062500000001299 -0.2499999999994369 0.0
-0.4062500000001462 -0.2812499999995073 0.0
-0.4062500000001624 -0.3124999999995777 0.0
-0.4062500000001786 -0.3437499999996481 0.0
-0.406250000000195 -0.3749999999997184 0.0
-0.4062500000002112 -0.4062499999997888 0.0
-0.4062500000002275 -0.4374999999998592 0.0
-0.4062500000002437 -0.4687499999999296 0.0
-0.4374999999998376 0.4687500000000756 0.0
-0.4374999999998483 0.4375000000001515 0.0
-0.4374999999998592 0.4062500000002275 0.0
-0.4374999999998699 0.3750000000003034 0.0
-0.4374999999998809 0.343750000000379 0.0
-0.4374999999998916 0.312500000000455 0.0
-0.4374999999999025 0.2812500000005309 0.0
-0.4374999999999135 0.2500000000006066 0.0
-0.4374999999999242 0.2187500000006823 0.0
-0.4374999999999349 0.1875000000007583 0.0
-0.4374999999999458 0.1562500000008338 0.0
-0.4374999999999567 0.1250000000009096 0.0
-0.4374999999999675 0.09375000000098535 0.0
-0.4374999999999784 0.06250000000106126 0.0
-0.4374999999999891 0.03125000000113695 0.0
-0.4375 1.203259714088745e-12 0.0
-0.4375000000000109 -0.03124999999886313 0.0
-0.4375000000000216 -0.06249999999893885 0.0
-0.4375000000000325 -0.09374999999901476 0.0
-0.4375000000000433 -0.1249999999990905 0.0
-0.4375000000000542 -0.1562499999991665 0.0
-0.4375000000000649 -0.187499999999242 0.0
-0.4375000000000758 -0.2187499999993179 0.0
-0.4375000000000866 -0.2499999999993936 0.0
-0.4375000000000975 -0.2812499999994694 0.0
-0.4375000000001082 -0.3124999999995453 0.0
-0.437500000000119 -0.343749999999621 0.0
-0.4375000000001299 -0.3749999999996968 0.0
-0.4375000000001408 -0.4062499999997726 0.0
-0.4375000000001517 -0.4374999999998483 0.0
-0.4375000000001625 -0.4687499999999242 0.0
-0.4687499999999187 0.468750000000081 0.0
-0.4687499999999242 0.4375000000001623 0.0
-0.4687499999999295 0.4062500000002437 0.0
-0.4687499999999349 0.375000000000325 0.0
-0.4687499999999403 0.3437500000004061 0.0
-0.4687499999999458 0.3125000000004874 0.0
-0.4687499999999513 0.2812500000005687 0.0
-0.4687499999999566 0.2500000000006499 0.0
-0.468749999999962 0.2187500000007312 0.0
-0.4687499999999675 0.1875000000008125 0.0
-0.468749999999973 0.1562500000008935 0.0
-0.4687499999999784 0.1250000000009746 0.0
-0.4687499999999837 0.09375000000105596 0.0
-0.4687499999999891 0.06250000000113698 0.0
-0.4687499999999946 0.03125000000121825 0.0
-0.46875 1.289190976194732e-12 0.0
-0.4687500000000054 -0.03124999999878189 0.0
-0.4687500000000108 -0.0624999999988631 0.0
-0.4687500000000162 -0.0937499999989444 0.0
-0.4687500000000216 -0.1249999999990254 0.0
-0.468750000000027 -0.1562499999991067 0.0
-0.4687500000000324 -0.187499999999188 0.0
-0.4687500000000379 -0.2187499999992691 0.0
-0.4687500000000434 -0.2499999999993502 0.0
-0.4687500000000487 -0.2812499999994315 0.0
-0.4687500000000541 -0.3124999999995126 0.0
-0.4687500000000596 -0.3437499999995939 0.0
-0.468750000000065 -0.3749999999996752 0.0
-0.4687500000000704 -0.4062499999997564 0.0
-0.4687500000000759 -0.4374999999998374 0.0
-0.4687500000000813 -0.4687499999999187 0.0
-0.5 -0.4687499999999133 0.0
-0.5 -0.4374999999998267 0.0
-0.5 -0.4062499999997401 0.0
-0.5 -0.3749999999996535 0.0
-0.5 -0.3437499999995668 0.0
-0.5 -0.3124999999994802 0.0
-0.5 -0.2812499999993936 0.0
-0.5 -0.249999999999307 0.0
-0.5 -0.2187499999992204 0.0
-0.5 -0.1874999999991338 0.0
-0.5 -0.1562499999990472 0.0
-0.5 -0.1249999999989605 0.0
-0.5 -0.0937499999988739 0.0
-0.5 -0.0624999999987873 0.0
-0.5 -0.03124999999870071 0.0
-0.5 1.375122238300719e-12 0.0
-0.5 0.03125000000129941 0.0
-0.5 0.06250000000121281 0.0
-0.5 0.09375000000112627 0.0
-0.5 0.1250000000010397 0.0
-0.5 0.1562500000009531 0.0
-0.5 0.1875000000008665 0.0
-0.5 0.2187500000007799 0.0
-0.5 0.2500000000006933 0.0
-0.5 0.2812500000006066 0.0
-0.5 0.31250000000052 0.0
-0.5 0.3437500000004333 0.0
-0.5 0.3750000000003466 0.0
-0.5 0.4062500000002599 0.0
-0.5 0.4375000000001733 0.0
-0.5 0.4687500000000867 0.0
-0.4687499999999133 0.5 0.0
-0.4374999999998267 0.5 0.0
-0.4062499999997401 0.5 0.0
-0.3749999999996535 0.5 0.0
-0.3437499999995668 0.5 0.0
-0.3124999999994802 0.5 0.0
-0.2812499999993936 0.5 0.0
-0.249999999999307 0.5 0.0
-0.2187499999992204 0.5 0.0
-0.1874999999991338 0.5 0.0
-0.1562499999990472 0.5 0.0
-0.1249999999989605 0.5 0.0
-0.0937499999988739 0.5 0.0
-0.0624999999987873 0.5 0.0
-0.03124999999870071 0.5 0.0
1.375122238300719e-12 0.5 0.0
0.03125000000129941 0.5 0.0
0.06250000000121281 0.5 0.0
0.09375000000112627 0.5 0.0
0.1250000000010397 0.5 0.0
0.1562500000009531 0.5 0.0
0.1875000000008665 0.5 0.0
0.2187500000007799 0.5 0.0
0.2500000000006933 0.5 0.0
0.2812500000006066 0.5 0.0
0.31250000000052 0.5 0.0
0.3437500000004333 0.5 0.0
0.3750000000003466 0.5 0.0
0.4062500000002599 0.5 0.0
0.4375000000001733 0.5 0.0
0.4687500000000867 0.5 0.0
0.5 0.4687499999999133 0.0
0.5 0.4374999999998267 0.0
0.5 0.4062499999997401 0.0
0.5 0.3749999999996535 0.0
0.5 0.3437499999995668 0.0
0.5 0.3124999999994802 0.0
0.5 0.2812499999993936 0.0
0.5 0.249999999999307 0.0
0.5 0.2187499999992204 0.0
0.5 0.1874999999991338 0.0
0.5 0.1562499999990472 0.0
0.5 0.1249999999989605 0.0
0.5 0.0937499999988739 0.0
0.5 0.0624999999987873 0.0
0.5 0.03124999999870071 0.0
0.5 -1.375122238300719e-12 0.0
0.5 -0.03125000000129941 0.0
0.5 -0.06250000000121281 0.0
0.5 -0.09375000000112627 0.0
0.5 -0.1250000000010397 0.0
0.5 -0.1562500000009531 0.0
0.5 -0.1875000000008665 0.0
0.5 -0.2187500000007799 0.0
0.5 -0.2500000000006933 0.0
0.5 -0.2812500000006066 0.0
0.5 -0.31250000000052 0.0
0.5 -0.3437500000004333 0.0
0.5 -0.3750000000003466 0.0
0.5 -0.4062500000002599 0.0
0.5 -0.4375000000001733 0.0
0.5 -0.4687500000000867 0.0
0.4687499999999133 -0.5 0.0
0.4374999999998267 -0.5 0.0
0.4062499999997401 -0.5 0.0
0.3749999999996535 -0.5 0.0
0.3437499999995668 -0.5 0.0
0.3124999999994802 -0.5 0.0
0.2812499999993936 -0.5 0.0
0.249999999999307 -0.5 0.0
0.2187499999992204 -0.5 0.0
0.1874999999991338 -0.5 0.0
0.1562499999990472 -0.5 0.0
0.1249999999989605 -0.5 0.0
0.0937499999988739 -0.5 0.0
0.0624999999987873 -0.5 0.0
0.03124999999870071 -0.5 0.0
-1.375122238300719e-12 -0.5 0.0
-0.03125000000129941 -0.5 0.0
-0.06250000000121281 -0.5 0.0
-0.09375000000112627 -0.5 0.0
-0.1250000000010397 -0.5 0.0
-0.1562500000009531 -0.5 0.0
-0.1875000000008665 -0.5 0.0
-0.2187500000007799 -0.5 0.0
-0.2500000000006933 -0.5 0.0
-0.2812500000006066 -0.5 0.0
-0.31250000000052 -0.5 0.0
-0.3437500000004333 -0.5 0.0
-0.3750000000003466 -0.5 0.0
-0.4062500000002599 -0.5 0.0
-0.4375000000001733 -0.5 0.0
-0.4687500000000867 -0.5 0.0
-0.5 0.5 0.0
0.5 0.5 0.0
0.5 -0.5 0.0
-0.5 -0.5 0.0
-0.2500000000003467 -0.2499999999996536 0.0
-0.2500000000003034 -0.2187499999996103 0.0
-0.25000000000026 -0.187499999999567 0.0
-0.2500000000002168 -0.1562499999995238 0.0
-0.2500000000001734 -0.1249999999994804 0.0
-0.2500000000001301 -0.0937499999994369 0.0
-0.2500000000000868 -0.0624999999993936 0.0
-0.2500000000000435 -0.03124999999935041 0.0
-0.2500000000000002 6.875333635747438e-13 0.0
-0.2499999999999568 0.03125000000064959 0.0
-0.2499999999999135 0.06250000000060651 0.0
-0.2499999999998702 0.09375000000056302 0.0
-0.2499999999998269 0.1250000000005199 0.0
-0.2499999999997835 0.1562500000004767 0.0
-0.2499999999997402 0.1875000000004332 0.0
-0.2499999999996969 0.2187500000003901 0.0
-0.2499999999996536 0.2500000000003468 0.0
-0.21875000000039 -0.2499999999996969 0.0
-0.2187499999996103 0.2500000000003035 0.0
-0.1875000000004333 -0.2499999999997402 0.0
-0.187499999999567 0.25000000000026 0.0
-0.1562500000004766 -0.2499999999997835 0.0
-0.1562499999995237 0.2500000000002167 0.0
-0.1250000000005198 -0.2499999999998269 0.0
-0.1249999999994804 0.2500000000001734 0.0
-0.09375000000056312 -0.2499999999998702 0.0
-0.09374999999943709 0.2500000000001301 0.0
-0.06250000000060638 -0.2499999999999136 0.0
-0.06249999999939357 0.2500000000000868 0.0
-0.03125000000064968 -0.249999999999957 0.0
-0.03124999999935033 0.2500000000000435 0.0
-6.875333635747438e-13 -0.2500000000000002 0.0
6.874500968478969e-13 0.2500000000000002 0.0
0.03124999999935041 -0.2500000000000435 0.0
0.03125000000064959 0.2499999999999567 0.0
0.06249999999939371 -0.2500000000000868 0.0
0.06250000000060651 0.2499999999999136 0.0
0.093749999999437 -0.2500000000001301 0.0
0.09375000000056322 0.2499999999998701 0.0
0.1249999999994803 -0.2500000000001734 0.0
0.12500000000052 0.2499999999998268 0.0
0.1562499999995237 -0.2500000000002167 0.0
0.1562500000004765 0.2499999999997835 0.0
0.187499999999567 -0.2500000000002601 0.0
0.1875000000004332 0.2499999999997402 0.0
0.2187499999996103 -0.2500000000003034 0.0
0.2187500000003902 0.2499999999996969 0.0
0.2499999999996536 -0.2500000000003467 0.0
0.2499999999996969 -0.21875000000039 0.0
0.2499999999997402 -0.1875000000004333 0.0
0.2499999999997835 -0.1562500000004766 0.0
0.2499999999998268 -0.1250000000005199 0.0
0.24999999999987 -0.0937500000005631 0.0
0.2499999999999136 -0.0625000000006064 0.0
0.2499999999999569 -0.0312500000006497 0.0
0.2500000000000002 -6.875472413625516e-13 0.0
0.2500000000000435 0.03124999999935019 0.0
0.2500000000000868 0.06249999999939371 0.0
0.2500000000001301 0.093749999999437 0.0
0.2500000000001734 0.1249999999994803 0.0
0.2500000000002167 0.1562499999995237 0.0
0.25000000000026 0.187499999999567 0.0
0.2500000000003035 0.2187499999996103 0.0
0.2500000000003466 0.2499999999996536 0.0
-0.2500000000003467 -0.2499999999996536 0.0
-0.2500000000003034 -0.2187499999996103 0.0
-0.25000000000026 -0.187499999999567 0.0
-0.2500000000002168 -0.1562499999995238 0.0
-0.2500000000001734 -0.1249999999994804 0.0
-0.2500000000001301 -0.0937499999994369 0.0
-0.2500000000000868 -0.0624999999993936 0.0
-0.2500000000000435 -0.03124999999935041 0.0
-0.2500000000000002 6.875333635747438e-13 0.0
-0.2499999999999568 0.03125000000064959 0.0
-0.2499999999999135 0.06250000000060651 0.0
-0.2499999999998702 0.09375000000056302 0.0
-0.2499999999998269 0.1250000000005199 0.0
-0.2499999999997835 0.1562500000004767 0.0
-0.2499999999997402 0.1875000000004332 0.0
-0.2499999999996969 0.2187500000003901 0.0
-0.2499999999996536 0.2500000000003468 0.0
-0.21875000000039 -0.2499999999996969 0.0
-0.2187499999996103 0.2500000000003035 0.0
-0.1875000000004333 -0.2499999999997402 0.0
-0.187499999999567 0.25000000000026 0.0
-0.1562500000004766 -0.2499999999997835 0.0
-0.1562499999995237 0.2500000000002167 0.0
-0.1250000000005198 -0.2499999999998269 0.0
-0.1249999999994804 0.2500000000001734 0.0
-0.09375000000056312 -0.2499999999998702 0.0
-0.09374999999943709 0.2500000000001301 0.0
-0.06250000000060638 -0.2499999999999136 0.0
-0.06249999999939357 0.2500000000000868 0.0
-0.03125000000064968 -0.249999999999957 0.0
-0.03124999999935033 0.2500000000000435 0.0
-6.875333635747438e-13 -0.2500000000000002 0.0
6.874500968478969e-13 0.2500000000000002 0.0
0.03124999999935041 -0.2500000000000435 0.0
0.03125000000064959 0.2499999999999567 0.0
0.06249999999939371 -0.2500000000000868 0.0
0.06250000000060651 0.2499999999999136 0.0
0.093749999999437 -0.2500000000001301 0.0
0.09375000000056322 0.2499999999998701 0.0
0.1249999999994803 -0.2500000000001734 0.0
0.12500000000052 0.2499999999998268 0.0
0.1562499999995237 -0.2500000000002167 0.0
0.1562500000004765 0.2499999999997835 0.0
0.187499999999567 -0.2500000000002601 0.0
0.1875000000004332 0.2499999999997402 0.0
0.2187499999996103 -0.2500000000003034 0.0
0.2187500000003902 0.2499999999996969 0.0
0.2499999999996536 -0.2500000000003467 0.0
0.2499999999996969 -0.21875000000039 0.0
0.2499999999997402 -0.1875000000004333 0.0
0.2499999999997835 -0.1562500000004766 0.0
0.2499999999998268 -0.1250000000005199 0.0
0.24999999999987 -0.0937500000005631 0.0
0.2499999999999136 -0.0625000000006064 0.0
0.2499999999999569 -0.0312500000006497 0.0
0.2500000000000002 -6.875472413625516e-13 0.0
0.2500000000000435 0.03124999999935019 0.0
0.2500000000000868 0.06249999999939371 0.0
0.2500000000001301 0.093749999999437 0.0
0.2500000000001734 0.1249999999994803 0.0
0.2500000000002167 0.1562499999995237 0.0
0.25000000000026 0.187499999999567 0.0
0.2500000000003035 0.2187499999996103 0.0
0.2500000000003466 0.2499999999996536 0.0

CELLS 1024 5120
4 1024 1020 896 897
4 897 896 895 898
4 898 895 894 899
4 899 894 893 900
4 900 893 892 901
4 901 892 891 902
4 902 891 890 903
4 903 890 889 904
4 904 889 888 905
4 905 888 887 906
4 906 887 886 907
4 907 886 885 908
4 908 885 884 909
4 909 884 883 910
4 910 883 882 911
4 911 882 881 912
4 912 881 880 913
4 913 880 879 914
4 914 879 878 915
4 915 878 877 916
4 916 877 876 917
4 917 876 875 918
4 918 875 874 919
4 919 874 873 920
4 920 873 872 921
4 921 872 871 922
4 922 871 870 923
4 923 870 869 924
4 924 869 868 925
4 925 868 867 926
4 926 867 866 927
4 927 866 928 1021
4 1020 1019 865 896
4 896 865 864 895
4 895 864 863 894
4 894 863 862 893
4 893 862 861 892
4 892 861 860 891
4 891 860 859 890
4 890 859 858 889
4 889 858 857 888
4 888 857 856 887
4 887 856 855 886
4 886 855 854 885
4 885 854 853 884
4 884 853 852 883
4 883 852 851 882
4 882 851 850 881
4 881 850 849 880
4 880 849 848 879
4 879 848 847 878
4 878 847 846 877
4 877 846 845 876
4 876 845 844 875
4 875 844 843 874
4 874 843 842 873
4 873 842 841 872
4 872 841 840 871
4 871 840 839 870
4 870 839 838 869
4 869 838 837 868
4 868 837 836 867
4 867 836 835 866
4 866 835 929 928
4 1019 1018 834 865
4 865 834 833 864
4 864 833 832 863
4 863 832 831 862
4 862 831 830 861
4 861 830 829 860
4 860 829 828 859
4 859 828 827 858
4 858 827 826 857
4 857 826 825 856
4 856 825 824 855
4 855 824 823 854
4 854 823 822 853
4 853 822 821 852
4 852 821 820 851
4 851 820 819 850
4 850 819 818 849
4 849 818 817 848
4 848 817 816 847
4 847 816 815 846
4 846 815 814 845
4 845 814 813 844
4 844 813 812 843
4 843 812 811 842
4 842 811 810 841
4 841 810 809 840
4 840 809 808 839
4 839 808 807 838
4 838 807 806 837
4 837 806 805 836
4 836 805 804 835
4 835 804 930 929
4 1018 1017 803 834
4 834 803 802 833
4 833 802 801 832
4 832 801 800 831
4 831 800 799 830
4 830 799 798 829
4 829 798 797 828
4 828 797 796 827
4 827 796 795 826
4 826 795 794 825
4 825 794 793 824
4 824 793 792 823
4 823 792 791 822
4 822 791 790 821
4 821 790 789 820
4 820 789 788 819
4 819 788 787 818
4 818 787 786 817
4 817 786 785 816
4 816 785 784 815
4 815 784 783 814
4 814 783 782 813
4 813 782 781 812
4 812 781 780 811
4 811 780 779 810
4 810 779 778 809
4 809 778 777 808
4 808 777 776 807
4 807 776 775 806
4 806 775 774 805
4 805 774 773 804
4 804 773 931 930
4 1017 1016 772 803
4 803 772 771 802
4 802 771 770 801
4 801 770 769 800
4 800 769 768 799
4 799 768 767 798
4 798 767 766 797
4 797 766 765 796
4 796 765 764 795
4 795 764 763 794
4 794 763 762 793
4 793 762 761 792
4 792 761 760 791
4 791 760 759 790
4 790 759 758 789
4 789 758 757 788
4 788 757 756 787
4 787 756 755 786
4 786 755 754 785
4 785 754 753 784
4 784 753 752 783
4 783 752 751 782
4 782 751 750 781
4 781 750 749 780
4 780 749 748 779
4 779 748 747 778
4 778 747 746 777
4 777 746 745 776
4 776 745 744 775
4 775 744 743 774
4 774 743 742 773
4 773 742 932 931
4 1016 1015 741 772
4 772 741 740 771
4 771 740 739 770
4 770 739 738 769
4 769 738 737 768
4 768 737 736 767
4 767 736 735 766
4 766 735 734 765
4 765 734 733 764
4 764 733 732 763
4 763 732 731 762
4 762 731 730 761
4 761 730 729 760
4 760 729 728 759
4 759 728 727 758
4 758 727 726 757
4 757 726 725 756
4 756 725 724 755
4 755 724 723 754
4 754 723 722 753
4 753 722 721 752
4 752 721 720 751
4 751 720 719 750
4 750 719 718 749
4 749 718 717 748
4 748 717 716 747
4 747 716 715 746
4 746 715 714 745
4 745 714 713 744
4 744 713 712 743
4 743 712 711 742
4 742 711 933 932
4 1015 1014 710 741
4 741 710 709 740
4 740 709 708 739
4 739 708 707 738
4 738 707 706 737
4 737 706 705 736
4 736 705 704 735
4 735 704 703 734
4 734 703 702 733
4 733 702 701 732
4 732 701 700 731
4 731 700 699 730
4 730 699 698 729
4 729 698 697 728
4 728 697 696 727
4 727 696 695 726
4 726 695 694 725
4 725 694 693 724
4 724 693 692 723
4 723 692 691 722
4 722 691 690 721
4 721 690 689 720
4 720 689 688 719
4 719 688 687 718
4 718 687 686 717
4 717 686 685 716
4 716 685 684 715
4 715 684 683 714
4 714 683 682 713
4 713 682 681 712
4 712 681 680 711
4 711 680 934 933
4 1014 1013 679 710
4 710 679 678 709
4 709 678 677 708
4 708 677 676 707
4 707 676 675 706
4 706 675 674 705
4 705 674 673 704
4 704 673 1025 703
4 767 1089 1026 702
4 766 1090 1027 701
4 765 1091 1028 700
4 764 1092 1029 699
4 763 1093 1030 698
4 762 1094 1031 697
4 761 1095 1032 696
4 760 1096 1033 695
4 759 1097 1034 694
4 758 1098 1035 693
4 757 1099 1036 692
4 756 1100 1037 691
4 755 1101 1038 690
4 754 1102 1039 689
4 753 1103 1040 688
4 752 1104 1041 687
4 687 1041 672 686
4 686 672 671 685
4 685 671 670 684
4 684 670 669 683
4 683 669 668 682
4 682 668 667 681
4 681 667 666 680
4 680 666 935 934
4 1013 1012 665 679
4 679 665 664 678
4 678 664 663 677
4 677 663 662 676
4 676 662 661 675
4 675 661 660 674
4 674 660 659 673
4 737 723 1042 1025
4 1025 1042 658 1026
4 1026 658 657 1027
4 1027 657 656 1028
4 1028 656 655 1029
4 1029 655 654 1030
4 1030 654 653 1031
4 1031 653 652 1032
4 1032 652 651 1033
4 1033 651 650 1034
4 1034 650 649 1035
4 1035 649 648 1036
4 1036 648 647 1037
4 1037 647 646 1038
4 1038 646 645 1039
4 1039 645 644 1040
4 1040 644 1043 1041
4 1105 1107 643 672
4 672 643 642 671
4 671 642 641 670
4 670 641 640 669
4 669 640 639 668
4 668 639 638 667
4 667 638 637 666
4 666 637 936 935
4 1012 1011 636 665
4 665 636 635 664
4 664 635 634 663
4 663 634 633 662
4 662 633 632 661
4 661 632 631 660
4 660 631 630 659
4 723 694 1044 1042
4 1042 1044 629 658
4 658 629 628 657
4 657 628 627 656
4 656 627 626 655
4 655 626 625 654
4 654 625 624 653
4 653 624 623 652
4 652 623 622 651
4 651 622 621 650
4 650 621 620 649
4 649 620 619 648
4 648 619 618 647
4 647 618 617 646
4 646 617 616 645
4 645 616 615 644
4 644 615 1045 1043
4 1107 1109 614 643
4 643 614 613 642
4 642 613 612 641
4 641 612 611 640
4 640 611 610 639
4 639 610 609 638
4 638 609 608 637
4 637 608 937 936
4 1011 1010 607 636
4 636 607 606 635
4 635 606 605 634
4 634 605 604 633
4 633 604 603 632
4 632 603 602 631
4 631 602 601 630
4 694 665 1046 1044
4 1044 1046 600 629
4 629 600 599 628
4 628 599 598 627
4 627 598 597 626
4 626 597 596 625
4 625 596 595 624
4 624 595 594 623
4 623 594 593 622
4 622 593 592 621
4 621 592 591 620
4 620 591 590 619
4 619 590 589 618
4 618 589 588 617
4 617 588 587 616
4 616 587 586 615
4 615 586 1047 1045
4 1109 1111 585 614
4 614 585 584 613
4 613 584 583 612
4 612 583 582 611
4 611 582 581 610
4 610 581 580 609
4 609 580 579 608
4 608 579 938 937
4 1010 1009 578 607
4 607 578 577 606
4 606 577 576 605
4 605 576 575 604
4 604 575 574 603
4 603 574 573 602
4 602 573 572 601
4 665 636 1048 1046
4 1046 1048 571 600
4 600 571 570 599
4 599 570 569 598
4 598 569 568 597
4 597 568 567 596
4 596 567 566 595
4 595 566 565 594
4 594 565 564 593
4 593 564 563 592
4 592 563 562 591
4 591 562 561 590
4 590 561 560 589
4 589 560 559 588
4 588 559 558 587
4 587 558 557 586
4 586 557 1049 1047
4 1111 1113 556 585
4 585 556 555 584
4 584 555 554 583
4 583 554 553 582
4 582 553 552 581
4 581 552 551 580
4 580 551 550 579
4 579 550 939 938
4 1009 1008 549 578
4 578 549 548 577
4 577 548 547 576
4 576 547 546 575
4 575 546 545 574
4 574 545 544 573
4 573 544 543 572
4 636 607 1050 1048
4 1048 1050 542 571
4 571 542 541 570
4 570 541 540 569
4 569 540 539 568
4 568 539 538 567
4 567 538 537 566
4 566 537 536 565
4 565 536 535 564
4 564 535 534 563
4 563 534 533 562
4 562 533 532 561
4 561 532 531 560
4 560 531 530 559
4 559 530 529 558
4 558 529 528 557
4 557 528 1051 1049
4 1113 1115 527 556
4 556 527 526 555
4 555 526 525 554
4 554 525 524 553
4 553 524 523 552
4 552 523 522 551
4 551 522 521 550
4 550 521 940 939
4 1008 1007 520 549
4 549 520 519 548
4 548 519 518 547
4 547 518 517 546
4 546 517 516 545
4 545 516 515 544
4 544 515 514 543
4 607 578 1052 1050
4 1050 1052 513 542
4 542 513 512 541
4 541 512 511 540
4 540 511 510 539
4 539 510 509 538
4 538 509 508 537
4 537 508 507 536
4 536 507 506 535
4 535 506 505 534
4 534 505 504 533
4 533 504 503 532
4 532 503 502 531
4 531 502 501 530
4 530 501 500 529
4 529 500 499 528
4 528 499 1053 1051
4 1115 1117 498 527
4 527 498 497 526
4 526 497 496 525
4 525 496 495 524
4 524 495 494 523
4 523 494 493 522
4 522 493 492 521
4 521 492 941 940
4 1007 1006 491 520
4 520 491 490 519
4 519 490 489 518
4 518 489 488 517
4 517 488 487 516
4 516 487 486 515
4 515 486 485 514
4 578 549 1054 1052
4 1052 1054 484 513
4 513 484 483 512
4 512 483 482 511
4 511 482 481 510
4 510 481 480 509
4 509 480 479 508
4 508 479 478 507
4 507 478 477 506
4 506 477 476 505
4 505 476 475 504
4 504 475 474 503
4 503 474 473 502
4 502 473 472 501
4 501 472 471 500
4 500 471 470 499
4 499 470 1055 1053
4 1117 1119 469 498
4 498 469 468 497
4 497 468 467 496
4 496 467 466 495
4 495 466 465 494
4 494 465 464 493
4 493 464 463 492
4 492 463 942 941
4 1006 1005 462 491
4 491 462 461 490
4 490 461 460 489
4 489 460 459 488
4 488 459 458 487
4 487 458 457 486
4 486 457 456 485
4 549 520 1056 1054
4 1054 1056 455 484
4 484 455 454 483
4 483 454 453 482
4 482 453 452 481
4 481 452 451 480
4 480 451 450 479
4 479 450 449 478
4 478 449 448 477
4 477 448 447 476
4 476 447 446 475
4 475 446 445 474
4 474 445 444 473
4 473 444 443 472
4 472 443 442 471
4 471 442 441 470
4 470 441 1057 1055
4 1119 1121 440 469
4 469 440 439 468
4 468 439 438 467
4 467 438 437 466
4 466 437 436 465
4 465 436 435 464
4 464 435 434 463
4 463 434 943 942
4 1005 1004 433 462
4 462 433 432 461
4 461 432 431 460
4 460 431 430 459
4 459 430 429 458
4 458 429 428 457
4 457 428 427 456
4 520 491 1058 1056
4 1056 1058 426 455
4 455 426 425 454
4 454 425 424 453
4 453 424 423 452
4 452 423 422 451
4 451 422 421 450
4 450 421 420 449
4 449 420 419 448
4 448 419 418 447
4 447 418 417 446
4 446 417 416 445
4 445 416 415 444
4 444 415 414 443
4 443 414 413 442
4 442 413 412 441
4 441 412 1059 1057
4 1121 1123 411 440
4 440 411 410 439
4 439 410 409 438
4 438 409 408 437
4 437 408 407 436
4 436 407 406 435
4 435 406 405 434
4 434 405 944 943
4 1004 1003 404 433
4 433 404 403 432
4 432 403 402 431
4 431 402 401 430
4 430 401 400 429
4 429 400 399 428
4 428 399 398 427
4 491 462 1060 1058
4 1058 1060 397 426
4 426 397 396 425
4 425 396 395 424
4 424 395 394 423
4 423 394 393 422
4 422 393 392 421
4 421 392 391 420
4 420 391 390 419
4 419 390 389 418
4 418 389 388 417
4 417 388 387 416
4 416 387 386 415
4 415 386 385 414
4 414 385 384 413
4 413 384 383 412
4 412 383 1061 1059
4 1123 1125 382 411
4 411 382 381 410
4 410 381 380 409
4 409 380 379 408
4 408 379 378 407
4 407 378 377 406
4 406 377 376 405
4 405 376 945 944
4 1003 1002 375 404
4 404 375 374 403
4 403 374 373 402
4 402 373 372 401
4 401 372 371 400
4 400 371 370 399
4 399 370 369 398
4 462 433 1062 1060
4 1060 1062 368 397
4 397 368 367 396
4 396 367 366 395
4 395 366 365 394
4 394 365 364 393
4 393 364 363 392
4 392 363 362 391
4 391 362 361 390
4 390 361 360 389
4 389 360 359 388
4 388 359 358 387
4 387 358 357 386
4 386 357 356 385
4 385 356 355 384
4 384 355 354 383
4 383 354 1063 1061
4 1125 1127 353 382
4 382 353 352 381
4 381 352 351 380
4 380 351 350 379
4 379 350 349 378
4 378 349 348 377
4 377 348 347 376
4 376 347 946 945
4 1002 1001 346 375
4 375 346 345 374
4 374 345 344 373
4 373 344 343 372
4 372 343 342 371
4 371 342 341 370
4 370 341 340 369
4 433 404 1064 1062
4 1062 1064 339 368
4 368 339 338 367
4 367 338 337 366
4 366 337 336 365
4 365 336 335 364
4 364 335 334 363
4 363 334 333 362
4 362 333 332 361
4 361 332 331 360
4 360 331 330 359
4 359 330 329 358
4 358 329 328 357
4 357 328 327 356
4 356 327 326 355
4 355 326 325 354
4 354 325 1065 1063
4 1127 1129 324 353
4 353 324 323 352
4 352 323 322 351
4 351 322 321 350
4 350 321 320 349
4 349 320 319 348
4 348 319 318 347
4 347 318 947 946
4 1001 1000 317 346
4 346 317 316 345
4 345 316 315 344
4 344 315 314 343
4 343 314 313 342
4 342 313 312 341
4 341 312 311 340
4 404 375 1066 1064
4 1064 1066 310 339
4 339 310 309 338
4 338 309 308 337
4 337 308 307 336
4 336 307 306 335
4 335 306 305 334
4 334 305 304 333
4 333 304 303 332
4 332 303 302 331
4 331 302 301 330
4 330 301 300 329
4 329 300 299 328
4 328 299 298 327
4 327 298 297 326
4 326 297 296 325
4 325 296 1067 1065
4 1129 1131 295 324
4 324 295 294 323
4 323 294 293 322
4 322 293 292 321
4 321 292 291 320
4 320 291 290 319
4 319 290 289 318
4 318 289 948 947
4 1000 999 288 317
4 317 288 287 316
4 316 287 286 315
4 315 286 285 314
4 314 285 284 313
4 313 284 283 312
4 312 283 282 311
4 375 346 1068 1066
4 1066 1068 281 310
4 310 281 280 309
4 309 280 279 308
4 308 279 278 307
4 307 278 277 306
4 306 277 276 305
4 305 276 275 304
4 304 275 274 303
4 303 274 273 302
4 302 273 272 301
4 301 272 271 300
4 300 271 270 299
4 299 270 269 298
4 298 269 268 297
4 297 268 267 296
4 296 267 1069 1067
4 1131 1133 266 295
4 295 266 265 294
4 294 265 264 293
4 293 264 263 292
4 292 263 262 291
4 291 262 261 290
4 290 261 260 289
4 289 260 949 948
4 999 998 259 288
4 288 259 258 287
4 287 258 257 286
4 286 257 256 285
4 285 256 255 284
4 284 255 254 283
4 283 254 253 282
4 346 317 1070 1068
4 1068 1070 252 281
4 281 252 251 280
4 280 251 250 279
4 279 250 249 278
4 278 249 248 277
4 277 248 247 276
4 276 247 246 275
4 275 246 245 274
4 274 245 244 273
4 273 244 243 272
4 272 243 242 271
4 271 242 241 270
4 270 241 240 269
4 269 240 239 268
4 268 239 238 267
4 267 238 1071 1069
4 1133 1135 237 266
4 266 237 236 265
4 265 236 235 264
4 264 235 234 263
4 263 234 233 262
4 262 233 232 261
4 261 232 231 260
4 260 231 950 949
4 998 997 230 259
4 259 230 229 258
4 258 229 228 257
4 257 228 227 256
4 256 227 226 255
4 255 226 225 254
4 254 225 224 253
4 317 288 1072 1070
4 1070 1072 1073 252
4 252 1073 1074 251
4 251 1074 1075 250
4 250 1075 1076 249
4 249 1076 1077 248
4 248 1077 1078 247
4 247 1078 1079 246
4 246 1079 1080 245
4 245 1080 1081 244
4 244 1081 1082 243
4 243 1082 1083 242
4 242 1083 1084 241
4 241 1084 1085 240
4 240 1085 1086 239
4 239 1086 1087 238
4 238 1087 1088 1071
4 1135 1152 223 237
4 237 223 222 236
4 236 222 221 235
4 235 221 220 234
4 234 220 219 233
4 233 219 218 232
4 232 218 217 231
4 231 217 951 950
4 997 996 216 230
4 230 216 215 229
4 229 215 214 228
4 228 214 213 227
4 227 213 212 226
4 226 212 211 225
4 225 211 210 224
4 224 210 209 1072
4 1136 273 208 1073
4 1137 272 207 1074
4 1138 271 206 1075
4 1139 270 205 1076
4 1140 269 204 1077
4 1141 268 203 1078
4 1142 267 202 1079
4 1143 266 201 1080
4 1144 265 200 1081
4 1145 264 199 1082
4 1146 263 198 1083
4 1147 262 197 1084
4 1148 261 196 1085
4 1149 260 195 1086
4 1150 259 194 1087
4 1151 258 193 1088
4 1088 193 192 223
4 223 192 191 222
4 222 191 190 221
4 221 190 189 220
4 220 189 188 219
4 219 188 187 218
4 218 187 186 217
4 217 186 952 951
4 996 995 185 216
4 216 185 184 215
4 215 184 183 214
4 214 183 182 213
4 213 182 181 212
4 212 181 180 211
4 211 180 179 210
4 210 179 178 209
4 209 178 177 208
4 208 177 176 207
4 207 176 175 206
4 206 175 174 205
4 205 174 173 204
4 204 173 172 203
4 203 172 171 202
4 202 171 170 201
4 201 170 169 200
4 200 169 168 199
4 199 168 167 198
4 198 167 166 197
4 197 166 165 196
4 196 165 164 195
4 195 164 163 194
4 194 163 162 193
4 193 162 161 192
4 192 161 160 191
4 191 160 159 190
4 190 159 158 189
4 189 158 157 188
4 188 157 156 187
4 187 156 155 186
4 186 155 953 952
4 995 994 154 185
4 185 154 153 184
4 184 153 152 183
4 183 152 151 182
4 182 151 150 181
4 181 150 149 180
4 180 149 148 179
4 179 148 147 178
4 178 147 146 177
4 177 146 145 176
4 176 145 144 175
4 175 144 143 174
4 174 143 142 173
4 173 142 141 172
4 172 141 140 171
4 171 140 139 170
4 170 139 138 169
4 169 138 137 168
4 168 137 136 167
4 167 136 135 166
4 166 135 134 165
4 165 134 133 164
4 164 133 132 163
4 163 132 131 162
4 162 131 130 161
4 161 130 129 160
4 160 129 128 159
4 159 128 127 158
4 158 127 126 157
4 157 126 125 156
4 156 125 124 155
4 155 124 954 953
4 994 993 123 154
4 154 123 122 153
4 153 122 121 152
4 152 121 120 151
4 151 120 119 150
4 150 119 118 149
4 149 118 117 148
4 148 117 116 147
4 147 116 115 146
4 146 115 114 145
4 145 114 113 144
4 144 113 112 143
4 143 112 111 142
4 142 111 110 141
4 141 110 109 140
4 140 109 108 139
4 139 108 107 138
4 138 107 106 137
4 137 106 105 136
4 136 105 104 135
4 135 104 103 134
4 134 103 102 133
4 133 102 101 132
4 132 101 100 131
4 131 100 99 130
4 130 99 98 129
4 129 98 97 128
4 128 97 96 127
4 127 96 95 126
4 126 95 94 125
4 125 94 93 124
4 124 93 955 954
4 993 992 92 123
4 123 92 91 122
4 122 91 90 121
4 121 90 89 120
4 120 89 88 119
4 119 88 87 118
4 118 87 86 117
4 117 86 85 116
4 116 85 84 115
4 115 84 83 114
4 114 83 82 113
4 113 82 81 112
4 112 81 80 111
4 111 80 79 110
4 110 79 78 109
4 109 78 77 108
4 108 77 76 107
4 107 76 75 106
4 106 75 74 105
4 105 74 73 104
4 104 73 72 103
4 103 72 71 102
4 102 71 70 101
4 101 70 69 100
4 100 69 68 99
4 99 68 67 98
4 98 67 66 97
4 97 66 65 96
4 96 65 64 95
4 95 64 63 94
4 94 63 62 93
4 93 62 956 955
4 992 991 61 92
4 92 61 60 91
4 91 60 59 90
4 90 59 58 89
4 89 58 57 88
4 88 57 56 87
4 87 56 55 86
4 86 55 54 85
4 85 54 53 84
4 84 53 52 83
4 83 52 51 82
4 82 51 50 81
4 81 50 49 80
4 80 49 48 79
4 79 48 47 78
4 78 47 46 77
4 77 46 45 76
4 76 45 44 75
4 75 44 43 74
4 74 43 42 73
4 73 42 41 72
4 72 41 40 71
4 71 40 39 70
4 70 39 38 69
4 69 38 37 68
4 68 37 36 67
4 67 36 35 66
4 66 35 34 65
4 65 34 33 64
4 64 33 32 63
4 63 32 31 62
4 62 31 957 956
4 991 990 30 61
4 61 30 29 60
4 60 29 28 59
4 59 28 27 58
4 58 27 26 57
4 57 26 25 56
4 56 25 24 55
4 55 24 23 54
4 54 23 22 53
4 53 22 21 52
4 52 21 20 51
4 51 20 19 50
4 50 19 18 49
4 49 18 17 48
4 48 17 16 47
4 47 16 15 46
4 46 15 14 45
4 45 14 13 44
4 44 13 12 43
4 43 12 11 42
4 42 11 10 41
4 41 10 9 40
4 40 9 8 39
4 39 8 7 38
4 38 7 6 37
4 37 6 5 36
4 36 5 4 35
4 35 4 3 34
4 34 3 2 33
4 33 2 1 32
4 32 1 0 31
4 31 0 958 957
4 990 1023 989 30
4 30 989 988 29
4 29 988 987 28
4 28 987 986 27
4 27 986 985 26
4 26 985 984 25
4 25 984 983 24
4 24 983 982 23
4 23 982 981 22
4 22 981 980 21
4 21 980 979 20
4 20 979 978 19
4 19 978 977 18
4 18 977 976 17
4 17 976 975 16
4 16 975 974 15
4 15 974 973 14
4 14 973 972 13
4 13 972 971 12
4 12 971 970 11
4 11 970 969 10
4 10 969 968 9
4 9 968 967 8
4 8 967 966 7
4 7 966 965 6
4 6 965 964 5
4 5 964 963 4
4 4 963 962 3
4 3 962 961 2
4 2 961 960 1
4 1 960 959 0
4 0 959 1022 958

CELL_TYPES 1024
9
9
9
9
9
9
9
9
9
9
9
9
9
9
9
9
9
9
9
9
9
9
9
9
9
9
9
9
9
9
9
9
9
9
9
9
9
9
9
9
9
9
9
9
9
9
9
9
9
9
9
9
9
9
9
9
9
9
9
9
9
9
9
9
9
9
9
9
9
9
9
9
9
9
9
9
9
9
9
9
9
9
9
9
9
9
9
9
9
9
9
9
9
9
9
9
9
9
9
9
9
9
9
9
9
9
9
9
9
9
9
9
9
9
9
9
9
9
9
9
9
9
9
9
9
9
9
9
9
9
9
9
9
9
9
9
9
9
9
9
9
9
9
9
9
9
9
9
9
9
9
9
9
9
9
9
9
9
9
9
9
9
9
9
9
9
9
9
9
9
9
9
9
9
9
9
9
9
9
9
9
9
9
9
9
9
9
9
9
9
9
9
9
9
9
9
9
9
9
9
9
9
9
9
9
9
9
9
9
9
9
9
9
9
9
9
9
9
9
9
9
9
9
9
9
9
9
9
9
9
9
9
9
9
9
9
9
9
9
9
9
9
9
9
9
9
9
9
9
9
9
9
9
9
9
9
9
9
9
9
9
9
9
9
9
9
9
9
9
9
9
9
9
9
9
9
9
9
9
9
9
9
9
9
9
9
9
9
9
9
9
9
9
9
9
9
9
9
9
9
9
9
9
9
9
9
9
9
9
9
9
9
9
9
9
9
9
9
9
9
9
9
9
9
9
9
9
9
9
9
9
9
9
9
9
9
9
9
9
9
9
9
9
9
9
9
9
9
9
9
9
9
9
9
9
9
9
9
9
9
9
9
9
9
9
9
9
9
9
9
9
9
9
9
9
9
9
9
9
9
9
9
9
9
9
9
9
9
9
9
9
9
9
9
9
9
9
9
9
9
9
9
9
9
9
9
9
9
9
9
9
9
9
9
9
9
9
9
9
9
9
9
9
9
9
9
9
9
9
9
9
9
9
9
9
9
9
9
9
9
9
9
9
9
9
9
9
9
9
9
9
9
9
9
9
9
9
9
9
9
9
9
9
9
9
9
9
9
9
9
9
9
9
9
9
9
9
9
9
9
9
9
9
9
9
9
9
9
9
9
9
9
9
9
9
9
9
9
9
9
9
9
9
9
9
9
9
9
9
9
9
9
9
9
9
9
9
9
9
9
9
9
9
9
9
9
9
9
9
9
9
9
9
9
9
9
9
9
9
9
9
9
9
9
9
9
9
9
9
9
9
9
9
9
9
9
9
9
9
9
9
9
9
9
9
9
9
9
9
9
9
9
9
9
9
9
9
9
9
9
9
9
9
9
9
9
9
9
9
9
9
9
9
9
9
9
9
9
9
9
9
9
9
9
9
9
9
9
9
9
9
9
9
9
9
9
9
9
9
9
9
9
9
9
9
9
9
9
9
9
9
9
9
9
9
9
9
9
9
9
9
9
9
9
9
9
9
9
9
9
9
9
9
9
9
9
9
9
9
9
9
9
9
9
9
9
9
9
9
9
9
9
9
9
9
9
9
9
9
9
9
9
9
9
9
9
9
9
9
9
9
9
9
9
9
9
9
9
9
9
9
9
9
9
9
9
9
9
9
9
9
9
9
9
9
9
9
9
9
9
9
9
9
9
9
9
9
9
9
9
9
9
9
9
9
9
9
9
9
9
9
9
9
9
9
9
9
9
9
9
9
9
9
9
9
9
9
9
9
9
9
9
9
9
9
9
9
9
9
9
9
9
9
9
9
9
9
9
9
9
9
9
9
9
9
9
9
9
9
9
9
9
9
9
9
9
9
9
9
9
9
9
9
9
9
9
9
9
9
9
9
9
9
9
9
9
9
9
9
9
9
9
9
9
9
9
9
9
9
9
9
9
9
9
9
9
9
9
9
9
9
9
9
9
9
9
9
9
9
9
9
9
9
9
9
9
9
9
9
9
9
9
9
9
9
9
9
9
9
9
9
9
9
9
9
9
9
9
9
9
9
9
9
9
9
9
9
9
9
9
9
9
9
9
9
9
9
9
9
9
9
9
9
9
9
9
9
9
9
9
9
9
9
9
9
9
9
9
9
9
9
9
9
9
9
9
9
9
9
9
9
9
9
9
9
9
9
9
9
9
9
9
9
9
9
9
9
9
9
9
9
9
9
9
9
9
9
9
9
9
9
9
9
9
9
9
9
9
9
9
9
9
9
9
9
9
9
9
9
9
9
9
9
9
9
9
9
9
9
9
9
9
9
9
9
9
9
9
9
9
9
9
9
9
9
9
9
9
9
9
9
9
9
9
9
9
9
9
9
9
9
9
9
9

POINT_DATA 1153
SCALARS U float
LOOKUP_TABLE default
1.216349590760286e-13
0.028320312500153332
0.054687500000177386
0.07910156250019523
0.10156250000020767
0.12207031250021667
0.14062500000022277
0.15722656250022593
0.1718750000002265
0.1845703125002223
0.1953125000002119
0.2041015625001936
0.21093750000016612
0.21582031250012831
0.21875000000007985
0.21972656250002068
0.2187499999999607
0.21582031249991035
0.21093749999987002
0.2041015624998391
0.19531249999981742
0.18457031249980327
0.1718749999997953
0.15722656249979236
0.14062499999979272
0.12207031249979591
0.10156249999980234
0.07910156249981257
0.05468749999982849
0.028320312499850047
-1.2004021360132592e-13
-0.028320312499848906
1.4356911230564677e-13
0.02636718750013106
0.05078125000011673
0.07324218750010339
0.09375000000009422
0.11230468750009051
0.12890625000009387
0.14355468750010203
0.15625000000011224
0.1669921875001211
0.17578125000012432
0.18261718750011946
0.1875000000001044
0.1904296875000786
0.19140625000004147
0.19042968750000322
0.18749999999997405
0.1826171874999538
0.1757812499999421
0.16699218749993805
0.15624999999993935
0.14355468749994232
0.12890624999994368
0.11230468749993987
0.09374999999993078
0.07324218749991625
0.05078124999989853
0.02636718749988021
-1.3637894843020375e-13
-0.028320312500147205
-0.054687499999831864
-0.026367187499881116
6.834841142268346e-14
0.024414062500019592
0.04687499999997816
0.0673828124999493
0.0859374999999361
0.1025390624999405
0.11718749999996028
0.12988281249999
0.1406250000000226
0.1494140625000508
0.1562500000000714
0.1611328125000809
0.16406250000007835
0.16503906250006406
0.16406250000004732
0.16113281250003908
0.15625000000003986
0.14941406250004946
0.1406250000000665
0.12988281250008699
0.11718750000010514
0.10253906250011449
0.08593750000010937
0.06738281250008755
0.04687500000005054
0.024414062500002685
-5.217092935854315e-14
-0.026367187500108295
-0.054687500000162655
-0.0791015624998279
-0.050781249999920966
-0.024414062500013906
-1.0138941611897955e-13
0.022460937499824737
0.042968749999771835
0.061523437499748174
0.07812499999975703
0.09277343749979533
0.10546874999985231
0.11621093749991596
0.1249999999999753
0.131835937500024
0.13671875000005962
0.13964843750008055
0.1406250000000884
0.13964843750009293
0.13671875000010514
0.13183593750012731
0.12500000000016045
0.11621093750020277
0.1054687500002494
0.092773437500291
0.07812500000031496
0.06152343750031105
0.04296875000027598
0.022460937500212986
1.2992838233287912e-13
-0.024414062499964827
-0.050781250000064976
-0.07910156250016506
-0.10156249999983818
-0.07324218749997884
-0.046875000000118
-0.02246093750025088
-3.661426921570881e-13
0.02050781249954944
0.03906249999951038
0.055664062499528294
0.07031249999959802
0.08300781249969788
0.09374999999980309
0.10253906249989973
0.10937499999998074
0.11425781250004358
0.1171875000000879
0.11816406250011612
0.11718750000013943
0.11425781250017028
0.10937500000021319
0.10253906250027141
0.09375000000034499
0.08300781250042827
0.07031250000050755
0.05566406250055888
0.039062500000560364
0.020507812500507507
4.109491783659767e-13
-0.0224609374997147
-0.046874999999856844
-0.07324218750000563
-0.10156250000015384
-0.12207031249986132
-0.09375000000005304
-0.06738281250024526
-0.042968750000432744
-0.020507812500601613
-7.323808148468377e-13
0.01855468749919878
0.03515624999922772
0.04980468749935877
0.06249999999953016
0.07324218749969029
0.08203124999982968
0.08886718749994635
0.09375000000003768
0.09667968750010332
0.09765625000014855
0.09667968750018695
0.09375000000023209
0.08886718750029265
0.08203125000037666
0.07324218750048629
0.06250000000061895
0.04980468750076461
0.03515625000087215
0.018554687500881573
7.970226278098525e-13
-0.0205078124993474
-0.042968749999528176
-0.06738281249972622
-0.09374999999992911
-0.1220703125001295
-0.14062499999989594
-0.11230468750014042
-0.08593750000039233
-0.06152343750064609
-0.039062500000888
-0.0185546875010905
-1.212451247500251e-12
0.01660156249876128
0.03124999999909433
0.0439453124993704
0.05468749999958759
0.06347656249977239
0.07031249999992868
0.07519531250005258
0.0781250000001308
0.07910156250018778
0.078125000000237
0.07519531250028529
0.07031250000035612
0.06347656250046449
0.05468750000061445
0.043945312500799937
0.031250000001044664
0.01660156250134635
1.2994805789120087e-12
-0.0185546874988392
-0.03906249999905644
-0.06152343749931152
-0.08593749999957682
-0.1123046874998392
-0.14062500000009415
-0.1572265624999389
-0.12890625000023612
-0.10253906250055025
-0.07812500000088159
-0.055664062501221946
-0.03515625000154409
-0.01660156250176052
-0.016601562498147954
-0.035156249998382585
-0.05566406249872001
-0.07812499999907391
-0.10253906249941741
-0.1289062499997426
-0.15722656250005068
-0.1718749999999849
-0.14355468750032932
-0.11718750000070319
-0.0927734375011174
-0.07031250000157749
-0.04980468750207722
-0.03125000000259926
4.3482500414404776e-13
0.12695312500073855
0.23437500000091024
0.3222656250009533
0.3906250000009139
0.4394531250007691
0.46875000000051675
0.4785156250001917
0.468749999999869
0.4394531249995831
0.3906249999993763
0.32226562499928796
0.23437499999929542
0.12695312499943648
-2.9700221974692173e-13
-0.031249999997310932
-0.049804687497848464
-0.07031249999836363
-0.09277343749883711
-0.11718749999926391
-0.14355468749964936
-0.1718750000000044
-0.18457031250002826
-0.15625000000040565
-0.12988281250082825
-0.1054687500013184
-0.08300781250190037
-0.06250000000259961
-0.04394531250344867
-0.12695312500079894
-1.9798460918920182e-13
0.10742187500019637
0.19531250000041706
0.2636718750005122
0.31250000000048733
0.3417968750003593
0.3515625000001615
0.34179687499996203
0.3124999999998111
0.263671874999745
0.19531249999980405
0.1074218749999943
3.618121732186256e-13
-0.1269531249990634
-0.0439453124964606
-0.06249999999732626
-0.08300781249804107
-0.10546874999863651
-0.12988281249913924
-0.15624999999957329
-0.18457031249996111
-0.19531250000006187
-0.16699218750045125
-0.14062500000089945
-0.1162109375014405
-0.09375000000211814
-0.07324218750298697
-0.05468750000411602
-0.2343750000018769
-0.10742187500100625
-4.1524901825432687e-13
0.08789062499995559
0.1562500000001676
0.2050781250002485
0.23437500000022657
0.2441406250001367
0.23437500000004483
0.20507812500000547
0.15625000000005712
0.08789062500024157
5.893807462997304e-13
-0.10742187499884367
-0.23437499999799621
-0.0546874999957923
-0.07324218749694028
-0.09374999999782511
-0.11621093749851652
-0.1406249999990699
-0.1669921874995287
-0.1953124999999281
-0.20410156250008002
-0.17578125000045197
-0.14941406250089115
-0.12500000000144074
-0.10253906250215922
-0.08203125000312791
-0.06347656250445263
-0.32226562500262335
-0.19531250000156963
-0.08789062500084864
-3.764343423598225e-13
0.06835937499991451
0.11718750000006947
0.146484375000124
0.1562500000001157
0.14648437500010558
0.11718750000014792
0.06835937500028212
5.530925617953229e-13
-0.08789062499899429
-0.19531249999828967
-0.32226562499724987
-0.06347656249545805
-0.082031249996804
-0.10253906249778835
-0.12499999999851988
-0.14941406249908032
-0.17578124999952927
-0.20410156249991082
-0.21093750000007916
-0.1826171875004008
-0.15625000000078806
-0.1318359375012878
-0.10937500000196745
-0.0888671875029291
-0.0703125000043143
-0.3906250000029511
-0.2636718750018223
-0.1562500000010557
-0.0683593750005499
-2.2841769868617206e-13
0.0488281249999607
0.0781250000000574
0.08789062500009917
0.07812500000013829
0.04882812500022548
3.982470285582133e-13
-0.06835937499929708
-0.15624999999880895
-0.2636718749980585
-0.3906249999969418
-0.07031249999560808
-0.08886718749701147
-0.1093749999979871
-0.13183593749867797
-0.15624999999918687
-0.1826171874995828
-0.21093749999991268
-0.21582031250006065
-0.18750000000029785
-0.16113281250058864
-0.13671875000097278
-0.11425781250151447
-0.09375000000232275
-0.07519531250359368
-0.4394531250027155
-0.3125000000016786
-0.20507812500098815
-0.11718750000053713
-0.048828125000248246
-7.321695504178026e-14
0.029296875000027377
0.039062500000084155
0.029296875000139045
2.30798444271667e-13
-0.048828124999607106
-0.11718749999933424
-0.2050781249988987
-0.312499999998225
-0.43945312499720246
-0.07519531249634669
-0.09374999999763081
-0.11425781249844899
-0.13671874999899875
-0.16113281249939054
-0.1874999999996881
-0.21582031249993228
-0.2187500000000302
-0.19042968750015526
-0.16406250000031078
-0.1396484375005202
-0.11718750000082348
-0.09667968750129834
-0.07812500000212756
-0.46875000000177797
-0.3417968750010752
-0.23437500000062106
-0.14648437500033057
-0.07812500000014702
-0.029296875000034816
3.163174303752671e-14
0.009765625000071977
1.0977581885512489e-13
-0.02929687499983135
-0.07812499999973048
-0.14648437499956052
-0.23437499999928482
-0.3417968749988458
-0.46874999999815664
-0.07812499999783526
-0.09667968749867085
-0.11718749999915018
-0.13964843749945846
-0.16406249999967268
-0.1904296874998335
-0.21874999999996408
-0.21972656249999742
-0.19140624999999473
-0.16503906249999215
-0.14062499999998987
-0.11816406249998775
-0.09765624999998736
-0.0791015624999924
-0.47851562499999
-0.35156249999997424
-0.24414062499996242
-0.15624999999995326
-0.08789062499994571
-0.03906249999994094
-0.009765624999938577
6.147029602861981e-14
-0.009765624999941205
-0.03906249999994668
-0.08789062499995406
-0.15624999999996186
-0.24414062499997058
-0.35156249999998135
-0.47851562499999434
-0.0791015625000016
-0.09765624999999718
-0.11816406249999542
-0.14062499999999503
-0.16503906249999573
-0.19140624999999684
-0.21972656249999833
-0.21874999999996458
-0.19042968749983386
-0.16406249999967318
-0.13964843749945915
-0.11718749999915093
-0.09667968749867252
-0.07812499999784281
-0.4687499999981694
-0.3417968749988561
-0.23437499999929365
-0.14648437499957037
-0.0781249999997411
-0.02929687499984448
9.368303578131806e-14
0.009765625000053511
1.0152396715407132e-14
-0.029296875000059914
-0.07812500000017529
-0.14648437500036
-0.234375000000654
-0.3417968750011126
-0.4687500000018265
-0.0781250000021641
-0.09667968750132105
-0.11718750000083901
-0.1396484375005311
-0.16406250000031813
-0.19042968750015998
-0.21875000000003222
-0.2158203124999338
-0.18749999999969125
-0.16113281249939532
-0.13671874999900543
-0.11425781249845793
-0.09374999999764183
-0.07519531249635635
-0.4394531249972125
-0.3124999999982411
-0.20507812499891878
-0.11718749999935738
-0.0488281249996327
2.0057048824372738e-13
0.029296875000104788
0.03906250000004814
0.029296874999987586
-1.1710033432689934e-13
-0.048828125000294806
-0.11718750000058192
-0.2050781250010339
-0.3125000000017269
-0.4394531250027704
-0.07519531250364074
-0.09375000000235358
-0.11425781250153579
-0.13671875000098796
-0.16113281250059902
-0.18750000000030467
-0.21582031250006395
-0.21093749999991532
-0.18261718749958844
-0.15624999999919556
-0.1318359374986905
-0.10937499999800408
-0.08886718749703297
-0.07031249999563159
-0.3906249999969688
-0.2636718749980906
-0.1562499999988459
-0.06835937499933789
3.545488819494699e-13
0.04882812500017715
0.07812500000008593
0.08789062500004517
0.07812499999999943
0.04882812499989704
-2.9276264617218857e-13
-0.06835937500061069
-0.15625000000111358
-0.2636718750018786
-0.39062500000300887
-0.07031250000435875
-0.08886718750296227
-0.10937500000199202
-0.13183593750130557
-0.15625000000080075
-0.18261718750040878
-0.21093750000008307
-0.2041015624999145
-0.17578124999953706
-0.14941406249909284
-0.1249999999985378
-0.10253906249781272
-0.08203124999683731
-0.06347656249550535
-0.32226562499731287
-0.19531249999834954
-0.08789062499905362
4.921678215300251e-13
0.06835937500022105
0.11718750000008092
0.1464843750000335
0.15625000000004458
0.14648437500004774
0.11718749999998514
0.06835937499983034
-4.525503276726415e-13
-0.08789062500091784
-0.19531250000163175
-0.3222656250026768
-0.06347656250449127
-0.08203125000316057
-0.10253906250218539
-0.12500000000146036
-0.14941406250090533
-0.17578125000046127
-0.20410156250008435
-0.19531249999993303
-0.16699218749953848
-0.14062499999908507
-0.1162109374985384
-0.09374999999785523
-0.0732421874969819
-0.05468749999585201
-0.23437499999807362
-0.10742187499891945
5.143312485699716e-13
0.08789062500016498
0.1562499999999813
0.20507812499992037
0.23437499999995276
0.24414062500004804
0.23437500000013053
0.20507812500013953
0.15625000000005893
0.08789062499986301
-4.982172134157148e-13
-0.1074218750010762
-0.23437500000192996
-0.05468750000415227
-0.07324218750301931
-0.09375000000214481
-0.11621093750146137
-0.14062500000091416
-0.16699218750046096
-0.19531250000006656
-0.18457031249996647
-0.15624999999958375
-0.1298828124991561
-0.10546874999866072
-0.08300781249807382
-0.062499999997370714
-0.04394531249651931
-0.12695312499914138
2.7868233490107255e-13
0.10742187499990784
0.19531249999971423
0.263671874999658
0.3124999999997081
0.34179687499984773
0.35156250000005607
0.3417968750002433
0.3125000000003488
0.26367187500037254
0.19531250000030298
0.10742187500009727
-2.8131052986272854e-13
-0.1269531250008615
-0.04394531250348641
-0.0625000000026323
-0.08300781250192758
-0.10546875000133996
-0.12988281250084405
-0.1562500000004157
-0.1845703125000334
-0.1718750000000097
-0.1435546874996606
-0.11718749999928155
-0.09277343749886174
-0.07031249999839705
-0.04980468749789214
-0.031249999997364858
-3.74089328761042e-13
0.12695312499934416
0.23437499999919825
0.3222656249991856
0.3906249999992803
0.4394531249994613
0.46874999999972944
0.4785156250000724
0.46875000000038075
0.43945312500059275
0.3906250000007361
0.32226562500081646
0.23437500000079237
0.12695312500064052
3.664111563201967e-13
-0.03125000000264003
-0.04980468750211156
-0.07031250000160527
-0.09277343750113914
-0.11718750000071917
-0.1435546875003394
-0.17187499999999004
-0.1572265625000561
-0.12890624999975392
-0.10253906249943472
-0.07812499999909824
-0.05566406249875231
-0.03515624999842388
-0.016601562498199704
-0.01660156250180594
-0.03515625000157988
-0.05566406250125014
-0.07812500000090342
-0.10253906250056628
-0.12890625000024664
-0.15722656249994396
-0.14062500000009917
-0.1123046874998497
-0.08593749999959337
-0.061523437499334595
-0.039062499999086626
-0.018554687498877207
1.252676120725859e-12
0.016601562501289087
0.03125000000097378
0.043945312500716524
0.05468750000052033
0.06347656250036765
0.0703125000002539
0.0751953125001657
0.07812500000010486
0.07910156250005987
0.07812499999998966
0.07519531249988244
0.07031249999975783
0.06347656249962844
0.05468749999946606
0.04394531249926883
0.03124999999901539
0.01660156249870377
-1.2576909406812718e-12
-0.01855468750112631
-0.03906250000091569
-0.06152343750066705
-0.08593750000040752
-0.11230468750015052
-0.14062499999990072
-0.1220703125001343
-0.0937499999999388
-0.0673828124997413
-0.042968749999549076
-0.020507812499374268
7.629143469799457e-13
0.018554687500839596
0.03515625000082152
0.04980468750070438
0.06250000000054927
0.07324218750040878
0.08203125000029288
0.08886718750020177
0.09375000000013226
0.09667968750007945
0.09765625000003532
0.09667968749998201
0.0937499999999085
0.08886718749981799
0.08203124999971237
0.0732421874995882
0.062499999999444264
0.04980468749928933
0.03515624999917309
0.018554687499155873
-7.662560429387753e-13
-0.02050781250062773
-0.042968750000452596
-0.06738281250025985
-0.09375000000006176
-0.12207031249986579
-0.10156250000015794
-0.07324218750001395
-0.046874999999869625
-0.02246093749973265
3.874740921915324e-13
0.020507812500478135
0.03906250000052444
0.05566406250051627
0.0703125000004576
0.0830078125003712
0.09375000000028136
0.10253906250020185
0.10937500000013727
0.1142578125000881
0.11718750000005144
0.1181640625000227
0.11718749999998981
0.11425781249994278
0.10937499999988162
0.10253906249980714
0.09374999999972083
0.08300781249962703
0.07031249999953917
0.05566406249948037
0.03906249999947232
0.020507812499519128
-3.895418541969158e-13
-0.022460937500268473
-0.046875000000130916
-0.07324218749998673
-0.10156249999984227
-0.07910156250016846
-0.05078125000007246
-0.024414062499976255
1.15099778831435e-13
0.022460937500193828
0.042968750000251854
0.06152343750028163
0.07812500000028055
0.09277343750025085
0.10546875000020406
0.11621093750015217
0.12500000000010458
0.13183593750006692
0.13671875000003988
0.13964843750002348
0.14062500000001513
0.13964843750000458
0.13671874999998265
0.1318359374999489
0.1249999999999045
0.11621093749985201
0.10546874999979666
0.09277343749974785
0.07812499999971767
0.061523437499716
0.04296874999974626
0.02246093749980484
-1.1621996320065443e-13
-0.024414062500024786
-0.050781249999927905
-0.07910156249983187
-0.05468750000016522
-0.026367187500114044
-6.039901792985112e-14
0.0244140624999909
0.04687500000003581
0.06738281250006885
0.08593750000008694
0.10253906250008829
0.11718750000007508
0.12988281250005285
0.14062500000002848
0.14941406250000785
0.1562499999999945
0.16113281249999042
0.16406249999999586
0.1650390625000098
0.16406250000002268
0.16113281250002504
0.15625000000001693
0.1494140624999997
0.14062499999997552
0.12988281249994843
0.11718749999992464
0.10253906249991064
0.08593749999991167
0.06738281249992946
0.046874999999962745
0.024414062500008014
6.006014760879621e-14
-0.02636718749988623
-0.05468749999983477
-0.028320312500149235
-1.3989682919124629e-13
0.02636718749987431
0.050781249999890164
0.07324218749990646
0.09374999999991838
0.11230468749992496
0.12890624999992603
0.14355468749992226
0.15624999999991637
0.16699218749991274
0.17578124999991435
0.18261718749992356
0.18749999999994169
0.19042968749996908
0.191406250000006
0.1904296875000421
0.18750000000006803
0.18261718750008385
0.17578125000009068
0.16699218750009007
0.15625000000008482
0.14355468750007813
0.12890625000007352
0.11230468750007393
0.09375000000008048
0.07324218750009265
0.05078125000010844
0.02636718750012522
1.3966663335992802e-13
-0.02832031249985074
-1.2066153356477093e-13
0.028320312499848423
0.054687499999825064
0.0791015624998086
0.10156249999979748
0.12207031249978968
0.14062499999978526
0.15722656249978373
0.17187499999978526
0.18457031249979172
0.1953124999998048
0.20410156249982547
0.21093749999985487
0.21582031249989422
0.21874999999994352
0.2197265625000029
0.21875000000006184
0.2158203125001104
0.2109375000001486
0.20410156250017716
0.19531250000019673
0.18457031250020872
0.1718750000002148
0.15722656250021644
0.14062500000021452
0.12207031250021023
0.1015625000002024
0.0791015625001908
0.05468750000017457
0.02832031250015171
1.2091965747242775e-13
0.030273437500081296
0.05859375000015163
0.08496093750021116
0.10937500000025988
0.13183593750029782
0.15234375000032488
0.17089843750034112
0.1875000000003465
0.20214843750034106
0.21484375000032482
0.22558593750029776
0.23437500000025988
0.24121093750021114
0.2460937500001516
0.2490234375000812
0.25
0.2490234374999188
0.2460937499998484
0.24121093749978884
0.23437499999974007
0.22558593749970215
0.21484374999967507
0.2021484374996588
0.18749999999965336
0.17089843749965877
0.152343749999675
0.1318359374997021
0.10937499999974004
0.08496093749978884
0.058593749999848344
0.030273437499918704
-0.030273437500081296
-0.05859375000015163
-0.08496093750021116
-0.10937500000025988
-0.13183593750029782
-0.15234375000032488
-0.17089843750034112
-0.1875000000003465
-0.20214843750034106
-0.21484375000032482
-0.22558593750029776
-0.23437500000025988
-0.24121093750021114
-0.2460937500001516
-0.2490234375000812
-0.25
-0.2490234374999188
-0.2460937499998484
-0.24121093749978884
-0.23437499999974007
-0.22558593749970215
-0.21484374999967507
-0.2021484374996588
-0.18749999999965336
-0.17089843749965877
-0.152343749999675
-0.1318359374997021
-0.10937499999974004
-0.08496093749978884
-0.058593749999848344
-0.030273437499918704
0.030273437500081296
0.05859375000015163
0.08496093750021116
0.10937500000025988
0.13183593750029782
0.15234375000032488
0.17089843750034112
0.1875000000003465
0.20214843750034106
0.21484375000032482
0.22558593750029776
0.23437500000025988
0.24121093750021114
0.2460937500001516
0.2490234375000812
0.25
0.2490234374999188
0.2460937499998484
0.24121093749978884
0.23437499999974007
0.22558593749970215
0.21484374999967507
0.2021484374996588
0.18749999999965336
0.17089843749965877
0.152343749999675
0.1318359374997021
0.10937499999974004
0.08496093749978884
0.058593749999848344
0.030273437499918704
-0.030273437500081296
-0.05859375000015163
-0.08496093750021116
-0.10937500000025988
-0.13183593750029782
-0.15234375000032488
-0.17089843750034112
-0.1875000000003465
-0.20214843750034106
-0.21484375000032482
-0.22558593750029776
-0.23437500000025988
-0.24121093750021114
-0.2460937500001516
-0.2490234375000812
-0.25
-0.2490234374999188
-0.2460937499998484
-0.24121093749978884
-0.23437499999974007
-0.22558593749970215
-0.21484374999967507
-0.2021484374996588
-0.18749999999965336
-0.17089843749965877
-0.152343749999675
-0.1318359374997021
-0.10937499999974004
-0.08496093749978884
-0.058593749999848344
-0.030273437499918704
0.0
0.0
0.0
0.0
1.3105226645714724e-12
0.146484375001627
0.27343750000173533
0.3808593750016691
0.46875000000149963
0.5371093750012149
0.5859375000009285
0.6152343750005886
0.6250000000001128
0.6152343749995609
0.5859374999991146
0.5371093749987693
0.46874999999848266
0.38085937499830036
0.27343749999823275
0.14648437499836073
-1.316589492002592e-12
-0.1464843750001586
-0.1464843749998477
-0.2734375000018612
-0.2734374999981466
-0.3808593750032726
-0.3808593749967459
-0.468750000004293
-0.4687499999957
-0.5371093750047703
-0.5371093749952023
-0.5859375000045565
-0.5859374999954381
-0.6152343750032042
-0.6152343749968419
-0.6250000000000114
-0.6250000000000199
-0.6152343749968099
-0.615234375003127
-0.5859374999954452
-0.5859375000044842
-0.5371093749951893
-0.5371093750047106
-0.46874999999562517
-0.4687500000042481
-0.38085937499665434
-0.38085937500323935
-0.27343749999807143
-0.2734375000018179
-0.14648437499978292
-0.14648437500011144
-1.2577710613074214e-12
0.14648437499844155
0.2734374999983334
0.3808593749984163
0.46874999999859646
0.5371093749988612
0.5859374999992608
0.6152343749997439
0.6250000000002297
0.6152343750007306
0.5859375000011696
0.5371093750014602
0.4687500000016572
0.38085937500180744
0.2734375000018598
0.14648437500170916
1.363519346645778e-12
-1.8230989433029684e-12
0.014648437498743377
0.02734374999909395
0.038085937499359936
0.04687499999954832
0.05371093749967959
0.058593749999853964
0.06152343750003089
0.0625000000001137
0.0615234375001193
0.05859375000018577
0.053710937500302994
0.046875000000432654
0.03808593750061022
0.0273437500008717
0.01464843750124577
1.8167880526326686e-12
-0.014648437503082519
-0.014648437496923643
-0.02734375000450949
-0.027343749995497085
-0.03808593750562759
-0.038085937494391445
-0.046875000006275556
-0.04687499999371619
-0.05371093750636048
-0.05371093749361026
-0.05859375000566186
-0.058593749994329924
-0.061523437503837534
-0.06152343749620678
-0.06250000000001124
-0.06250000000002295
-0.06152343749617422
-0.06152343750375601
-0.058593749994339694
-0.058593750005592075
-0.05371093749359813
-0.05371093750630044
-0.046874999993639165
-0.04687500000623061
-0.03808593749429967
-0.03808593750559668
-0.027343749995421204
-0.027343750004463686
-0.014648437496859314
-0.014648437503038226
1.8759914509035187e-12
0.014648437501325984
0.027343750000974557
0.03808593750072391
0.04687500000055072
0.05371093750039252
0.0585937500003321
0.06152343750030634
0.06250000000022655
0.06152343750017213
0.05859375000009788
0.05371093749992925
0.04687499999970295
0.03808593749949913
0.027343749999220263
0.014648437498823726
-1.7679319111717307e-12
