$MeshFormat
2.2 0 8
$EndMeshFormat
$PhysicalNames
5
1 2 "bottom"
1 3 "right "
1 4 "top   "
1 5 "left  "
2 1 "domain"
$EndPhysicalNames
$Nodes
25
1 -0.5 -0.5 0
2 0.5 -0.5 0
3 0.5 0.5 0
4 -0.5 0.5 0
5 -0.2500000000006933 -0.5 0
6 -1.375122238300719e-12 -0.5 0
7 0.249999999999307 -0.5 0
8 0.5 -0.2500000000006933 0
9 0.5 -1.375122238300719e-12 0
10 0.5 0.249999999999307 0
11 0.2500000000006933 0.5 0
12 1.375122238300719e-12 0.5 0
13 -0.249999999999307 0.5 0
14 -0.5 0.2500000000006933 0
15 -0.5 1.375122238300719e-12 0
16 -0.5 -0.249999999999307 0
17 -0.2500000000003467 -0.2499999999996536 0
18 -0.2500000000000002 6.875333635747438e-13 0
19 -0.2499999999996536 0.2500000000003468 0
20 -6.875333635747438e-13 -0.2500000000000002 0
21 0 0 0
22 6.874500968478969e-13 0.2500000000000002 0
23 0.2499999999996536 -0.2500000000003467 0
24 0.2500000000000002 -6.875472413625516e-13 0
25 0.2500000000003466 0.2499999999996536 0
$EndNodes
$Elements
28
1 1 2 2 1 1 5
2 1 2 2 1 5 6
3 1 2 2 1 6 7
4 1 2 2 1 7 2
5 1 2 4 3 3 11
6 1 2 4 3 11 12
7 1 2 4 3 12 13
8 1 2 4 3 13 4
9 1 2 5 4 4 14
10 1 2 5 4 14 15
11 1 2 5 4 15 16
12 1 2 5 4 16 1
13 3 2 1 1 1 5 17 16
14 3 2 1 1 16 17 18 15
15 3 2 1 1 15 18 19 14
16 3 2 1 1 14 19 13 4
17 3 2 1 1 5 6 20 17
18 3 2 1 1 17 20 21 18
19 3 2 1 1 18 21 22 19
20 3 2 1 1 19 22 12 13
21 3 2 1 1 6 7 23 20
22 3 2 1 1 20 23 24 21
23 3 2 1 1 21 24 25 22
24 3 2 1 1 22 25 11 12
25 3 2 1 1 7 2 8 23
26 3 2 1 1 23 8 9 24
27 3 2 1 1 24 9 10 25
28 3 2 1 1 25 10 3 11
$EndElements
