$MeshFormat
2.2 0 8
$EndMeshFormat
$PhysicalNames
5
1 2 "bottom"
1 3 "right "
1 4 "top   "
1 5 "left  "
2 1 "domain"
$EndPhysicalNames
$Nodes
81
1 -0.5 -0.5 0
2 0.5 -0.5 0
3 0.5 0.5 0
4 -0.5 0.5 0
5 -0.3750000000003466 -0.5 0
6 -0.2500000000006933 -0.5 0
7 -0.1250000000010397 -0.5 0
8 -1.375122238300719e-12 -0.5 0
9 0.1249999999989605 -0.5 0
10 0.249999999999307 -0.5 0
11 0.3749999999996535 -0.5 0
12 0.5 -0.3750000000003466 0
13 0.5 -0.2500000000006933 0
14 0.5 -0.1250000000010397 0
15 0.5 -1.375122238300719e-12 0
16 0.5 0.1249999999989605 0
17 0.5 0.249999999999307 0
18 0.5 0.3749999999996535 0
19 0.3750000000003466 0.5 0
20 0.2500000000006933 0.5 0
21 0.1250000000010397 0.5 0
22 1.375122238300719e-12 0.5 0
23 -0.1249999999989605 0.5 0
24 -0.249999999999307 0.5 0
25 -0.3749999999996535 0.5 0
26 -0.5 0.3750000000003466 0
27 -0.5 0.2500000000006933 0
28 -0.5 0.1250000000010397 0
29 -0.5 1.375122238300719e-12 0
30 -0.5 -0.1249999999989605 0
31 -0.5 -0.249999999999307 0
32 -0.5 -0.3749999999996535 0
33 -0.3750000000002601 -0.3749999999997402 0
34 -0.3750000000001733 -0.2499999999994802 0
35 -0.3750000000000867 -0.1249999999992204 0
36 -0.375 1.031369434301155e-12 0
37 -0.3749999999999134 0.1250000000007797 0
38 -0.3749999999998269 0.25000000000052 0
39 -0.3749999999997401 0.3750000000002599 0
40 -0.25000000000052 -0.3749999999998269 0
41 -0.2500000000003467 -0.2499999999996536 0
42 -0.2500000000001734 -0.1249999999994804 0
43 -0.2500000000000002 6.875333635747438e-13 0
44 -0.2499999999998269 0.1250000000005199 0
45 -0.2499999999996536 0.2500000000003468 0
46 -0.2499999999994803 0.3750000000001732 0
47 -0.1250000000007798 -0.3749999999999134 0
48 -0.1250000000005198 -0.2499999999998269 0
49 -0.12500000000026 -0.1249999999997402 0
50 -0.125 3.437250484239485e-13 0
51 -0.1249999999997402 0.12500000000026 0
52 -0.1249999999994804 0.2500000000001734 0
53 -0.1249999999992204 0.3750000000000868 0
54 -1.031369434301155e-12 -0.3749999999999999 0
55 -6.875333635747438e-13 -0.2500000000000002 0
56 -3.438985207715461e-13 -0.1250000000000003 0
57 0 0 0
58 3.437250484239485e-13 0.1250000000000001 0
59 6.874500968478969e-13 0.2500000000000002 0
60 1.031258411998692e-12 0.3750000000000001 0
61 0.1249999999992205 -0.3750000000000867 0
62 0.1249999999994803 -0.2500000000001734 0
63 0.1249999999997402 -0.1250000000002599 0
64 0.1249999999999999 -3.437250484239485e-13 0
65 0.1250000000002599 0.1249999999997401 0
66 0.12500000000052 0.2499999999998268 0
67 0.1250000000007798 0.3749999999999135 0
68 0.2499999999994804 -0.3750000000001733 0
69 0.2499999999996536 -0.2500000000003467 0
70 0.2499999999998268 -0.1250000000005199 0
71 0.2500000000000002 -6.875472413625516e-13 0
72 0.2500000000001734 0.1249999999994803 0
73 0.2500000000003466 0.2499999999996536 0
74 0.25000000000052 0.3749999999998268 0
75 0.37499999999974 -0.37500000000026 0
76 0.3749999999998268 -0.25000000000052 0
77 0.3749999999999136 -0.1250000000007797 0
78 0.3750000000000001 -1.031279228680404e-12 0
79 0.3750000000000867 0.1249999999992205 0
80 0.3750000000001733 0.2499999999994802 0
81 0.3750000000002599 0.3749999999997401 0
$EndNodes
$Elements
88
1 1 2 2 1 1 5
2 1 2 2 1 5 6
3 1 2 2 1 6 7
4 1 2 2 1 7 8
5 1 2 2 1 8 9
6 1 2 2 1 9 10
7 1 2 2 1 10 11
8 1 2 2 1 11 2
9 1 2 4 3 3 19
10 1 2 4 3 19 20
11 1 2 4 3 20 21
12 1 2 4 3 21 22
13 1 2 4 3 22 23
14 1 2 4 3 23 24
15 1 2 4 3 24 25
16 1 2 4 3 25 4
17 1 2 5 4 4 26
18 1 2 5 4 26 27
19 1 2 5 4 27 28
20 1 2 5 4 28 29
21 1 2 5 4 29 30
22 1 2 5 4 30 31
23 1 2 5 4 31 32
24 1 2 5 4 32 1
25 3 2 1 1 1 5 33 32
26 3 2 1 1 32 33 34 31
27 3 2 1 1 31 34 35 30
28 3 2 1 1 30 35 36 29
29 3 2 1 1 29 36 37 28
30 3 2 1 1 28 37 38 27
31 3 2 1 1 27 38 39 26
32 3 2 1 1 26 39 25 4
33 3 2 1 1 5 6 40 33
34 3 2 1 1 33 40 41 34
35 3 2 1 1 34 41 42 35
36 3 2 1 1 35 42 43 36
37 3 2 1 1 36 43 44 37
38 3 2 1 1 37 44 45 38
39 3 2 1 1 38 45 46 39
40 3 2 1 1 39 46 24 25
41 3 2 1 1 6 7 47 40
42 3 2 1 1 40 47 48 41
43 3 2 1 1 41 48 49 42
44 3 2 1 1 42 49 50 43
45 3 2 1 1 43 50 51 44
46 3 2 1 1 44 51 52 45
47 3 2 1 1 45 52 53 46
48 3 2 1 1 46 53 23 24
49 3 2 1 1 7 8 54 47
50 3 2 1 1 47 54 55 48
51 3 2 1 1 48 55 56 49
52 3 2 1 1 49 56 57 50
53 3 2 1 1 50 57 58 51
54 3 2 1 1 51 58 59 52
55 3 2 1 1 52 59 60 53
56 3 2 1 1 53 60 22 23
57 3 2 1 1 8 9 61 54
58 3 2 1 1 54 61 62 55
59 3 2 1 1 55 62 63 56
60 3 2 1 1 56 63 64 57
61 3 2 1 1 57 64 65 58
62 3 2 1 1 58 65 66 59
63 3 2 1 1 59 66 67 60
64 3 2 1 1 60 67 21 22
65 3 2 1 1 9 10 68 61
66 3 2 1 1 61 68 69 62
67 3 2 1 1 62 69 70 63
68 3 2 1 1 63 70 71 64
69 3 2 1 1 64 71 72 65
70 3 2 1 1 65 72 73 66
71 3 2 1 1 66 73 74 67
72 3 2 1 1 67 74 20 21
73 3 2 1 1 10 11 75 68
74 3 2 1 1 68 75 76 69
75 3 2 1 1 69 76 77 70
76 3 2 1 1 70 77 78 71
77 3 2 1 1 71 78 79 72
78 3 2 1 1 72 79 80 73
79 3 2 1 1 73 80 81 74
80 3 2 1 1 74 81 19 20
81 3 2 1 1 11 2 12 75
82 3 2 1 1 75 12 13 76
83 3 2 1 1 76 13 14 77
84 3 2 1 1 77 14 15 78
85 3 2 1 1 78 15 16 79
86 3 2 1 1 79 16 17 80
87 3 2 1 1 80 17 18 81
88 3 2 1 1 81 18 3 19
$EndElements
