# vtk DataFile Version 3.0
Broken Mesh Solution
ASCII
DATASET UNSTRUCTURED_GRID

POINTS 103 float
-0.5 -0.5 0.0
0.5 -0.5 0.0
0.5 0.5 0.0
-0.5 0.5 0.0
-0.3000000000005548 -0.5 0.0
-0.1000000000011096 -0.5 0.0
0.09999999999889042 -0.5 0.0
0.2999999999994452 -0.5 0.0
0.5 -0.3000000000005548 0.0
0.5 -0.1000000000011096 0.0
0.5 0.09999999999889042 0.0
0.5 0.2999999999994452 0.0
0.3000000000005548 0.5 0.0
0.1000000000011096 0.5 0.0
-0.09999999999889042 0.5 0.0
-0.2999999999994452 0.5 0.0
-0.5 0.3000000000005548 0.0
-0.5 0.1000000000011096 0.0
-0.5 -0.09999999999889042 0.0
-0.5 -0.2999999999994452 0.0
0.01186163360387493 -0.3419191899049053 0.0
-1.767198609670118e-10 0.3267949199874239 0.0
0.3372448433756492 -0.009667905631191125 0.0
-0.3372448437839337 -0.009667905633454987 0.0
-0.1991525258902135 0.3306455924698948 0.0
-0.1035600177128985 0.1705807106941144 0.0
0.1031079264484775 0.1727707431967468 0.0
-2.511080247603339e-09 -0.01961523986401409 0.0
0.1995294982153665 0.3303775560566518 0.0
-0.1819202843924578 -0.3083986709410143 0.0
0.1999218205120479 -0.3517369373688328 0.0
-0.3118996359850805 0.183860715711011 0.0
-0.3380305648012901 -0.1938098015537095 0.0
0.3087403904931542 -0.2056570145358921 0.0
0.3177656036537955 0.185865884089424 0.0
0.1642088453136075 -0.09952339329786851 0.0
-0.1795663696400154 -0.1104699875626136 0.0
-0.03045229967806384 -0.1732050799715539 0.0
-0.353589837984547 -0.3535898380357392 0.0
-0.3535898376755096 0.3535898388248859 0.0
0.3535898384026523 0.3535898389176113 0.0
0.3535898381127851 -0.3535898392621621 0.0
0.1897502235215644 0.04187677070172824 0.0
-0.1897502234552471 0.04187677118859479 0.0
0.1185489110229897 -0.24662478687121875 0.0
0.16178324651101825 0.17635021723720692 0.0
0.12267912052128176 0.2047610277892302 0.0
-0.1643876696886456 0.17445799303773776 0.0
-0.1235813865715493 0.2041054931321354 0.0
-0.09132733652402789 -0.22753943219207307 0.0
-0.1801908140983109 -0.16297633654790575 0.0
-0.20906527970631164 -0.1259841147467586 0.0
-0.2022542485937369 -0.14694631307311826 0.0
0.2239094684786286 0.08029839933947677 0.0
0.20225424859373686 0.14694631307311828 0.0
-0.20225424859373684 0.1469463130731183 0.0
-0.22360655550817704 0.08123066960183231 0.0
0.13412444151341327 -0.19644551534177415 0.0
0.20225424859373684 -0.14694631307311834 0.0
0.20736574853323714 -0.13121473385904595 0.0
-0.07725424859373689 -0.23776412907378838 0.0
-0.014260723896189358 -0.2377641290737884 0.0
0.07725424859373686 0.23776412907378838 0.0
0.05959960586033742 0.2377641290737884 0.0
-0.05902171343818324 0.23776412907378844 0.0
-0.07725424859373684 0.2377641290737884 0.0
0.22851267077370993 -0.06613119941761764 0.0
-0.22316162322033944 -0.082600030379268 0.0
0.08667540882840202 -0.23091925550015116 0.0
-0.24236812765761362 0.023488487865985622 0.0
0.24236812778530342 0.023488487472996936 0.0
0.25 0.0 0.0
-0.25 3.061616997868383e-17 0.0
0.07725424859373681 -0.2377641290737884 0.0
0.16178324651101825 0.17635021723720692 0.0
0.12267912052128176 0.2047610277892302 0.0
-0.1643876696886456 0.17445799303773776 0.0
-0.1235813865715493 0.2041054931321354 0.0
-0.09132733652402789 -0.22753943219207307 0.0
-0.1801908140983109 -0.16297633654790575 0.0
-0.20906527970631164 -0.1259841147467586 0.0
-0.2022542485937369 -0.14694631307311826 0.0
0.2239094684786286 0.08029839933947677 0.0
0.20225424859373686 0.14694631307311828 0.0
-0.20225424859373684 0.1469463130731183 0.0
-0.22360655550817704 0.08123066960183231 0.0
0.13412444151341327 -0.19644551534177415 0.0
0.20225424859373684 -0.14694631307311834 0.0
0.20736574853323714 -0.13121473385904595 0.0
-0.07725424859373689 -0.23776412907378838 0.0
-0.014260723896189358 -0.2377641290737884 0.0
0.07725424859373686 0.23776412907378838 0.0
0.05959960586033742 0.2377641290737884 0.0
-0.05902171343818324 0.23776412907378844 0.0
-0.07725424859373684 0.2377641290737884 0.0
0.22851267077370993 -0.06613119941761764 0.0
-0.22316162322033944 -0.082600030379268 0.0
0.08667540882840202 -0.23091925550015116 0.0
-0.24236812765761362 0.023488487865985622 0.0
0.24236812778530342 0.023488487472996936 0.0
0.25 0.0 0.0
-0.25 3.061616997868383e-17 0.0
0.07725424859373681 -0.2377641290737884 0.0

CELLS 87 387
3 33 44 30
3 13 28 12
3 6 20 5
3 18 23 17
3 10 22 9
3 6 30 20
3 21 28 13
3 5 29 4
3 7 30 6
3 14 21 13
3 20 29 5
3 14 24 21
3 25 27 26
3 15 24 14
3 19 32 18
3 17 31 16
3 11 34 10
3 9 33 8
3 18 32 23
3 23 31 17
3 22 33 9
3 10 34 22
3 0 38 19
3 4 38 0
3 16 39 3
3 3 39 15
3 8 41 1
3 2 40 11
3 12 40 2
3 1 41 7
3 27 37 35
3 27 42 26
3 25 43 27
3 35 42 27
3 27 43 36
3 11 40 34
3 33 41 8
3 31 39 16
3 19 38 32
3 28 40 12
3 29 38 4
3 7 41 30
3 15 39 24
3 30 44 20
3 24 39 31
3 34 40 28
3 30 41 33
3 32 38 29
3 36 37 27
3 45 46 26
4 75 74 34 28
3 48 47 25
4 76 77 24 31
3 78 79 29
4 50 49 37 36
4 51 52 50 36
