# vtk DataFile Version 3.0
Broken Mesh Solution
ASCII
DATASET UNSTRUCTURED_GRID

POINTS 321 float
0.4375000000001515 0.4374999999998482 0.0
0.4375000000001301 0.3749999999996968 0.0
0.4375000000001085 0.312499999999545 0.0
0.4375000000000868 0.2499999999993936 0.0
0.4375000000000651 0.1874999999992422 0.0
0.4375000000000433 0.1249999999990904 0.0
0.4375000000000216 0.06249999999893899 0.0
0.4374999999999999 -1.203266652982649e-12 0.0
0.4374999999999784 -0.06250000000106115 0.0
0.4374999999999567 -0.1250000000009096 0.0
0.4374999999999351 -0.1875000000007582 0.0
0.4374999999999136 -0.2500000000006066 0.0
0.4374999999998916 -0.3125000000004551 0.0
0.43749999999987 -0.3750000000003034 0.0
0.4374999999998485 -0.4375000000001517 0.0
0.3750000000003034 0.43749999999987 0.0
0.3750000000002599 0.3749999999997401 0.0
0.3750000000002167 0.3124999999996101 0.0
0.3750000000001733 0.2499999999994802 0.0
0.3750000000001298 0.1874999999993505 0.0
0.3750000000000867 0.1249999999992205 0.0
0.3750000000000434 0.06249999999909039 0.0
0.3750000000000001 -1.031279228680404e-12 0.0
0.3749999999999568 -0.0625000000009096 0.0
0.3749999999999136 -0.1250000000007797 0.0
0.3749999999998701 -0.1875000000006499 0.0
0.3749999999998268 -0.25000000000052 0.0
0.3749999999997834 -0.3125000000003899 0.0
0.37499999999974 -0.37500000000026 0.0
0.374999999999697 -0.4375000000001299 0.0
0.3125000000004549 0.4374999999998918 0.0
0.3125000000003902 0.3749999999997835 0.0
0.3125000000003251 0.3124999999996751 0.0
0.31250000000026 0.249999999999567 0.0
0.3125000000001952 0.1874999999994587 0.0
0.3125000000001301 0.1249999999993502 0.0
0.3125000000000651 0.06249999999924206 0.0
0.3125 -8.594236433623337e-13 0.0
0.3124999999999352 -0.06250000000075807 0.0
0.31249999999987 -0.1250000000006499 0.0
0.3124999999998052 -0.1875000000005416 0.0
0.3124999999997401 -0.2500000000004335 0.0
0.312499999999675 -0.3125000000003251 0.0
0.31249999999961 -0.3750000000002166 0.0
0.312499999999545 -0.4375000000001084 0.0
0.2500000000006069 0.4374999999999134 0.0
0.25000000000052 0.3749999999998268 0.0
0.2500000000004334 0.3124999999997402 0.0
0.249999999999567 -0.31250000000026 0.0
0.2499999999994804 -0.3750000000001733 0.0
0.2499999999993936 -0.4375000000000865 0.0
0.1875000000007583 0.4374999999999349 0.0
0.18750000000065 0.3749999999998699 0.0
0.1875000000005416 0.3124999999998053 0.0
0.1875000000003251 0.1874999999996754 0.0
0.1875000000002169 0.1249999999996102 0.0
0.1875000000001084 0.06249999999954513 0.0
0.1875000000000002 -5.156985949383852e-13 0.0
0.1874999999998919 -0.06250000000045484 0.0
0.1874999999997836 -0.1250000000003898 0.0
0.1874999999996751 -0.1875000000003251 0.0
0.1874999999994589 -0.3125000000001949 0.0
0.1874999999993505 -0.3750000000001301 0.0
0.1874999999992419 -0.4375000000000651 0.0
0.1250000000009096 0.4374999999999565 0.0
0.1250000000007798 0.3749999999999135 0.0
0.1250000000006498 0.3124999999998701 0.0
0.1250000000003898 0.1874999999997835 0.0
0.1250000000002599 0.1249999999997401 0.0
0.12500000000013 0.06249999999969702 0.0
0.1249999999999999 -3.437250484239485e-13 0.0
0.1249999999998702 -0.06250000000030331 0.0
0.1249999999997402 -0.1250000000002599 0.0
0.1249999999996102 -0.1875000000002167 0.0
0.1249999999993502 -0.3125000000001301 0.0
0.1249999999992205 -0.3750000000000867 0.0
0.1249999999990906 -0.4375000000000433 0.0
0.06250000000106129 0.4374999999999782 0.0
0.0625000000009096 0.3749999999999566 0.0
0.06250000000075792 0.3124999999999352 0.0
0.06250000000045483 0.1874999999998919 0.0
0.06250000000030317 0.1249999999998702 0.0
0.06250000000015155 0.06249999999984845 0.0
0.0624999999999999 -1.71876401999782e-13 0.0
0.06249999999984845 -0.06250000000015166 0.0
0.06249999999969701 -0.1250000000001302 0.0
0.06249999999954538 -0.1875000000001085 0.0
0.06249999999924193 -0.3125000000000651 0.0
0.06249999999909064 -0.3750000000000432 0.0
0.06249999999893896 -0.4375000000000216 0.0
1.203259714088745e-12 0.4375000000000001 0.0
1.031258411998692e-12 0.3750000000000001 0.0
8.595069100891806e-13 0.3125000000000002 0.0
5.155598170603071e-13 0.1875000000000002 0.0
3.437250484239485e-13 0.1250000000000001 0.0
1.718902797875899e-13 0.06249999999999989 0.0
0.0 0.0 0.0
-1.718347686363586e-13 -0.06250000000000001 0.0
-3.438985207715461e-13 -0.1250000000000003 0.0
-5.156985949383852e-13 -0.1875000000000002 0.0
-8.594826239605169e-13 -0.3124999999999999 0.0
-1.031369434301155e-12 -0.3749999999999999 0.0
-1.203273591876552e-12 -0.4375 0.0
-0.06249999999893885 0.4375000000000216 0.0
-0.06249999999909048 0.3750000000000432 0.0
-0.06249999999924216 0.3125000000000651 0.0
-0.06249999999954525 0.1875000000001086 0.0
-0.06249999999969691 0.12500000000013 0.0
-0.06249999999984845 0.06250000000015177 0.0
-0.0625 1.718625242119742e-13 0.0
-0.06250000000015166 -0.06249999999984845 0.0
-0.06250000000030327 -0.1249999999998701 0.0
-0.06250000000045483 -0.1874999999998919 0.0
-0.06250000000075794 -0.3124999999999352 0.0
-0.06250000000090951 -0.3749999999999567 0.0
-0.06250000000106114 -0.4374999999999784 0.0
-0.1249999999990905 0.4375000000000433 0.0
-0.1249999999992204 0.3750000000000868 0.0
-0.1249999999993503 0.3125000000001301 0.0
-0.1249999999996103 0.1875000000002167 0.0
-0.1249999999997402 0.12500000000026 0.0
-0.1249999999998701 0.06250000000030323 0.0
-0.125 3.437250484239485e-13 0.0
-0.1250000000001301 -0.06249999999969694 0.0
-0.12500000000026 -0.1249999999997402 0.0
-0.12500000000039 -0.1874999999997836 0.0
-0.1250000000006498 -0.3124999999998701 0.0
-0.1250000000007798 -0.3749999999999134 0.0
-0.1250000000009097 -0.4374999999999567 0.0
-0.1874999999992421 0.4375000000000649 0.0
-0.1874999999993504 0.3750000000001301 0.0
-0.1874999999994588 0.3125000000001952 0.0
-0.1874999999996753 0.1875000000003251 0.0
-0.1874999999997836 0.1250000000003898 0.0
-0.1874999999998919 0.06250000000045486 0.0
-0.1875000000000002 5.156985949383852e-13 0.0
-0.1875000000001085 -0.06249999999954525 0.0
-0.1875000000002168 -0.1249999999996103 0.0
-0.1875000000003251 -0.1874999999996752 0.0
-0.1875000000005417 -0.312499999999805 0.0
-0.1875000000006499 -0.3749999999998701 0.0
-0.1875000000007582 -0.4374999999999349 0.0
-0.2499999999993936 0.4375000000000867 0.0
-0.2499999999994803 0.3750000000001732 0.0
-0.249999999999567 0.31250000000026 0.0
-0.2500000000004334 -0.3124999999997402 0.0
-0.25000000000052 -0.3749999999998269 0.0
-0.2500000000006067 -0.4374999999999135 0.0
-0.3124999999995453 0.4375000000001084 0.0
-0.3124999999996101 0.3750000000002167 0.0
-0.3124999999996751 0.3125000000003252 0.0
-0.3124999999997402 0.2500000000004334 0.0
-0.312499999999805 0.1875000000005416 0.0
-0.3124999999998701 0.1250000000006498 0.0
-0.3124999999999352 0.06250000000075787 0.0
-0.3125000000000001 8.592848654842555e-13 0.0
-0.3125000000000651 -0.06249999999924211 0.0
-0.3125000000001301 -0.1249999999993503 0.0
-0.3125000000001951 -0.1874999999994587 0.0
-0.3125000000002601 -0.2499999999995668 0.0
-0.3125000000003249 -0.3124999999996751 0.0
-0.31250000000039 -0.3749999999997835 0.0
-0.312500000000455 -0.4374999999998916 0.0
-0.3749999999996968 0.43750000000013 0.0
-0.3749999999997401 0.3750000000002599 0.0
-0.3749999999997836 0.3125000000003901 0.0
-0.3749999999998269 0.25000000000052 0.0
-0.3749999999998701 0.1875000000006499 0.0
-0.3749999999999134 0.1250000000007797 0.0
-0.3749999999999567 0.06250000000090963 0.0
-0.375 1.031369434301155e-12 0.0
-0.3750000000000434 -0.06249999999909048 0.0
-0.3750000000000867 -0.1249999999992204 0.0
-0.3750000000001301 -0.1874999999993504 0.0
-0.3750000000001733 -0.2499999999994802 0.0
-0.3750000000002166 -0.3124999999996101 0.0
-0.3750000000002601 -0.3749999999997402 0.0
-0.3750000000003034 -0.43749999999987 0.0
-0.4374999999998483 0.4375000000001515 0.0
-0.4374999999998699 0.3750000000003034 0.0
-0.4374999999998916 0.312500000000455 0.0
-0.4374999999999135 0.2500000000006066 0.0
-0.4374999999999349 0.1875000000007583 0.0
-0.4374999999999567 0.1250000000009096 0.0
-0.4374999999999784 0.06250000000106126 0.0
-0.4375 1.203259714088745e-12 0.0
-0.4375000000000216 -0.06249999999893885 0.0
-0.4375000000000433 -0.1249999999990905 0.0
-0.4375000000000649 -0.187499999999242 0.0
-0.4375000000000866 -0.2499999999993936 0.0
-0.4375000000001082 -0.3124999999995453 0.0
-0.4375000000001299 -0.3749999999996968 0.0
-0.4375000000001517 -0.4374999999998483 0.0
-0.5 -0.4374999999998267 0.0
-0.5 -0.3749999999996535 0.0
-0.5 -0.3124999999994802 0.0
-0.5 -0.249999999999307 0.0
-0.5 -0.1874999999991338 0.0
-0.5 -0.1249999999989605 0.0
-0.5 -0.0624999999987873 0.0
-0.5 1.375122238300719e-12 0.0
-0.5 0.06250000000121281 0.0
-0.5 0.1250000000010397 0.0
-0.5 0.1875000000008665 0.0
-0.5 0.2500000000006933 0.0
-0.5 0.31250000000052 0.0
-0.5 0.3750000000003466 0.0
-0.5 0.4375000000001733 0.0
-0.4374999999998267 0.5 0.0
-0.3749999999996535 0.5 0.0
-0.3124999999994802 0.5 0.0
-0.249999999999307 0.5 0.0
-0.1874999999991338 0.5 0.0
-0.1249999999989605 0.5 0.0
-0.0624999999987873 0.5 0.0
1.375122238300719e-12 0.5 0.0
0.06250000000121281 0.5 0.0
0.1250000000010397 0.5 0.0
0.1875000000008665 0.5 0.0
0.2500000000006933 0.5 0.0
0.31250000000052 0.5 0.0
0.3750000000003466 0.5 0.0
0.4375000000001733 0.5 0.0
0.5 0.4374999999998267 0.0
0.5 0.3749999999996535 0.0
0.5 0.3124999999994802 0.0
0.5 0.249999999999307 0.0
0.5 0.1874999999991338 0.0
0.5 0.1249999999989605 0.0
0.5 0.0624999999987873 0.0
0.5 -1.375122238300719e-12 0.0
0.5 -0.06250000000121281 0.0
0.5 -0.1250000000010397 0.0
0.5 -0.1875000000008665 0.0
0.5 -0.2500000000006933 0.0
0.5 -0.31250000000052 0.0
0.5 -0.3750000000003466 0.0
0.5 -0.4375000000001733 0.0
0.4374999999998267 -0.5 0.0
0.3749999999996535 -0.5 0.0
0.3124999999994802 -0.5 0.0
0.249999999999307 -0.5 0.0
0.1874999999991338 -0.5 0.0
0.1249999999989605 -0.5 0.0
0.0624999999987873 -0.5 0.0
-1.375122238300719e-12 -0.5 0.0
-0.06250000000121281 -0.5 0.0
-0.1250000000010397 -0.5 0.0
-0.1875000000008665 -0.5 0.0
-0.2500000000006933 -0.5 0.0
-0.31250000000052 -0.5 0.0
-0.3750000000003466 -0.5 0.0
-0.4375000000001733 -0.5 0.0
-0.5 0.5 0.0
0.5 0.5 0.0
0.5 -0.5 0.0
-0.5 -0.5 0.0
-0.2500000000003467 -0.2499999999996536 0.0
-0.25000000000026 -0.187499999999567 0.0
-0.2500000000001734 -0.1249999999994804 0.0
-0.2500000000000868 -0.0624999999993936 0.0
-0.2500000000000002 6.875333635747438e-13 0.0
-0.2499999999999135 0.06250000000060651 0.0
-0.2499999999998269 0.1250000000005199 0.0
-0.2499999999997402 0.1875000000004332 0.0
-0.2499999999996536 0.2500000000003468 0.0
-0.1875000000004333 -0.2499999999997402 0.0
-0.187499999999567 0.25000000000026 0.0
-0.1250000000005198 -0.2499999999998269 0.0
-0.1249999999994804 0.2500000000001734 0.0
-0.06250000000060638 -0.2499999999999136 0.0
-0.06249999999939357 0.2500000000000868 0.0
-6.875333635747438e-13 -0.2500000000000002 0.0
6.874500968478969e-13 0.2500000000000002 0.0
0.06249999999939371 -0.2500000000000868 0.0
0.06250000000060651 0.2499999999999136 0.0
0.1249999999994803 -0.2500000000001734 0.0
0.12500000000052 0.2499999999998268 0.0
0.187499999999567 -0.2500000000002601 0.0
0.1875000000004332 0.2499999999997402 0.0
0.2499999999996536 -0.2500000000003467 0.0
0.2499999999997402 -0.1875000000004333 0.0
0.2499999999998268 -0.1250000000005199 0.0
0.2499999999999136 -0.0625000000006064 0.0
0.2500000000000002 -6.875472413625516e-13 0.0
0.2500000000000868 0.06249999999939371 0.0
0.2500000000001734 0.1249999999994803 0.0
0.25000000000026 0.187499999999567 0.0
0.2500000000003466 0.2499999999996536 0.0
-0.2500000000003467 -0.2499999999996536 0.0
-0.25000000000026 -0.187499999999567 0.0
-0.2500000000001734 -0.1249999999994804 0.0
-0.2500000000000868 -0.0624999999993936 0.0
-0.2500000000000002 6.875333635747438e-13 0.0
-0.2499999999999135 0.06250000000060651 0.0
-0.2499999999998269 0.1250000000005199 0.0
-0.2499999999997402 0.1875000000004332 0.0
-0.2499999999996536 0.2500000000003468 0.0
-0.1875000000004333 -0.2499999999997402 0.0
-0.187499999999567 0.25000000000026 0.0
-0.1250000000005198 -0.2499999999998269 0.0
-0.1249999999994804 0.2500000000001734 0.0
-0.06250000000060638 -0.2499999999999136 0.0
-0.06249999999939357 0.2500000000000868 0.0
-6.875333635747438e-13 -0.2500000000000002 0.0
6.874500968478969e-13 0.2500000000000002 0.0
0.06249999999939371 -0.2500000000000868 0.0
0.06250000000060651 0.2499999999999136 0.0
0.1249999999994803 -0.2500000000001734 0.0
0.12500000000052 0.2499999999998268 0.0
0.187499999999567 -0.2500000000002601 0.0
0.1875000000004332 0.2499999999997402 0.0
0.2499999999996536 -0.2500000000003467 0.0
0.2499999999997402 -0.1875000000004333 0.0
0.2499999999998268 -0.1250000000005199 0.0
0.2499999999999136 -0.0625000000006064 0.0
0.2500000000000002 -6.875472413625516e-13 0.0
0.2500000000000868 0.06249999999939371 0.0
0.2500000000001734 0.1249999999994803 0.0
0.25000000000026 0.187499999999567 0.0
0.2500000000003466 0.2499999999996536 0.0

CELLS 256 1280
4 256 252 192 193
4 193 192 191 194
4 194 191 190 195
4 195 190 189 196
4 196 189 188 197
4 197 188 187 198
4 198 187 186 199
4 199 186 185 200
4 200 185 184 201
4 201 184 183 202
4 202 183 182 203
4 203 182 181 204
4 204 181 180 205
4 205 180 179 206
4 206 179 178 207
4 207 178 208 253
4 252 251 177 192
4 192 177 176 191
4 191 176 175 190
4 190 175 174 189
4 189 174 173 188
4 188 173 172 187
4 187 172 171 186
4 186 171 170 185
4 185 170 169 184
4 184 169 168 183
4 183 168 167 182
4 182 167 166 181
4 181 166 165 180
4 180 165 164 179
4 179 164 163 178
4 178 163 209 208
4 251 250 162 177
4 177 162 161 176
4 176 161 160 175
4 175 160 159 174
4 174 159 158 173
4 173 158 157 172
4 172 157 156 171
4 171 156 155 170
4 170 155 154 169
4 169 154 153 168
4 168 153 152 167
4 167 152 151 166
4 166 151 150 165
4 165 150 149 164
4 164 149 148 163
4 163 148 210 209
4 250 249 147 162
4 162 147 146 161
4 161 146 145 160
4 160 145 257 159
4 191 289 258 158
4 190 290 259 157
4 189 291 260 156
4 188 292 261 155
4 187 293 262 154
4 186 294 263 153
4 185 295 264 152
4 184 296 265 151
4 151 265 144 150
4 150 144 143 149
4 149 143 142 148
4 148 142 211 210
4 249 248 141 147
4 147 141 140 146
4 146 140 139 145
4 177 171 266 257
4 257 266 138 258
4 258 138 137 259
4 259 137 136 260
4 260 136 135 261
4 261 135 134 262
4 262 134 133 263
4 263 133 132 264
4 264 132 267 265
4 297 299 131 144
4 144 131 130 143
4 143 130 129 142
4 142 129 212 211
4 248 247 128 141
4 141 128 127 140
4 140 127 126 139
4 171 158 268 266
4 266 268 125 138
4 138 125 124 137
4 137 124 123 136
4 136 123 122 135
4 135 122 121 134
4 134 121 120 133
4 133 120 119 132
4 132 119 269 267
4 299 301 118 131
4 131 118 117 130
4 130 117 116 129
4 129 116 213 212
4 247 246 115 128
4 128 115 114 127
4 127 114 113 126
4 158 145 270 268
4 268 270 112 125
4 125 112 111 124
4 124 111 110 123
4 123 110 109 122
4 122 109 108 121
4 121 108 107 120
4 120 107 106 119
4 119 106 271 269
4 301 303 105 118
4 118 105 104 117
4 117 104 103 116
4 116 103 214 213
4 246 245 102 115
4 115 102 101 114
4 114 101 100 113
4 145 132 272 270
4 270 272 99 112
4 112 99 98 111
4 111 98 97 110
4 110 97 96 109
4 109 96 95 108
4 108 95 94 107
4 107 94 93 106
4 106 93 273 271
4 303 305 92 105
4 105 92 91 104
4 104 91 90 103
4 103 90 215 214
4 245 244 89 102
4 102 89 88 101
4 101 88 87 100
4 132 119 274 272
4 272 274 86 99
4 99 86 85 98
4 98 85 84 97
4 97 84 83 96
4 96 83 82 95
4 95 82 81 94
4 94 81 80 93
4 93 80 275 273
4 305 307 79 92
4 92 79 78 91
4 91 78 77 90
4 90 77 216 215
4 244 243 76 89
4 89 76 75 88
4 88 75 74 87
4 119 106 276 274
4 274 276 73 86
4 86 73 72 85
4 85 72 71 84
4 84 71 70 83
4 83 70 69 82
4 82 69 68 81
4 81 68 67 80
4 80 67 277 275
4 307 309 66 79
4 79 66 65 78
4 78 65 64 77
4 77 64 217 216
4 243 242 63 76
4 76 63 62 75
4 75 62 61 74
4 106 93 278 276
4 276 278 60 73
4 73 60 59 72
4 72 59 58 71
4 71 58 57 70
4 70 57 56 69
4 69 56 55 68
4 68 55 54 67
4 67 54 279 277
4 309 311 53 66
4 66 53 52 65
4 65 52 51 64
4 64 51 218 217
4 242 241 50 63
4 63 50 49 62
4 62 49 48 61
4 93 80 280 278
4 278 280 281 60
4 60 281 282 59
4 59 282 283 58
4 58 283 284 57
4 57 284 285 56
4 56 285 286 55
4 55 286 287 54
4 54 287 288 279
4 311 320 47 53
4 53 47 46 52
4 52 46 45 51
4 51 45 219 218
4 241 240 44 50
4 50 44 43 49
4 49 43 42 48
4 48 42 41 280
4 312 73 40 281
4 313 72 39 282
4 314 71 38 283
4 315 70 37 284
4 316 69 36 285
4 317 68 35 286
4 318 67 34 287
4 319 66 33 288
4 288 33 32 47
4 47 32 31 46
4 46 31 30 45
4 45 30 220 219
4 240 239 29 44
4 44 29 28 43
4 43 28 27 42
4 42 27 26 41
4 41 26 25 40
4 40 25 24 39
4 39 24 23 38
4 38 23 22 37
4 37 22 21 36
4 36 21 20 35
4 35 20 19 34
4 34 19 18 33
4 33 18 17 32
4 32 17 16 31
4 31 16 15 30
4 30 15 221 220
4 239 238 14 29
4 29 14 13 28
4 28 13 12 27
4 27 12 11 26
4 26 11 10 25
4 25 10 9 24
4 24 9 8 23
4 23 8 7 22
4 22 7 6 21
4 21 6 5 20
4 20 5 4 19
4 19 4 3 18
4 18 3 2 17
4 17 2 1 16
4 16 1 0 15
4 15 0 222 221
4 238 255 237 14
4 14 237 236 13
4 13 236 235 12
4 12 235 234 11
4 11 234 233 10
4 10 233 232 9
4 9 232 231 8
4 8 231 230 7
4 7 230 229 6
4 6 229 228 5
4 5 228 227 4
4 4 227 226 3
4 3 226 225 2
4 2 225 224 1
4 1 224 223 0
4 0 223 254 222

CELL_TYPES 256
9
9
9
9
9
9
9
9
9
9
9
9
9
9
9
9
9
9
9
9
9
9
9
9
9
9
9
9
9
9
9
9
9
9
9
9
9
9
9
9
9
9
9
9
9
9
9
9
9
9
9
9
9
9
9
9
9
9
9
9
9
9
9
9
9
9
9
9
9
9
9
9
9
9
9
9
9
9
9
9
9
9
9
9
9
9
9
9
9
9
9
9
9
9
9
9
9
9
9
9
9
9
9
9
9
9
9
9
9
9
9
9
9
9
9
9
9
9
9
9
9
9
9
9
9
9
9
9
9
9
9
9
9
9
9
9
9
9
9
9
9
9
9
9
9
9
9
9
9
9
9
9
9
9
9
9
9
9
9
9
9
9
9
9
9
9
9
9
9
9
9
9
9
9
9
9
9
9
9
9
9
9
9
9
9
9
9
9
9
9
9
9
9
9
9
9
9
9
9
9
9
9
9
9
9
9
9
9
9
9
9
9
9
9
9
9
9
9
9
9
9
9
9
9
9
9
9
9
9
9
9
9
9
9
9
9
9
9
9
9
9
9
9
9
9
9
9
9
9
9
9
9
9
9
9
9

POINT_DATA 321
SCALARS U float
LOOKUP_TABLE default
2.1664807037628175e-16
0.05078124999983644
0.09374999999970478
0.1289062499996661
0.15624999999973846
0.17578124999986264
0.18749999999996625
0.19140625000002343
0.18750000000007722
0.17578125000017264
0.15625000000028705
0.1289062500003513
0.0937500000003063
0.05078125000017015
2.8685943417771265e-15
-0.050781250000210686
-6.783917646744555e-13
0.042968749998915465
0.07812499999878109
0.10546874999904636
0.12499999999945638
0.13671874999978997
0.14062500000005068
0.1367187500003024
0.1250000000006149
0.10546875000100185
0.07812500000125026
0.04296875000110465
6.904109928003539e-13
-0.05078124999978319
-0.09375000000048887
-0.042968750001309126
-2.0799531484897908e-12
0.03515624999709878
0.06249999999834019
0.08203124999910444
0.09374999999964989
0.0976562500000891
0.093750000000503
0.08203125000100214
0.0625000000017233
0.03515625000294046
2.1060024539394395e-12
-0.042968749998674255
-0.09374999999950337
-0.1289062500008046
-0.07812500000205351
-0.03515625000324789
-0.03515624999672203
-0.07812499999792662
-0.12890624999918532
-0.15625000000105185
-0.10546875000273997
-0.06250000000503464
-2.5841551941707393e-12
0.19531249999870517
0.31249999999958733
0.351562500000096
0.3125000000005766
0.19531250000140396
2.6436923103521958e-12
-0.06249999999493208
-0.10546874999723738
-0.15624999999893693
-0.17578125000104844
-0.1250000000028583
-0.08203125000598024
-0.1953125000044749
-2.318116214281627e-12
0.11718749999909624
0.15625000000007117
0.11718750000103044
2.411363991560029e-12
-0.1953124999954614
-0.08203124999398019
-0.1249999999971174
-0.17578124999893946
-0.18750000000066325
-0.13671875000188818
-0.0937500000044084
-0.3125000000039472
-0.11718750000203702
-8.14279589217953e-13
0.03906250000005486
9.137750068484681e-13
-0.1171874999978848
-0.3124999999959912
-0.09374999999555277
-0.13671874999808747
-0.18749999999932485
-0.19140624999999178
-0.14062499999998185
-0.09765624999996834
-0.3515624999999616
-0.15624999999996025
-0.03906249999995644
4.102621673882999e-14
-0.03906249999997022
-0.15624999999998454
-0.3515624999999985
-0.09765625000000161
-0.14062499999999614
-0.19140624999999722
-0.18749999999932127
-0.13671874999807893
-0.09374999999553424
-0.31249999999597555
-0.1171874999978818
9.05421174774141e-13
0.039062500000033896
-8.460552832632094e-13
-0.11718750000207134
-0.3125000000039841
-0.0937500000044349
-0.13671875000190067
-0.1875000000006686
-0.17578124999893938
-0.12499999999711808
-0.08203124999398613
-0.1953124999954786
2.38598640434761e-12
0.11718750000099834
0.15625000000002923
0.11718749999904964
-2.3505899198943435e-12
-0.19531250000448327
-0.08203125000598231
-0.12500000000286385
-0.1757812500010519
-0.15624999999893935
-0.1054687499972447
-0.06249999999494896
2.6110762051922434e-12
0.19531250000135808
0.31250000000052225
0.3515625000000256
0.31249999999951156
0.19531249999865685
-2.5907902514839756e-12
-0.06250000000502949
-0.10546875000274175
-0.1562500000010536
-0.12890624999918962
-0.07812499999793615
-0.03515624999673997
-0.03515625000325049
-0.07812500000205522
-0.128906250000806
-0.09374999999950716
-0.042968749998683164
2.0909094142418102e-12
0.03515625000291581
0.06250000000169291
0.08203125000095729
0.09375000000044428
0.09765625000001264
0.09374999999956839
0.08203124999904146
0.06249999999830817
0.03515624999708997
-2.08513704536236e-12
-0.04296875000131195
-0.09375000000048989
-0.05078124999978654
6.838227997086399e-13
0.04296875000109358
0.07812500000123383
0.10546875000097909
0.12500000000058425
0.1367187500002634
0.14062500000000502
0.13671874999974395
0.1249999999994189
0.10546874999902284
0.07812499999876907
0.04296874999890964
-6.811128900463332e-13
-0.05078125000021173
1.2590598071361618e-15
0.050781250000166464
0.09375000000030045
0.12890625000034253
0.15625000000027503
0.17578125000015724
0.18750000000005826
0.19140625000000208
0.18749999999994513
0.17578124999984485
0.15624999999972597
0.12890624999965863
0.0937499999997006
0.050781249999834334
-2.9454845017032025e-16
0.05859375000015163
0.10937500000025988
0.15234375000032488
0.1875000000003465
0.21484375000032482
0.23437500000025988
0.2460937500001516
0.25
0.2460937499998484
0.23437499999974007
0.21484374999967507
0.18749999999965336
0.152343749999675
0.10937499999974004
0.058593749999848344
-0.05859375000015163
-0.10937500000025988
-0.15234375000032488
-0.1875000000003465
-0.21484375000032482
-0.23437500000025988
-0.2460937500001516
-0.25
-0.2460937499998484
-0.23437499999974007
-0.21484374999967507
-0.18749999999965336
-0.152343749999675
-0.10937499999974004
-0.058593749999848344
0.05859375000015163
0.10937500000025988
0.15234375000032488
0.1875000000003465
0.21484375000032482
0.23437500000025988
0.2460937500001516
0.25
0.2460937499998484
0.23437499999974007
0.21484374999967507
0.18749999999965336
0.152343749999675
0.10937499999974004
0.058593749999848344
-0.05859375000015163
-0.10937500000025988
-0.15234375000032488
-0.1875000000003465
-0.21484375000032482
-0.23437500000025988
-0.2460937500001516
-0.25
-0.2460937499998484
-0.23437499999974007
-0.21484374999967507
-0.18749999999965336
-0.152343749999675
-0.10937499999974004
-0.058593749999848344
0.0
0.0
0.0
0.0
-9.687304965956838e-13
0.27343750000012906
0.4687500000006061
0.5859375000004714
0.6250000000000355
0.5859374999995488
0.468749999999369
0.2734374999998719
9.80482049027009e-13
-0.2734375000049572
-0.27343749999501554
-0.4687500000095465
-0.4687499999903943
-0.5859375000090159
-0.585937499990945
-0.6250000000000255
-0.6249999999999533
-0.5859374999909841
-0.5859375000089532
-0.46874999999037076
-0.4687500000095671
-0.273437499994979
-0.27343750000498707
1.0022970845143726e-12
0.27343749999990685
0.46874999999943195
0.5859374999996221
0.6250000000001524
0.5859375000006143
0.4687500000007049
0.27343750000015243
-9.659761531621068e-13
-4.145041276738038e-12
0.02734374999755044
0.04687499999862703
0.058593749999413205
0.06250000000003512
0.05859375000060623
0.04687500000134633
0.027343750002451
4.156898526798393e-12
-0.027343750007680977
-0.02734374999229216
-0.04687500001152094
-0.04687499998841869
-0.05859375001025506
-0.058593749989702563
-0.06250000000002595
-0.06249999999995391
-0.05859374998974236
-0.058593750010190106
-0.04687499998839413
-0.04687500001154435
-0.027343749992254317
-0.027343750007710676
4.178682676609158e-12
0.027343750002485196
0.04687500000140995
0.05859375000067909
0.06250000000015137
0.05859374999955848
0.04687499999872463
0.0273437499975747
-4.142328208165444e-12
