# vtk DataFile Version 3.0
Broken Mesh Solution
ASCII
DATASET UNSTRUCTURED_GRID

POINTS 288 float
-0.5 -0.5 0.0
0.5 -0.5 0.0
0.5 0.5 0.0
-0.5 0.5 0.0
-0.4000000000002774 -0.5 0.0
-0.3000000000005548 -0.5 0.0
-0.2000000000008322 -0.5 0.0
-0.1000000000011096 -0.5 0.0
-1.376121439022882e-12 -0.5 0.0
0.09999999999889042 -0.5 0.0
0.1999999999991677 -0.5 0.0
0.2999999999994452 -0.5 0.0
0.3999999999997227 -0.5 0.0
0.5 -0.4000000000002774 0.0
0.5 -0.3000000000005548 0.0
0.5 -0.2000000000008322 0.0
0.5 -0.1000000000011096 0.0
0.5 -1.376121439022882e-12 0.0
0.5 0.09999999999889042 0.0
0.5 0.1999999999991677 0.0
0.5 0.2999999999994452 0.0
0.5 0.3999999999997227 0.0
0.4000000000002774 0.5 0.0
0.3000000000005548 0.5 0.0
0.2000000000008322 0.5 0.0
0.1000000000011096 0.5 0.0
1.376121439022882e-12 0.5 0.0
-0.09999999999889042 0.5 0.0
-0.1999999999991677 0.5 0.0
-0.2999999999994452 0.5 0.0
-0.3999999999997227 0.5 0.0
-0.5 0.4000000000002774 0.0
-0.5 0.3000000000005548 0.0
-0.5 0.2000000000008322 0.0
-0.5 0.1000000000011096 0.0
-0.5 1.376121439022882e-12 0.0
-0.5 -0.09999999999889042 0.0
-0.5 -0.1999999999991677 0.0
-0.5 -0.2999999999994452 0.0
-0.5 -0.3999999999997227 0.0
0.04999999999875715 -0.4133974596215562 0.0
0.4152217187510515 0.04684029069178843 0.0
-0.04999999985265347 0.4133974597511204 0.0
-0.4076320725312769 -0.0394257188114977 0.0
-0.1500000000009709 -0.4133974596217962 0.0
-0.411145698765012 0.1509202002034012 0.0
0.1499999995903051 0.4133974600374489 0.0
0.4133974596217964 -0.1500000000009709 0.0
0.4103703875967187 0.2586725662626632 0.0
0.2459788033610274 -0.420407742711961 0.0
-0.2491826988485775 0.4138693290592436 0.0
-0.4237016857210891 -0.2482623094653145 0.0
0.3495762629647021 0.4153227955512451 0.0
-0.3445559453155349 -0.4045047171999605 0.0
-0.4094302756766782 0.3408174382925974 0.0
0.4170502602198034 -0.3494067674890009 0.0
-0.1498637832980226 0.4134761045749534 0.0
-0.09997729724015991 0.3268080269577817 0.0
3.783840146986961e-06 0.3267971041476624 0.0
-0.047732865869935116 0.22932409418763758 0.0
0.04773838053670391 0.22932239010851907 0.0
9.639281866036242e-07 0.1535903956375182 0.0
-0.09984432727009107 0.1531143292174224 0.0
-0.04965695216937679 0.06672515386886879 0.0
0.05005733601284632 0.06694370138292127 0.0
6.6732310603973e-05 -0.01966619862925557 0.0
0.1000000013865279 -0.019615240381395 0.0
-0.09961476112615934 -0.01985041170069299 0.0
-0.04992466947303528 -0.1062654702727619 0.0
-0.1489630096513057 -0.1057105383980819 0.0
0.1500095564649925 0.06698003393904618 0.0
0.2044674135023774 -0.01634724423329158 0.0
0.1507445709608928 -0.1056731150664913 0.0
-0.1999999980338455 -0.01961524234200415 0.0
-0.09981461147643493 -0.1927437309484892 0.0
-0.1973170855811076 -0.1930455996271069 0.0
4.345512283956966e-05 -0.1928155056496315 0.0
-0.04999999690962931 -0.2794228636454371 0.0
0.2516166973369256 0.0701276420705621 0.0
0.20907098155660503 0.1608837249899126 0.0
0.2535395659327566 -0.1012768331339603 0.0
0.2000000029825665 -0.1928203201754502 0.0
0.2999999994281622 0.153589841540139 0.0
0.2471445380969833 0.2386047284310652 0.0
0.0500000025469215 -0.279422863648176 0.0
0.3109814392355192 -0.1952466229877041 0.0
0.2487737627292085 -0.2784372532295689 0.0
-0.1998372967901187 0.3268888567191892 0.0
-0.3005910771561144 0.3296981767656698 0.0
-0.25008411581319 0.2399423809129905 0.0
-0.3505076043076292 0.2430273512057304 0.0
-0.3032721004905549 0.1521628085435943 0.0
-0.3524960445780406 0.05946856525102581 0.0
-0.2538603516508897 0.06475852377564764 0.0
-0.2992114866170583 -0.02621944664290413 0.0
-0.3370418170652396 -0.1196113517313169 0.0
-0.20969983055432584 0.15939601790422314 0.0
-0.1499999998873648 0.2401923794702846 0.0
0.1001313391052143 -0.1927287416674222 0.0
-0.1499999977755548 -0.2794228641460996 0.0
-0.2499999977828671 -0.2794228638194174 0.0
0.150000002020345 -0.2794228638861159 0.0
0.05017690501265788 -0.1061273784467515 0.0
0.3994183954611402 0.1528983902791475 0.0
-0.04999999986442846 -0.41339745967258 0.0
0.1499999998851298 -0.4133974595555558 0.0
0.05000063082559747 0.413397823929229 0.0
0.4157740973239125 -0.05052661831112203 0.0
0.316798636001166 -0.01002014529810135 0.0
0.4132470463629067 -0.249108898086658 0.0
0.2499293768951764 0.4137183494159732 0.0
-0.2459001153992788 -0.4184537501999229 0.0
0.1000009631783252 0.3267954762385678 0.0
0.1000567107508092 0.1536686166221679 0.0
0.3151207757181165 0.3183362624604144 0.0
0.1495791031331315 0.2400281549562807 0.0
0.2019624593641818 0.3251467385568457 0.0
-0.1493947949630068 0.06609964527562838 0.0
0.344093390402033 -0.4061456551689846 0.0
-0.4221793042286323 -0.3465660396435947 0.0
0.4167632342577564 0.3508758806419739 0.0
-0.3469321223194075 0.4178724626042243 0.0
-0.2451895695599474 -0.1082409310554205 0.0
-0.4233581306043732 -0.1499999999990291 0.0
-0.2886952964620358 -0.1991330683498098 0.0
0.3380531190564605 -0.2999999984123848 0.0
-0.3392252864308937 -0.2884203619459293 0.0
0.3406936254548902 -0.1007214508094408 0.0
-0.4342167156884508 0.2469529980846549 0.0
-0.2000000000008324 -0.3464101630497227 0.0
-0.09999999989868093 -0.3464101630077296 0.0
0.0999999998977317 -0.346410162299078 0.0
0.2000000001624926 -0.346410162517709 0.0
1.574351621291826e-10 -0.3464101626273286 0.0
0.3325961897233922 0.2301442883232016 0.0
-0.4347437368270946 0.05000000000124291 0.0
0.3366110895343338 0.08268720401083307 0.0
0.4267949192259739 -0.4267949186515829 0.0
-0.4267949185820857 0.4267949190974908 0.0
-0.4267949192270882 -0.4267949192526842 0.0
0.426794919364929 0.4267949193647806 0.0
-0.3646000320882243 -0.1946433738442048 0.0
-0.2759362689443799 -0.3474423712865919 0.0
0.2753798153196002 -0.3502801623452327 0.0
0.23832045417049968 -0.07493698779630964 0.0
0.24692208514878441 -0.03910861626005778 0.0
0.24891045570063172 -0.01384397293690538 0.0
0.25 0.0 0.0
0.24692208514878444 0.03910861626005772 0.0
0.24318689042397196 0.05466682198856194 0.0
-0.24072359820635467 0.06492717249626902 0.0
-0.24434334118222154 0.04984985791110443 0.0
-0.24692208514878441 0.039108616260057745 0.0
-0.25 3.061616997868383e-17 0.0
-0.24820371101794345 -0.022824015571345602 0.0
-0.20191176803460092 0.14734730628718457 0.0
-0.20225424859373684 0.1469463130731183 0.0
-0.22275163104709195 0.11349762493488671 0.0
-0.23776412907378838 0.07725424859373688 0.0
-0.13305228927171622 0.21076851732967095 0.0
-0.14694631307311826 0.20225424859373686 0.0
-0.17677669529663687 0.1767766952966369 0.0
-0.19246300000136138 0.1584103922392011 0.0
-0.24692208514878444 -0.03910861626005768 0.0
-0.23776412907378844 -0.07725424859373672 0.0
-0.2340104420615789 -0.08631645068751684 0.0
0.11638387070735189 -0.22098293736295976 0.0
0.14694631307311823 -0.2022542485937369 0.0
0.15803707784257862 -0.19278184061712217 0.0
0.17677669529663684 -0.17677669529663692 0.0
0.18529505269428354 -0.16680298023361087 0.0
-0.18377374662503393 -0.1685842007847161 0.0
-0.17677669529663692 -0.17677669529663687 0.0
-0.1578712454112108 -0.19292347489377684 0.0
-0.1162219606718367 -0.22108215596033126 0.0
-0.11349762493488673 -0.22275163104709195 0.0
-0.07725424859373689 -0.23776412907378838 0.0
-0.07341107088887174 -0.2386867944080968 0.0
-0.1469463130731183 -0.20225424859373684 0.0
-0.0551058480579627 0.24308148959002637 0.0
-0.07725424859373684 0.2377641290737884 0.0
-0.0874421955857161 0.23354414325697245 0.0
0.20225424859373684 -0.14694631307311834 0.0
0.22275163104709195 -0.11349762493488674 0.0
0.22734969875643232 -0.10239690751028745 0.0
-0.03911515528992512 0.24692051526660827 0.0
0.23776412907378838 -0.0772542485937369 0.0
0.03159414940900141 -0.2475134865158396 0.0
0.03910861626005767 -0.24692208514878444 0.0
0.07357919048533519 -0.23864643246400077 0.0
-0.11349762493488667 0.22275163104709197 0.0
0.039121049727446025 0.24691910013736273 0.0
0.03910861626005773 0.24692208514878444 0.0
1.5308084989341915e-17 0.25 0.0
-0.03910861626005765 0.24692208514878444 0.0
-0.03910861626005776 -0.24692208514878441 0.0
-0.03156351785971405 -0.24751589727105117 0.0
0.07725424859373681 -0.2377641290737884 0.0
0.11349762493488666 -0.222751631047092 0.0
0.23956470911655994 0.06975429295555086 0.0
0.19135217115687103 0.1597110057097979 0.0
0.20113164457259822 0.14826071350418454 0.0
0.23776412907378838 0.07725424859373685 0.0
0.22275163104709197 0.11349762493488669 0.0
0.20225424859373686 0.14694631307311828 0.0
-4.592425496802574e-17 -0.25 0.0
0.055114539891592644 0.24307940286539437 0.0
0.1767766952966369 0.17677669529663687 0.0
0.14694631307311828 0.20225424859373686 0.0
0.13286584579311592 0.2108827700403009 0.0
0.1134976249348867 0.22275163104709195 0.0
0.0875345896717157 0.23350587237346837 0.0
0.07725424859373686 0.23776412907378838 0.0
-0.22514732986589922 -0.10771389635516113 0.0
-0.22275163104709197 -0.11349762493488667 0.0
-0.2022542485937369 -0.14694631307311826 0.0
0.23832045417049968 -0.07493698779630964 0.0
0.24692208514878441 -0.03910861626005778 0.0
0.24891045570063172 -0.01384397293690538 0.0
0.25 0.0 0.0
0.24692208514878444 0.03910861626005772 0.0
0.24318689042397196 0.05466682198856194 0.0
-0.24072359820635467 0.06492717249626902 0.0
-0.24434334118222154 0.04984985791110443 0.0
-0.24692208514878441 0.039108616260057745 0.0
-0.25 3.061616997868383e-17 0.0
-0.24820371101794345 -0.022824015571345602 0.0
-0.20191176803460092 0.14734730628718457 0.0
-0.20225424859373684 0.1469463130731183 0.0
-0.22275163104709195 0.11349762493488671 0.0
-0.23776412907378838 0.07725424859373688 0.0
-0.13305228927171622 0.21076851732967095 0.0
-0.14694631307311826 0.20225424859373686 0.0
-0.17677669529663687 0.1767766952966369 0.0
-0.19246300000136138 0.1584103922392011 0.0
-0.24692208514878444 -0.03910861626005768 0.0
-0.23776412907378844 -0.07725424859373672 0.0
-0.2340104420615789 -0.08631645068751684 0.0
0.11638387070735189 -0.22098293736295976 0.0
0.14694631307311823 -0.2022542485937369 0.0
0.15803707784257862 -0.19278184061712217 0.0
0.17677669529663684 -0.17677669529663692 0.0
0.18529505269428354 -0.16680298023361087 0.0
-0.18377374662503393 -0.1685842007847161 0.0
-0.17677669529663692 -0.17677669529663687 0.0
-0.1578712454112108 -0.19292347489377684 0.0
-0.1162219606718367 -0.22108215596033126 0.0
-0.11349762493488673 -0.22275163104709195 0.0
-0.07725424859373689 -0.23776412907378838 0.0
-0.07341107088887174 -0.2386867944080968 0.0
-0.1469463130731183 -0.20225424859373684 0.0
-0.0551058480579627 0.24308148959002637 0.0
-0.07725424859373684 0.2377641290737884 0.0
-0.0874421955857161 0.23354414325697245 0.0
0.20225424859373684 -0.14694631307311834 0.0
0.22275163104709195 -0.11349762493488674 0.0
0.22734969875643232 -0.10239690751028745 0.0
-0.03911515528992512 0.24692051526660827 0.0
0.23776412907378838 -0.0772542485937369 0.0
0.03159414940900141 -0.2475134865158396 0.0
0.03910861626005767 -0.24692208514878444 0.0
0.07357919048533519 -0.23864643246400077 0.0
-0.11349762493488667 0.22275163104709197 0.0
0.039121049727446025 0.24691910013736273 0.0
0.03910861626005773 0.24692208514878444 0.0
1.5308084989341915e-17 0.25 0.0
-0.03910861626005765 0.24692208514878444 0.0
-0.03910861626005776 -0.24692208514878441 0.0
-0.03156351785971405 -0.24751589727105117 0.0
0.07725424859373681 -0.2377641290737884 0.0
0.11349762493488666 -0.222751631047092 0.0
0.23956470911655994 0.06975429295555086 0.0
0.19135217115687103 0.1597110057097979 0.0
0.20113164457259822 0.14826071350418454 0.0
0.23776412907378838 0.07725424859373685 0.0
0.22275163104709197 0.11349762493488669 0.0
0.20225424859373686 0.14694631307311828 0.0
-4.592425496802574e-17 -0.25 0.0
0.055114539891592644 0.24307940286539437 0.0
0.1767766952966369 0.17677669529663687 0.0
0.14694631307311828 0.20225424859373686 0.0
0.13286584579311592 0.2108827700403009 0.0
0.1134976249348867 0.22275163104709195 0.0
0.0875345896717157 0.23350587237346837 0.0
0.07725424859373686 0.23776412907378838 0.0
-0.22514732986589922 -0.10771389635516113 0.0
-0.22275163104709197 -0.11349762493488667 0.0
-0.2022542485937369 -0.14694631307311826 0.0

CELLS 278 1224
3 48 120 114
3 114 134 48
3 85 109 47
3 43 94 92
3 54 90 88
3 80 127 108
3 85 125 109
3 92 135 43
3 54 128 90
3 45 91 90
3 45 92 91
3 47 127 85
3 43 95 94
3 114 120 52
3 103 134 82
3 88 121 54
3 55 125 118
3 86 125 85
3 96 97 89
3 53 126 119
3 82 136 103
3 48 134 103
3 124 141 126
3 91 96 89
3 92 93 91
3 125 143 118
3 90 128 45
3 93 96 91
3 92 94 93
3 81 101 86
3 72 102 98
3 98 102 76
3 87 97 57
3 56 87 57
3 89 97 87
3 76 102 68
3 62 63 61
3 106 112 46
3 69 74 68
3 27 56 42
3 23 110 52
3 67 73 69
3 11 49 10
3 32 54 31
3 48 103 19
3 74 76 68
3 49 105 10
3 67 69 68
3 28 56 27
3 63 65 64
3 67 68 65
3 14 109 55
3 7 104 44
3 25 106 46
3 10 105 9
3 18 41 17
3 75 100 99
3 56 57 42
3 9 40 8
3 27 42 26
3 36 43 35
3 20 48 19
3 38 51 37
3 7 44 6
3 16 47 15
3 34 45 33
3 6 111 5
3 44 111 6
3 5 53 4
3 23 52 22
3 5 111 53
3 50 87 56
3 68 102 65
3 8 104 7
3 90 91 89
3 9 105 40
3 66 72 71
3 63 64 61
3 50 56 28
3 65 66 64
3 40 104 8
3 63 67 65
3 19 103 18
3 24 110 23
3 18 103 41
3 58 112 106
3 41 107 17
3 66 102 72
3 82 83 79
3 81 85 80
3 66 71 70
3 110 114 52
3 88 90 89
3 78 82 79
3 57 58 42
3 41 108 107
3 29 50 28
3 25 46 24
3 14 55 13
3 50 88 87
3 66 70 64
3 65 102 66
3 81 86 85
3 26 106 25
3 59 61 60
3 17 107 16
3 59 62 61
3 110 116 114
3 58 106 42
3 16 107 47
3 70 113 64
3 64 113 61
3 88 89 87
3 15 109 14
3 42 106 26
3 114 116 83
3 61 113 60
3 46 110 24
3 112 116 46
3 83 115 79
3 115 116 112
3 83 116 115
3 46 116 110
3 47 109 15
3 124 126 100
3 95 122 94
3 122 124 75
3 53 142 126
3 62 117 63
3 67 117 73
3 43 123 95
3 63 117 67
3 21 120 20
3 39 119 38
3 12 118 11
3 30 121 29
3 50 121 88
3 95 124 122
3 36 123 43
3 51 123 37
3 45 135 92
3 108 127 107
3 85 127 80
3 11 118 49
3 38 119 51
3 29 121 50
3 20 120 48
3 32 128 54
3 45 128 33
3 83 134 114
3 43 135 35
3 34 135 45
3 103 136 41
3 31 138 3
3 1 137 12
3 3 138 30
3 13 137 1
3 0 139 39
3 4 139 0
3 2 140 21
3 22 140 2
3 126 141 51
3 37 123 36
3 75 124 100
3 109 125 55
3 107 127 47
3 108 136 78
3 119 126 51
3 111 142 53
3 78 136 82
3 101 132 86
3 99 130 77
3 100 129 99
3 129 130 99
3 84 133 131
3 131 132 101
3 130 133 77
3 77 133 84
3 84 131 101
3 105 132 131
3 131 133 40
3 105 131 40
3 33 128 32
3 49 132 105
3 104 130 44
3 44 130 129
3 44 129 111
3 40 133 104
3 104 133 130
3 82 134 83
3 35 135 34
3 41 136 108
3 118 143 49
3 21 140 120
3 12 137 118
3 39 139 119
3 30 138 121
3 54 138 31
3 52 140 22
3 53 139 4
3 55 137 13
3 51 141 123
3 120 140 52
3 118 137 55
3 119 139 53
3 121 138 54
3 123 141 95
3 95 141 124
3 86 143 125
3 126 142 100
3 129 142 111
3 100 142 129
3 132 143 86
3 49 143 132
4 144 145 146 71
