$MeshFormat
2.2 0 8
$EndMeshFormat
$PhysicalNames
5
1 2 "bottom"
1 3 "right "
1 4 "top   "
1 5 "left  "
2 1 "domain"
$EndPhysicalNames
$Nodes
289
1 -0.5 -0.5 0
2 0.5 -0.5 0
3 0.5 0.5 0
4 -0.5 0.5 0
5 -0.4375000000001733 -0.5 0
6 -0.3750000000003466 -0.5 0
7 -0.31250000000052 -0.5 0
8 -0.2500000000006933 -0.5 0
9 -0.1875000000008665 -0.5 0
10 -0.1250000000010397 -0.5 0
11 -0.06250000000121281 -0.5 0
12 -1.375122238300719e-12 -0.5 0
13 0.0624999999987873 -0.5 0
14 0.1249999999989605 -0.5 0
15 0.1874999999991338 -0.5 0
16 0.249999999999307 -0.5 0
17 0.3124999999994802 -0.5 0
18 0.3749999999996535 -0.5 0
19 0.4374999999998267 -0.5 0
20 0.5 -0.4375000000001733 0
21 0.5 -0.3750000000003466 0
22 0.5 -0.31250000000052 0
23 0.5 -0.2500000000006933 0
24 0.5 -0.1875000000008665 0
25 0.5 -0.1250000000010397 0
26 0.5 -0.06250000000121281 0
27 0.5 -1.375122238300719e-12 0
28 0.5 0.0624999999987873 0
29 0.5 0.1249999999989605 0
30 0.5 0.1874999999991338 0
31 0.5 0.249999999999307 0
32 0.5 0.3124999999994802 0
33 0.5 0.3749999999996535 0
34 0.5 0.4374999999998267 0
35 0.4375000000001733 0.5 0
36 0.3750000000003466 0.5 0
37 0.31250000000052 0.5 0
38 0.2500000000006933 0.5 0
39 0.1875000000008665 0.5 0
40 0.1250000000010397 0.5 0
41 0.06250000000121281 0.5 0
42 1.375122238300719e-12 0.5 0
43 -0.0624999999987873 0.5 0
44 -0.1249999999989605 0.5 0
45 -0.1874999999991338 0.5 0
46 -0.249999999999307 0.5 0
47 -0.3124999999994802 0.5 0
48 -0.3749999999996535 0.5 0
49 -0.4374999999998267 0.5 0
50 -0.5 0.4375000000001733 0
51 -0.5 0.3750000000003466 0
52 -0.5 0.31250000000052 0
53 -0.5 0.2500000000006933 0
54 -0.5 0.1875000000008665 0
55 -0.5 0.1250000000010397 0
56 -0.5 0.06250000000121281 0
57 -0.5 1.375122238300719e-12 0
58 -0.5 -0.0624999999987873 0
59 -0.5 -0.1249999999989605 0
60 -0.5 -0.1874999999991338 0
61 -0.5 -0.249999999999307 0
62 -0.5 -0.3124999999994802 0
63 -0.5 -0.3749999999996535 0
64 -0.5 -0.4374999999998267 0
65 -0.4375000000001517 -0.4374999999998483 0
66 -0.4375000000001299 -0.3749999999996968 0
67 -0.4375000000001082 -0.3124999999995453 0
68 -0.4375000000000866 -0.2499999999993936 0
69 -0.4375000000000649 -0.187499999999242 0
70 -0.4375000000000433 -0.1249999999990905 0
71 -0.4375000000000216 -0.06249999999893885 0
72 -0.4375 1.203259714088745e-12 0
73 -0.4374999999999784 0.06250000000106126 0
74 -0.4374999999999567 0.1250000000009096 0
75 -0.4374999999999349 0.1875000000007583 0
76 -0.4374999999999135 0.2500000000006066 0
77 -0.4374999999998916 0.312500000000455 0
78 -0.4374999999998699 0.3750000000003034 0
79 -0.4374999999998483 0.4375000000001515 0
80 -0.3750000000003034 -0.43749999999987 0
81 -0.3750000000002601 -0.3749999999997402 0
82 -0.3750000000002166 -0.3124999999996101 0
83 -0.3750000000001733 -0.2499999999994802 0
84 -0.3750000000001301 -0.1874999999993504 0
85 -0.3750000000000867 -0.1249999999992204 0
86 -0.3750000000000434 -0.06249999999909048 0
87 -0.375 1.031369434301155e-12 0
88 -0.3749999999999567 0.06250000000090963 0
89 -0.3749999999999134 0.1250000000007797 0
90 -0.3749999999998701 0.1875000000006499 0
91 -0.3749999999998269 0.25000000000052 0
92 -0.3749999999997836 0.3125000000003901 0
93 -0.3749999999997401 0.3750000000002599 0
94 -0.3749999999996968 0.43750000000013 0
95 -0.312500000000455 -0.4374999999998916 0
96 -0.31250000000039 -0.3749999999997835 0
97 -0.3125000000003249 -0.3124999999996751 0
98 -0.3125000000002601 -0.2499999999995668 0
99 -0.3125000000001951 -0.1874999999994587 0
100 -0.3125000000001301 -0.1249999999993503 0
101 -0.3125000000000651 -0.06249999999924211 0
102 -0.3125000000000001 8.592848654842555e-13 0
103 -0.3124999999999352 0.06250000000075787 0
104 -0.3124999999998701 0.1250000000006498 0
105 -0.312499999999805 0.1875000000005416 0
106 -0.3124999999997402 0.2500000000004334 0
107 -0.3124999999996751 0.3125000000003252 0
108 -0.3124999999996101 0.3750000000002167 0
109 -0.3124999999995453 0.4375000000001084 0
110 -0.2500000000006067 -0.4374999999999135 0
111 -0.25000000000052 -0.3749999999998269 0
112 -0.2500000000004334 -0.3124999999997402 0
113 -0.2500000000003467 -0.2499999999996536 0
114 -0.25000000000026 -0.187499999999567 0
115 -0.2500000000001734 -0.1249999999994804 0
116 -0.2500000000000868 -0.0624999999993936 0
117 -0.2500000000000002 6.875333635747438e-13 0
118 -0.2499999999999135 0.06250000000060651 0
119 -0.2499999999998269 0.1250000000005199 0
120 -0.2499999999997402 0.1875000000004332 0
121 -0.2499999999996536 0.2500000000003468 0
122 -0.249999999999567 0.31250000000026 0
123 -0.2499999999994803 0.3750000000001732 0
124 -0.2499999999993936 0.4375000000000867 0
125 -0.1875000000007582 -0.4374999999999349 0
126 -0.1875000000006499 -0.3749999999998701 0
127 -0.1875000000005417 -0.312499999999805 0
128 -0.1875000000004333 -0.2499999999997402 0
129 -0.1875000000003251 -0.1874999999996752 0
130 -0.1875000000002168 -0.1249999999996103 0
131 -0.1875000000001085 -0.06249999999954525 0
132 -0.1875000000000002 5.156985949383852e-13 0
133 -0.1874999999998919 0.06250000000045486 0
134 -0.1874999999997836 0.1250000000003898 0
135 -0.1874999999996753 0.1875000000003251 0
136 -0.187499999999567 0.25000000000026 0
137 -0.1874999999994588 0.3125000000001952 0
138 -0.1874999999993504 0.3750000000001301 0
139 -0.1874999999992421 0.4375000000000649 0
140 -0.1250000000009097 -0.4374999999999567 0
141 -0.1250000000007798 -0.3749999999999134 0
142 -0.1250000000006498 -0.3124999999998701 0
143 -0.1250000000005198 -0.2499999999998269 0
144 -0.12500000000039 -0.1874999999997836 0
145 -0.12500000000026 -0.1249999999997402 0
146 -0.1250000000001301 -0.06249999999969694 0
147 -0.125 3.437250484239485e-13 0
148 -0.1249999999998701 0.06250000000030323 0
149 -0.1249999999997402 0.12500000000026 0
150 -0.1249999999996103 0.1875000000002167 0
151 -0.1249999999994804 0.2500000000001734 0
152 -0.1249999999993503 0.3125000000001301 0
153 -0.1249999999992204 0.3750000000000868 0
154 -0.1249999999990905 0.4375000000000433 0
155 -0.06250000000106114 -0.4374999999999784 0
156 -0.06250000000090951 -0.3749999999999567 0
157 -0.06250000000075794 -0.3124999999999352 0
158 -0.06250000000060638 -0.2499999999999136 0
159 -0.06250000000045483 -0.1874999999998919 0
160 -0.06250000000030327 -0.1249999999998701 0
161 -0.06250000000015166 -0.06249999999984845 0
162 -0.0625 1.718625242119742e-13 0
163 -0.06249999999984845 0.06250000000015177 0
164 -0.06249999999969691 0.12500000000013 0
165 -0.06249999999954525 0.1875000000001086 0
166 -0.06249999999939357 0.2500000000000868 0
167 -0.06249999999924216 0.3125000000000651 0
168 -0.06249999999909048 0.3750000000000432 0
169 -0.06249999999893885 0.4375000000000216 0
170 -1.203273591876552e-12 -0.4375 0
171 -1.031369434301155e-12 -0.3749999999999999 0
172 -8.594826239605169e-13 -0.3124999999999999 0
173 -6.875333635747438e-13 -0.2500000000000002 0
174 -5.156985949383852e-13 -0.1875000000000002 0
175 -3.438985207715461e-13 -0.1250000000000003 0
176 -1.718347686363586e-13 -0.06250000000000001 0
177 0 0 0
178 1.718902797875899e-13 0.06249999999999989 0
179 3.437250484239485e-13 0.1250000000000001 0
180 5.155598170603071e-13 0.1875000000000002 0
181 6.874500968478969e-13 0.2500000000000002 0
182 8.595069100891806e-13 0.3125000000000002 0
183 1.031258411998692e-12 0.3750000000000001 0
184 1.203259714088745e-12 0.4375000000000001 0
185 0.06249999999893896 -0.4375000000000216 0
186 0.06249999999909064 -0.3750000000000432 0
187 0.06249999999924193 -0.3125000000000651 0
188 0.06249999999939371 -0.2500000000000868 0
189 0.06249999999954538 -0.1875000000001085 0
190 0.06249999999969701 -0.1250000000001302 0
191 0.06249999999984845 -0.06250000000015166 0
192 0.0624999999999999 -1.71876401999782e-13 0
193 0.06250000000015155 0.06249999999984845 0
194 0.06250000000030317 0.1249999999998702 0
195 0.06250000000045483 0.1874999999998919 0
196 0.06250000000060651 0.2499999999999136 0
197 0.06250000000075792 0.3124999999999352 0
198 0.06250000000090961 0.3749999999999566 0
199 0.06250000000106129 0.4374999999999782 0
200 0.1249999999990906 -0.4375000000000433 0
201 0.1249999999992205 -0.3750000000000867 0
202 0.1249999999993502 -0.3125000000001301 0
203 0.1249999999994803 -0.2500000000001734 0
204 0.1249999999996102 -0.1875000000002167 0
205 0.1249999999997402 -0.1250000000002599 0
206 0.1249999999998702 -0.06250000000030331 0
207 0.1249999999999999 -3.437250484239485e-13 0
208 0.12500000000013 0.06249999999969702 0
209 0.1250000000002599 0.1249999999997401 0
210 0.1250000000003898 0.1874999999997835 0
211 0.12500000000052 0.2499999999998268 0
212 0.1250000000006498 0.3124999999998701 0
213 0.1250000000007798 0.3749999999999135 0
214 0.1250000000009096 0.4374999999999565 0
215 0.1874999999992419 -0.4375000000000651 0
216 0.1874999999993505 -0.3750000000001301 0
217 0.1874999999994589 -0.3125000000001949 0
218 0.187499999999567 -0.2500000000002601 0
219 0.1874999999996751 -0.1875000000003251 0
220 0.1874999999997836 -0.1250000000003898 0
221 0.1874999999998919 -0.06250000000045484 0
222 0.1875000000000002 -5.156985949383852e-13 0
223 0.1875000000001084 0.06249999999954513 0
224 0.1875000000002169 0.1249999999996102 0
225 0.1875000000003251 0.1874999999996754 0
226 0.1875000000004332 0.2499999999997402 0
227 0.1875000000005416 0.3124999999998053 0
228 0.18750000000065 0.3749999999998699 0
229 0.1875000000007583 0.4374999999999349 0
230 0.2499999999993936 -0.4375000000000865 0
231 0.2499999999994804 -0.3750000000001733 0
232 0.249999999999567 -0.31250000000026 0
233 0.2499999999996536 -0.2500000000003467 0
234 0.2499999999997402 -0.1875000000004333 0
235 0.2499999999998268 -0.1250000000005199 0
236 0.2499999999999136 -0.0625000000006064 0
237 0.2500000000000002 -6.875472413625516e-13 0
238 0.2500000000000868 0.06249999999939371 0
239 0.2500000000001734 0.1249999999994803 0
240 0.25000000000026 0.187499999999567 0
241 0.2500000000003466 0.2499999999996536 0
242 0.2500000000004334 0.3124999999997402 0
243 0.25000000000052 0.3749999999998268 0
244 0.2500000000006069 0.4374999999999134 0
245 0.312499999999545 -0.4375000000001084 0
246 0.31249999999961 -0.3750000000002166 0
247 0.312499999999675 -0.3125000000003251 0
248 0.3124999999997401 -0.2500000000004335 0
249 0.3124999999998052 -0.1875000000005416 0
250 0.31249999999987 -0.1250000000006499 0
251 0.3124999999999352 -0.06250000000075807 0
252 0.3125 -8.594236433623337e-13 0
253 0.3125000000000651 0.06249999999924206 0
254 0.3125000000001301 0.1249999999993502 0
255 0.3125000000001952 0.1874999999994587 0
256 0.31250000000026 0.249999999999567 0
257 0.3125000000003251 0.3124999999996751 0
258 0.3125000000003902 0.3749999999997835 0
259 0.3125000000004549 0.4374999999998918 0
260 0.374999999999697 -0.4375000000001299 0
261 0.37499999999974 -0.37500000000026 0
262 0.3749999999997834 -0.3125000000003899 0
263 0.3749999999998268 -0.25000000000052 0
264 0.3749999999998701 -0.1875000000006499 0
265 0.3749999999999136 -0.1250000000007797 0
266 0.3749999999999568 -0.06250000000090961 0
267 0.3750000000000001 -1.031279228680404e-12 0
268 0.3750000000000434 0.06249999999909039 0
269 0.3750000000000867 0.1249999999992205 0
270 0.3750000000001298 0.1874999999993505 0
271 0.3750000000001733 0.2499999999994802 0
272 0.3750000000002167 0.3124999999996101 0
273 0.3750000000002599 0.3749999999997401 0
274 0.3750000000003034 0.43749999999987 0
275 0.4374999999998485 -0.4375000000001517 0
276 0.43749999999987 -0.3750000000003034 0
277 0.4374999999998916 -0.3125000000004551 0
278 0.4374999999999136 -0.2500000000006066 0
279 0.4374999999999351 -0.1875000000007582 0
280 0.4374999999999567 -0.1250000000009096 0
281 0.4374999999999784 -0.06250000000106115 0
282 0.4374999999999999 -1.203266652982649e-12 0
283 0.4375000000000216 0.06249999999893899 0
284 0.4375000000000433 0.1249999999990904 0
285 0.4375000000000651 0.1874999999992422 0
286 0.4375000000000868 0.2499999999993936 0
287 0.4375000000001085 0.312499999999545 0
288 0.4375000000001301 0.3749999999996968 0
289 0.4375000000001515 0.4374999999998482 0
$EndNodes
$Elements
304
1 1 2 2 1 1 5
2 1 2 2 1 5 6
3 1 2 2 1 6 7
4 1 2 2 1 7 8
5 1 2 2 1 8 9
6 1 2 2 1 9 10
7 1 2 2 1 10 11
8 1 2 2 1 11 12
9 1 2 2 1 12 13
10 1 2 2 1 13 14
11 1 2 2 1 14 15
12 1 2 2 1 15 16
13 1 2 2 1 16 17
14 1 2 2 1 17 18
15 1 2 2 1 18 19
16 1 2 2 1 19 2
17 1 2 4 3 3 35
18 1 2 4 3 35 36
19 1 2 4 3 36 37
20 1 2 4 3 37 38
21 1 2 4 3 38 39
22 1 2 4 3 39 40
23 1 2 4 3 40 41
24 1 2 4 3 41 42
25 1 2 4 3 42 43
26 1 2 4 3 43 44
27 1 2 4 3 44 45
28 1 2 4 3 45 46
29 1 2 4 3 46 47
30 1 2 4 3 47 48
31 1 2 4 3 48 49
32 1 2 4 3 49 4
33 1 2 5 4 4 50
34 1 2 5 4 50 51
35 1 2 5 4 51 52
36 1 2 5 4 52 53
37 1 2 5 4 53 54
38 1 2 5 4 54 55
39 1 2 5 4 55 56
40 1 2 5 4 56 57
41 1 2 5 4 57 58
42 1 2 5 4 58 59
43 1 2 5 4 59 60
44 1 2 5 4 60 61
45 1 2 5 4 61 62
46 1 2 5 4 62 63
47 1 2 5 4 63 64
48 1 2 5 4 64 1
49 3 2 1 1 1 5 65 64
50 3 2 1 1 64 65 66 63
51 3 2 1 1 63 66 67 62
52 3 2 1 1 62 67 68 61
53 3 2 1 1 61 68 69 60
54 3 2 1 1 60 69 70 59
55 3 2 1 1 59 70 71 58
56 3 2 1 1 58 71 72 57
57 3 2 1 1 57 72 73 56
58 3 2 1 1 56 73 74 55
59 3 2 1 1 55 74 75 54
60 3 2 1 1 54 75 76 53
61 3 2 1 1 53 76 77 52
62 3 2 1 1 52 77 78 51
63 3 2 1 1 51 78 79 50
64 3 2 1 1 50 79 49 4
65 3 2 1 1 5 6 80 65
66 3 2 1 1 65 80 81 66
67 3 2 1 1 66 81 82 67
68 3 2 1 1 67 82 83 68
69 3 2 1 1 68 83 84 69
70 3 2 1 1 69 84 85 70
71 3 2 1 1 70 85 86 71
72 3 2 1 1 71 86 87 72
73 3 2 1 1 72 87 88 73
74 3 2 1 1 73 88 89 74
75 3 2 1 1 74 89 90 75
76 3 2 1 1 75 90 91 76
77 3 2 1 1 76 91 92 77
78 3 2 1 1 77 92 93 78
79 3 2 1 1 78 93 94 79
80 3 2 1 1 79 94 48 49
81 3 2 1 1 6 7 95 80
82 3 2 1 1 80 95 96 81
83 3 2 1 1 81 96 97 82
84 3 2 1 1 82 97 98 83
85 3 2 1 1 83 98 99 84
86 3 2 1 1 84 99 100 85
87 3 2 1 1 85 100 101 86
88 3 2 1 1 86 101 102 87
89 3 2 1 1 87 102 103 88
90 3 2 1 1 88 103 104 89
91 3 2 1 1 89 104 105 90
92 3 2 1 1 90 105 106 91
93 3 2 1 1 91 106 107 92
94 3 2 1 1 92 107 108 93
95 3 2 1 1 93 108 109 94
96 3 2 1 1 94 109 47 48
97 3 2 1 1 7 8 110 95
98 3 2 1 1 95 110 111 96
99 3 2 1 1 96 111 112 97
100 3 2 1 1 97 112 113 98
101 3 2 1 1 98 113 114 99
102 3 2 1 1 99 114 115 100
103 3 2 1 1 100 115 116 101
104 3 2 1 1 101 116 117 102
105 3 2 1 1 102 117 118 103
106 3 2 1 1 103 118 119 104
107 3 2 1 1 104 119 120 105
108 3 2 1 1 105 120 121 106
109 3 2 1 1 106 121 122 107
110 3 2 1 1 107 122 123 108
111 3 2 1 1 108 123 124 109
112 3 2 1 1 109 124 46 47
113 3 2 1 1 8 9 125 110
114 3 2 1 1 110 125 126 111
115 3 2 1 1 111 126 127 112
116 3 2 1 1 112 127 128 113
117 3 2 1 1 113 128 129 114
118 3 2 1 1 114 129 130 115
119 3 2 1 1 115 130 131 116
120 3 2 1 1 116 131 132 117
121 3 2 1 1 117 132 133 118
122 3 2 1 1 118 133 134 119
123 3 2 1 1 119 134 135 120
124 3 2 1 1 120 135 136 121
125 3 2 1 1 121 136 137 122
126 3 2 1 1 122 137 138 123
127 3 2 1 1 123 138 139 124
128 3 2 1 1 124 139 45 46
129 3 2 1 1 9 10 140 125
130 3 2 1 1 125 140 141 126
131 3 2 1 1 126 141 142 127
132 3 2 1 1 127 142 143 128
133 3 2 1 1 128 143 144 129
134 3 2 1 1 129 144 145 130
135 3 2 1 1 130 145 146 131
136 3 2 1 1 131 146 147 132
137 3 2 1 1 132 147 148 133
138 3 2 1 1 133 148 149 134
139 3 2 1 1 134 149 150 135
140 3 2 1 1 135 150 151 136
141 3 2 1 1 136 151 152 137
142 3 2 1 1 137 152 153 138
143 3 2 1 1 138 153 154 139
144 3 2 1 1 139 154 44 45
145 3 2 1 1 10 11 155 140
146 3 2 1 1 140 155 156 141
147 3 2 1 1 141 156 157 142
148 3 2 1 1 142 157 158 143
149 3 2 1 1 143 158 159 144
150 3 2 1 1 144 159 160 145
151 3 2 1 1 145 160 161 146
152 3 2 1 1 146 161 162 147
153 3 2 1 1 147 162 163 148
154 3 2 1 1 148 163 164 149
155 3 2 1 1 149 164 165 150
156 3 2 1 1 150 165 166 151
157 3 2 1 1 151 166 167 152
158 3 2 1 1 152 167 168 153
159 3 2 1 1 153 168 169 154
160 3 2 1 1 154 169 43 44
161 3 2 1 1 11 12 170 155
162 3 2 1 1 155 170 171 156
163 3 2 1 1 156 171 172 157
164 3 2 1 1 157 172 173 158
165 3 2 1 1 158 173 174 159
166 3 2 1 1 159 174 175 160
167 3 2 1 1 160 175 176 161
168 3 2 1 1 161 176 177 162
169 3 2 1 1 162 177 178 163
170 3 2 1 1 163 178 179 164
171 3 2 1 1 164 179 180 165
172 3 2 1 1 165 180 181 166
173 3 2 1 1 166 181 182 167
174 3 2 1 1 167 182 183 168
175 3 2 1 1 168 183 184 169
176 3 2 1 1 169 184 42 43
177 3 2 1 1 12 13 185 170
178 3 2 1 1 170 185 186 171
179 3 2 1 1 171 186 187 172
180 3 2 1 1 172 187 188 173
181 3 2 1 1 173 188 189 174
182 3 2 1 1 174 189 190 175
183 3 2 1 1 175 190 191 176
184 3 2 1 1 176 191 192 177
185 3 2 1 1 177 192 193 178
186 3 2 1 1 178 193 194 179
187 3 2 1 1 179 194 195 180
188 3 2 1 1 180 195 196 181
189 3 2 1 1 181 196 197 182
190 3 2 1 1 182 197 198 183
191 3 2 1 1 183 198 199 184
192 3 2 1 1 184 199 41 42
193 3 2 1 1 13 14 200 185
194 3 2 1 1 185 200 201 186
195 3 2 1 1 186 201 202 187
196 3 2 1 1 187 202 203 188
197 3 2 1 1 188 203 204 189
198 3 2 1 1 189 204 205 190
199 3 2 1 1 190 205 206 191
200 3 2 1 1 191 206 207 192
201 3 2 1 1 192 207 208 193
202 3 2 1 1 193 208 209 194
203 3 2 1 1 194 209 210 195
204 3 2 1 1 195 210 211 196
205 3 2 1 1 196 211 212 197
206 3 2 1 1 197 212 213 198
207 3 2 1 1 198 213 214 199
208 3 2 1 1 199 214 40 41
209 3 2 1 1 14 15 215 200
210 3 2 1 1 200 215 216 201
211 3 2 1 1 201 216 217 202
212 3 2 1 1 202 217 218 203
213 3 2 1 1 203 218 219 204
214 3 2 1 1 204 219 220 205
215 3 2 1 1 205 220 221 206
216 3 2 1 1 206 221 222 207
217 3 2 1 1 207 222 223 208
218 3 2 1 1 208 223 224 209
219 3 2 1 1 209 224 225 210
220 3 2 1 1 210 225 226 211
221 3 2 1 1 211 226 227 212
222 3 2 1 1 212 227 228 213
223 3 2 1 1 213 228 229 214
224 3 2 1 1 214 229 39 40
225 3 2 1 1 15 16 230 215
226 3 2 1 1 215 230 231 216
227 3 2 1 1 216 231 232 217
228 3 2 1 1 217 232 233 218
229 3 2 1 1 218 233 234 219
230 3 2 1 1 219 234 235 220
231 3 2 1 1 220 235 236 221
232 3 2 1 1 221 236 237 222
233 3 2 1 1 222 237 238 223
234 3 2 1 1 223 238 239 224
235 3 2 1 1 224 239 240 225
236 3 2 1 1 225 240 241 226
237 3 2 1 1 226 241 242 227
238 3 2 1 1 227 242 243 228
239 3 2 1 1 228 243 244 229
240 3 2 1 1 229 244 38 39
241 3 2 1 1 16 17 245 230
242 3 2 1 1 230 245 246 231
243 3 2 1 1 231 246 247 232
244 3 2 1 1 232 247 248 233
245 3 2 1 1 233 248 249 234
246 3 2 1 1 234 249 250 235
247 3 2 1 1 235 250 251 236
248 3 2 1 1 236 251 252 237
249 3 2 1 1 237 252 253 238
250 3 2 1 1 238 253 254 239
251 3 2 1 1 239 254 255 240
252 3 2 1 1 240 255 256 241
253 3 2 1 1 241 256 257 242
254 3 2 1 1 242 257 258 243
255 3 2 1 1 243 258 259 244
256 3 2 1 1 244 259 37 38
257 3 2 1 1 17 18 260 245
258 3 2 1 1 245 260 261 246
259 3 2 1 1 246 261 262 247
260 3 2 1 1 247 262 263 248
261 3 2 1 1 248 263 264 249
262 3 2 1 1 249 264 265 250
263 3 2 1 1 250 265 266 251
264 3 2 1 1 251 266 267 252
265 3 2 1 1 252 267 268 253
266 3 2 1 1 253 268 269 254
267 3 2 1 1 254 269 270 255
268 3 2 1 1 255 270 271 256
269 3 2 1 1 256 271 272 257
270 3 2 1 1 257 272 273 258
271 3 2 1 1 258 273 274 259
272 3 2 1 1 259 274 36 37
273 3 2 1 1 18 19 275 260
274 3 2 1 1 260 275 276 261
275 3 2 1 1 261 276 277 262
276 3 2 1 1 262 277 278 263
277 3 2 1 1 263 278 279 264
278 3 2 1 1 264 279 280 265
279 3 2 1 1 265 280 281 266
280 3 2 1 1 266 281 282 267
281 3 2 1 1 267 282 283 268
282 3 2 1 1 268 283 284 269
283 3 2 1 1 269 284 285 270
284 3 2 1 1 270 285 286 271
285 3 2 1 1 271 286 287 272
286 3 2 1 1 272 287 288 273
287 3 2 1 1 273 288 289 274
288 3 2 1 1 274 289 35 36
289 3 2 1 1 19 2 20 275
290 3 2 1 1 275 20 21 276
291 3 2 1 1 276 21 22 277
292 3 2 1 1 277 22 23 278
293 3 2 1 1 278 23 24 279
294 3 2 1 1 279 24 25 280
295 3 2 1 1 280 25 26 281
296 3 2 1 1 281 26 27 282
297 3 2 1 1 282 27 28 283
298 3 2 1 1 283 28 29 284
299 3 2 1 1 284 29 30 285
300 3 2 1 1 285 30 31 286
301 3 2 1 1 286 31 32 287
302 3 2 1 1 287 32 33 288
303 3 2 1 1 288 33 34 289
304 3 2 1 1 289 34 3 35
$EndElements
