# vtk DataFile Version 3.0
Broken Mesh Solution
ASCII
DATASET UNSTRUCTURED_GRID

POINTS 570 float
-0.5 -0.5 0.0
0.5 -0.5 0.0
0.5 0.5 0.0
-0.5 0.5 0.0
-0.4523809523809524 -0.5 0.0
-0.4047619047619048 -0.5 0.0
-0.3571428571428572 -0.5 0.0
-0.3095238095238095 -0.5 0.0
-0.2619047619047619 -0.5 0.0
-0.2142857142857143 -0.5 0.0
-0.1666666666666667 -0.5 0.0
-0.1190476190476191 -0.5 0.0
-0.07142857142857145 -0.5 0.0
-0.02380952380952384 -0.5 0.0
0.02380952380952384 -0.5 0.0
0.0714285714285714 -0.5 0.0
0.1190476190476191 -0.5 0.0
0.1666666666666666 -0.5 0.0
0.2142857142857143 -0.5 0.0
0.2619047619047619 -0.5 0.0
0.3095238095238095 -0.5 0.0
0.3571428571428571 -0.5 0.0
0.4047619047619048 -0.5 0.0
0.4523809523809523 -0.5 0.0
0.5 -0.4523809523809524 0.0
0.5 -0.4047619047619048 0.0
0.5 -0.3571428571428572 0.0
0.5 -0.3095238095238095 0.0
0.5 -0.2619047619047619 0.0
0.5 -0.2142857142857143 0.0
0.5 -0.1666666666666667 0.0
0.5 -0.1190476190476191 0.0
0.5 -0.07142857142857145 0.0
0.5 -0.02380952380952384 0.0
0.5 0.02380952380952384 0.0
0.5 0.0714285714285714 0.0
0.5 0.1190476190476191 0.0
0.5 0.1666666666666666 0.0
0.5 0.2142857142857143 0.0
0.5 0.2619047619047619 0.0
0.5 0.3095238095238095 0.0
0.5 0.3571428571428571 0.0
0.5 0.4047619047619048 0.0
0.5 0.4523809523809523 0.0
0.4523809523809524 0.5 0.0
0.4047619047619048 0.5 0.0
0.3571428571428572 0.5 0.0
0.3095238095238095 0.5 0.0
0.2619047619047619 0.5 0.0
0.2142857142857143 0.5 0.0
0.1666666666666667 0.5 0.0
0.1190476190476191 0.5 0.0
0.07142857142857145 0.5 0.0
0.02380952380952384 0.5 0.0
-0.02380952380952384 0.5 0.0
-0.0714285714285714 0.5 0.0
-0.1190476190476191 0.5 0.0
-0.1666666666666666 0.5 0.0
-0.2142857142857143 0.5 0.0
-0.2619047619047619 0.5 0.0
-0.3095238095238095 0.5 0.0
-0.3571428571428571 0.5 0.0
-0.4047619047619048 0.5 0.0
-0.4523809523809523 0.5 0.0
-0.5 0.4523809523809524 0.0
-0.5 0.4047619047619048 0.0
-0.5 0.3571428571428572 0.0
-0.5 0.3095238095238095 0.0
-0.5 0.2619047619047619 0.0
-0.5 0.2142857142857143 0.0
-0.5 0.1666666666666667 0.0
-0.5 0.1190476190476191 0.0
-0.5 0.07142857142857145 0.0
-0.5 0.02380952380952384 0.0
-0.5 -0.02380952380952384 0.0
-0.5 -0.0714285714285714 0.0
-0.5 -0.1190476190476191 0.0
-0.5 -0.1666666666666666 0.0
-0.5 -0.2142857142857143 0.0
-0.5 -0.2619047619047619 0.0
-0.5 -0.3095238095238095 0.0
-0.5 -0.3571428571428571 0.0
-0.5 -0.4047619047619048 0.0
-0.5 -0.4523809523809523 0.0
-0.4523809523809523 -0.4523809523809522 0.0
-0.4523809523809523 -0.4047619047619048 0.0
-0.4523809523809523 -0.3571428571428571 0.0
-0.4523809523809523 -0.3095238095238094 0.0
-0.4523809523809523 -0.2619047619047619 0.0
-0.4523809523809523 -0.2142857142857142 0.0
-0.4523809523809522 -0.1666666666666666 0.0
-0.4523809523809524 -0.1190476190476191 0.0
-0.4523809523809524 -0.0714285714285714 0.0
-0.4523809523809524 -0.02380952380952381 0.0
-0.4523809523809523 0.02380952380952386 0.0
-0.4523809523809523 0.07142857142857148 0.0
-0.4523809523809523 0.1190476190476191 0.0
-0.4523809523809523 0.1666666666666667 0.0
-0.4523809523809523 0.2142857142857143 0.0
-0.4523809523809523 0.2619047619047619 0.0
-0.4523809523809523 0.3095238095238095 0.0
-0.4523809523809523 0.3571428571428571 0.0
-0.4523809523809523 0.4047619047619048 0.0
-0.4523809523809523 0.4523809523809523 0.0
-0.4047619047619047 -0.4523809523809523 0.0
-0.4047619047619048 -0.4047619047619048 0.0
-0.4047619047619047 -0.3571428571428572 0.0
-0.4047619047619048 -0.3095238095238095 0.0
-0.4047619047619047 -0.2619047619047618 0.0
-0.4047619047619048 -0.2142857142857143 0.0
-0.4047619047619048 -0.1666666666666667 0.0
-0.4047619047619048 -0.119047619047619 0.0
-0.4047619047619047 -0.07142857142857142 0.0
-0.4047619047619048 -0.02380952380952384 0.0
-0.4047619047619048 0.02380952380952384 0.0
-0.4047619047619048 0.07142857142857142 0.0
-0.4047619047619048 0.1190476190476191 0.0
-0.4047619047619048 0.1666666666666667 0.0
-0.4047619047619048 0.2142857142857143 0.0
-0.4047619047619048 0.2619047619047619 0.0
-0.4047619047619048 0.3095238095238095 0.0
-0.4047619047619048 0.3571428571428571 0.0
-0.4047619047619048 0.4047619047619048 0.0
-0.4047619047619048 0.4523809523809523 0.0
-0.3571428571428571 -0.4523809523809524 0.0
-0.3571428571428573 -0.4047619047619047 0.0
-0.3571428571428571 -0.3571428571428572 0.0
-0.3571428571428571 -0.3095238095238095 0.0
-0.3571428571428572 -0.2619047619047618 0.0
-0.3571428571428572 -0.2142857142857144 0.0
-0.3571428571428572 -0.1666666666666667 0.0
-0.3571428571428572 -0.1190476190476191 0.0
-0.3571428571428572 -0.0714285714285714 0.0
-0.3571428571428571 -0.02380952380952384 0.0
-0.3571428571428571 0.02380952380952384 0.0
-0.3571428571428572 0.07142857142857148 0.0
-0.3571428571428571 0.1190476190476191 0.0
-0.3571428571428572 0.1666666666666667 0.0
-0.3571428571428572 0.2142857142857143 0.0
-0.3571428571428571 0.2619047619047619 0.0
-0.3571428571428571 0.3095238095238095 0.0
-0.3571428571428571 0.357142857142857 0.0
-0.3571428571428571 0.4047619047619047 0.0
-0.3571428571428571 0.4523809523809524 0.0
-0.3095238095238095 -0.4523809523809523 0.0
-0.3095238095238095 -0.4047619047619048 0.0
-0.3095238095238096 -0.3571428571428572 0.0
-0.3095238095238096 -0.3095238095238095 0.0
-0.3095238095238095 -0.2619047619047619 0.0
-0.3095238095238095 -0.2142857142857143 0.0
-0.3095238095238095 -0.1666666666666667 0.0
-0.3095238095238095 -0.119047619047619 0.0
-0.3095238095238095 -0.0714285714285714 0.0
-0.3095238095238095 -0.02380952380952384 0.0
-0.3095238095238095 0.02380952380952384 0.0
-0.3095238095238095 0.07142857142857145 0.0
-0.3095238095238095 0.119047619047619 0.0
-0.3095238095238095 0.1666666666666667 0.0
-0.3095238095238095 0.2142857142857143 0.0
-0.3095238095238095 0.2619047619047619 0.0
-0.3095238095238095 0.3095238095238095 0.0
-0.3095238095238095 0.3571428571428571 0.0
-0.3095238095238095 0.4047619047619048 0.0
-0.3095238095238095 0.4523809523809523 0.0
-0.261904761904762 -0.4523809523809523 0.0
-0.261904761904762 -0.4047619047619048 0.0
-0.2619047619047619 -0.3571428571428572 0.0
-0.2619047619047619 -0.3095238095238095 0.0
-0.261904761904762 -0.2619047619047619 0.0
-0.2619047619047619 -0.2142857142857143 0.0
-0.2619047619047619 -0.1666666666666666 0.0
-0.2619047619047619 -0.1190476190476191 0.0
-0.2619047619047619 -0.0714285714285714 0.0
-0.2619047619047619 -0.02380952380952381 0.0
-0.2619047619047618 0.02380952380952381 0.0
-0.2619047619047619 0.07142857142857145 0.0
-0.2619047619047618 0.1190476190476191 0.0
-0.2619047619047618 0.1666666666666667 0.0
-0.2619047619047619 0.2142857142857144 0.0
-0.2619047619047619 0.2619047619047619 0.0
-0.2619047619047619 0.3095238095238095 0.0
-0.2619047619047619 0.3571428571428571 0.0
-0.2619047619047619 0.4047619047619048 0.0
-0.2619047619047619 0.4523809523809524 0.0
-0.2142857142857143 -0.4523809523809523 0.0
-0.2142857142857143 -0.4047619047619047 0.0
-0.2142857142857143 -0.3571428571428572 0.0
-0.2142857142857143 -0.3095238095238095 0.0
-0.2142857142857144 -0.2619047619047618 0.0
-0.2142857142857143 -0.2142857142857142 0.0
-0.2142857142857143 -0.1666666666666667 0.0
-0.2142857142857143 -0.1190476190476191 0.0
-0.2142857142857143 -0.0714285714285714 0.0
-0.2142857142857143 -0.02380952380952384 0.0
-0.2142857142857143 0.02380952380952384 0.0
-0.2142857142857143 0.07142857142857145 0.0
-0.2142857142857143 0.1190476190476191 0.0
-0.2142857142857143 0.1666666666666667 0.0
-0.2142857142857143 0.2142857142857143 0.0
-0.2142857142857143 0.2619047619047619 0.0
-0.2142857142857143 0.3095238095238095 0.0
-0.2142857142857143 0.3571428571428571 0.0
-0.2142857142857143 0.4047619047619048 0.0
-0.2142857142857143 0.4523809523809523 0.0
-0.1666666666666667 -0.4523809523809523 0.0
-0.1666666666666667 -0.4047619047619047 0.0
-0.1666666666666667 -0.3571428571428572 0.0
-0.1666666666666666 -0.3095238095238095 0.0
-0.1666666666666666 -0.2619047619047618 0.0
-0.1666666666666667 -0.2142857142857142 0.0
-0.1666666666666667 -0.1666666666666667 0.0
-0.1666666666666667 -0.1190476190476191 0.0
-0.1666666666666667 -0.07142857142857142 0.0
-0.1666666666666667 -0.02380952380952386 0.0
-0.1666666666666667 0.02380952380952386 0.0
-0.1666666666666667 0.07142857142857142 0.0
-0.1666666666666667 0.1190476190476191 0.0
-0.1666666666666667 0.1666666666666667 0.0
-0.1666666666666666 0.2142857142857143 0.0
-0.1666666666666666 0.2619047619047618 0.0
-0.1666666666666666 0.3095238095238095 0.0
-0.1666666666666666 0.357142857142857 0.0
-0.1666666666666667 0.4047619047619048 0.0
-0.1666666666666667 0.4523809523809523 0.0
-0.1190476190476191 -0.4523809523809523 0.0
-0.1190476190476191 -0.4047619047619048 0.0
-0.1190476190476191 -0.3571428571428571 0.0
-0.119047619047619 -0.3095238095238095 0.0
-0.1190476190476191 -0.2619047619047619 0.0
-0.119047619047619 -0.2142857142857142 0.0
-0.1190476190476191 -0.1666666666666667 0.0
-0.1190476190476191 -0.1190476190476191 0.0
-0.1190476190476191 -0.0714285714285714 0.0
-0.1190476190476191 -0.02380952380952381 0.0
-0.1190476190476191 0.02380952380952381 0.0
-0.1190476190476191 0.07142857142857142 0.0
-0.1190476190476191 0.1190476190476191 0.0
-0.1190476190476191 0.1666666666666666 0.0
-0.119047619047619 0.2142857142857143 0.0
-0.119047619047619 0.2619047619047619 0.0
-0.119047619047619 0.3095238095238095 0.0
-0.119047619047619 0.3571428571428571 0.0
-0.1190476190476191 0.4047619047619048 0.0
-0.1190476190476191 0.4523809523809523 0.0
-0.07142857142857145 -0.4523809523809523 0.0
-0.07142857142857142 -0.4047619047619048 0.0
-0.07142857142857147 -0.3571428571428571 0.0
-0.07142857142857148 -0.3095238095238095 0.0
-0.07142857142857145 -0.2619047619047619 0.0
-0.07142857142857142 -0.2142857142857142 0.0
-0.07142857142857145 -0.1666666666666666 0.0
-0.07142857142857144 -0.119047619047619 0.0
-0.07142857142857142 -0.07142857142857138 0.0
-0.07142857142857142 -0.02380952380952384 0.0
-0.07142857142857142 0.02380952380952384 0.0
-0.07142857142857142 0.07142857142857144 0.0
-0.07142857142857144 0.1190476190476191 0.0
-0.07142857142857142 0.1666666666666666 0.0
-0.07142857142857142 0.2142857142857143 0.0
-0.07142857142857142 0.2619047619047619 0.0
-0.07142857142857142 0.3095238095238095 0.0
-0.07142857142857142 0.3571428571428571 0.0
-0.0714285714285714 0.4047619047619048 0.0
-0.0714285714285714 0.4523809523809523 0.0
-0.02380952380952385 -0.4523809523809523 0.0
-0.02380952380952382 -0.4047619047619048 0.0
-0.02380952380952384 -0.3571428571428571 0.0
-0.02380952380952384 -0.3095238095238095 0.0
-0.02380952380952382 -0.2619047619047618 0.0
-0.02380952380952384 -0.2142857142857143 0.0
-0.02380952380952386 -0.1666666666666667 0.0
-0.02380952380952381 -0.1190476190476191 0.0
-0.02380952380952384 -0.07142857142857141 0.0
-0.02380952380952385 -0.02380952380952382 0.0
-0.02380952380952385 0.02380952380952385 0.0
-0.02380952380952384 0.07142857142857142 0.0
-0.02380952380952381 0.1190476190476191 0.0
-0.02380952380952386 0.1666666666666666 0.0
-0.02380952380952384 0.2142857142857143 0.0
-0.02380952380952381 0.2619047619047619 0.0
-0.02380952380952386 0.3095238095238095 0.0
-0.02380952380952384 0.3571428571428571 0.0
-0.02380952380952381 0.4047619047619048 0.0
-0.02380952380952386 0.4523809523809523 0.0
0.02380952380952384 -0.4523809523809523 0.0
0.02380952380952382 -0.4047619047619048 0.0
0.02380952380952384 -0.3571428571428571 0.0
0.02380952380952384 -0.3095238095238095 0.0
0.02380952380952382 -0.2619047619047618 0.0
0.02380952380952384 -0.2142857142857143 0.0
0.02380952380952386 -0.1666666666666667 0.0
0.02380952380952381 -0.1190476190476191 0.0
0.02380952380952382 -0.07142857142857141 0.0
0.02380952380952385 -0.02380952380952385 0.0
0.02380952380952385 0.02380952380952385 0.0
0.02380952380952384 0.07142857142857142 0.0
0.02380952380952381 0.1190476190476191 0.0
0.02380952380952386 0.1666666666666666 0.0
0.02380952380952384 0.2142857142857143 0.0
0.02380952380952381 0.2619047619047619 0.0
0.02380952380952386 0.3095238095238095 0.0
0.02380952380952384 0.3571428571428571 0.0
0.02380952380952381 0.4047619047619048 0.0
0.02380952380952386 0.4523809523809523 0.0
0.0714285714285714 -0.4523809523809524 0.0
0.07142857142857137 -0.4047619047619047 0.0
0.07142857142857145 -0.3571428571428572 0.0
0.07142857142857145 -0.3095238095238095 0.0
0.07142857142857142 -0.2619047619047618 0.0
0.07142857142857138 -0.2142857142857142 0.0
0.0714285714285714 -0.1666666666666667 0.0
0.07142857142857142 -0.1190476190476191 0.0
0.07142857142857144 -0.07142857142857138 0.0
0.07142857142857142 -0.02380952380952384 0.0
0.07142857142857142 0.02380952380952384 0.0
0.07142857142857142 0.07142857142857142 0.0
0.07142857142857142 0.1190476190476191 0.0
0.07142857142857142 0.1666666666666666 0.0
0.07142857142857142 0.2142857142857143 0.0
0.07142857142857145 0.2619047619047619 0.0
0.07142857142857148 0.3095238095238095 0.0
0.07142857142857148 0.3571428571428571 0.0
0.07142857142857142 0.4047619047619048 0.0
0.07142857142857145 0.4523809523809523 0.0
0.1190476190476191 -0.4523809523809523 0.0
0.1190476190476191 -0.4047619047619048 0.0
0.1190476190476191 -0.3571428571428572 0.0
0.119047619047619 -0.3095238095238095 0.0
0.119047619047619 -0.2619047619047619 0.0
0.1190476190476191 -0.2142857142857142 0.0
0.1190476190476191 -0.1666666666666667 0.0
0.1190476190476191 -0.1190476190476191 0.0
0.1190476190476191 -0.07142857142857141 0.0
0.1190476190476191 -0.02380952380952382 0.0
0.1190476190476191 0.02380952380952382 0.0
0.1190476190476191 0.0714285714285714 0.0
0.1190476190476191 0.1190476190476191 0.0
0.1190476190476191 0.1666666666666666 0.0
0.119047619047619 0.2142857142857143 0.0
0.1190476190476191 0.2619047619047619 0.0
0.119047619047619 0.3095238095238095 0.0
0.119047619047619 0.3571428571428571 0.0
0.119047619047619 0.4047619047619048 0.0
0.1190476190476191 0.4523809523809523 0.0
0.1666666666666667 -0.4523809523809523 0.0
0.1666666666666666 -0.4047619047619048 0.0
0.1666666666666667 -0.3571428571428572 0.0
0.1666666666666666 -0.3095238095238095 0.0
0.1666666666666667 -0.2619047619047619 0.0
0.1666666666666666 -0.2142857142857142 0.0
0.1666666666666667 -0.1666666666666667 0.0
0.1666666666666666 -0.1190476190476191 0.0
0.1666666666666667 -0.07142857142857141 0.0
0.1666666666666666 -0.02380952380952385 0.0
0.1666666666666667 0.02380952380952385 0.0
0.1666666666666667 0.07142857142857138 0.0
0.1666666666666667 0.1190476190476191 0.0
0.1666666666666666 0.1666666666666666 0.0
0.1666666666666667 0.2142857142857143 0.0
0.1666666666666667 0.2619047619047619 0.0
0.1666666666666667 0.3095238095238095 0.0
0.1666666666666667 0.3571428571428571 0.0
0.1666666666666667 0.4047619047619048 0.0
0.1666666666666667 0.4523809523809523 0.0
0.2142857142857143 -0.4523809523809524 0.0
0.2142857142857143 -0.4047619047619047 0.0
0.2142857142857143 -0.3571428571428572 0.0
0.2142857142857143 -0.3095238095238095 0.0
0.2142857142857143 -0.2619047619047618 0.0
0.2142857142857143 -0.2142857142857142 0.0
0.2142857142857142 -0.1666666666666667 0.0
0.2142857142857143 -0.1190476190476191 0.0
0.2142857142857143 -0.07142857142857145 0.0
0.2142857142857143 -0.02380952380952384 0.0
0.2142857142857143 0.02380952380952384 0.0
0.2142857142857143 0.07142857142857138 0.0
0.2142857142857143 0.1190476190476191 0.0
0.2142857142857143 0.1666666666666666 0.0
0.2142857142857143 0.2142857142857143 0.0
0.2142857142857143 0.2619047619047619 0.0
0.2142857142857143 0.3095238095238095 0.0
0.2142857142857142 0.3571428571428571 0.0
0.2142857142857143 0.4047619047619048 0.0
0.2142857142857143 0.4523809523809523 0.0
0.2619047619047619 -0.4523809523809523 0.0
0.2619047619047619 -0.4047619047619048 0.0
0.2619047619047619 -0.3571428571428572 0.0
0.2619047619047619 -0.3095238095238095 0.0
0.2619047619047619 -0.2619047619047618 0.0
0.2619047619047619 -0.2142857142857143 0.0
0.2619047619047618 -0.1666666666666667 0.0
0.2619047619047619 -0.1190476190476191 0.0
0.2619047619047619 -0.07142857142857145 0.0
0.2619047619047619 -0.02380952380952383 0.0
0.2619047619047619 0.02380952380952383 0.0
0.2619047619047619 0.07142857142857141 0.0
0.2619047619047619 0.1190476190476191 0.0
0.2619047619047618 0.1666666666666666 0.0
0.2619047619047619 0.2142857142857143 0.0
0.261904761904762 0.2619047619047619 0.0
0.2619047619047619 0.3095238095238095 0.0
0.2619047619047619 0.3571428571428571 0.0
0.2619047619047619 0.4047619047619048 0.0
0.2619047619047619 0.4523809523809523 0.0
0.3095238095238095 -0.4523809523809524 0.0
0.3095238095238095 -0.4047619047619048 0.0
0.3095238095238096 -0.3571428571428572 0.0
0.3095238095238096 -0.3095238095238095 0.0
0.3095238095238095 -0.2619047619047619 0.0
0.3095238095238095 -0.2142857142857143 0.0
0.3095238095238095 -0.1666666666666667 0.0
0.3095238095238095 -0.1190476190476191 0.0
0.3095238095238096 -0.07142857142857145 0.0
0.3095238095238095 -0.02380952380952384 0.0
0.3095238095238095 0.02380952380952384 0.0
0.3095238095238095 0.07142857142857141 0.0
0.3095238095238095 0.119047619047619 0.0
0.3095238095238095 0.1666666666666666 0.0
0.3095238095238095 0.2142857142857143 0.0
0.3095238095238095 0.2619047619047619 0.0
0.3095238095238095 0.3095238095238095 0.0
0.3095238095238095 0.3571428571428571 0.0
0.3095238095238095 0.4047619047619048 0.0
0.3095238095238095 0.4523809523809523 0.0
0.3571428571428571 -0.4523809523809524 0.0
0.3571428571428571 -0.4047619047619048 0.0
0.357142857142857 -0.3571428571428573 0.0
0.3571428571428571 -0.3095238095238095 0.0
0.3571428571428571 -0.2619047619047619 0.0
0.3571428571428571 -0.2142857142857142 0.0
0.3571428571428571 -0.1666666666666667 0.0
0.3571428571428571 -0.1190476190476191 0.0
0.3571428571428572 -0.07142857142857145 0.0
0.3571428571428571 -0.02380952380952384 0.0
0.3571428571428571 0.02380952380952384 0.0
0.357142857142857 0.0714285714285714 0.0
0.357142857142857 0.119047619047619 0.0
0.357142857142857 0.1666666666666666 0.0
0.357142857142857 0.2142857142857143 0.0
0.357142857142857 0.2619047619047619 0.0
0.357142857142857 0.3095238095238095 0.0
0.3571428571428571 0.3571428571428571 0.0
0.3571428571428571 0.4047619047619048 0.0
0.3571428571428571 0.4523809523809523 0.0
0.4047619047619047 -0.4523809523809524 0.0
0.4047619047619048 -0.4047619047619048 0.0
0.4047619047619047 -0.3571428571428573 0.0
0.4047619047619048 -0.3095238095238095 0.0
0.4047619047619047 -0.2619047619047618 0.0
0.4047619047619048 -0.2142857142857142 0.0
0.4047619047619047 -0.1666666666666667 0.0
0.4047619047619048 -0.1190476190476191 0.0
0.4047619047619047 -0.07142857142857145 0.0
0.4047619047619048 -0.02380952380952383 0.0
0.4047619047619048 0.02380952380952383 0.0
0.4047619047619047 0.07142857142857137 0.0
0.4047619047619048 0.1190476190476191 0.0
0.4047619047619048 0.1666666666666666 0.0
0.4047619047619047 0.2142857142857143 0.0
0.4047619047619048 0.2619047619047619 0.0
0.4047619047619048 0.3095238095238095 0.0
0.4047619047619048 0.3571428571428571 0.0
0.4047619047619047 0.4047619047619048 0.0
0.4047619047619048 0.4523809523809523 0.0
0.4523809523809523 -0.4523809523809524 0.0
0.4523809523809523 -0.4047619047619048 0.0
0.4523809523809523 -0.3571428571428572 0.0
0.4523809523809523 -0.3095238095238095 0.0
0.4523809523809524 -0.2619047619047618 0.0
0.4523809523809524 -0.2142857142857142 0.0
0.4523809523809524 -0.1666666666666667 0.0
0.4523809523809525 -0.1190476190476191 0.0
0.4523809523809523 -0.07142857142857145 0.0
0.4523809523809524 -0.02380952380952384 0.0
0.4523809523809523 0.02380952380952384 0.0
0.4523809523809523 0.0714285714285714 0.0
0.4523809523809524 0.1190476190476191 0.0
0.4523809523809523 0.1666666666666666 0.0
0.4523809523809523 0.2142857142857143 0.0
0.4523809523809524 0.2619047619047619 0.0
0.4523809523809523 0.3095238095238095 0.0
0.4523809523809523 0.3571428571428571 0.0
0.4523809523809524 0.4047619047619048 0.0
0.4523809523809523 0.4523809523809523 0.0
0.0 -0.5 0.0
-3.469446951953614e-18 -0.47619047619047616 0.0
-3.469446951953614e-18 -0.4523809523809523 0.0
1.0408340855860843e-17 -0.42857142857142855 0.0
0.0 -0.4047619047619048 0.0
-1.0408340855860843e-17 -0.38095238095238093 0.0
0.0 -0.3571428571428571 0.0
0.0 -0.33333333333333326 0.0
0.0 -0.3095238095238095 0.0
1.0408340855860843e-17 -0.28571428571428564 0.0
0.0 -0.2619047619047618 0.0
-1.0408340855860843e-17 -0.23809523809523805 0.0
0.0 -0.2142857142857143 0.0
-1.0408340855860843e-17 -0.19047619047619052 0.0
0.0 -0.1666666666666667 0.0
2.42861286636753e-17 -0.1428571428571429 0.0
0.0 -0.1190476190476191 0.0
-1.3877787807814457e-17 -0.09523809523809526 0.0
-1.0408340855860843e-17 -0.07142857142857141 0.0
-1.734723475976807e-17 -0.047619047619047616 0.0
0.0 -0.023809523809523836 0.0
0.0 0.0 0.0
0.0 0.02380952380952385 0.0
6.938893903907228e-18 0.04761904761904764 0.0
0.0 0.07142857142857142 0.0
1.3877787807814457e-17 0.09523809523809526 0.0
0.0 0.1190476190476191 0.0
-2.42861286636753e-17 0.14285714285714285 0.0
0.0 0.1666666666666666 0.0
1.0408340855860843e-17 0.19047619047619047 0.0
0.0 0.2142857142857143 0.0
1.3877787807814457e-17 0.2380952380952381 0.0
0.0 0.2619047619047619 0.0
-2.42861286636753e-17 0.2857142857142857 0.0
0.0 0.3095238095238095 0.0
1.0408340855860843e-17 0.33333333333333326 0.0
0.0 0.3571428571428571 0.0
1.3877787807814457e-17 0.38095238095238093 0.0
0.0 0.4047619047619048 0.0
-2.42861286636753e-17 0.42857142857142855 0.0
0.0 0.4523809523809523 0.0
1.0408340855860843e-17 0.47619047619047616 0.0
0.0 0.5 0.0
0.0 -0.5 0.0
-3.469446951953614e-18 -0.47619047619047616 0.0
-3.469446951953614e-18 -0.4523809523809523 0.0
1.0408340855860843e-17 -0.42857142857142855 0.0
0.0 -0.4047619047619048 0.0
-1.0408340855860843e-17 -0.38095238095238093 0.0
0.0 -0.3571428571428571 0.0
0.0 -0.33333333333333326 0.0
0.0 -0.3095238095238095 0.0
1.0408340855860843e-17 -0.28571428571428564 0.0
0.0 -0.2619047619047618 0.0
-1.0408340855860843e-17 -0.23809523809523805 0.0
0.0 -0.2142857142857143 0.0
-1.0408340855860843e-17 -0.19047619047619052 0.0
0.0 -0.1666666666666667 0.0
2.42861286636753e-17 -0.1428571428571429 0.0
0.0 -0.1190476190476191 0.0
-1.3877787807814457e-17 -0.09523809523809526 0.0
-1.0408340855860843e-17 -0.07142857142857141 0.0
-1.734723475976807e-17 -0.047619047619047616 0.0
0.0 -0.023809523809523836 0.0
0.0 0.0 0.0
0.0 0.02380952380952385 0.0
6.938893903907228e-18 0.04761904761904764 0.0
0.0 0.07142857142857142 0.0
1.3877787807814457e-17 0.09523809523809526 0.0
0.0 0.1190476190476191 0.0
-2.42861286636753e-17 0.14285714285714285 0.0
0.0 0.1666666666666666 0.0
1.0408340855860843e-17 0.19047619047619047 0.0
0.0 0.2142857142857143 0.0
1.3877787807814457e-17 0.2380952380952381 0.0
0.0 0.2619047619047619 0.0
-2.42861286636753e-17 0.2857142857142857 0.0
0.0 0.3095238095238095 0.0
1.0408340855860843e-17 0.33333333333333326 0.0
0.0 0.3571428571428571 0.0
1.3877787807814457e-17 0.38095238095238093 0.0
0.0 0.4047619047619048 0.0
-2.42861286636753e-17 0.42857142857142855 0.0
0.0 0.4523809523809523 0.0
1.0408340855860843e-17 0.47619047619047616 0.0
0.0 0.5 0.0

CELLS 924 3738
3 0 4 83
3 83 4 84
3 83 84 82
3 82 84 85
3 82 85 81
3 81 85 86
3 81 86 80
3 80 86 87
3 80 87 79
3 79 87 88
3 79 88 78
3 78 88 89
3 78 89 77
3 77 89 90
3 77 90 76
3 76 90 91
3 76 91 75
3 75 91 92
3 75 92 74
3 74 92 93
3 74 93 73
3 73 93 94
3 73 94 72
3 72 94 95
3 72 95 71
3 71 95 96
3 71 96 70
3 70 96 97
3 70 97 69
3 69 97 98
3 69 98 68
3 68 98 99
3 68 99 67
3 67 99 100
3 67 100 66
3 66 100 101
3 66 101 65
3 65 101 102
3 65 102 64
3 64 102 103
3 64 103 3
3 3 103 63
3 4 5 84
3 84 5 104
3 84 104 85
3 85 104 105
3 85 105 86
3 86 105 106
3 86 106 87
3 87 106 107
3 87 107 88
3 88 107 108
3 88 108 89
3 89 108 109
3 89 109 90
3 90 109 110
3 90 110 91
3 91 110 111
3 91 111 92
3 92 111 112
3 92 112 93
3 93 112 113
3 93 113 94
3 94 113 114
3 94 114 95
3 95 114 115
3 95 115 96
3 96 115 116
3 96 116 97
3 97 116 117
3 97 117 98
3 98 117 118
3 98 118 99
3 99 118 119
3 99 119 100
3 100 119 120
3 100 120 101
3 101 120 121
3 101 121 102
3 102 121 122
3 102 122 103
3 103 122 123
3 103 123 63
3 63 123 62
3 5 6 104
3 104 6 124
3 104 124 105
3 105 124 125
3 105 125 106
3 106 125 126
3 106 126 107
3 107 126 127
3 107 127 108
3 108 127 128
3 108 128 109
3 109 128 129
3 109 129 110
3 110 129 130
3 110 130 111
3 111 130 131
3 111 131 112
3 112 131 132
3 112 132 113
3 113 132 133
3 113 133 114
3 114 133 134
3 114 134 115
3 115 134 135
3 115 135 116
3 116 135 136
3 116 136 117
3 117 136 137
3 117 137 118
3 118 137 138
3 118 138 119
3 119 138 139
3 119 139 120
3 120 139 140
3 120 140 121
3 121 140 141
3 121 141 122
3 122 141 142
3 122 142 123
3 123 142 143
3 123 143 62
3 62 143 61
3 6 7 124
3 124 7 144
3 124 144 125
3 125 144 145
3 125 145 126
3 126 145 146
3 126 146 127
3 127 146 147
3 127 147 128
3 128 147 148
3 128 148 129
3 129 148 149
3 129 149 130
3 130 149 150
3 130 150 131
3 131 150 151
3 131 151 132
3 132 151 152
3 132 152 133
3 133 152 153
3 133 153 134
3 134 153 154
3 134 154 135
3 135 154 155
3 135 155 136
3 136 155 156
3 136 156 137
3 137 156 157
3 137 157 138
3 138 157 158
3 138 158 139
3 139 158 159
3 139 159 140
3 140 159 160
3 140 160 141
3 141 160 161
3 141 161 142
3 142 161 162
3 142 162 143
3 143 162 163
3 143 163 61
3 61 163 60
3 7 8 144
3 144 8 164
3 144 164 145
3 145 164 165
3 145 165 146
3 146 165 166
3 146 166 147
3 147 166 167
3 147 167 148
3 148 167 168
3 148 168 149
3 149 168 169
3 149 169 150
3 150 169 170
3 150 170 151
3 151 170 171
3 151 171 152
3 152 171 172
3 152 172 153
3 153 172 173
3 153 173 154
3 154 173 174
3 154 174 155
3 155 174 175
3 155 175 156
3 156 175 176
3 156 176 157
3 157 176 177
3 157 177 158
3 158 177 178
3 158 178 159
3 159 178 179
3 159 179 160
3 160 179 180
3 160 180 161
3 161 180 181
3 161 181 162
3 162 181 182
3 162 182 163
3 163 182 183
3 163 183 60
3 60 183 59
3 8 9 164
3 164 9 184
3 164 184 165
3 165 184 185
3 165 185 166
3 166 185 186
3 166 186 167
3 167 186 187
3 167 187 168
3 168 187 188
3 168 188 169
3 169 188 189
3 169 189 170
3 170 189 190
3 170 190 171
3 171 190 191
3 171 191 172
3 172 191 192
3 172 192 173
3 173 192 193
3 173 193 174
3 174 193 194
3 174 194 175
3 175 194 195
3 175 195 176
3 176 195 196
3 176 196 177
3 177 196 197
3 177 197 178
3 178 197 198
3 178 198 179
3 179 198 199
3 179 199 180
3 180 199 200
3 180 200 181
3 181 200 201
3 181 201 182
3 182 201 202
3 182 202 183
3 183 202 203
3 183 203 59
3 59 203 58
3 9 10 184
3 184 10 204
3 184 204 185
3 185 204 205
3 185 205 186
3 186 205 206
3 186 206 187
3 187 206 207
3 187 207 188
3 188 207 208
3 188 208 189
3 189 208 209
3 189 209 190
3 190 209 210
3 190 210 191
3 191 210 211
3 191 211 192
3 192 211 212
3 192 212 193
3 193 212 213
3 193 213 194
3 194 213 214
3 194 214 195
3 195 214 215
3 195 215 196
3 196 215 216
3 196 216 197
3 197 216 217
3 197 217 198
3 198 217 218
3 198 218 199
3 199 218 219
3 199 219 200
3 200 219 220
3 200 220 201
3 201 220 221
3 201 221 202
3 202 221 222
3 202 222 203
3 203 222 223
3 203 223 58
3 58 223 57
3 10 11 204
3 204 11 224
3 204 224 205
3 205 224 225
3 205 225 206
3 206 225 226
3 206 226 207
3 207 226 227
3 207 227 208
3 208 227 228
3 208 228 209
3 209 228 229
3 209 229 210
3 210 229 230
3 210 230 211
3 211 230 231
3 211 231 212
3 212 231 232
3 212 232 213
3 213 232 233
3 213 233 214
3 214 233 234
3 214 234 215
3 215 234 235
3 215 235 216
3 216 235 236
3 216 236 217
3 217 236 237
3 217 237 218
3 218 237 238
3 218 238 219
3 219 238 239
3 219 239 220
3 220 239 240
3 220 240 221
3 221 240 241
3 221 241 222
3 222 241 242
3 222 242 223
3 223 242 243
3 223 243 57
3 57 243 56
3 11 12 224
3 224 12 244
3 224 244 225
3 225 244 245
3 225 245 226
3 226 245 246
3 226 246 227
3 227 246 247
3 227 247 228
3 228 247 248
3 228 248 229
3 229 248 249
3 229 249 230
3 230 249 250
3 230 250 231
3 231 250 251
3 231 251 232
3 232 251 252
3 232 252 233
3 233 252 253
3 233 253 234
3 234 253 254
3 234 254 235
3 235 254 255
3 235 255 236
3 236 255 256
3 236 256 237
3 237 256 257
3 237 257 238
3 238 257 258
3 238 258 239
3 239 258 259
3 239 259 240
3 240 259 260
3 240 260 241
3 241 260 261
3 241 261 242
3 242 261 262
3 242 262 243
3 243 262 263
3 243 263 56
3 56 263 55
3 12 13 244
3 244 13 264
3 244 264 245
3 245 264 265
3 245 265 246
3 246 265 266
3 246 266 247
3 247 266 267
3 247 267 248
3 248 267 268
3 248 268 249
3 249 268 269
3 249 269 250
3 250 269 270
3 250 270 251
3 251 270 271
3 251 271 252
3 252 271 272
3 252 272 253
3 253 272 273
3 253 273 254
3 254 273 274
3 254 274 255
3 255 274 275
3 255 275 256
3 256 275 276
3 256 276 257
3 257 276 277
3 257 277 258
3 258 277 278
3 258 278 259
3 259 278 279
3 259 279 260
3 260 279 280
3 260 280 261
3 261 280 281
3 261 281 262
3 262 281 282
3 262 282 263
3 263 282 283
3 263 283 55
3 55 283 54
3 14 15 284
3 284 15 304
3 284 304 285
3 285 304 305
3 285 305 286
3 286 305 306
3 286 306 287
3 287 306 307
3 287 307 288
3 288 307 308
3 288 308 289
3 289 308 309
3 289 309 290
3 290 309 310
3 290 310 291
3 291 310 311
3 291 311 292
3 292 311 312
3 292 312 293
3 293 312 313
3 293 313 294
3 294 313 314
3 294 314 295
3 295 314 315
3 295 315 296
3 296 315 316
3 296 316 297
3 297 316 317
3 297 317 298
3 298 317 318
3 298 318 299
3 299 318 319
3 299 319 300
3 300 319 320
3 300 320 301
3 301 320 321
3 301 321 302
3 302 321 322
3 302 322 303
3 303 322 323
3 303 323 53
3 53 323 52
3 15 16 304
3 304 16 324
3 304 324 305
3 305 324 325
3 305 325 306
3 306 325 326
3 306 326 307
3 307 326 327
3 307 327 308
3 308 327 328
3 308 328 309
3 309 328 329
3 309 329 310
3 310 329 330
3 310 330 311
3 311 330 331
3 311 331 312
3 312 331 332
3 312 332 313
3 313 332 333
3 313 333 314
3 314 333 334
3 314 334 315
3 315 334 335
3 315 335 316
3 316 335 336
3 316 336 317
3 317 336 337
3 317 337 318
3 318 337 338
3 318 338 319
3 319 338 339
3 319 339 320
3 320 339 340
3 320 340 321
3 321 340 341
3 321 341 322
3 322 341 342
3 322 342 323
3 323 342 343
3 323 343 52
3 52 343 51
3 16 17 324
3 324 17 344
3 324 344 325
3 325 344 345
3 325 345 326
3 326 345 346
3 326 346 327
3 327 346 347
3 327 347 328
3 328 347 348
3 328 348 329
3 329 348 349
3 329 349 330
3 330 349 350
3 330 350 331
3 331 350 351
3 331 351 332
3 332 351 352
3 332 352 333
3 333 352 353
3 333 353 334
3 334 353 354
3 334 354 335
3 335 354 355
3 335 355 336
3 336 355 356
3 336 356 337
3 337 356 357
3 337 357 338
3 338 357 358
3 338 358 339
3 339 358 359
3 339 359 340
3 340 359 360
3 340 360 341
3 341 360 361
3 341 361 342
3 342 361 362
3 342 362 343
3 343 362 363
3 343 363 51
3 51 363 50
3 17 18 344
3 344 18 364
3 344 364 345
3 345 364 365
3 345 365 346
3 346 365 366
3 346 366 347
3 347 366 367
3 347 367 348
3 348 367 368
3 348 368 349
3 349 368 369
3 349 369 350
3 350 369 370
3 350 370 351
3 351 370 371
3 351 371 352
3 352 371 372
3 352 372 353
3 353 372 373
3 353 373 354
3 354 373 374
3 354 374 355
3 355 374 375
3 355 375 356
3 356 375 376
3 356 376 357
3 357 376 377
3 357 377 358
3 358 377 378
3 358 378 359
3 359 378 379
3 359 379 360
3 360 379 380
3 360 380 361
3 361 380 381
3 361 381 362
3 362 381 382
3 362 382 363
3 363 382 383
3 363 383 50
3 50 383 49
3 18 19 364
3 364 19 384
3 364 384 365
3 365 384 385
3 365 385 366
3 366 385 386
3 366 386 367
3 367 386 387
3 367 387 368
3 368 387 388
3 368 388 369
3 369 388 389
3 369 389 370
3 370 389 390
3 370 390 371
3 371 390 391
3 371 391 372
3 372 391 392
3 372 392 373
3 373 392 393
3 373 393 374
3 374 393 394
3 374 394 375
3 375 394 395
3 375 395 376
3 376 395 396
3 376 396 377
3 377 396 397
3 377 397 378
3 378 397 398
3 378 398 379
3 379 398 399
3 379 399 380
3 380 399 400
3 380 400 381
3 381 400 401
3 381 401 382
3 382 401 402
3 382 402 383
3 383 402 403
3 383 403 49
3 49 403 48
3 19 20 384
3 384 20 404
3 384 404 385
3 385 404 405
3 385 405 386
3 386 405 406
3 386 406 387
3 387 406 407
3 387 407 388
3 388 407 408
3 388 408 389
3 389 408 409
3 389 409 390
3 390 409 410
3 390 410 391
3 391 410 411
3 391 411 392
3 392 411 412
3 392 412 393
3 393 412 413
3 393 413 394
3 394 413 414
3 394 414 395
3 395 414 415
3 395 415 396
3 396 415 416
3 396 416 397
3 397 416 417
3 397 417 398
3 398 417 418
3 398 418 399
3 399 418 419
3 399 419 400
3 400 419 420
3 400 420 401
3 401 420 421
3 401 421 402
3 402 421 422
3 402 422 403
3 403 422 423
3 403 423 48
3 48 423 47
3 20 21 404
3 404 21 424
3 404 424 405
3 405 424 425
3 405 425 406
3 406 425 426
3 406 426 407
3 407 426 427
3 407 427 408
3 408 427 428
3 408 428 409
3 409 428 429
3 409 429 410
3 410 429 430
3 410 430 411
3 411 430 431
3 411 431 412
3 412 431 432
3 412 432 413
3 413 432 433
3 413 433 414
3 414 433 434
3 414 434 415
3 415 434 435
3 415 435 416
3 416 435 436
3 416 436 417
3 417 436 437
3 417 437 418
3 418 437 438
3 418 438 419
3 419 438 439
3 419 439 420
3 420 439 440
3 420 440 421
3 421 440 441
3 421 441 422
3 422 441 442
3 422 442 423
3 423 442 443
3 423 443 47
3 47 443 46
3 21 22 424
3 424 22 444
3 424 444 425
3 425 444 445
3 425 445 426
3 426 445 446
3 426 446 427
3 427 446 447
3 427 447 428
3 428 447 448
3 428 448 429
3 429 448 449
3 429 449 430
3 430 449 450
3 430 450 431
3 431 450 451
3 431 451 432
3 432 451 452
3 432 452 433
3 433 452 453
3 433 453 434
3 434 453 454
3 434 454 435
3 435 454 455
3 435 455 436
3 436 455 456
3 436 456 437
3 437 456 457
3 437 457 438
3 438 457 458
3 438 458 439
3 439 458 459
3 439 459 440
3 440 459 460
3 440 460 441
3 441 460 461
3 441 461 442
3 442 461 462
3 442 462 443
3 443 462 463
3 443 463 46
3 46 463 45
3 22 23 444
3 444 23 464
3 444 464 445
3 445 464 465
3 445 465 446
3 446 465 466
3 446 466 447
3 447 466 467
3 447 467 448
3 448 467 468
3 448 468 449
3 449 468 469
3 449 469 450
3 450 469 470
3 450 470 451
3 451 470 471
3 451 471 452
3 452 471 472
3 452 472 453
3 453 472 473
3 453 473 454
3 454 473 474
3 454 474 455
3 455 474 475
3 455 475 456
3 456 475 476
3 456 476 457
3 457 476 477
3 457 477 458
3 458 477 478
3 458 478 459
3 459 478 479
3 459 479 460
3 460 479 480
3 460 480 461
3 461 480 481
3 461 481 462
3 462 481 482
3 462 482 463
3 463 482 483
3 463 483 45
3 45 483 44
3 23 1 464
3 464 1 24
3 464 24 465
3 465 24 25
3 465 25 466
3 466 25 26
3 466 26 467
3 467 26 27
3 467 27 468
3 468 27 28
3 468 28 469
3 469 28 29
3 469 29 470
3 470 29 30
3 470 30 471
3 471 30 31
3 471 31 472
3 472 31 32
3 472 32 473
3 473 32 33
3 473 33 474
3 474 33 34
3 474 34 475
3 475 34 35
3 475 35 476
3 476 35 36
3 476 36 477
3 477 36 37
3 477 37 478
3 478 37 38
3 478 38 479
3 479 38 39
3 479 39 480
3 480 39 40
3 480 40 481
3 481 40 41
3 481 41 482
3 482 41 42
3 482 42 483
3 483 42 43
3 483 43 44
3 44 43 2
3 528 527 14
4 484 485 264 13
3 485 486 264
4 529 528 14 284
3 530 529 284
4 486 487 265 264
3 487 488 265
4 531 530 284 285
3 532 531 285
4 488 489 266 265
3 489 490 266
4 533 532 285 286
3 534 533 286
4 490 491 267 266
3 491 492 267
4 535 534 286 287
3 536 535 287
4 492 493 268 267
3 493 494 268
4 537 536 287 288
3 538 537 288
4 494 495 269 268
3 495 496 269
4 539 538 288 289
3 540 539 289
4 496 497 270 269
3 497 498 270
4 541 540 289 290
3 542 541 290
4 498 499 271 270
3 499 500 271
4 543 542 290 291
3 544 543 291
4 500 501 272 271
3 501 502 272
4 545 544 291 292
3 546 545 292
4 502 503 273 272
3 503 504 273
4 547 546 292 293
3 548 547 293
4 504 505 274 273
3 505 506 274
4 549 548 293 294
3 550 549 294
4 506 507 275 274
3 507 508 275
4 551 550 294 295
3 552 551 295
4 508 509 276 275
3 509 510 276
4 553 552 295 296
3 554 553 296
4 510 511 277 276
3 511 512 277
4 555 554 296 297
3 556 555 297
4 512 513 278 277
3 513 514 278
4 557 556 297 298
3 558 557 298
4 514 515 279 278
3 515 516 279
4 559 558 298 299
3 560 559 299
4 516 517 280 279
3 517 518 280
4 561 560 299 300
3 562 561 300
4 518 519 281 280
3 519 520 281
4 563 562 300 301
3 564 563 301
4 520 521 282 281
3 521 522 282
4 565 564 301 302
3 566 565 302
4 522 523 283 282
3 523 524 283
4 567 566 302 303
3 568 567 303
4 524 525 54 283
3 525 526 54
4 569 568 303 53

CELL_TYPES 924
5
5
5
5
5
5
5
5
5
5
5
5
5
5
5
5
5
5
5
5
5
5
5
5
5
5
5
5
5
5
5
5
5
5
5
5
5
5
5
5
5
5
5
5
5
5
5
5
5
5
5
5
5
5
5
5
5
5
5
5
5
5
5
5
5
5
5
5
5
5
5
5
5
5
5
5
5
5
5
5
5
5
5
5
5
5
5
5
5
5
5
5
5
5
5
5
5
5
5
5
5
5
5
5
5
5
5
5
5
5
5
5
5
5
5
5
5
5
5
5
5
5
5
5
5
5
5
5
5
5
5
5
5
5
5
5
5
5
5
5
5
5
5
5
5
5
5
5
5
5
5
5
5
5
5
5
5
5
5
5
5
5
5
5
5
5
5
5
5
5
5
5
5
5
5
5
5
5
5
5
5
5
5
5
5
5
5
5
5
5
5
5
5
5
5
5
5
5
5
5
5
5
5
5
5
5
5
5
5
5
5
5
5
5
5
5
5
5
5
5
5
5
5
5
5
5
5
5
5
5
5
5
5
5
5
5
5
5
5
5
5
5
5
5
5
5
5
5
5
5
5
5
5
5
5
5
5
5
5
5
5
5
5
5
5
5
5
5
5
5
5
5
5
5
5
5
5
5
5
5
5
5
5
5
5
5
5
5
5
5
5
5
5
5
5
5
5
5
5
5
5
5
5
5
5
5
5
5
5
5
5
5
5
5
5
5
5
5
5
5
5
5
5
5
5
5
5
5
5
5
5
5
5
5
5
5
5
5
5
5
5
5
5
5
5
5
5
5
5
5
5
5
5
5
5
5
5
5
5
5
5
5
5
5
5
5
5
5
5
5
5
5
5
5
5
5
5
5
5
5
5
5
5
5
5
5
5
5
5
5
5
5
5
5
5
5
5
5
5
5
5
5
5
5
5
5
5
5
5
5
5
5
5
5
5
5
5
5
5
5
5
5
5
5
5
5
5
5
5
5
5
5
5
5
5
5
5
5
5
5
5
5
5
5
5
5
5
5
5
5
5
5
5
5
5
5
5
5
5
5
5
5
5
5
5
5
5
5
5
5
5
5
5
5
5
5
5
5
5
5
5
5
5
5
5
5
5
5
5
5
5
5
5
5
5
5
5
5
5
5
5
5
5
5
5
5
5
5
5
5
5
5
5
5
5
5
5
5
5
5
5
5
5
5
5
5
5
5
5
5
5
5
5
5
5
5
5
5
5
5
5
5
5
5
5
5
5
5
5
5
5
5
5
5
5
5
5
5
5
5
5
5
5
5
5
5
5
5
5
5
5
5
5
5
5
5
5
5
5
5
5
5
5
5
5
5
5
5
5
5
5
5
5
5
5
5
5
5
5
5
5
5
5
5
5
5
5
5
5
5
5
5
5
5
5
5
5
5
5
5
5
5
5
5
5
5
5
5
5
5
5
5
5
5
5
5
5
5
5
5
5
5
5
5
5
5
5
5
5
5
5
5
5
5
5
5
5
5
5
5
5
5
5
5
5
5
5
5
5
5
5
5
5
5
5
5
5
5
5
5
5
5
5
5
5
5
5
5
5
5
5
5
5
5
5
5
5
5
5
5
5
5
5
5
5
5
5
5
5
5
5
5
5
5
5
5
5
5
5
5
5
5
5
5
5
5
5
5
5
5
5
5
5
5
5
5
5
5
5
5
5
5
5
5
5
5
5
5
5
5
5
5
5
5
5
5
5
5
5
5
5
5
5
5
5
5
5
5
5
5
5
5
5
5
5
5
5
5
5
5
5
5
5
5
5
5
5
5
5
5
5
5
5
5
5
5
5
5
5
5
5
5
5
5
5
5
5
5
5
5
5
5
5
5
5
5
5
5
5
5
5
5
5
5
5
5
5
5
5
5
5
5
5
5
5
5
5
5
5
5
5
9
5
9
5
9
5
9
5
9
5
9
5
9
5
9
5
9
5
9
5
9
5
9
5
9
5
9
5
9
5
9
5
9
5
9
5
9
5
9
5
9
5
9
5
9
5
9
5
9
5
9
5
9
5
9
5
9
5
9
5
9
5
9
5
9
5
9
5
9
5
9
5
9
5
9
5
9
5
9
5
9
5
9

POINT_DATA 570
SCALARS U float
LOOKUP_TABLE default
-1.0
1.0
1.0
-1.0
-0.8701298701298701
-0.7402597402597404
-0.6103896103896106
-0.48051948051948046
-0.35064935064935077
-0.22077922077922085
-0.09090909090909116
0.03896103896103886
0.16883116883116878
0.29870129870129847
0.8701298701298701
0.8831168831168831
0.8961038961038961
0.9090909090909091
0.922077922077922
0.935064935064935
0.948051948051948
0.961038961038961
0.974025974025974
0.987012987012987
1.0
1.0
1.0
1.0
1.0
1.0
1.0
1.0
1.0
1.0
1.0
1.0
1.0
1.0
1.0
1.0
1.0
1.0
1.0
1.0
0.987012987012987
0.974025974025974
0.961038961038961
0.948051948051948
0.935064935064935
0.922077922077922
0.9090909090909092
0.8961038961038961
0.8831168831168832
0.8701298701298701
0.29870129870129847
0.16883116883116878
0.03896103896103886
-0.09090909090909083
-0.22077922077922085
-0.35064935064935077
-0.48051948051948046
-0.6103896103896103
-0.7402597402597404
-0.8701298701298699
-1.0
-1.0
-1.0
-1.0
-1.0
-1.0
-1.0
-1.0
-1.0
-1.0
-1.0
-1.0
-1.0
-1.0
-1.0
-1.0
-1.0
-1.0
-1.0
-1.0
-0.8701298701298699
-0.87012987012987
-0.8701298701298698
-0.8701298701298699
-0.8701298701298702
-0.8701298701298703
-0.8701298701298703
-0.8701298701298704
-0.8701298701298703
-0.8701298701298702
-0.87012987012987
-0.8701298701298699
-0.8701298701298698
-0.8701298701298696
-0.8701298701298694
-0.8701298701298696
-0.8701298701298695
-0.8701298701298695
-0.8701298701298695
-0.87012987012987
-0.7402597402597403
-0.7402597402597407
-0.7402597402597404
-0.7402597402597407
-0.7402597402597404
-0.740259740259741
-0.740259740259741
-0.7402597402597407
-0.7402597402597404
-0.7402597402597405
-0.7402597402597407
-0.7402597402597405
-0.7402597402597402
-0.7402597402597402
-0.7402597402597402
-0.7402597402597403
-0.7402597402597402
-0.7402597402597405
-0.7402597402597396
-0.7402597402597402
-0.6103896103896103
-0.610389610389611
-0.61038961038961
-0.61038961038961
-0.6103896103896106
-0.6103896103896109
-0.6103896103896106
-0.6103896103896107
-0.6103896103896107
-0.6103896103896106
-0.6103896103896105
-0.6103896103896108
-0.6103896103896104
-0.6103896103896105
-0.6103896103896104
-0.6103896103896099
-0.6103896103896101
-0.61038961038961
-0.6103896103896101
-0.6103896103896099
-0.4805194805194805
-0.4805194805194806
-0.480519480519481
-0.48051948051948085
-0.48051948051948057
-0.4805194805194808
-0.4805194805194805
-0.4805194805194805
-0.4805194805194807
-0.4805194805194806
-0.4805194805194808
-0.4805194805194807
-0.48051948051948057
-0.48051948051948057
-0.4805194805194805
-0.48051948051948035
-0.4805194805194802
-0.4805194805194802
-0.48051948051948035
-0.4805194805194804
-0.3506493506493509
-0.3506493506493511
-0.3506493506493507
-0.3506493506493509
-0.3506493506493509
-0.3506493506493507
-0.3506493506493507
-0.3506493506493508
-0.3506493506493509
-0.3506493506493508
-0.3506493506493506
-0.3506493506493511
-0.3506493506493507
-0.35064935064935054
-0.35064935064935054
-0.35064935064935066
-0.3506493506493507
-0.3506493506493506
-0.3506493506493507
-0.3506493506493506
-0.22077922077922085
-0.22077922077922088
-0.2207792207792209
-0.22077922077922077
-0.22077922077922107
-0.22077922077922088
-0.2207792207792209
-0.22077922077922096
-0.22077922077922105
-0.220779220779221
-0.22077922077922105
-0.2207792207792211
-0.220779220779221
-0.220779220779221
-0.22077922077922085
-0.2207792207792205
-0.22077922077922082
-0.22077922077922074
-0.22077922077922074
-0.22077922077922096
-0.0909090909090911
-0.09090909090909104
-0.09090909090909081
-0.09090909090909043
-0.09090909090909045
-0.09090909090909081
-0.09090909090909093
-0.0909090909090911
-0.09090909090909124
-0.09090909090909133
-0.09090909090909144
-0.09090909090909143
-0.09090909090909134
-0.09090909090909118
-0.09090909090909077
-0.09090909090909065
-0.09090909090909047
-0.09090909090909059
-0.09090909090909101
-0.09090909090909106
0.03896103896103901
0.03896103896103913
0.03896103896103925
0.038961038961039564
0.03896103896103933
0.03896103896103943
0.03896103896103891
0.03896103896103876
0.03896103896103854
0.03896103896103835
0.038961038961038225
0.03896103896103823
0.03896103896103839
0.038961038961038544
0.0389610389610391
0.03896103896103919
0.038961038961039335
0.038961038961039494
0.03896103896103923
0.03896103896103912
0.16883116883116892
0.16883116883116928
0.16883116883116933
0.16883116883116953
0.16883116883116955
0.1688311688311693
0.16883116883116894
0.16883116883116864
0.16883116883116853
0.1688311688311682
0.16883116883116794
0.168831168831168
0.16883116883116817
0.16883116883116847
0.16883116883116894
0.1688311688311693
0.16883116883116925
0.16883116883116925
0.1688311688311693
0.16883116883116925
0.29870129870129875
0.29870129870129924
0.29870129870129936
0.2987012987013002
0.2987012987013003
0.29870129870129947
0.29870129870129875
0.2987012987012985
0.29870129870129836
0.2987012987012978
0.29870129870129697
0.2987012987012976
0.2987012987012979
0.2987012987012978
0.2987012987012989
0.2987012987012996
0.29870129870129897
0.2987012987012991
0.2987012987012991
0.2987012987012991
0.8701298701298703
0.8701298701298709
0.8701298701298708
0.8701298701298715
0.8701298701298714
0.8701298701298715
0.8701298701298718
0.8701298701298709
0.8701298701298701
0.8701298701298699
0.8701298701298696
0.8701298701298696
0.8701298701298696
0.8701298701298696
0.8701298701298694
0.8701298701298691
0.8701298701298693
0.8701298701298693
0.8701298701298699
0.8701298701298701
0.8831168831168832
0.8831168831168836
0.883116883116884
0.8831168831168844
0.8831168831168846
0.8831168831168842
0.8831168831168843
0.8831168831168841
0.8831168831168834
0.8831168831168831
0.8831168831168827
0.8831168831168823
0.8831168831168824
0.8831168831168825
0.8831168831168822
0.8831168831168821
0.8831168831168823
0.8831168831168827
0.883116883116883
0.8831168831168831
0.8961038961038963
0.8961038961038967
0.896103896103897
0.8961038961038972
0.8961038961038974
0.8961038961038971
0.8961038961038971
0.8961038961038968
0.8961038961038963
0.8961038961038962
0.8961038961038961
0.8961038961038956
0.8961038961038956
0.8961038961038956
0.8961038961038954
0.8961038961038955
0.8961038961038957
0.8961038961038958
0.896103896103896
0.8961038961038958
0.9090909090909096
0.9090909090909098
0.9090909090909101
0.9090909090909104
0.9090909090909102
0.9090909090909103
0.9090909090909098
0.9090909090909096
0.9090909090909092
0.9090909090909092
0.909090909090909
0.9090909090909088
0.909090909090909
0.9090909090909087
0.9090909090909088
0.9090909090909087
0.9090909090909092
0.9090909090909091
0.9090909090909091
0.9090909090909091
0.9220779220779225
0.922077922077923
0.9220779220779232
0.9220779220779232
0.9220779220779234
0.9220779220779233
0.9220779220779226
0.9220779220779227
0.922077922077922
0.922077922077922
0.9220779220779218
0.9220779220779218
0.9220779220779217
0.9220779220779219
0.9220779220779219
0.9220779220779223
0.9220779220779226
0.9220779220779219
0.922077922077922
0.9220779220779222
0.9350649350649355
0.9350649350649357
0.9350649350649359
0.9350649350649363
0.9350649350649365
0.9350649350649366
0.9350649350649357
0.9350649350649353
0.935064935064935
0.9350649350649347
0.9350649350649345
0.9350649350649346
0.9350649350649346
0.9350649350649348
0.9350649350649353
0.9350649350649354
0.9350649350649359
0.9350649350649355
0.9350649350649354
0.9350649350649352
0.9480519480519484
0.9480519480519489
0.9480519480519494
0.9480519480519494
0.9480519480519494
0.9480519480519493
0.9480519480519484
0.9480519480519479
0.9480519480519478
0.9480519480519476
0.9480519480519475
0.9480519480519471
0.9480519480519477
0.9480519480519477
0.9480519480519479
0.9480519480519486
0.9480519480519486
0.9480519480519488
0.9480519480519481
0.9480519480519481
0.9610389610389615
0.9610389610389616
0.961038961038962
0.961038961038962
0.9610389610389618
0.9610389610389616
0.961038961038961
0.9610389610389607
0.9610389610389607
0.9610389610389606
0.9610389610389607
0.9610389610389605
0.9610389610389607
0.9610389610389609
0.9610389610389612
0.9610389610389616
0.9610389610389616
0.9610389610389614
0.9610389610389611
0.9610389610389612
0.9740259740259741
0.9740259740259747
0.9740259740259748
0.9740259740259748
0.9740259740259747
0.9740259740259741
0.9740259740259738
0.9740259740259736
0.9740259740259738
0.9740259740259738
0.9740259740259737
0.9740259740259737
0.9740259740259737
0.974025974025974
0.9740259740259744
0.9740259740259744
0.9740259740259745
0.9740259740259742
0.9740259740259744
0.974025974025974
0.9870129870129869
0.9870129870129878
0.9870129870129876
0.9870129870129877
0.9870129870129876
0.9870129870129877
0.987012987012987
0.9870129870129866
0.9870129870129869
0.9870129870129869
0.9870129870129868
0.987012987012987
0.9870129870129868
0.987012987012987
0.9870129870129872
0.9870129870129872
0.9870129870129873
0.9870129870129873
0.9870129870129871
0.987012987012987
0.36363636363636354
0.36363636363636354
0.3636363636363639
0.3636363636363641
0.36363636363636437
0.3636363636363644
0.3636363636363649
0.3636363636363653
0.3636363636363658
0.3636363636363658
0.3636363636363659
0.36363636363636537
0.3636363636363649
0.3636363636363641
0.3636363636363632
0.36363636363636326
0.3636363636363631
0.36363636363636315
0.3636363636363634
0.3636363636363629
0.36363636363636265
0.36363636363636204
0.3636363636363612
0.3636363636363615
0.36363636363636287
0.36363636363636304
0.36363636363636254
0.36363636363636237
0.3636363636363626
0.3636363636363633
0.36363636363636426
0.3636363636363649
0.36363636363636487
0.36363636363636453
0.36363636363636426
0.36363636363636404
0.3636363636363639
0.3636363636363639
0.3636363636363641
0.36363636363636415
0.36363636363636476
0.36363636363636437
0.36363636363636354
0.8636363636363636
0.863636363636364
0.8636363636363639
0.8636363636363642
0.8636363636363645
0.8636363636363645
0.8636363636363644
0.8636363636363645
0.863636363636365
0.8636363636363649
0.8636363636363648
0.8636363636363651
0.8636363636363649
0.8636363636363654
0.8636363636363653
0.8636363636363645
0.8636363636363645
0.8636363636363642
0.8636363636363634
0.8636363636363634
0.8636363636363632
0.8636363636363632
0.8636363636363634
0.8636363636363633
0.8636363636363626
0.8636363636363629
0.8636363636363632
0.863636363636363
0.8636363636363632
0.8636363636363628
0.8636363636363625
0.8636363636363624
0.8636363636363625
0.8636363636363625
0.8636363636363629
0.8636363636363632
0.8636363636363626
0.8636363636363631
0.863636363636363
0.8636363636363635
0.8636363636363631
0.8636363636363634
0.8636363636363636
