$MeshFormat
2.2 0 8
$EndMeshFormat
$Nodes
484
1 -0.5 -0.5 0
2 0.5 -0.5 0
3 0.5 0.5 0
4 -0.5 0.5 0
5 -0.4523809523809524 -0.5 0
6 -0.4047619047619048 -0.5 0
7 -0.3571428571428572 -0.5 0
8 -0.3095238095238095 -0.5 0
9 -0.2619047619047619 -0.5 0
10 -0.2142857142857143 -0.5 0
11 -0.1666666666666667 -0.5 0
12 -0.1190476190476191 -0.5 0
13 -0.07142857142857145 -0.5 0
14 -0.02380952380952384 -0.5 0
15 0.02380952380952384 -0.5 0
16 0.0714285714285714 -0.5 0
17 0.1190476190476191 -0.5 0
18 0.1666666666666666 -0.5 0
19 0.2142857142857143 -0.5 0
20 0.2619047619047619 -0.5 0
21 0.3095238095238095 -0.5 0
22 0.3571428571428571 -0.5 0
23 0.4047619047619048 -0.5 0
24 0.4523809523809523 -0.5 0
25 0.5 -0.4523809523809524 0
26 0.5 -0.4047619047619048 0
27 0.5 -0.3571428571428572 0
28 0.5 -0.3095238095238095 0
29 0.5 -0.2619047619047619 0
30 0.5 -0.2142857142857143 0
31 0.5 -0.1666666666666667 0
32 0.5 -0.1190476190476191 0
33 0.5 -0.07142857142857145 0
34 0.5 -0.02380952380952384 0
35 0.5 0.02380952380952384 0
36 0.5 0.0714285714285714 0
37 0.5 0.1190476190476191 0
38 0.5 0.1666666666666666 0
39 0.5 0.2142857142857143 0
40 0.5 0.2619047619047619 0
41 0.5 0.3095238095238095 0
42 0.5 0.3571428571428571 0
43 0.5 0.4047619047619048 0
44 0.5 0.4523809523809523 0
45 0.4523809523809524 0.5 0
46 0.4047619047619048 0.5 0
47 0.3571428571428572 0.5 0
48 0.3095238095238095 0.5 0
49 0.2619047619047619 0.5 0
50 0.2142857142857143 0.5 0
51 0.1666666666666667 0.5 0
52 0.1190476190476191 0.5 0
53 0.07142857142857145 0.5 0
54 0.02380952380952384 0.5 0
55 -0.02380952380952384 0.5 0
56 -0.0714285714285714 0.5 0
57 -0.1190476190476191 0.5 0
58 -0.1666666666666666 0.5 0
59 -0.2142857142857143 0.5 0
60 -0.2619047619047619 0.5 0
61 -0.3095238095238095 0.5 0
62 -0.3571428571428571 0.5 0
63 -0.4047619047619048 0.5 0
64 -0.4523809523809523 0.5 0
65 -0.5 0.4523809523809524 0
66 -0.5 0.4047619047619048 0
67 -0.5 0.3571428571428572 0
68 -0.5 0.3095238095238095 0
69 -0.5 0.2619047619047619 0
70 -0.5 0.2142857142857143 0
71 -0.5 0.1666666666666667 0
72 -0.5 0.1190476190476191 0
73 -0.5 0.07142857142857145 0
74 -0.5 0.02380952380952384 0
75 -0.5 -0.02380952380952384 0
76 -0.5 -0.0714285714285714 0
77 -0.5 -0.1190476190476191 0
78 -0.5 -0.1666666666666666 0
79 -0.5 -0.2142857142857143 0
80 -0.5 -0.2619047619047619 0
81 -0.5 -0.3095238095238095 0
82 -0.5 -0.3571428571428571 0
83 -0.5 -0.4047619047619048 0
84 -0.5 -0.4523809523809523 0
85 -0.4523809523809523 -0.4523809523809522 0
86 -0.4523809523809523 -0.4047619047619048 0
87 -0.4523809523809523 -0.3571428571428571 0
88 -0.4523809523809523 -0.3095238095238094 0
89 -0.4523809523809523 -0.2619047619047619 0
90 -0.4523809523809523 -0.2142857142857142 0
91 -0.4523809523809522 -0.1666666666666666 0
92 -0.4523809523809524 -0.1190476190476191 0
93 -0.4523809523809524 -0.0714285714285714 0
94 -0.4523809523809524 -0.02380952380952381 0
95 -0.4523809523809523 0.02380952380952386 0
96 -0.4523809523809523 0.07142857142857148 0
97 -0.4523809523809523 0.1190476190476191 0
98 -0.4523809523809523 0.1666666666666667 0
99 -0.4523809523809523 0.2142857142857143 0
100 -0.4523809523809523 0.2619047619047619 0
101 -0.4523809523809523 0.3095238095238095 0
102 -0.4523809523809523 0.3571428571428571 0
103 -0.4523809523809523 0.4047619047619048 0
104 -0.4523809523809523 0.4523809523809523 0
105 -0.4047619047619047 -0.4523809523809523 0
106 -0.4047619047619048 -0.4047619047619048 0
107 -0.4047619047619047 -0.3571428571428572 0
108 -0.4047619047619048 -0.3095238095238095 0
109 -0.4047619047619047 -0.2619047619047618 0
110 -0.4047619047619048 -0.2142857142857143 0
111 -0.4047619047619048 -0.1666666666666667 0
112 -0.4047619047619048 -0.119047619047619 0
113 -0.4047619047619047 -0.07142857142857142 0
114 -0.4047619047619048 -0.02380952380952384 0
115 -0.4047619047619048 0.02380952380952384 0
116 -0.4047619047619048 0.07142857142857142 0
117 -0.4047619047619048 0.1190476190476191 0
118 -0.4047619047619048 0.1666666666666667 0
119 -0.4047619047619048 0.2142857142857143 0
120 -0.4047619047619048 0.2619047619047619 0
121 -0.4047619047619048 0.3095238095238095 0
122 -0.4047619047619048 0.3571428571428571 0
123 -0.4047619047619048 0.4047619047619048 0
124 -0.4047619047619048 0.4523809523809523 0
125 -0.3571428571428571 -0.4523809523809524 0
126 -0.3571428571428573 -0.4047619047619047 0
127 -0.3571428571428571 -0.3571428571428572 0
128 -0.3571428571428571 -0.3095238095238095 0
129 -0.3571428571428572 -0.2619047619047618 0
130 -0.3571428571428572 -0.2142857142857144 0
131 -0.3571428571428572 -0.1666666666666667 0
132 -0.3571428571428572 -0.1190476190476191 0
133 -0.3571428571428572 -0.0714285714285714 0
134 -0.3571428571428571 -0.02380952380952384 0
135 -0.3571428571428571 0.02380952380952384 0
136 -0.3571428571428572 0.07142857142857148 0
137 -0.3571428571428571 0.1190476190476191 0
138 -0.3571428571428572 0.1666666666666667 0
139 -0.3571428571428572 0.2142857142857143 0
140 -0.3571428571428571 0.2619047619047619 0
141 -0.3571428571428571 0.3095238095238095 0
142 -0.3571428571428571 0.357142857142857 0
143 -0.3571428571428571 0.4047619047619047 0
144 -0.3571428571428571 0.4523809523809524 0
145 -0.3095238095238095 -0.4523809523809523 0
146 -0.3095238095238095 -0.4047619047619048 0
147 -0.3095238095238096 -0.3571428571428572 0
148 -0.3095238095238096 -0.3095238095238095 0
149 -0.3095238095238095 -0.2619047619047619 0
150 -0.3095238095238095 -0.2142857142857143 0
151 -0.3095238095238095 -0.1666666666666667 0
152 -0.3095238095238095 -0.119047619047619 0
153 -0.3095238095238095 -0.0714285714285714 0
154 -0.3095238095238095 -0.02380952380952384 0
155 -0.3095238095238095 0.02380952380952384 0
156 -0.3095238095238095 0.07142857142857145 0
157 -0.3095238095238095 0.119047619047619 0
158 -0.3095238095238095 0.1666666666666667 0
159 -0.3095238095238095 0.2142857142857143 0
160 -0.3095238095238095 0.2619047619047619 0
161 -0.3095238095238095 0.3095238095238095 0
162 -0.3095238095238095 0.3571428571428571 0
163 -0.3095238095238095 0.4047619047619048 0
164 -0.3095238095238095 0.4523809523809523 0
165 -0.261904761904762 -0.4523809523809523 0
166 -0.261904761904762 -0.4047619047619048 0
167 -0.2619047619047619 -0.3571428571428572 0
168 -0.2619047619047619 -0.3095238095238095 0
169 -0.261904761904762 -0.2619047619047619 0
170 -0.2619047619047619 -0.2142857142857143 0
171 -0.2619047619047619 -0.1666666666666666 0
172 -0.2619047619047619 -0.1190476190476191 0
173 -0.2619047619047619 -0.0714285714285714 0
174 -0.2619047619047619 -0.02380952380952381 0
175 -0.2619047619047618 0.02380952380952381 0
176 -0.2619047619047619 0.07142857142857145 0
177 -0.2619047619047618 0.1190476190476191 0
178 -0.2619047619047618 0.1666666666666667 0
179 -0.2619047619047619 0.2142857142857144 0
180 -0.2619047619047619 0.2619047619047619 0
181 -0.2619047619047619 0.3095238095238095 0
182 -0.2619047619047619 0.3571428571428571 0
183 -0.2619047619047619 0.4047619047619048 0
184 -0.2619047619047619 0.4523809523809524 0
185 -0.2142857142857143 -0.4523809523809523 0
186 -0.2142857142857143 -0.4047619047619047 0
187 -0.2142857142857143 -0.3571428571428572 0
188 -0.2142857142857143 -0.3095238095238095 0
189 -0.2142857142857144 -0.2619047619047618 0
190 -0.2142857142857143 -0.2142857142857142 0
191 -0.2142857142857143 -0.1666666666666667 0
192 -0.2142857142857143 -0.1190476190476191 0
193 -0.2142857142857143 -0.0714285714285714 0
194 -0.2142857142857143 -0.02380952380952384 0
195 -0.2142857142857143 0.02380952380952384 0
196 -0.2142857142857143 0.07142857142857145 0
197 -0.2142857142857143 0.1190476190476191 0
198 -0.2142857142857143 0.1666666666666667 0
199 -0.2142857142857143 0.2142857142857143 0
200 -0.2142857142857143 0.2619047619047619 0
201 -0.2142857142857143 0.3095238095238095 0
202 -0.2142857142857143 0.3571428571428571 0
203 -0.2142857142857143 0.4047619047619048 0
204 -0.2142857142857143 0.4523809523809523 0
205 -0.1666666666666667 -0.4523809523809523 0
206 -0.1666666666666667 -0.4047619047619047 0
207 -0.1666666666666667 -0.3571428571428572 0
208 -0.1666666666666666 -0.3095238095238095 0
209 -0.1666666666666666 -0.2619047619047618 0
210 -0.1666666666666667 -0.2142857142857142 0
211 -0.1666666666666667 -0.1666666666666667 0
212 -0.1666666666666667 -0.1190476190476191 0
213 -0.1666666666666667 -0.07142857142857142 0
214 -0.1666666666666667 -0.02380952380952386 0
215 -0.1666666666666667 0.02380952380952386 0
216 -0.1666666666666667 0.07142857142857142 0
217 -0.1666666666666667 0.1190476190476191 0
218 -0.1666666666666667 0.1666666666666667 0
219 -0.1666666666666666 0.2142857142857143 0
220 -0.1666666666666666 0.2619047619047618 0
221 -0.1666666666666666 0.3095238095238095 0
222 -0.1666666666666666 0.357142857142857 0
223 -0.1666666666666667 0.4047619047619048 0
224 -0.1666666666666667 0.4523809523809523 0
225 -0.1190476190476191 -0.4523809523809523 0
226 -0.1190476190476191 -0.4047619047619048 0
227 -0.1190476190476191 -0.3571428571428571 0
228 -0.119047619047619 -0.3095238095238095 0
229 -0.1190476190476191 -0.2619047619047619 0
230 -0.119047619047619 -0.2142857142857142 0
231 -0.1190476190476191 -0.1666666666666667 0
232 -0.1190476190476191 -0.1190476190476191 0
233 -0.1190476190476191 -0.0714285714285714 0
234 -0.1190476190476191 -0.02380952380952381 0
235 -0.1190476190476191 0.02380952380952381 0
236 -0.1190476190476191 0.07142857142857142 0
237 -0.1190476190476191 0.1190476190476191 0
238 -0.1190476190476191 0.1666666666666666 0
239 -0.119047619047619 0.2142857142857143 0
240 -0.119047619047619 0.2619047619047619 0
241 -0.119047619047619 0.3095238095238095 0
242 -0.119047619047619 0.3571428571428571 0
243 -0.1190476190476191 0.4047619047619048 0
244 -0.1190476190476191 0.4523809523809523 0
245 -0.07142857142857145 -0.4523809523809523 0
246 -0.07142857142857142 -0.4047619047619048 0
247 -0.07142857142857147 -0.3571428571428571 0
248 -0.07142857142857148 -0.3095238095238095 0
249 -0.07142857142857145 -0.2619047619047619 0
250 -0.07142857142857142 -0.2142857142857142 0
251 -0.07142857142857145 -0.1666666666666666 0
252 -0.07142857142857144 -0.119047619047619 0
253 -0.07142857142857142 -0.07142857142857138 0
254 -0.07142857142857142 -0.02380952380952384 0
255 -0.07142857142857142 0.02380952380952384 0
256 -0.07142857142857142 0.07142857142857144 0
257 -0.07142857142857144 0.1190476190476191 0
258 -0.07142857142857142 0.1666666666666666 0
259 -0.07142857142857142 0.2142857142857143 0
260 -0.07142857142857142 0.2619047619047619 0
261 -0.07142857142857142 0.3095238095238095 0
262 -0.07142857142857142 0.3571428571428571 0
263 -0.0714285714285714 0.4047619047619048 0
264 -0.0714285714285714 0.4523809523809523 0
265 -0.02380952380952385 -0.4523809523809523 0
266 -0.02380952380952382 -0.4047619047619048 0
267 -0.02380952380952384 -0.3571428571428571 0
268 -0.02380952380952384 -0.3095238095238095 0
269 -0.02380952380952382 -0.2619047619047618 0
270 -0.02380952380952384 -0.2142857142857143 0
271 -0.02380952380952386 -0.1666666666666667 0
272 -0.02380952380952381 -0.1190476190476191 0
273 -0.02380952380952384 -0.07142857142857141 0
274 -0.02380952380952385 -0.02380952380952382 0
275 -0.02380952380952385 0.02380952380952385 0
276 -0.02380952380952384 0.07142857142857142 0
277 -0.02380952380952381 0.1190476190476191 0
278 -0.02380952380952386 0.1666666666666666 0
279 -0.02380952380952384 0.2142857142857143 0
280 -0.02380952380952381 0.2619047619047619 0
281 -0.02380952380952386 0.3095238095238095 0
282 -0.02380952380952384 0.3571428571428571 0
283 -0.02380952380952381 0.4047619047619048 0
284 -0.02380952380952386 0.4523809523809523 0
285 0.02380952380952384 -0.4523809523809523 0
286 0.02380952380952382 -0.4047619047619048 0
287 0.02380952380952384 -0.3571428571428571 0
288 0.02380952380952384 -0.3095238095238095 0
289 0.02380952380952382 -0.2619047619047618 0
290 0.02380952380952384 -0.2142857142857143 0
291 0.02380952380952386 -0.1666666666666667 0
292 0.02380952380952381 -0.1190476190476191 0
293 0.02380952380952382 -0.07142857142857141 0
294 0.02380952380952385 -0.02380952380952385 0
295 0.02380952380952385 0.02380952380952385 0
296 0.02380952380952384 0.07142857142857142 0
297 0.02380952380952381 0.1190476190476191 0
298 0.02380952380952386 0.1666666666666666 0
299 0.02380952380952384 0.2142857142857143 0
300 0.02380952380952381 0.2619047619047619 0
301 0.02380952380952386 0.3095238095238095 0
302 0.02380952380952384 0.3571428571428571 0
303 0.02380952380952381 0.4047619047619048 0
304 0.02380952380952386 0.4523809523809523 0
305 0.0714285714285714 -0.4523809523809524 0
306 0.07142857142857137 -0.4047619047619047 0
307 0.07142857142857145 -0.3571428571428572 0
308 0.07142857142857145 -0.3095238095238095 0
309 0.07142857142857142 -0.2619047619047618 0
310 0.07142857142857138 -0.2142857142857142 0
311 0.0714285714285714 -0.1666666666666667 0
312 0.07142857142857142 -0.1190476190476191 0
313 0.07142857142857144 -0.07142857142857138 0
314 0.07142857142857142 -0.02380952380952384 0
315 0.07142857142857142 0.02380952380952384 0
316 0.07142857142857142 0.07142857142857142 0
317 0.07142857142857142 0.1190476190476191 0
318 0.07142857142857142 0.1666666666666666 0
319 0.07142857142857142 0.2142857142857143 0
320 0.07142857142857145 0.2619047619047619 0
321 0.07142857142857148 0.3095238095238095 0
322 0.07142857142857148 0.3571428571428571 0
323 0.07142857142857142 0.4047619047619048 0
324 0.07142857142857145 0.4523809523809523 0
325 0.1190476190476191 -0.4523809523809523 0
326 0.1190476190476191 -0.4047619047619048 0
327 0.1190476190476191 -0.3571428571428572 0
328 0.119047619047619 -0.3095238095238095 0
329 0.119047619047619 -0.2619047619047619 0
330 0.1190476190476191 -0.2142857142857142 0
331 0.1190476190476191 -0.1666666666666667 0
332 0.1190476190476191 -0.1190476190476191 0
333 0.1190476190476191 -0.07142857142857141 0
334 0.1190476190476191 -0.02380952380952382 0
335 0.1190476190476191 0.02380952380952382 0
336 0.1190476190476191 0.0714285714285714 0
337 0.1190476190476191 0.1190476190476191 0
338 0.1190476190476191 0.1666666666666666 0
339 0.119047619047619 0.2142857142857143 0
340 0.1190476190476191 0.2619047619047619 0
341 0.119047619047619 0.3095238095238095 0
342 0.119047619047619 0.3571428571428571 0
343 0.119047619047619 0.4047619047619048 0
344 0.1190476190476191 0.4523809523809523 0
345 0.1666666666666667 -0.4523809523809523 0
346 0.1666666666666666 -0.4047619047619048 0
347 0.1666666666666667 -0.3571428571428572 0
348 0.1666666666666666 -0.3095238095238095 0
349 0.1666666666666667 -0.2619047619047619 0
350 0.1666666666666666 -0.2142857142857142 0
351 0.1666666666666667 -0.1666666666666667 0
352 0.1666666666666666 -0.1190476190476191 0
353 0.1666666666666667 -0.07142857142857141 0
354 0.1666666666666666 -0.02380952380952385 0
355 0.1666666666666667 0.02380952380952385 0
356 0.1666666666666667 0.07142857142857138 0
357 0.1666666666666667 0.1190476190476191 0
358 0.1666666666666666 0.1666666666666666 0
359 0.1666666666666667 0.2142857142857143 0
360 0.1666666666666667 0.2619047619047619 0
361 0.1666666666666667 0.3095238095238095 0
362 0.1666666666666667 0.3571428571428571 0
363 0.1666666666666667 0.4047619047619048 0
364 0.1666666666666667 0.4523809523809523 0
365 0.2142857142857143 -0.4523809523809524 0
366 0.2142857142857143 -0.4047619047619047 0
367 0.2142857142857143 -0.3571428571428572 0
368 0.2142857142857143 -0.3095238095238095 0
369 0.2142857142857143 -0.2619047619047618 0
370 0.2142857142857143 -0.2142857142857142 0
371 0.2142857142857142 -0.1666666666666667 0
372 0.2142857142857143 -0.1190476190476191 0
373 0.2142857142857143 -0.07142857142857145 0
374 0.2142857142857143 -0.02380952380952384 0
375 0.2142857142857143 0.02380952380952384 0
376 0.2142857142857143 0.07142857142857138 0
377 0.2142857142857143 0.1190476190476191 0
378 0.2142857142857143 0.1666666666666666 0
379 0.2142857142857143 0.2142857142857143 0
380 0.2142857142857143 0.2619047619047619 0
381 0.2142857142857143 0.3095238095238095 0
382 0.2142857142857142 0.3571428571428571 0
383 0.2142857142857143 0.4047619047619048 0
384 0.2142857142857143 0.4523809523809523 0
385 0.2619047619047619 -0.4523809523809523 0
386 0.2619047619047619 -0.4047619047619048 0
387 0.2619047619047619 -0.3571428571428572 0
388 0.2619047619047619 -0.3095238095238095 0
389 0.2619047619047619 -0.2619047619047618 0
390 0.2619047619047619 -0.2142857142857143 0
391 0.2619047619047618 -0.1666666666666667 0
392 0.2619047619047619 -0.1190476190476191 0
393 0.2619047619047619 -0.07142857142857145 0
394 0.2619047619047619 -0.02380952380952383 0
395 0.2619047619047619 0.02380952380952383 0
396 0.2619047619047619 0.07142857142857141 0
397 0.2619047619047619 0.1190476190476191 0
398 0.2619047619047618 0.1666666666666666 0
399 0.2619047619047619 0.2142857142857143 0
400 0.261904761904762 0.2619047619047619 0
401 0.2619047619047619 0.3095238095238095 0
402 0.2619047619047619 0.3571428571428571 0
403 0.2619047619047619 0.4047619047619048 0
404 0.2619047619047619 0.4523809523809523 0
405 0.3095238095238095 -0.4523809523809524 0
406 0.3095238095238095 -0.4047619047619048 0
407 0.3095238095238096 -0.3571428571428572 0
408 0.3095238095238096 -0.3095238095238095 0
409 0.3095238095238095 -0.2619047619047619 0
410 0.3095238095238095 -0.2142857142857143 0
411 0.3095238095238095 -0.1666666666666667 0
412 0.3095238095238095 -0.1190476190476191 0
413 0.3095238095238096 -0.07142857142857145 0
414 0.3095238095238095 -0.02380952380952384 0
415 0.3095238095238095 0.02380952380952384 0
416 0.3095238095238095 0.07142857142857141 0
417 0.3095238095238095 0.119047619047619 0
418 0.3095238095238095 0.1666666666666666 0
419 0.3095238095238095 0.2142857142857143 0
420 0.3095238095238095 0.2619047619047619 0
421 0.3095238095238095 0.3095238095238095 0
422 0.3095238095238095 0.3571428571428571 0
423 0.3095238095238095 0.4047619047619048 0
424 0.3095238095238095 0.4523809523809523 0
425 0.3571428571428571 -0.4523809523809524 0
426 0.3571428571428571 -0.4047619047619048 0
427 0.357142857142857 -0.3571428571428573 0
428 0.3571428571428571 -0.3095238095238095 0
429 0.3571428571428571 -0.2619047619047619 0
430 0.3571428571428571 -0.2142857142857142 0
431 0.3571428571428571 -0.1666666666666667 0
432 0.3571428571428571 -0.1190476190476191 0
433 0.3571428571428572 -0.07142857142857145 0
434 0.3571428571428571 -0.02380952380952384 0
435 0.3571428571428571 0.02380952380952384 0
436 0.357142857142857 0.0714285714285714 0
437 0.357142857142857 0.119047619047619 0
438 0.357142857142857 0.1666666666666666 0
439 0.357142857142857 0.2142857142857143 0
440 0.357142857142857 0.2619047619047619 0
441 0.357142857142857 0.3095238095238095 0
442 0.3571428571428571 0.3571428571428571 0
443 0.3571428571428571 0.4047619047619048 0
444 0.3571428571428571 0.4523809523809523 0
445 0.4047619047619047 -0.4523809523809524 0
446 0.4047619047619048 -0.4047619047619048 0
447 0.4047619047619047 -0.3571428571428573 0
448 0.4047619047619048 -0.3095238095238095 0
449 0.4047619047619047 -0.2619047619047618 0
450 0.4047619047619048 -0.2142857142857142 0
451 0.4047619047619047 -0.1666666666666667 0
452 0.4047619047619048 -0.1190476190476191 0
453 0.4047619047619047 -0.07142857142857145 0
454 0.4047619047619048 -0.02380952380952383 0
455 0.4047619047619048 0.02380952380952383 0
456 0.4047619047619047 0.07142857142857137 0
457 0.4047619047619048 0.1190476190476191 0
458 0.4047619047619048 0.1666666666666666 0
459 0.4047619047619047 0.2142857142857143 0
460 0.4047619047619048 0.2619047619047619 0
461 0.4047619047619048 0.3095238095238095 0
462 0.4047619047619048 0.3571428571428571 0
463 0.4047619047619047 0.4047619047619048 0
464 0.4047619047619048 0.4523809523809523 0
465 0.4523809523809523 -0.4523809523809524 0
466 0.4523809523809523 -0.4047619047619048 0
467 0.4523809523809523 -0.3571428571428572 0
468 0.4523809523809523 -0.3095238095238095 0
469 0.4523809523809524 -0.2619047619047618 0
470 0.4523809523809524 -0.2142857142857142 0
471 0.4523809523809524 -0.1666666666666667 0
472 0.4523809523809525 -0.1190476190476191 0
473 0.4523809523809523 -0.07142857142857145 0
474 0.4523809523809524 -0.02380952380952384 0
475 0.4523809523809523 0.02380952380952384 0
476 0.4523809523809523 0.0714285714285714 0
477 0.4523809523809524 0.1190476190476191 0
478 0.4523809523809523 0.1666666666666666 0
479 0.4523809523809523 0.2142857142857143 0
480 0.4523809523809524 0.2619047619047619 0
481 0.4523809523809523 0.3095238095238095 0
482 0.4523809523809523 0.3571428571428571 0
483 0.4523809523809524 0.4047619047619048 0
484 0.4523809523809523 0.4523809523809523 0
$EndNodes
$Elements
970
1 15 2 0 1 1
2 15 2 0 2 2
3 15 2 0 3 3
4 15 2 0 4 4
5 1 2 0 1 1 5
6 1 2 0 1 5 6
7 1 2 0 1 6 7
8 1 2 0 1 7 8
9 1 2 0 1 8 9
10 1 2 0 1 9 10
11 1 2 0 1 10 11
12 1 2 0 1 11 12
13 1 2 0 1 12 13
14 1 2 0 1 13 14
15 1 2 0 1 14 15
16 1 2 0 1 15 16
17 1 2 0 1 16 17
18 1 2 0 1 17 18
19 1 2 0 1 18 19
20 1 2 0 1 19 20
21 1 2 0 1 20 21
22 1 2 0 1 21 22
23 1 2 0 1 22 23
24 1 2 0 1 23 24
25 1 2 0 1 24 2
26 1 2 0 2 2 25
27 1 2 0 2 25 26
28 1 2 0 2 26 27
29 1 2 0 2 27 28
30 1 2 0 2 28 29
31 1 2 0 2 29 30
32 1 2 0 2 30 31
33 1 2 0 2 31 32
34 1 2 0 2 32 33
35 1 2 0 2 33 34
36 1 2 0 2 34 35
37 1 2 0 2 35 36
38 1 2 0 2 36 37
39 1 2 0 2 37 38
40 1 2 0 2 38 39
41 1 2 0 2 39 40
42 1 2 0 2 40 41
43 1 2 0 2 41 42
44 1 2 0 2 42 43
45 1 2 0 2 43 44
46 1 2 0 2 44 3
47 1 2 0 3 3 45
48 1 2 0 3 45 46
49 1 2 0 3 46 47
50 1 2 0 3 47 48
51 1 2 0 3 48 49
52 1 2 0 3 49 50
53 1 2 0 3 50 51
54 1 2 0 3 51 52
55 1 2 0 3 52 53
56 1 2 0 3 53 54
57 1 2 0 3 54 55
58 1 2 0 3 55 56
59 1 2 0 3 56 57
60 1 2 0 3 57 58
61 1 2 0 3 58 59
62 1 2 0 3 59 60
63 1 2 0 3 60 61
64 1 2 0 3 61 62
65 1 2 0 3 62 63
66 1 2 0 3 63 64
67 1 2 0 3 64 4
68 1 2 0 4 4 65
69 1 2 0 4 65 66
70 1 2 0 4 66 67
71 1 2 0 4 67 68
72 1 2 0 4 68 69
73 1 2 0 4 69 70
74 1 2 0 4 70 71
75 1 2 0 4 71 72
76 1 2 0 4 72 73
77 1 2 0 4 73 74
78 1 2 0 4 74 75
79 1 2 0 4 75 76
80 1 2 0 4 76 77
81 1 2 0 4 77 78
82 1 2 0 4 78 79
83 1 2 0 4 79 80
84 1 2 0 4 80 81
85 1 2 0 4 81 82
86 1 2 0 4 82 83
87 1 2 0 4 83 84
88 1 2 0 4 84 1
89 2 2 0 1 1 5 84
90 2 2 0 1 84 5 85
91 2 2 0 1 84 85 83
92 2 2 0 1 83 85 86
93 2 2 0 1 83 86 82
94 2 2 0 1 82 86 87
95 2 2 0 1 82 87 81
96 2 2 0 1 81 87 88
97 2 2 0 1 81 88 80
98 2 2 0 1 80 88 89
99 2 2 0 1 80 89 79
100 2 2 0 1 79 89 90
101 2 2 0 1 79 90 78
102 2 2 0 1 78 90 91
103 2 2 0 1 78 91 77
104 2 2 0 1 77 91 92
105 2 2 0 1 77 92 76
106 2 2 0 1 76 92 93
107 2 2 0 1 76 93 75
108 2 2 0 1 75 93 94
109 2 2 0 1 75 94 74
110 2 2 0 1 74 94 95
111 2 2 0 1 74 95 73
112 2 2 0 1 73 95 96
113 2 2 0 1 73 96 72
114 2 2 0 1 72 96 97
115 2 2 0 1 72 97 71
116 2 2 0 1 71 97 98
117 2 2 0 1 71 98 70
118 2 2 0 1 70 98 99
119 2 2 0 1 70 99 69
120 2 2 0 1 69 99 100
121 2 2 0 1 69 100 68
122 2 2 0 1 68 100 101
123 2 2 0 1 68 101 67
124 2 2 0 1 67 101 102
125 2 2 0 1 67 102 66
126 2 2 0 1 66 102 103
127 2 2 0 1 66 103 65
128 2 2 0 1 65 103 104
129 2 2 0 1 65 104 4
130 2 2 0 1 4 104 64
131 2 2 0 1 5 6 85
132 2 2 0 1 85 6 105
133 2 2 0 1 85 105 86
134 2 2 0 1 86 105 106
135 2 2 0 1 86 106 87
136 2 2 0 1 87 106 107
137 2 2 0 1 87 107 88
138 2 2 0 1 88 107 108
139 2 2 0 1 88 108 89
140 2 2 0 1 89 108 109
141 2 2 0 1 89 109 90
142 2 2 0 1 90 109 110
143 2 2 0 1 90 110 91
144 2 2 0 1 91 110 111
145 2 2 0 1 91 111 92
146 2 2 0 1 92 111 112
147 2 2 0 1 92 112 93
148 2 2 0 1 93 112 113
149 2 2 0 1 93 113 94
150 2 2 0 1 94 113 114
151 2 2 0 1 94 114 95
152 2 2 0 1 95 114 115
153 2 2 0 1 95 115 96
154 2 2 0 1 96 115 116
155 2 2 0 1 96 116 97
156 2 2 0 1 97 116 117
157 2 2 0 1 97 117 98
158 2 2 0 1 98 117 118
159 2 2 0 1 98 118 99
160 2 2 0 1 99 118 119
161 2 2 0 1 99 119 100
162 2 2 0 1 100 119 120
163 2 2 0 1 100 120 101
164 2 2 0 1 101 120 121
165 2 2 0 1 101 121 102
166 2 2 0 1 102 121 122
167 2 2 0 1 102 122 103
168 2 2 0 1 103 122 123
169 2 2 0 1 103 123 104
170 2 2 0 1 104 123 124
171 2 2 0 1 104 124 64
172 2 2 0 1 64 124 63
173 2 2 0 1 6 7 105
174 2 2 0 1 105 7 125
175 2 2 0 1 105 125 106
176 2 2 0 1 106 125 126
177 2 2 0 1 106 126 107
178 2 2 0 1 107 126 127
179 2 2 0 1 107 127 108
180 2 2 0 1 108 127 128
181 2 2 0 1 108 128 109
182 2 2 0 1 109 128 129
183 2 2 0 1 109 129 110
184 2 2 0 1 110 129 130
185 2 2 0 1 110 130 111
186 2 2 0 1 111 130 131
187 2 2 0 1 111 131 112
188 2 2 0 1 112 131 132
189 2 2 0 1 112 132 113
190 2 2 0 1 113 132 133
191 2 2 0 1 113 133 114
192 2 2 0 1 114 133 134
193 2 2 0 1 114 134 115
194 2 2 0 1 115 134 135
195 2 2 0 1 115 135 116
196 2 2 0 1 116 135 136
197 2 2 0 1 116 136 117
198 2 2 0 1 117 136 137
199 2 2 0 1 117 137 118
200 2 2 0 1 118 137 138
201 2 2 0 1 118 138 119
202 2 2 0 1 119 138 139
203 2 2 0 1 119 139 120
204 2 2 0 1 120 139 140
205 2 2 0 1 120 140 121
206 2 2 0 1 121 140 141
207 2 2 0 1 121 141 122
208 2 2 0 1 122 141 142
209 2 2 0 1 122 142 123
210 2 2 0 1 123 142 143
211 2 2 0 1 123 143 124
212 2 2 0 1 124 143 144
213 2 2 0 1 124 144 63
214 2 2 0 1 63 144 62
215 2 2 0 1 7 8 125
216 2 2 0 1 125 8 145
217 2 2 0 1 125 145 126
218 2 2 0 1 126 145 146
219 2 2 0 1 126 146 127
220 2 2 0 1 127 146 147
221 2 2 0 1 127 147 128
222 2 2 0 1 128 147 148
223 2 2 0 1 128 148 129
224 2 2 0 1 129 148 149
225 2 2 0 1 129 149 130
226 2 2 0 1 130 149 150
227 2 2 0 1 130 150 131
228 2 2 0 1 131 150 151
229 2 2 0 1 131 151 132
230 2 2 0 1 132 151 152
231 2 2 0 1 132 152 133
232 2 2 0 1 133 152 153
233 2 2 0 1 133 153 134
234 2 2 0 1 134 153 154
235 2 2 0 1 134 154 135
236 2 2 0 1 135 154 155
237 2 2 0 1 135 155 136
238 2 2 0 1 136 155 156
239 2 2 0 1 136 156 137
240 2 2 0 1 137 156 157
241 2 2 0 1 137 157 138
242 2 2 0 1 138 157 158
243 2 2 0 1 138 158 139
244 2 2 0 1 139 158 159
245 2 2 0 1 139 159 140
246 2 2 0 1 140 159 160
247 2 2 0 1 140 160 141
248 2 2 0 1 141 160 161
249 2 2 0 1 141 161 142
250 2 2 0 1 142 161 162
251 2 2 0 1 142 162 143
252 2 2 0 1 143 162 163
253 2 2 0 1 143 163 144
254 2 2 0 1 144 163 164
255 2 2 0 1 144 164 62
256 2 2 0 1 62 164 61
257 2 2 0 1 8 9 145
258 2 2 0 1 145 9 165
259 2 2 0 1 145 165 146
260 2 2 0 1 146 165 166
261 2 2 0 1 146 166 147
262 2 2 0 1 147 166 167
263 2 2 0 1 147 167 148
264 2 2 0 1 148 167 168
265 2 2 0 1 148 168 149
266 2 2 0 1 149 168 169
267 2 2 0 1 149 169 150
268 2 2 0 1 150 169 170
269 2 2 0 1 150 170 151
270 2 2 0 1 151 170 171
271 2 2 0 1 151 171 152
272 2 2 0 1 152 171 172
273 2 2 0 1 152 172 153
274 2 2 0 1 153 172 173
275 2 2 0 1 153 173 154
276 2 2 0 1 154 173 174
277 2 2 0 1 154 174 155
278 2 2 0 1 155 174 175
279 2 2 0 1 155 175 156
280 2 2 0 1 156 175 176
281 2 2 0 1 156 176 157
282 2 2 0 1 157 176 177
283 2 2 0 1 157 177 158
284 2 2 0 1 158 177 178
285 2 2 0 1 158 178 159
286 2 2 0 1 159 178 179
287 2 2 0 1 159 179 160
288 2 2 0 1 160 179 180
289 2 2 0 1 160 180 161
290 2 2 0 1 161 180 181
291 2 2 0 1 161 181 162
292 2 2 0 1 162 181 182
293 2 2 0 1 162 182 163
294 2 2 0 1 163 182 183
295 2 2 0 1 163 183 164
296 2 2 0 1 164 183 184
297 2 2 0 1 164 184 61
298 2 2 0 1 61 184 60
299 2 2 0 1 9 10 165
300 2 2 0 1 165 10 185
301 2 2 0 1 165 185 166
302 2 2 0 1 166 185 186
303 2 2 0 1 166 186 167
304 2 2 0 1 167 186 187
305 2 2 0 1 167 187 168
306 2 2 0 1 168 187 188
307 2 2 0 1 168 188 169
308 2 2 0 1 169 188 189
309 2 2 0 1 169 189 170
310 2 2 0 1 170 189 190
311 2 2 0 1 170 190 171
312 2 2 0 1 171 190 191
313 2 2 0 1 171 191 172
314 2 2 0 1 172 191 192
315 2 2 0 1 172 192 173
316 2 2 0 1 173 192 193
317 2 2 0 1 173 193 174
318 2 2 0 1 174 193 194
319 2 2 0 1 174 194 175
320 2 2 0 1 175 194 195
321 2 2 0 1 175 195 176
322 2 2 0 1 176 195 196
323 2 2 0 1 176 196 177
324 2 2 0 1 177 196 197
325 2 2 0 1 177 197 178
326 2 2 0 1 178 197 198
327 2 2 0 1 178 198 179
328 2 2 0 1 179 198 199
329 2 2 0 1 179 199 180
330 2 2 0 1 180 199 200
331 2 2 0 1 180 200 181
332 2 2 0 1 181 200 201
333 2 2 0 1 181 201 182
334 2 2 0 1 182 201 202
335 2 2 0 1 182 202 183
336 2 2 0 1 183 202 203
337 2 2 0 1 183 203 184
338 2 2 0 1 184 203 204
339 2 2 0 1 184 204 60
340 2 2 0 1 60 204 59
341 2 2 0 1 10 11 185
342 2 2 0 1 185 11 205
343 2 2 0 1 185 205 186
344 2 2 0 1 186 205 206
345 2 2 0 1 186 206 187
346 2 2 0 1 187 206 207
347 2 2 0 1 187 207 188
348 2 2 0 1 188 207 208
349 2 2 0 1 188 208 189
350 2 2 0 1 189 208 209
351 2 2 0 1 189 209 190
352 2 2 0 1 190 209 210
353 2 2 0 1 190 210 191
354 2 2 0 1 191 210 211
355 2 2 0 1 191 211 192
356 2 2 0 1 192 211 212
357 2 2 0 1 192 212 193
358 2 2 0 1 193 212 213
359 2 2 0 1 193 213 194
360 2 2 0 1 194 213 214
361 2 2 0 1 194 214 195
362 2 2 0 1 195 214 215
363 2 2 0 1 195 215 196
364 2 2 0 1 196 215 216
365 2 2 0 1 196 216 197
366 2 2 0 1 197 216 217
367 2 2 0 1 197 217 198
368 2 2 0 1 198 217 218
369 2 2 0 1 198 218 199
370 2 2 0 1 199 218 219
371 2 2 0 1 199 219 200
372 2 2 0 1 200 219 220
373 2 2 0 1 200 220 201
374 2 2 0 1 201 220 221
375 2 2 0 1 201 221 202
376 2 2 0 1 202 221 222
377 2 2 0 1 202 222 203
378 2 2 0 1 203 222 223
379 2 2 0 1 203 223 204
380 2 2 0 1 204 223 224
381 2 2 0 1 204 224 59
382 2 2 0 1 59 224 58
383 2 2 0 1 11 12 205
384 2 2 0 1 205 12 225
385 2 2 0 1 205 225 206
386 2 2 0 1 206 225 226
387 2 2 0 1 206 226 207
388 2 2 0 1 207 226 227
389 2 2 0 1 207 227 208
390 2 2 0 1 208 227 228
391 2 2 0 1 208 228 209
392 2 2 0 1 209 228 229
393 2 2 0 1 209 229 210
394 2 2 0 1 210 229 230
395 2 2 0 1 210 230 211
396 2 2 0 1 211 230 231
397 2 2 0 1 211 231 212
398 2 2 0 1 212 231 232
399 2 2 0 1 212 232 213
400 2 2 0 1 213 232 233
401 2 2 0 1 213 233 214
402 2 2 0 1 214 233 234
403 2 2 0 1 214 234 215
404 2 2 0 1 215 234 235
405 2 2 0 1 215 235 216
406 2 2 0 1 216 235 236
407 2 2 0 1 216 236 217
408 2 2 0 1 217 236 237
409 2 2 0 1 217 237 218
410 2 2 0 1 218 237 238
411 2 2 0 1 218 238 219
412 2 2 0 1 219 238 239
413 2 2 0 1 219 239 220
414 2 2 0 1 220 239 240
415 2 2 0 1 220 240 221
416 2 2 0 1 221 240 241
417 2 2 0 1 221 241 222
418 2 2 0 1 222 241 242
419 2 2 0 1 222 242 223
420 2 2 0 1 223 242 243
421 2 2 0 1 223 243 224
422 2 2 0 1 224 243 244
423 2 2 0 1 224 244 58
424 2 2 0 1 58 244 57
425 2 2 0 1 12 13 225
426 2 2 0 1 225 13 245
427 2 2 0 1 225 245 226
428 2 2 0 1 226 245 246
429 2 2 0 1 226 246 227
430 2 2 0 1 227 246 247
431 2 2 0 1 227 247 228
432 2 2 0 1 228 247 248
433 2 2 0 1 228 248 229
434 2 2 0 1 229 248 249
435 2 2 0 1 229 249 230
436 2 2 0 1 230 249 250
437 2 2 0 1 230 250 231
438 2 2 0 1 231 250 251
439 2 2 0 1 231 251 232
440 2 2 0 1 232 251 252
441 2 2 0 1 232 252 233
442 2 2 0 1 233 252 253
443 2 2 0 1 233 253 234
444 2 2 0 1 234 253 254
445 2 2 0 1 234 254 235
446 2 2 0 1 235 254 255
447 2 2 0 1 235 255 236
448 2 2 0 1 236 255 256
449 2 2 0 1 236 256 237
450 2 2 0 1 237 256 257
451 2 2 0 1 237 257 238
452 2 2 0 1 238 257 258
453 2 2 0 1 238 258 239
454 2 2 0 1 239 258 259
455 2 2 0 1 239 259 240
456 2 2 0 1 240 259 260
457 2 2 0 1 240 260 241
458 2 2 0 1 241 260 261
459 2 2 0 1 241 261 242
460 2 2 0 1 242 261 262
461 2 2 0 1 242 262 243
462 2 2 0 1 243 262 263
463 2 2 0 1 243 263 244
464 2 2 0 1 244 263 264
465 2 2 0 1 244 264 57
466 2 2 0 1 57 264 56
467 2 2 0 1 13 14 245
468 2 2 0 1 245 14 265
469 2 2 0 1 245 265 246
470 2 2 0 1 246 265 266
471 2 2 0 1 246 266 247
472 2 2 0 1 247 266 267
473 2 2 0 1 247 267 248
474 2 2 0 1 248 267 268
475 2 2 0 1 248 268 249
476 2 2 0 1 249 268 269
477 2 2 0 1 249 269 250
478 2 2 0 1 250 269 270
479 2 2 0 1 250 270 251
480 2 2 0 1 251 270 271
481 2 2 0 1 251 271 252
482 2 2 0 1 252 271 272
483 2 2 0 1 252 272 253
484 2 2 0 1 253 272 273
485 2 2 0 1 253 273 254
486 2 2 0 1 254 273 274
487 2 2 0 1 254 274 255
488 2 2 0 1 255 274 275
489 2 2 0 1 255 275 256
490 2 2 0 1 256 275 276
491 2 2 0 1 256 276 257
492 2 2 0 1 257 276 277
493 2 2 0 1 257 277 258
494 2 2 0 1 258 277 278
495 2 2 0 1 258 278 259
496 2 2 0 1 259 278 279
497 2 2 0 1 259 279 260
498 2 2 0 1 260 279 280
499 2 2 0 1 260 280 261
500 2 2 0 1 261 280 281
501 2 2 0 1 261 281 262
502 2 2 0 1 262 281 282
503 2 2 0 1 262 282 263
504 2 2 0 1 263 282 283
505 2 2 0 1 263 283 264
506 2 2 0 1 264 283 284
507 2 2 0 1 264 284 56
508 2 2 0 1 56 284 55
509 2 2 0 1 14 15 265
510 2 2 0 1 265 15 285
511 2 2 0 1 265 285 266
512 2 2 0 1 266 285 286
513 2 2 0 1 266 286 267
514 2 2 0 1 267 286 287
515 2 2 0 1 267 287 268
516 2 2 0 1 268 287 288
517 2 2 0 1 268 288 269
518 2 2 0 1 269 288 289
519 2 2 0 1 269 289 270
520 2 2 0 1 270 289 290
521 2 2 0 1 270 290 271
522 2 2 0 1 271 290 291
523 2 2 0 1 271 291 272
524 2 2 0 1 272 291 292
525 2 2 0 1 272 292 273
526 2 2 0 1 273 292 293
527 2 2 0 1 273 293 274
528 2 2 0 1 274 293 294
529 2 2 0 1 274 294 275
530 2 2 0 1 275 294 295
531 2 2 0 1 275 295 276
532 2 2 0 1 276 295 296
533 2 2 0 1 276 296 277
534 2 2 0 1 277 296 297
535 2 2 0 1 277 297 278
536 2 2 0 1 278 297 298
537 2 2 0 1 278 298 279
538 2 2 0 1 279 298 299
539 2 2 0 1 279 299 280
540 2 2 0 1 280 299 300
541 2 2 0 1 280 300 281
542 2 2 0 1 281 300 301
543 2 2 0 1 281 301 282
544 2 2 0 1 282 301 302
545 2 2 0 1 282 302 283
546 2 2 0 1 283 302 303
547 2 2 0 1 283 303 284
548 2 2 0 1 284 303 304
549 2 2 0 1 284 304 55
550 2 2 0 1 55 304 54
551 2 2 0 1 15 16 285
552 2 2 0 1 285 16 305
553 2 2 0 1 285 305 286
554 2 2 0 1 286 305 306
555 2 2 0 1 286 306 287
556 2 2 0 1 287 306 307
557 2 2 0 1 287 307 288
558 2 2 0 1 288 307 308
559 2 2 0 1 288 308 289
560 2 2 0 1 289 308 309
561 2 2 0 1 289 309 290
562 2 2 0 1 290 309 310
563 2 2 0 1 290 310 291
564 2 2 0 1 291 310 311
565 2 2 0 1 291 311 292
566 2 2 0 1 292 311 312
567 2 2 0 1 292 312 293
568 2 2 0 1 293 312 313
569 2 2 0 1 293 313 294
570 2 2 0 1 294 313 314
571 2 2 0 1 294 314 295
572 2 2 0 1 295 314 315
573 2 2 0 1 295 315 296
574 2 2 0 1 296 315 316
575 2 2 0 1 296 316 297
576 2 2 0 1 297 316 317
577 2 2 0 1 297 317 298
578 2 2 0 1 298 317 318
579 2 2 0 1 298 318 299
580 2 2 0 1 299 318 319
581 2 2 0 1 299 319 300
582 2 2 0 1 300 319 320
583 2 2 0 1 300 320 301
584 2 2 0 1 301 320 321
585 2 2 0 1 301 321 302
586 2 2 0 1 302 321 322
587 2 2 0 1 302 322 303
588 2 2 0 1 303 322 323
589 2 2 0 1 303 323 304
590 2 2 0 1 304 323 324
591 2 2 0 1 304 324 54
592 2 2 0 1 54 324 53
593 2 2 0 1 16 17 305
594 2 2 0 1 305 17 325
595 2 2 0 1 305 325 306
596 2 2 0 1 306 325 326
597 2 2 0 1 306 326 307
598 2 2 0 1 307 326 327
599 2 2 0 1 307 327 308
600 2 2 0 1 308 327 328
601 2 2 0 1 308 328 309
602 2 2 0 1 309 328 329
603 2 2 0 1 309 329 310
604 2 2 0 1 310 329 330
605 2 2 0 1 310 330 311
606 2 2 0 1 311 330 331
607 2 2 0 1 311 331 312
608 2 2 0 1 312 331 332
609 2 2 0 1 312 332 313
610 2 2 0 1 313 332 333
611 2 2 0 1 313 333 314
612 2 2 0 1 314 333 334
613 2 2 0 1 314 334 315
614 2 2 0 1 315 334 335
615 2 2 0 1 315 335 316
616 2 2 0 1 316 335 336
617 2 2 0 1 316 336 317
618 2 2 0 1 317 336 337
619 2 2 0 1 317 337 318
620 2 2 0 1 318 337 338
621 2 2 0 1 318 338 319
622 2 2 0 1 319 338 339
623 2 2 0 1 319 339 320
624 2 2 0 1 320 339 340
625 2 2 0 1 320 340 321
626 2 2 0 1 321 340 341
627 2 2 0 1 321 341 322
628 2 2 0 1 322 341 342
629 2 2 0 1 322 342 323
630 2 2 0 1 323 342 343
631 2 2 0 1 323 343 324
632 2 2 0 1 324 343 344
633 2 2 0 1 324 344 53
634 2 2 0 1 53 344 52
635 2 2 0 1 17 18 325
636 2 2 0 1 325 18 345
637 2 2 0 1 325 345 326
638 2 2 0 1 326 345 346
639 2 2 0 1 326 346 327
640 2 2 0 1 327 346 347
641 2 2 0 1 327 347 328
642 2 2 0 1 328 347 348
643 2 2 0 1 328 348 329
644 2 2 0 1 329 348 349
645 2 2 0 1 329 349 330
646 2 2 0 1 330 349 350
647 2 2 0 1 330 350 331
648 2 2 0 1 331 350 351
649 2 2 0 1 331 351 332
650 2 2 0 1 332 351 352
651 2 2 0 1 332 352 333
652 2 2 0 1 333 352 353
653 2 2 0 1 333 353 334
654 2 2 0 1 334 353 354
655 2 2 0 1 334 354 335
656 2 2 0 1 335 354 355
657 2 2 0 1 335 355 336
658 2 2 0 1 336 355 356
659 2 2 0 1 336 356 337
660 2 2 0 1 337 356 357
661 2 2 0 1 337 357 338
662 2 2 0 1 338 357 358
663 2 2 0 1 338 358 339
664 2 2 0 1 339 358 359
665 2 2 0 1 339 359 340
666 2 2 0 1 340 359 360
667 2 2 0 1 340 360 341
668 2 2 0 1 341 360 361
669 2 2 0 1 341 361 342
670 2 2 0 1 342 361 362
671 2 2 0 1 342 362 343
672 2 2 0 1 343 362 363
673 2 2 0 1 343 363 344
674 2 2 0 1 344 363 364
675 2 2 0 1 344 364 52
676 2 2 0 1 52 364 51
677 2 2 0 1 18 19 345
678 2 2 0 1 345 19 365
679 2 2 0 1 345 365 346
680 2 2 0 1 346 365 366
681 2 2 0 1 346 366 347
682 2 2 0 1 347 366 367
683 2 2 0 1 347 367 348
684 2 2 0 1 348 367 368
685 2 2 0 1 348 368 349
686 2 2 0 1 349 368 369
687 2 2 0 1 349 369 350
688 2 2 0 1 350 369 370
689 2 2 0 1 350 370 351
690 2 2 0 1 351 370 371
691 2 2 0 1 351 371 352
692 2 2 0 1 352 371 372
693 2 2 0 1 352 372 353
694 2 2 0 1 353 372 373
695 2 2 0 1 353 373 354
696 2 2 0 1 354 373 374
697 2 2 0 1 354 374 355
698 2 2 0 1 355 374 375
699 2 2 0 1 355 375 356
700 2 2 0 1 356 375 376
701 2 2 0 1 356 376 357
702 2 2 0 1 357 376 377
703 2 2 0 1 357 377 358
704 2 2 0 1 358 377 378
705 2 2 0 1 358 378 359
706 2 2 0 1 359 378 379
707 2 2 0 1 359 379 360
708 2 2 0 1 360 379 380
709 2 2 0 1 360 380 361
710 2 2 0 1 361 380 381
711 2 2 0 1 361 381 362
712 2 2 0 1 362 381 382
713 2 2 0 1 362 382 363
714 2 2 0 1 363 382 383
715 2 2 0 1 363 383 364
716 2 2 0 1 364 383 384
717 2 2 0 1 364 384 51
718 2 2 0 1 51 384 50
719 2 2 0 1 19 20 365
720 2 2 0 1 365 20 385
721 2 2 0 1 365 385 366
722 2 2 0 1 366 385 386
723 2 2 0 1 366 386 367
724 2 2 0 1 367 386 387
725 2 2 0 1 367 387 368
726 2 2 0 1 368 387 388
727 2 2 0 1 368 388 369
728 2 2 0 1 369 388 389
729 2 2 0 1 369 389 370
730 2 2 0 1 370 389 390
731 2 2 0 1 370 390 371
732 2 2 0 1 371 390 391
733 2 2 0 1 371 391 372
734 2 2 0 1 372 391 392
735 2 2 0 1 372 392 373
736 2 2 0 1 373 392 393
737 2 2 0 1 373 393 374
738 2 2 0 1 374 393 394
739 2 2 0 1 374 394 375
740 2 2 0 1 375 394 395
741 2 2 0 1 375 395 376
742 2 2 0 1 376 395 396
743 2 2 0 1 376 396 377
744 2 2 0 1 377 396 397
745 2 2 0 1 377 397 378
746 2 2 0 1 378 397 398
747 2 2 0 1 378 398 379
748 2 2 0 1 379 398 399
749 2 2 0 1 379 399 380
750 2 2 0 1 380 399 400
751 2 2 0 1 380 400 381
752 2 2 0 1 381 400 401
753 2 2 0 1 381 401 382
754 2 2 0 1 382 401 402
755 2 2 0 1 382 402 383
756 2 2 0 1 383 402 403
757 2 2 0 1 383 403 384
758 2 2 0 1 384 403 404
759 2 2 0 1 384 404 50
760 2 2 0 1 50 404 49
761 2 2 0 1 20 21 385
762 2 2 0 1 385 21 405
763 2 2 0 1 385 405 386
764 2 2 0 1 386 405 406
765 2 2 0 1 386 406 387
766 2 2 0 1 387 406 407
767 2 2 0 1 387 407 388
768 2 2 0 1 388 407 408
769 2 2 0 1 388 408 389
770 2 2 0 1 389 408 409
771 2 2 0 1 389 409 390
772 2 2 0 1 390 409 410
773 2 2 0 1 390 410 391
774 2 2 0 1 391 410 411
775 2 2 0 1 391 411 392
776 2 2 0 1 392 411 412
777 2 2 0 1 392 412 393
778 2 2 0 1 393 412 413
779 2 2 0 1 393 413 394
780 2 2 0 1 394 413 414
781 2 2 0 1 394 414 395
782 2 2 0 1 395 414 415
783 2 2 0 1 395 415 396
784 2 2 0 1 396 415 416
785 2 2 0 1 396 416 397
786 2 2 0 1 397 416 417
787 2 2 0 1 397 417 398
788 2 2 0 1 398 417 418
789 2 2 0 1 398 418 399
790 2 2 0 1 399 418 419
791 2 2 0 1 399 419 400
792 2 2 0 1 400 419 420
793 2 2 0 1 400 420 401
794 2 2 0 1 401 420 421
795 2 2 0 1 401 421 402
796 2 2 0 1 402 421 422
797 2 2 0 1 402 422 403
798 2 2 0 1 403 422 423
799 2 2 0 1 403 423 404
800 2 2 0 1 404 423 424
801 2 2 0 1 404 424 49
802 2 2 0 1 49 424 48
803 2 2 0 1 21 22 405
804 2 2 0 1 405 22 425
805 2 2 0 1 405 425 406
806 2 2 0 1 406 425 426
807 2 2 0 1 406 426 407
808 2 2 0 1 407 426 427
809 2 2 0 1 407 427 408
810 2 2 0 1 408 427 428
811 2 2 0 1 408 428 409
812 2 2 0 1 409 428 429
813 2 2 0 1 409 429 410
814 2 2 0 1 410 429 430
815 2 2 0 1 410 430 411
816 2 2 0 1 411 430 431
817 2 2 0 1 411 431 412
818 2 2 0 1 412 431 432
819 2 2 0 1 412 432 413
820 2 2 0 1 413 432 433
821 2 2 0 1 413 433 414
822 2 2 0 1 414 433 434
823 2 2 0 1 414 434 415
824 2 2 0 1 415 434 435
825 2 2 0 1 415 435 416
826 2 2 0 1 416 435 436
827 2 2 0 1 416 436 417
828 2 2 0 1 417 436 437
829 2 2 0 1 417 437 418
830 2 2 0 1 418 437 438
831 2 2 0 1 418 438 419
832 2 2 0 1 419 438 439
833 2 2 0 1 419 439 420
834 2 2 0 1 420 439 440
835 2 2 0 1 420 440 421
836 2 2 0 1 421 440 441
837 2 2 0 1 421 441 422
838 2 2 0 1 422 441 442
839 2 2 0 1 422 442 423
840 2 2 0 1 423 442 443
841 2 2 0 1 423 443 424
842 2 2 0 1 424 443 444
843 2 2 0 1 424 444 48
844 2 2 0 1 48 444 47
845 2 2 0 1 22 23 425
846 2 2 0 1 425 23 445
847 2 2 0 1 425 445 426
848 2 2 0 1 426 445 446
849 2 2 0 1 426 446 427
850 2 2 0 1 427 446 447
851 2 2 0 1 427 447 428
852 2 2 0 1 428 447 448
853 2 2 0 1 428 448 429
854 2 2 0 1 429 448 449
855 2 2 0 1 429 449 430
856 2 2 0 1 430 449 450
857 2 2 0 1 430 450 431
858 2 2 0 1 431 450 451
859 2 2 0 1 431 451 432
860 2 2 0 1 432 451 452
861 2 2 0 1 432 452 433
862 2 2 0 1 433 452 453
863 2 2 0 1 433 453 434
864 2 2 0 1 434 453 454
865 2 2 0 1 434 454 435
866 2 2 0 1 435 454 455
867 2 2 0 1 435 455 436
868 2 2 0 1 436 455 456
869 2 2 0 1 436 456 437
870 2 2 0 1 437 456 457
871 2 2 0 1 437 457 438
872 2 2 0 1 438 457 458
873 2 2 0 1 438 458 439
874 2 2 0 1 439 458 459
875 2 2 0 1 439 459 440
876 2 2 0 1 440 459 460
877 2 2 0 1 440 460 441
878 2 2 0 1 441 460 461
879 2 2 0 1 441 461 442
880 2 2 0 1 442 461 462
881 2 2 0 1 442 462 443
882 2 2 0 1 443 462 463
883 2 2 0 1 443 463 444
884 2 2 0 1 444 463 464
885 2 2 0 1 444 464 47
886 2 2 0 1 47 464 46
887 2 2 0 1 23 24 445
888 2 2 0 1 445 24 465
889 2 2 0 1 445 465 446
890 2 2 0 1 446 465 466
891 2 2 0 1 446 466 447
892 2 2 0 1 447 466 467
893 2 2 0 1 447 467 448
894 2 2 0 1 448 467 468
895 2 2 0 1 448 468 449
896 2 2 0 1 449 468 469
897 2 2 0 1 449 469 450
898 2 2 0 1 450 469 470
899 2 2 0 1 450 470 451
900 2 2 0 1 451 470 471
901 2 2 0 1 451 471 452
902 2 2 0 1 452 471 472
903 2 2 0 1 452 472 453
904 2 2 0 1 453 472 473
905 2 2 0 1 453 473 454
906 2 2 0 1 454 473 474
907 2 2 0 1 454 474 455
908 2 2 0 1 455 474 475
909 2 2 0 1 455 475 456
910 2 2 0 1 456 475 476
911 2 2 0 1 456 476 457
912 2 2 0 1 457 476 477
913 2 2 0 1 457 477 458
914 2 2 0 1 458 477 478
915 2 2 0 1 458 478 459
916 2 2 0 1 459 478 479
917 2 2 0 1 459 479 460
918 2 2 0 1 460 479 480
919 2 2 0 1 460 480 461
920 2 2 0 1 461 480 481
921 2 2 0 1 461 481 462
922 2 2 0 1 462 481 482
923 2 2 0 1 462 482 463
924 2 2 0 1 463 482 483
925 2 2 0 1 463 483 464
926 2 2 0 1 464 483 484
927 2 2 0 1 464 484 46
928 2 2 0 1 46 484 45
929 2 2 0 1 24 2 465
930 2 2 0 1 465 2 25
931 2 2 0 1 465 25 466
932 2 2 0 1 466 25 26
933 2 2 0 1 466 26 467
934 2 2 0 1 467 26 27
935 2 2 0 1 467 27 468
936 2 2 0 1 468 27 28
937 2 2 0 1 468 28 469
938 2 2 0 1 469 28 29
939 2 2 0 1 469 29 470
940 2 2 0 1 470 29 30
941 2 2 0 1 470 30 471
942 2 2 0 1 471 30 31
943 2 2 0 1 471 31 472
944 2 2 0 1 472 31 32
945 2 2 0 1 472 32 473
946 2 2 0 1 473 32 33
947 2 2 0 1 473 33 474
948 2 2 0 1 474 33 34
949 2 2 0 1 474 34 475
950 2 2 0 1 475 34 35
951 2 2 0 1 475 35 476
952 2 2 0 1 476 35 36
953 2 2 0 1 476 36 477
954 2 2 0 1 477 36 37
955 2 2 0 1 477 37 478
956 2 2 0 1 478 37 38
957 2 2 0 1 478 38 479
958 2 2 0 1 479 38 39
959 2 2 0 1 479 39 480
960 2 2 0 1 480 39 40
961 2 2 0 1 480 40 481
962 2 2 0 1 481 40 41
963 2 2 0 1 481 41 482
964 2 2 0 1 482 41 42
965 2 2 0 1 482 42 483
966 2 2 0 1 483 42 43
967 2 2 0 1 483 43 484
968 2 2 0 1 484 43 44
969 2 2 0 1 484 44 45
970 2 2 0 1 45 44 3
$EndElements
