$MeshFormat
2.2 0 8
$EndMeshFormat
$Nodes
36
1 -0.5 -0.5 0
2 0.5 -0.5 0
3 0.5 0.5 0
4 -0.5 0.5 0
5 -0.3 -0.5 0
6 -0.09999999999999998 -0.5 0
7 0.09999999999999998 -0.5 0
8 0.3 -0.5 0
9 0.5 -0.3 0
10 0.5 -0.09999999999999998 0
11 0.5 0.09999999999999998 0
12 0.5 0.3 0
13 0.3 0.5 0
14 0.09999999999999998 0.5 0
15 -0.09999999999999998 0.5 0
16 -0.3 0.5 0
17 -0.5 0.3 0
18 -0.5 0.09999999999999998 0
19 -0.5 -0.09999999999999998 0
20 -0.5 -0.3 0
21 -0.3 -0.3 0
22 -0.3 -0.09999999999999998 0
23 -0.3 0.1 0
24 -0.3 0.3 0
25 -0.1 -0.3000000000000001 0
26 -0.09999999999999998 -0.09999999999999998 0
27 -0.09999999999999998 0.09999999999999998 0
28 -0.1 0.3 0
29 0.1 -0.3 0
30 0.09999999999999998 -0.09999999999999998 0
31 0.09999999999999998 0.09999999999999998 0
32 0.09999999999999998 0.3 0
33 0.3 -0.3 0
34 0.3 -0.09999999999999999 0
35 0.3 0.09999999999999999 0
36 0.3 0.3 0
$EndNodes
$Elements
74
1 15 2 0 1 1
2 15 2 0 2 2
3 15 2 0 3 3
4 15 2 0 4 4
5 1 2 0 1 1 5
6 1 2 0 1 5 6
7 1 2 0 1 6 7
8 1 2 0 1 7 8
9 1 2 0 1 8 2
10 1 2 0 2 2 9
11 1 2 0 2 9 10
12 1 2 0 2 10 11
13 1 2 0 2 11 12
14 1 2 0 2 12 3
15 1 2 0 3 3 13
16 1 2 0 3 13 14
17 1 2 0 3 14 15
18 1 2 0 3 15 16
19 1 2 0 3 16 4
20 1 2 0 4 4 17
21 1 2 0 4 17 18
22 1 2 0 4 18 19
23 1 2 0 4 19 20
24 1 2 0 4 20 1
25 2 2 0 1 1 5 20
26 2 2 0 1 20 5 21
27 2 2 0 1 20 21 19
28 2 2 0 1 19 21 22
29 2 2 0 1 19 22 18
30 2 2 0 1 18 22 23
31 2 2 0 1 18 23 17
32 2 2 0 1 17 23 24
33 2 2 0 1 17 24 4
34 2 2 0 1 4 24 16
35 2 2 0 1 5 6 21
36 2 2 0 1 21 6 25
37 2 2 0 1 21 25 22
38 2 2 0 1 22 25 26
39 2 2 0 1 22 26 23
40 2 2 0 1 23 26 27
41 2 2 0 1 23 27 24
42 2 2 0 1 24 27 28
43 2 2 0 1 24 28 16
44 2 2 0 1 16 28 15
45 2 2 0 1 6 7 25
46 2 2 0 1 25 7 29
47 2 2 0 1 25 29 26
48 2 2 0 1 26 29 30
49 2 2 0 1 26 30 27
50 2 2 0 1 27 30 31
51 2 2 0 1 27 31 28
52 2 2 0 1 28 31 32
53 2 2 0 1 28 32 15
54 2 2 0 1 15 32 14
55 2 2 0 1 7 8 29
56 2 2 0 1 29 8 33
57 2 2 0 1 29 33 30
58 2 2 0 1 30 33 34
59 2 2 0 1 30 34 31
60 2 2 0 1 31 34 35
61 2 2 0 1 31 35 32
62 2 2 0 1 32 35 36
63 2 2 0 1 32 36 14
64 2 2 0 1 14 36 13
65 2 2 0 1 8 2 33
66 2 2 0 1 33 2 9
67 2 2 0 1 33 9 34
68 2 2 0 1 34 9 10
69 2 2 0 1 34 10 35
70 2 2 0 1 35 10 11
71 2 2 0 1 35 11 36
72 2 2 0 1 36 11 12
73 2 2 0 1 36 12 13
74 2 2 0 1 13 12 3
$EndElements
