# vtk DataFile Version 3.0
Broken Mesh Solution
ASCII
DATASET UNSTRUCTURED_GRID

POINTS 190 float
-0.5 -0.5 0.0
0.5 -0.5 0.0
0.5 0.5 0.0
-0.5 0.5 0.0
-0.4090909090909091 -0.5 0.0
-0.3181818181818182 -0.5 0.0
-0.2272727272727273 -0.5 0.0
-0.1363636363636364 -0.5 0.0
-0.04545454545454547 -0.5 0.0
0.04545454545454541 -0.5 0.0
0.1363636363636364 -0.5 0.0
0.2272727272727273 -0.5 0.0
0.3181818181818182 -0.5 0.0
0.4090909090909091 -0.5 0.0
0.5 -0.4090909090909091 0.0
0.5 -0.3181818181818182 0.0
0.5 -0.2272727272727273 0.0
0.5 -0.1363636363636364 0.0
0.5 -0.04545454545454547 0.0
0.5 0.04545454545454541 0.0
0.5 0.1363636363636364 0.0
0.5 0.2272727272727273 0.0
0.5 0.3181818181818182 0.0
0.5 0.4090909090909091 0.0
0.4090909090909091 0.5 0.0
0.3181818181818182 0.5 0.0
0.2272727272727273 0.5 0.0
0.1363636363636364 0.5 0.0
0.04545454545454547 0.5 0.0
-0.04545454545454541 0.5 0.0
-0.1363636363636364 0.5 0.0
-0.2272727272727273 0.5 0.0
-0.3181818181818182 0.5 0.0
-0.4090909090909091 0.5 0.0
-0.5 0.4090909090909091 0.0
-0.5 0.3181818181818182 0.0
-0.5 0.2272727272727273 0.0
-0.5 0.1363636363636364 0.0
-0.5 0.04545454545454547 0.0
-0.5 -0.04545454545454541 0.0
-0.5 -0.1363636363636364 0.0
-0.5 -0.2272727272727273 0.0
-0.5 -0.3181818181818182 0.0
-0.5 -0.4090909090909091 0.0
-0.4090909090909091 -0.4090909090909091 0.0
-0.4090909090909091 -0.3181818181818182 0.0
-0.4090909090909091 -0.2272727272727273 0.0
-0.4090909090909091 -0.1363636363636364 0.0
-0.4090909090909091 -0.04545454545454539 0.0
-0.4090909090909091 0.04545454545454547 0.0
-0.4090909090909091 0.1363636363636364 0.0
-0.4090909090909091 0.2272727272727273 0.0
-0.4090909090909091 0.3181818181818182 0.0
-0.4090909090909091 0.4090909090909091 0.0
-0.3181818181818181 -0.4090909090909091 0.0
-0.3181818181818181 -0.3181818181818182 0.0
-0.3181818181818182 -0.2272727272727273 0.0
-0.3181818181818182 -0.1363636363636364 0.0
-0.3181818181818181 -0.04545454545454541 0.0
-0.3181818181818182 0.04545454545454544 0.0
-0.3181818181818182 0.1363636363636364 0.0
-0.3181818181818182 0.2272727272727273 0.0
-0.3181818181818182 0.3181818181818182 0.0
-0.3181818181818182 0.4090909090909091 0.0
-0.2272727272727272 -0.4090909090909091 0.0
-0.2272727272727273 -0.3181818181818182 0.0
-0.2272727272727273 -0.2272727272727273 0.0
-0.2272727272727273 -0.1363636363636364 0.0
-0.2272727272727273 -0.04545454545454541 0.0
-0.2272727272727273 0.0454545454545455 0.0
-0.2272727272727273 0.1363636363636364 0.0
-0.2272727272727273 0.2272727272727273 0.0
-0.2272727272727273 0.3181818181818182 0.0
-0.2272727272727273 0.4090909090909091 0.0
-0.1363636363636364 -0.4090909090909091 0.0
-0.1363636363636364 -0.3181818181818182 0.0
-0.1363636363636364 -0.2272727272727273 0.0
-0.1363636363636364 -0.1363636363636364 0.0
-0.1363636363636364 -0.04545454545454541 0.0
-0.1363636363636364 0.04545454545454544 0.0
-0.1363636363636364 0.1363636363636364 0.0
-0.1363636363636364 0.2272727272727273 0.0
-0.1363636363636364 0.3181818181818182 0.0
-0.1363636363636364 0.4090909090909091 0.0
-0.04545454545454546 -0.4090909090909091 0.0
-0.04545454545454548 -0.3181818181818182 0.0
-0.04545454545454548 -0.2272727272727273 0.0
-0.04545454545454547 -0.1363636363636364 0.0
-0.04545454545454544 -0.0454545454545454 0.0
-0.04545454545454544 0.04545454545454546 0.0
-0.04545454545454547 0.1363636363636364 0.0
-0.04545454545454546 0.2272727272727273 0.0
-0.04545454545454541 0.3181818181818182 0.0
-0.04545454545454541 0.4090909090909091 0.0
0.04545454545454541 -0.4090909090909091 0.0
0.04545454545454539 -0.3181818181818182 0.0
0.04545454545454546 -0.2272727272727273 0.0
0.04545454545454546 -0.1363636363636364 0.0
0.04545454545454546 -0.0454545454545454 0.0
0.04545454545454544 0.04545454545454544 0.0
0.04545454545454547 0.1363636363636364 0.0
0.04545454545454548 0.2272727272727273 0.0
0.04545454545454543 0.3181818181818182 0.0
0.04545454545454544 0.4090909090909091 0.0
0.1363636363636364 -0.4090909090909091 0.0
0.1363636363636364 -0.3181818181818182 0.0
0.1363636363636364 -0.2272727272727273 0.0
0.1363636363636364 -0.1363636363636364 0.0
0.1363636363636364 -0.04545454545454547 0.0
0.1363636363636364 0.04545454545454546 0.0
0.1363636363636364 0.1363636363636364 0.0
0.1363636363636364 0.2272727272727273 0.0
0.1363636363636364 0.3181818181818182 0.0
0.1363636363636364 0.4090909090909091 0.0
0.2272727272727272 -0.4090909090909091 0.0
0.2272727272727273 -0.3181818181818182 0.0
0.2272727272727273 -0.2272727272727273 0.0
0.2272727272727273 -0.1363636363636364 0.0
0.2272727272727273 -0.04545454545454548 0.0
0.2272727272727273 0.04545454545454543 0.0
0.2272727272727273 0.1363636363636364 0.0
0.2272727272727273 0.2272727272727273 0.0
0.2272727272727273 0.3181818181818182 0.0
0.2272727272727273 0.4090909090909091 0.0
0.3181818181818182 -0.4090909090909089 0.0
0.3181818181818183 -0.3181818181818182 0.0
0.3181818181818182 -0.2272727272727273 0.0
0.3181818181818182 -0.1363636363636364 0.0
0.3181818181818181 -0.04545454545454548 0.0
0.3181818181818183 0.04545454545454541 0.0
0.3181818181818182 0.1363636363636364 0.0
0.3181818181818182 0.2272727272727273 0.0
0.3181818181818182 0.3181818181818182 0.0
0.3181818181818182 0.4090909090909091 0.0
0.4090909090909091 -0.4090909090909091 0.0
0.4090909090909091 -0.3181818181818182 0.0
0.4090909090909091 -0.2272727272727273 0.0
0.4090909090909091 -0.1363636363636364 0.0
0.4090909090909091 -0.04545454545454546 0.0
0.4090909090909091 0.04545454545454541 0.0
0.4090909090909091 0.1363636363636364 0.0
0.4090909090909091 0.2272727272727273 0.0
0.4090909090909091 0.3181818181818182 0.0
0.4090909090909091 0.4090909090909091 0.0
-2.7755575615628914e-17 -0.5 0.0
-2.7755575615628914e-17 -0.4545454545454546 0.0
-2.7755575615628914e-17 -0.4090909090909091 0.0
-3.469446951953614e-17 -0.36363636363636365 0.0
-4.163336342344337e-17 -0.3181818181818182 0.0
-4.163336342344337e-17 -0.2727272727272727 0.0
-6.938893903907228e-18 -0.2272727272727273 0.0
-6.938893903907228e-18 -0.18181818181818185 0.0
-6.938893903907228e-18 -0.1363636363636364 0.0
6.938893903907228e-18 -0.09090909090909091 0.0
6.938893903907228e-18 -0.0454545454545454 0.0
6.938893903907228e-18 2.7755575615628914e-17 0.0
0.0 0.045454545454545456 0.0
-1.3877787807814457e-17 0.09090909090909093 0.0
0.0 0.1363636363636364 0.0
0.0 0.18181818181818185 0.0
6.938893903907228e-18 0.2272727272727273 0.0
3.469446951953614e-17 0.2727272727272727 0.0
1.3877787807814457e-17 0.3181818181818182 0.0
1.3877787807814457e-17 0.36363636363636365 0.0
1.3877787807814457e-17 0.4090909090909091 0.0
1.3877787807814457e-17 0.4545454545454546 0.0
2.7755575615628914e-17 0.5 0.0
-2.7755575615628914e-17 -0.5 0.0
-2.7755575615628914e-17 -0.4545454545454546 0.0
-2.7755575615628914e-17 -0.4090909090909091 0.0
-3.469446951953614e-17 -0.36363636363636365 0.0
-4.163336342344337e-17 -0.3181818181818182 0.0
-4.163336342344337e-17 -0.2727272727272727 0.0
-6.938893903907228e-18 -0.2272727272727273 0.0
-6.938893903907228e-18 -0.18181818181818185 0.0
-6.938893903907228e-18 -0.1363636363636364 0.0
6.938893903907228e-18 -0.09090909090909091 0.0
6.938893903907228e-18 -0.0454545454545454 0.0
6.938893903907228e-18 2.7755575615628914e-17 0.0
0.0 0.045454545454545456 0.0
-1.3877787807814457e-17 0.09090909090909093 0.0
0.0 0.1363636363636364 0.0
0.0 0.18181818181818185 0.0
6.938893903907228e-18 0.2272727272727273 0.0
3.469446951953614e-17 0.2727272727272727 0.0
1.3877787807814457e-17 0.3181818181818182 0.0
1.3877787807814457e-17 0.36363636363636365 0.0
1.3877787807814457e-17 0.4090909090909091 0.0
1.3877787807814457e-17 0.4545454545454546 0.0
2.7755575615628914e-17 0.5 0.0

CELLS 264 1078
3 0 4 43
3 43 4 44
3 43 44 42
3 42 44 45
3 42 45 41
3 41 45 46
3 41 46 40
3 40 46 47
3 40 47 39
3 39 47 48
3 39 48 38
3 38 48 49
3 38 49 37
3 37 49 50
3 37 50 36
3 36 50 51
3 36 51 35
3 35 51 52
3 35 52 34
3 34 52 53
3 34 53 3
3 3 53 33
3 4 5 44
3 44 5 54
3 44 54 45
3 45 54 55
3 45 55 46
3 46 55 56
3 46 56 47
3 47 56 57
3 47 57 48
3 48 57 58
3 48 58 49
3 49 58 59
3 49 59 50
3 50 59 60
3 50 60 51
3 51 60 61
3 51 61 52
3 52 61 62
3 52 62 53
3 53 62 63
3 53 63 33
3 33 63 32
3 5 6 54
3 54 6 64
3 54 64 55
3 55 64 65
3 55 65 56
3 56 65 66
3 56 66 57
3 57 66 67
3 57 67 58
3 58 67 68
3 58 68 59
3 59 68 69
3 59 69 60
3 60 69 70
3 60 70 61
3 61 70 71
3 61 71 62
3 62 71 72
3 62 72 63
3 63 72 73
3 63 73 32
3 32 73 31
3 6 7 64
3 64 7 74
3 64 74 65
3 65 74 75
3 65 75 66
3 66 75 76
3 66 76 67
3 67 76 77
3 67 77 68
3 68 77 78
3 68 78 69
3 69 78 79
3 69 79 70
3 70 79 80
3 70 80 71
3 71 80 81
3 71 81 72
3 72 81 82
3 72 82 73
3 73 82 83
3 73 83 31
3 31 83 30
3 7 8 74
3 74 8 84
3 74 84 75
3 75 84 85
3 75 85 76
3 76 85 86
3 76 86 77
3 77 86 87
3 77 87 78
3 78 87 88
3 78 88 79
3 79 88 89
3 79 89 80
3 80 89 90
3 80 90 81
3 81 90 91
3 81 91 82
3 82 91 92
3 82 92 83
3 83 92 93
3 83 93 30
3 30 93 29
3 9 10 94
3 94 10 104
3 94 104 95
3 95 104 105
3 95 105 96
3 96 105 106
3 96 106 97
3 97 106 107
3 97 107 98
3 98 107 108
3 98 108 99
3 99 108 109
3 99 109 100
3 100 109 110
3 100 110 101
3 101 110 111
3 101 111 102
3 102 111 112
3 102 112 103
3 103 112 113
3 103 113 28
3 28 113 27
3 10 11 104
3 104 11 114
3 104 114 105
3 105 114 115
3 105 115 106
3 106 115 116
3 106 116 107
3 107 116 117
3 107 117 108
3 108 117 118
3 108 118 109
3 109 118 119
3 109 119 110
3 110 119 120
3 110 120 111
3 111 120 121
3 111 121 112
3 112 121 122
3 112 122 113
3 113 122 123
3 113 123 27
3 27 123 26
3 11 12 114
3 114 12 124
3 114 124 115
3 115 124 125
3 115 125 116
3 116 125 126
3 116 126 117
3 117 126 127
3 117 127 118
3 118 127 128
3 118 128 119
3 119 128 129
3 119 129 120
3 120 129 130
3 120 130 121
3 121 130 131
3 121 131 122
3 122 131 132
3 122 132 123
3 123 132 133
3 123 133 26
3 26 133 25
3 12 13 124
3 124 13 134
3 124 134 125
3 125 134 135
3 125 135 126
3 126 135 136
3 126 136 127
3 127 136 137
3 127 137 128
3 128 137 138
3 128 138 129
3 129 138 139
3 129 139 130
3 130 139 140
3 130 140 131
3 131 140 141
3 131 141 132
3 132 141 142
3 132 142 133
3 133 142 143
3 133 143 25
3 25 143 24
3 13 1 134
3 134 1 14
3 134 14 135
3 135 14 15
3 135 15 136
3 136 15 16
3 136 16 137
3 137 16 17
3 137 17 138
3 138 17 18
3 138 18 139
3 139 18 19
3 139 19 140
3 140 19 20
3 140 20 141
3 141 20 21
3 141 21 142
3 142 21 22
3 142 22 143
3 143 22 23
3 143 23 24
3 24 23 2
3 168 167 9
4 144 145 84 8
3 145 146 84
4 169 168 9 94
3 170 169 94
4 146 147 85 84
3 147 148 85
4 171 170 94 95
3 172 171 95
4 148 149 86 85
3 149 150 86
4 173 172 95 96
3 174 173 96
4 150 151 87 86
3 151 152 87
4 175 174 96 97
3 176 175 97
4 152 153 88 87
3 153 154 88
4 177 176 97 98
3 178 177 98
4 154 155 89 88
3 155 156 89
4 179 178 98 99
3 180 179 99
4 156 157 90 89
3 157 158 90
4 181 180 99 100
3 182 181 100
4 158 159 91 90
3 159 160 91
4 183 182 100 101
3 184 183 101
4 160 161 92 91
3 161 162 92
4 185 184 101 102
3 186 185 102
4 162 163 93 92
3 163 164 93
4 187 186 102 103
3 188 187 103
4 164 165 29 93
3 165 166 29
4 189 188 103 28

CELL_TYPES 264
5
5
5
5
5
5
5
5
5
5
5
5
5
5
5
5
5
5
5
5
5
5
5
5
5
5
5
5
5
5
5
5
5
5
5
5
5
5
5
5
5
5
5
5
5
5
5
5
5
5
5
5
5
5
5
5
5
5
5
5
5
5
5
5
5
5
5
5
5
5
5
5
5
5
5
5
5
5
5
5
5
5
5
5
5
5
5
5
5
5
5
5
5
5
5
5
5
5
5
5
5
5
5
5
5
5
5
5
5
5
5
5
5
5
5
5
5
5
5
5
5
5
5
5
5
5
5
5
5
5
5
5
5
5
5
5
5
5
5
5
5
5
5
5
5
5
5
5
5
5
5
5
5
5
5
5
5
5
5
5
5
5
5
5
5
5
5
5
5
5
5
5
5
5
5
5
5
5
5
5
5
5
5
5
5
5
5
5
5
5
5
5
5
5
5
5
5
5
5
5
5
5
5
5
5
5
5
5
5
5
5
5
5
5
5
5
5
5
5
5
5
9
5
9
5
9
5
9
5
9
5
9
5
9
5
9
5
9
5
9
5
9
5
9
5
9
5
9
5
9
5
9
5
9
5
9
5
9
5
9
5
9
5
9

POINT_DATA 190
SCALARS U float
LOOKUP_TABLE default
-1.0
1.0
1.0
-1.0
-0.7520661157024794
-0.5041322314049588
-0.25619834710743816
-0.00826446280991755
0.23966942148760317
0.8760330578512396
0.9008264462809917
0.9256198347107438
0.9504132231404959
0.9752066115702479
1.0
1.0
1.0
1.0
1.0
1.0
1.0
1.0
1.0
1.0
0.9752066115702479
0.9504132231404959
0.9256198347107438
0.9008264462809917
0.8760330578512396
0.2396694214876034
-0.00826446280991755
-0.25619834710743816
-0.5041322314049588
-0.7520661157024794
-1.0
-1.0
-1.0
-1.0
-1.0
-1.0
-1.0
-1.0
-1.0
-1.0
-0.7520661157024794
-0.7520661157024796
-0.7520661157024794
-0.7520661157024793
-0.7520661157024793
-0.7520661157024793
-0.752066115702479
-0.7520661157024793
-0.7520661157024793
-0.7520661157024793
-0.5041322314049584
-0.5041322314049582
-0.5041322314049583
-0.5041322314049584
-0.5041322314049582
-0.5041322314049581
-0.5041322314049582
-0.5041322314049583
-0.5041322314049586
-0.5041322314049584
-0.2561983471074376
-0.25619834710743766
-0.25619834710743755
-0.25619834710743744
-0.2561983471074374
-0.2561983471074374
-0.25619834710743744
-0.2561983471074376
-0.25619834710743766
-0.2561983471074377
-0.008264462809917213
-0.008264462809916977
-0.008264462809916821
-0.008264462809916825
-0.00826446280991676
-0.008264462809916663
-0.008264462809916688
-0.008264462809916787
-0.008264462809916967
-0.00826446280991716
0.23966942148760353
0.23966942148760384
0.23966942148760417
0.23966942148760384
0.2396694214876041
0.23966942148760445
0.2396694214876043
0.2396694214876043
0.2396694214876043
0.23966942148760406
0.8760330578512405
0.876033057851241
0.8760330578512415
0.8760330578512415
0.876033057851241
0.876033057851241
0.8760330578512411
0.8760330578512413
0.8760330578512407
0.8760330578512404
0.9008264462809925
0.9008264462809928
0.9008264462809932
0.9008264462809931
0.9008264462809928
0.900826446280993
0.9008264462809932
0.9008264462809931
0.9008264462809927
0.9008264462809922
0.9256198347107442
0.9256198347107442
0.9256198347107445
0.9256198347107449
0.9256198347107446
0.9256198347107447
0.9256198347107447
0.9256198347107452
0.9256198347107445
0.925619834710744
0.9504132231404959
0.950413223140496
0.9504132231404965
0.9504132231404966
0.9504132231404961
0.9504132231404965
0.9504132231404964
0.9504132231404965
0.9504132231404961
0.9504132231404961
0.9752066115702481
0.9752066115702481
0.9752066115702483
0.9752066115702483
0.9752066115702482
0.9752066115702481
0.9752066115702482
0.9752066115702483
0.9752066115702481
0.9752066115702479
0.36363636363636354
0.36363636363636387
0.3636363636363638
0.363636363636364
0.3636363636363645
0.3636363636363648
0.36363636363636453
0.36363636363636415
0.363636363636364
0.36363636363636404
0.3636363636363642
0.3636363636363645
0.363636363636365
0.36363636363636515
0.36363636363636453
0.36363636363636465
0.3636363636363647
0.3636363636363646
0.3636363636363644
0.3636363636363643
0.36363636363636453
0.36363636363636426
0.36363636363636354
0.8636363636363636
0.8636363636363643
0.8636363636363648
0.8636363636363648
0.863636363636365
0.8636363636363654
0.8636363636363654
0.8636363636363652
0.8636363636363655
0.8636363636363652
0.8636363636363652
0.8636363636363651
0.8636363636363649
0.8636363636363649
0.8636363636363651
0.8636363636363651
0.8636363636363648
0.8636363636363649
0.863636363636365
0.8636363636363645
0.8636363636363643
0.863636363636364
0.8636363636363636
