$MeshFormat
2.2 0 8
$EndMeshFormat
$PhysicalNames
5
1 2 "bottom"
1 3 "right "
1 4 "top   "
1 5 "left  "
2 1 "domain"
$EndPhysicalNames
$Nodes
1089
1 -0.5 -0.5 0
2 0.5 -0.5 0
3 0.5 0.5 0
4 -0.5 0.5 0
5 -0.4687500000000867 -0.5 0
6 -0.4375000000001733 -0.5 0
7 -0.4062500000002599 -0.5 0
8 -0.3750000000003466 -0.5 0
9 -0.3437500000004333 -0.5 0
10 -0.31250000000052 -0.5 0
11 -0.2812500000006066 -0.5 0
12 -0.2500000000006933 -0.5 0
13 -0.2187500000007799 -0.5 0
14 -0.1875000000008665 -0.5 0
15 -0.1562500000009531 -0.5 0
16 -0.1250000000010397 -0.5 0
17 -0.09375000000112627 -0.5 0
18 -0.06250000000121281 -0.5 0
19 -0.03125000000129941 -0.5 0
20 -1.375122238300719e-12 -0.5 0
21 0.03124999999870071 -0.5 0
22 0.0624999999987873 -0.5 0
23 0.0937499999988739 -0.5 0
24 0.1249999999989605 -0.5 0
25 0.1562499999990472 -0.5 0
26 0.1874999999991338 -0.5 0
27 0.2187499999992204 -0.5 0
28 0.249999999999307 -0.5 0
29 0.2812499999993936 -0.5 0
30 0.3124999999994802 -0.5 0
31 0.3437499999995668 -0.5 0
32 0.3749999999996535 -0.5 0
33 0.4062499999997401 -0.5 0
34 0.4374999999998267 -0.5 0
35 0.4687499999999133 -0.5 0
36 0.5 -0.4687500000000867 0
37 0.5 -0.4375000000001733 0
38 0.5 -0.4062500000002599 0
39 0.5 -0.3750000000003466 0
40 0.5 -0.3437500000004333 0
41 0.5 -0.31250000000052 0
42 0.5 -0.2812500000006066 0
43 0.5 -0.2500000000006933 0
44 0.5 -0.2187500000007799 0
45 0.5 -0.1875000000008665 0
46 0.5 -0.1562500000009531 0
47 0.5 -0.1250000000010397 0
48 0.5 -0.09375000000112627 0
49 0.5 -0.06250000000121281 0
50 0.5 -0.03125000000129941 0
51 0.5 -1.375122238300719e-12 0
52 0.5 0.03124999999870071 0
53 0.5 0.0624999999987873 0
54 0.5 0.0937499999988739 0
55 0.5 0.1249999999989605 0
56 0.5 0.1562499999990472 0
57 0.5 0.1874999999991338 0
58 0.5 0.2187499999992204 0
59 0.5 0.249999999999307 0
60 0.5 0.2812499999993936 0
61 0.5 0.3124999999994802 0
62 0.5 0.3437499999995668 0
63 0.5 0.3749999999996535 0
64 0.5 0.4062499999997401 0
65 0.5 0.4374999999998267 0
66 0.5 0.4687499999999133 0
67 0.4687500000000867 0.5 0
68 0.4375000000001733 0.5 0
69 0.4062500000002599 0.5 0
70 0.3750000000003466 0.5 0
71 0.3437500000004333 0.5 0
72 0.31250000000052 0.5 0
73 0.2812500000006066 0.5 0
74 0.2500000000006933 0.5 0
75 0.2187500000007799 0.5 0
76 0.1875000000008665 0.5 0
77 0.1562500000009531 0.5 0
78 0.1250000000010397 0.5 0
79 0.09375000000112627 0.5 0
80 0.06250000000121281 0.5 0
81 0.03125000000129941 0.5 0
82 1.375122238300719e-12 0.5 0
83 -0.03124999999870071 0.5 0
84 -0.0624999999987873 0.5 0
85 -0.0937499999988739 0.5 0
86 -0.1249999999989605 0.5 0
87 -0.1562499999990472 0.5 0
88 -0.1874999999991338 0.5 0
89 -0.2187499999992204 0.5 0
90 -0.249999999999307 0.5 0
91 -0.2812499999993936 0.5 0
92 -0.3124999999994802 0.5 0
93 -0.3437499999995668 0.5 0
94 -0.3749999999996535 0.5 0
95 -0.4062499999997401 0.5 0
96 -0.4374999999998267 0.5 0
97 -0.4687499999999133 0.5 0
98 -0.5 0.4687500000000867 0
99 -0.5 0.4375000000001733 0
100 -0.5 0.4062500000002599 0
101 -0.5 0.3750000000003466 0
102 -0.5 0.3437500000004333 0
103 -0.5 0.31250000000052 0
104 -0.5 0.2812500000006066 0
105 -0.5 0.2500000000006933 0
106 -0.5 0.2187500000007799 0
107 -0.5 0.1875000000008665 0
108 -0.5 0.1562500000009531 0
109 -0.5 0.1250000000010397 0
110 -0.5 0.09375000000112627 0
111 -0.5 0.06250000000121281 0
112 -0.5 0.03125000000129941 0
113 -0.5 1.375122238300719e-12 0
114 -0.5 -0.03124999999870071 0
115 -0.5 -0.0624999999987873 0
116 -0.5 -0.0937499999988739 0
117 -0.5 -0.1249999999989605 0
118 -0.5 -0.1562499999990472 0
119 -0.5 -0.1874999999991338 0
120 -0.5 -0.2187499999992204 0
121 -0.5 -0.249999999999307 0
122 -0.5 -0.2812499999993936 0
123 -0.5 -0.3124999999994802 0
124 -0.5 -0.3437499999995668 0
125 -0.5 -0.3749999999996535 0
126 -0.5 -0.4062499999997401 0
127 -0.5 -0.4374999999998267 0
128 -0.5 -0.4687499999999133 0
129 -0.4687500000000813 -0.4687499999999187 0
130 -0.4687500000000759 -0.4374999999998374 0
131 -0.4687500000000704 -0.4062499999997564 0
132 -0.468750000000065 -0.3749999999996752 0
133 -0.4687500000000596 -0.3437499999995939 0
134 -0.4687500000000541 -0.3124999999995126 0
135 -0.4687500000000487 -0.2812499999994315 0
136 -0.4687500000000434 -0.2499999999993502 0
137 -0.4687500000000379 -0.2187499999992691 0
138 -0.4687500000000324 -0.187499999999188 0
139 -0.468750000000027 -0.1562499999991067 0
140 -0.4687500000000216 -0.1249999999990254 0
141 -0.4687500000000162 -0.0937499999989444 0
142 -0.4687500000000108 -0.0624999999988631 0
143 -0.4687500000000054 -0.03124999999878189 0
144 -0.46875 1.289190976194732e-12 0
145 -0.4687499999999946 0.03125000000121825 0
146 -0.4687499999999891 0.06250000000113698 0
147 -0.4687499999999837 0.09375000000105596 0
148 -0.4687499999999784 0.1250000000009746 0
149 -0.468749999999973 0.1562500000008935 0
150 -0.4687499999999675 0.1875000000008125 0
151 -0.468749999999962 0.2187500000007312 0
152 -0.4687499999999566 0.2500000000006499 0
153 -0.4687499999999513 0.2812500000005687 0
154 -0.4687499999999458 0.3125000000004874 0
155 -0.4687499999999403 0.3437500000004061 0
156 -0.4687499999999349 0.375000000000325 0
157 -0.4687499999999295 0.4062500000002437 0
158 -0.4687499999999242 0.4375000000001623 0
159 -0.4687499999999187 0.468750000000081 0
160 -0.4375000000001625 -0.4687499999999242 0
161 -0.4375000000001517 -0.4374999999998483 0
162 -0.4375000000001408 -0.4062499999997726 0
163 -0.4375000000001299 -0.3749999999996968 0
164 -0.437500000000119 -0.343749999999621 0
165 -0.4375000000001082 -0.3124999999995453 0
166 -0.4375000000000975 -0.2812499999994694 0
167 -0.4375000000000866 -0.2499999999993936 0
168 -0.4375000000000758 -0.2187499999993179 0
169 -0.4375000000000649 -0.187499999999242 0
170 -0.4375000000000542 -0.1562499999991665 0
171 -0.4375000000000433 -0.1249999999990905 0
172 -0.4375000000000325 -0.09374999999901476 0
173 -0.4375000000000216 -0.06249999999893885 0
174 -0.4375000000000109 -0.03124999999886313 0
175 -0.4375 1.203259714088745e-12 0
176 -0.4374999999999891 0.03125000000113695 0
177 -0.4374999999999784 0.06250000000106126 0
178 -0.4374999999999675 0.09375000000098535 0
179 -0.4374999999999567 0.1250000000009096 0
180 -0.4374999999999458 0.1562500000008338 0
181 -0.4374999999999349 0.1875000000007583 0
182 -0.4374999999999242 0.2187500000006823 0
183 -0.4374999999999135 0.2500000000006066 0
184 -0.4374999999999025 0.2812500000005309 0
185 -0.4374999999998916 0.312500000000455 0
186 -0.4374999999998809 0.343750000000379 0
187 -0.4374999999998699 0.3750000000003034 0
188 -0.4374999999998592 0.4062500000002275 0
189 -0.4374999999998483 0.4375000000001515 0
190 -0.4374999999998376 0.4687500000000756 0
191 -0.4062500000002437 -0.4687499999999296 0
192 -0.4062500000002275 -0.4374999999998592 0
193 -0.4062500000002112 -0.4062499999997888 0
194 -0.406250000000195 -0.3749999999997184 0
195 -0.4062500000001786 -0.3437499999996481 0
196 -0.4062500000001624 -0.3124999999995777 0
197 -0.4062500000001462 -0.2812499999995073 0
198 -0.4062500000001299 -0.2499999999994369 0
199 -0.4062500000001137 -0.2187499999993666 0
200 -0.4062500000000975 -0.1874999999992963 0
201 -0.4062500000000813 -0.156249999999226 0
202 -0.4062500000000651 -0.1249999999991556 0
203 -0.4062500000000487 -0.09374999999908518 0
204 -0.4062500000000325 -0.06249999999901482 0
205 -0.4062500000000162 -0.03124999999894437 0
206 -0.40625 1.117328451982758e-12 0
207 -0.4062499999999838 0.03125000000105591 0
208 -0.4062499999999675 0.06250000000098532 0
209 -0.4062499999999513 0.09375000000091513 0
210 -0.4062499999999351 0.1250000000008445 0
211 -0.4062499999999187 0.1562500000007742 0
212 -0.4062499999999025 0.1875000000007041 0
213 -0.4062499999998863 0.2187500000006337 0
214 -0.4062499999998701 0.2500000000005633 0
215 -0.4062499999998538 0.2812500000004929 0
216 -0.4062499999998376 0.3125000000004226 0
217 -0.4062499999998213 0.343750000000352 0
218 -0.406249999999805 0.3750000000002817 0
219 -0.4062499999997888 0.4062500000002111 0
220 -0.4062499999997727 0.4375000000001409 0
221 -0.4062499999997565 0.4687500000000703 0
222 -0.3750000000003249 -0.468749999999935 0
223 -0.3750000000003034 -0.43749999999987 0
224 -0.3750000000002816 -0.406249999999805 0
225 -0.3750000000002601 -0.3749999999997402 0
226 -0.3750000000002384 -0.3437499999996751 0
227 -0.3750000000002166 -0.3124999999996101 0
228 -0.375000000000195 -0.2812499999995453 0
229 -0.3750000000001733 -0.2499999999994802 0
230 -0.3750000000001517 -0.2187499999994154 0
231 -0.3750000000001301 -0.1874999999993504 0
232 -0.3750000000001084 -0.1562499999992853 0
233 -0.3750000000000867 -0.1249999999992204 0
234 -0.3750000000000651 -0.09374999999915559 0
235 -0.3750000000000434 -0.06249999999909048 0
236 -0.3750000000000216 -0.03124999999902559 0
237 -0.375 1.031369434301155e-12 0
238 -0.3749999999999785 0.03125000000097469 0
239 -0.3749999999999567 0.06250000000090963 0
240 -0.3749999999999351 0.09375000000084444 0
241 -0.3749999999999134 0.1250000000007797 0
242 -0.3749999999998918 0.1562500000007148 0
243 -0.3749999999998701 0.1875000000006499 0
244 -0.3749999999998485 0.2187500000005851 0
245 -0.3749999999998269 0.25000000000052 0
246 -0.374999999999805 0.281250000000455 0
247 -0.3749999999997836 0.3125000000003901 0
248 -0.3749999999997617 0.3437500000003249 0
249 -0.3749999999997401 0.3750000000002599 0
250 -0.3749999999997184 0.4062500000001951 0
251 -0.3749999999996968 0.43750000000013 0
252 -0.3749999999996751 0.4687500000000649 0
253 -0.3437500000004063 -0.4687499999999403 0
254 -0.3437500000003791 -0.4374999999998808 0
255 -0.3437500000003522 -0.4062499999998212 0
256 -0.3437500000003249 -0.3749999999997617 0
257 -0.3437500000002979 -0.3437499999997022 0
258 -0.3437500000002708 -0.3124999999996428 0
259 -0.3437500000002437 -0.2812499999995831 0
260 -0.3437500000002167 -0.2499999999995237 0
261 -0.3437500000001896 -0.2187499999994642 0
262 -0.3437500000001625 -0.1874999999994047 0
263 -0.3437500000001354 -0.1562499999993449 0
264 -0.3437500000001083 -0.1249999999992855 0
265 -0.3437500000000813 -0.09374999999922573 0
266 -0.3437500000000542 -0.06249999999916622 0
267 -0.3437500000000271 -0.03124999999910671 0
268 -0.34375 9.453826610439364e-13 0
269 -0.3437499999999729 0.0312500000008934 0
270 -0.3437499999999458 0.06250000000083386 0
271 -0.3437499999999187 0.09375000000077438 0
272 -0.3437499999998918 0.1250000000007148 0
273 -0.3437499999998647 0.1562500000006553 0
274 -0.3437499999998376 0.1875000000005957 0
275 -0.3437499999998105 0.2187500000005363 0
276 -0.3437499999997835 0.2500000000004767 0
277 -0.3437499999997563 0.281250000000417 0
278 -0.3437499999997293 0.3125000000003575 0
279 -0.3437499999997022 0.3437500000002978 0
280 -0.3437499999996751 0.3750000000002381 0
281 -0.3437499999996481 0.4062500000001786 0
282 -0.343749999999621 0.4375000000001191 0
283 -0.3437499999995939 0.4687500000000596 0
284 -0.3125000000004875 -0.4687499999999458 0
285 -0.312500000000455 -0.4374999999998916 0
286 -0.3125000000004226 -0.4062499999998376 0
287 -0.31250000000039 -0.3749999999997835 0
288 -0.3125000000003575 -0.3437499999997292 0
289 -0.3125000000003249 -0.3124999999996751 0
290 -0.3125000000002925 -0.281249999999621 0
291 -0.3125000000002601 -0.2499999999995668 0
292 -0.3125000000002277 -0.2187499999995127 0
293 -0.3125000000001951 -0.1874999999994587 0
294 -0.3125000000001625 -0.1562499999994044 0
295 -0.3125000000001301 -0.1249999999993503 0
296 -0.3125000000000976 -0.09374999999929631 0
297 -0.3125000000000651 -0.06249999999924211 0
298 -0.3125000000000326 -0.03124999999918801 0
299 -0.3125000000000001 8.592848654842555e-13 0
300 -0.3124999999999676 0.0312500000008121 0
301 -0.3124999999999352 0.06250000000075787 0
302 -0.3124999999999026 0.0937500000007038 0
303 -0.3124999999998701 0.1250000000006498 0
304 -0.3124999999998377 0.1562500000005957 0
305 -0.312499999999805 0.1875000000005416 0
306 -0.3124999999997726 0.2187500000004874 0
307 -0.3124999999997402 0.2500000000004334 0
308 -0.3124999999997075 0.2812500000003793 0
309 -0.3124999999996751 0.3125000000003252 0
310 -0.3124999999996428 0.3437500000002708 0
311 -0.3124999999996101 0.3750000000002167 0
312 -0.3124999999995777 0.4062500000001625 0
313 -0.3124999999995453 0.4375000000001084 0
314 -0.3124999999995126 0.4687500000000542 0
315 -0.2812500000005688 -0.4687499999999513 0
316 -0.2812500000005308 -0.4374999999999025 0
317 -0.2812500000004931 -0.4062499999998538 0
318 -0.281250000000455 -0.374999999999805 0
319 -0.2812500000004172 -0.3437499999997563 0
320 -0.2812500000003791 -0.3124999999997076 0
321 -0.2812500000003412 -0.2812499999996589 0
322 -0.2812500000003033 -0.2499999999996103 0
323 -0.2812500000002655 -0.2187499999995615 0
324 -0.2812500000002277 -0.1874999999995128 0
325 -0.2812500000001896 -0.1562499999994643 0
326 -0.2812500000001518 -0.1249999999994154 0
327 -0.2812500000001139 -0.09374999999936673 0
328 -0.2812500000000759 -0.06249999999931791 0
329 -0.281250000000038 -0.03124999999926922 0
330 -0.2812500000000002 7.734923812563466e-13 0
331 -0.2812499999999623 0.03125000000073086 0
332 -0.2812499999999243 0.06250000000068223 0
333 -0.2812499999998864 0.0937500000006336 0
334 -0.2812499999998486 0.1250000000005847 0
335 -0.2812499999998106 0.1562500000005362 0
336 -0.2812499999997726 0.1875000000004874 0
337 -0.2812499999997348 0.218750000000439 0
338 -0.2812499999996969 0.2500000000003901 0
339 -0.2812499999996589 0.2812500000003413 0
340 -0.2812499999996211 0.3125000000002924 0
341 -0.2812499999995831 0.3437500000002436 0
342 -0.2812499999995453 0.3750000000001951 0
343 -0.2812499999995073 0.4062500000001462 0
344 -0.2812499999994694 0.4375000000000974 0
345 -0.2812499999994316 0.4687500000000487 0
346 -0.25000000000065 -0.4687499999999567 0
347 -0.2500000000006067 -0.4374999999999135 0
348 -0.2500000000005633 -0.4062499999998702 0
349 -0.25000000000052 -0.3749999999998269 0
350 -0.2500000000004767 -0.3437499999997834 0
351 -0.2500000000004334 -0.3124999999997402 0
352 -0.2500000000003901 -0.2812499999996969 0
353 -0.2500000000003467 -0.2499999999996536 0
354 -0.2500000000003034 -0.2187499999996103 0
355 -0.25000000000026 -0.187499999999567 0
356 -0.2500000000002168 -0.1562499999995238 0
357 -0.2500000000001734 -0.1249999999994804 0
358 -0.2500000000001301 -0.09374999999943689 0
359 -0.2500000000000868 -0.0624999999993936 0
360 -0.2500000000000435 -0.03124999999935041 0
361 -0.2500000000000002 6.875333635747438e-13 0
362 -0.2499999999999568 0.03125000000064959 0
363 -0.2499999999999135 0.06250000000060651 0
364 -0.2499999999998702 0.09375000000056302 0
365 -0.2499999999998269 0.1250000000005199 0
366 -0.2499999999997835 0.1562500000004767 0
367 -0.2499999999997402 0.1875000000004332 0
368 -0.2499999999996969 0.2187500000003901 0
369 -0.2499999999996536 0.2500000000003468 0
370 -0.2499999999996103 0.2812500000003033 0
371 -0.249999999999567 0.31250000000026 0
372 -0.2499999999995236 0.3437500000002165 0
373 -0.2499999999994803 0.3750000000001732 0
374 -0.2499999999994369 0.4062500000001298 0
375 -0.2499999999993936 0.4375000000000867 0
376 -0.2499999999993503 0.4687500000000432 0
377 -0.2187500000007312 -0.468749999999962 0
378 -0.2187500000006825 -0.4374999999999242 0
379 -0.2187500000006337 -0.4062499999998863 0
380 -0.2187500000005851 -0.3749999999998483 0
381 -0.2187500000005363 -0.3437499999998105 0
382 -0.2187500000004876 -0.3124999999997726 0
383 -0.2187500000004388 -0.2812499999997348 0
384 -0.21875000000039 -0.2499999999996969 0
385 -0.2187500000003413 -0.2187499999996591 0
386 -0.2187500000002925 -0.1874999999996211 0
387 -0.2187500000002439 -0.1562499999995833 0
388 -0.2187500000001951 -0.1249999999995452 0
389 -0.2187500000001465 -0.09374999999950751 0
390 -0.2187500000000976 -0.06249999999946942 0
391 -0.2187500000000488 -0.03124999999943159 0
392 -0.2187500000000001 6.016298570443723e-13 0
393 -0.2187499999999515 0.03125000000056855 0
394 -0.2187499999999027 0.06250000000053058 0
395 -0.218749999999854 0.09375000000049284 0
396 -0.2187499999998052 0.1250000000004549 0
397 -0.2187499999997565 0.156250000000417 0
398 -0.2187499999997078 0.1875000000003793 0
399 -0.2187499999996591 0.2187500000003413 0
400 -0.2187499999996103 0.2500000000003035 0
401 -0.2187499999995616 0.2812500000002656 0
402 -0.2187499999995128 0.3125000000002276 0
403 -0.2187499999994641 0.3437500000001896 0
404 -0.2187499999994154 0.3750000000001515 0
405 -0.2187499999993666 0.4062500000001138 0
406 -0.2187499999993179 0.4375000000000758 0
407 -0.2187499999992691 0.4687500000000379 0
408 -0.1875000000008123 -0.4687499999999675 0
409 -0.1875000000007582 -0.4374999999999349 0
410 -0.187500000000704 -0.4062499999999025 0
411 -0.1875000000006499 -0.3749999999998701 0
412 -0.1875000000005958 -0.3437499999998375 0
413 -0.1875000000005417 -0.312499999999805 0
414 -0.1875000000004875 -0.2812499999997726 0
415 -0.1875000000004333 -0.2499999999997402 0
416 -0.1875000000003793 -0.2187499999997078 0
417 -0.1875000000003251 -0.1874999999996752 0
418 -0.1875000000002709 -0.1562499999996427 0
419 -0.1875000000002168 -0.1249999999996103 0
420 -0.1875000000001626 -0.09374999999957789 0
421 -0.1875000000001085 -0.06249999999954525 0
422 -0.1875000000000543 -0.03124999999951283 0
423 -0.1875000000000002 5.156985949383852e-13 0
424 -0.187499999999946 0.0312500000004875 0
425 -0.1874999999998919 0.06250000000045486 0
426 -0.1874999999998377 0.09375000000042222 0
427 -0.1874999999997836 0.1250000000003898 0
428 -0.1874999999997294 0.1562500000003575 0
429 -0.1874999999996753 0.1875000000003251 0
430 -0.1874999999996212 0.2187500000002924 0
431 -0.187499999999567 0.25000000000026 0
432 -0.1874999999995128 0.2812500000002276 0
433 -0.1874999999994588 0.3125000000001952 0
434 -0.1874999999994046 0.3437500000001625 0
435 -0.1874999999993504 0.3750000000001301 0
436 -0.1874999999992963 0.4062500000000974 0
437 -0.1874999999992421 0.4375000000000649 0
438 -0.187499999999188 0.4687500000000325 0
439 -0.1562500000008935 -0.4687499999999729 0
440 -0.1562500000008339 -0.4374999999999458 0
441 -0.1562500000007745 -0.4062499999999186 0
442 -0.1562500000007148 -0.3749999999998918 0
443 -0.1562500000006553 -0.3437499999998647 0
444 -0.1562500000005958 -0.3124999999998378 0
445 -0.1562500000005361 -0.2812499999998106 0
446 -0.1562500000004766 -0.2499999999997835 0
447 -0.156250000000417 -0.2187499999997564 0
448 -0.1562500000003575 -0.1874999999997294 0
449 -0.156250000000298 -0.1562499999997025 0
450 -0.1562500000002384 -0.1249999999996752 0
451 -0.1562500000001787 -0.09374999999964828 0
452 -0.1562500000001192 -0.06249999999962103 0
453 -0.1562500000000597 -0.03124999999959399 0
454 -0.1562500000000002 4.296840661055512e-13 0
455 -0.1562499999999407 0.03125000000040637 0
456 -0.156249999999881 0.06250000000037916 0
457 -0.1562499999998215 0.09375000000035208 0
458 -0.1562499999997619 0.1250000000003249 0
459 -0.1562499999997024 0.1562500000002977 0
460 -0.1562499999996427 0.1875000000002709 0
461 -0.1562499999995832 0.2187500000002438 0
462 -0.1562499999995237 0.2500000000002167 0
463 -0.1562499999994642 0.2812500000001896 0
464 -0.1562499999994045 0.3125000000001626 0
465 -0.156249999999345 0.3437500000001355 0
466 -0.1562499999992854 0.3750000000001086 0
467 -0.156249999999226 0.4062500000000815 0
468 -0.1562499999991664 0.4375000000000544 0
469 -0.1562499999991067 0.4687500000000273 0
470 -0.1250000000009746 -0.4687499999999784 0
471 -0.1250000000009097 -0.4374999999999567 0
472 -0.1250000000008447 -0.4062499999999351 0
473 -0.1250000000007798 -0.3749999999999134 0
474 -0.1250000000007148 -0.3437499999998918 0
475 -0.1250000000006498 -0.3124999999998701 0
476 -0.1250000000005849 -0.2812499999998485 0
477 -0.1250000000005198 -0.2499999999998269 0
478 -0.125000000000455 -0.2187499999998052 0
479 -0.12500000000039 -0.1874999999997836 0
480 -0.125000000000325 -0.1562499999997619 0
481 -0.12500000000026 -0.1249999999997402 0
482 -0.1250000000001951 -0.0937499999997187 0
483 -0.1250000000001301 -0.06249999999969694 0
484 -0.125000000000065 -0.03124999999967518 0
485 -0.125 3.437250484239485e-13 0
486 -0.1249999999999351 0.0312500000003251 0
487 -0.1249999999998701 0.06250000000030323 0
488 -0.1249999999998051 0.09375000000028147 0
489 -0.1249999999997402 0.12500000000026 0
490 -0.1249999999996752 0.1562500000002383 0
491 -0.1249999999996103 0.1875000000002167 0
492 -0.1249999999995453 0.2187500000001952 0
493 -0.1249999999994804 0.2500000000001734 0
494 -0.1249999999994152 0.2812500000001517 0
495 -0.1249999999993503 0.3125000000001301 0
496 -0.1249999999992854 0.3437500000001083 0
497 -0.1249999999992204 0.3750000000000868 0
498 -0.1249999999991554 0.4062500000000651 0
499 -0.1249999999990905 0.4375000000000433 0
500 -0.1249999999990254 0.4687500000000215 0
501 -0.09375000000105585 -0.4687499999999837 0
502 -0.09375000000098553 -0.4374999999999675 0
503 -0.09375000000091509 -0.4062499999999513 0
504 -0.0937500000008446 -0.374999999999935 0
505 -0.09375000000077435 -0.3437499999999189 0
506 -0.09375000000070402 -0.3124999999999025 0
507 -0.09375000000063351 -0.2812499999998864 0
508 -0.09375000000056312 -0.2499999999998702 0
509 -0.09375000000049274 -0.2187499999998541 0
510 -0.09375000000042237 -0.1874999999998377 0
511 -0.09375000000035195 -0.1562499999998214 0
512 -0.09375000000028157 -0.1249999999998052 0
513 -0.09375000000021129 -0.09374999999978893 0
514 -0.0937500000001408 -0.06249999999977263 0
515 -0.09375000000007042 -0.03124999999975639 0
516 -0.09375000000000003 2.57821541893577e-13 0
517 -0.09374999999992981 0.03125000000024367 0
518 -0.09374999999985925 0.06250000000022729 0
519 -0.09374999999978888 0.09375000000021141 0
520 -0.09374999999971863 0.1250000000001949 0
521 -0.09374999999964806 0.1562500000001787 0
522 -0.09374999999957785 0.1875000000001625 0
523 -0.09374999999950748 0.2187500000001463 0
524 -0.09374999999943709 0.2500000000001301 0
525 -0.09374999999936651 0.2812500000001139 0
526 -0.09374999999929631 0.3125000000000975 0
527 -0.09374999999922592 0.3437500000000813 0
528 -0.09374999999915554 0.375000000000065 0
529 -0.09374999999908512 0.4062500000000486 0
530 -0.09374999999901479 0.4375000000000326 0
531 -0.09374999999894434 0.4687500000000162 0
532 -0.06250000000113701 -0.4687499999999892 0
533 -0.06250000000106114 -0.4374999999999784 0
534 -0.06250000000098541 -0.4062499999999676 0
535 -0.06250000000090951 -0.3749999999999567 0
536 -0.06250000000083387 -0.3437499999999458 0
537 -0.06250000000075794 -0.3124999999999352 0
538 -0.06250000000068225 -0.2812499999999243 0
539 -0.06250000000060638 -0.2499999999999136 0
540 -0.06250000000053058 -0.2187499999999026 0
541 -0.06250000000045483 -0.1874999999998919 0
542 -0.06250000000037914 -0.156249999999881 0
543 -0.06250000000030327 -0.1249999999998701 0
544 -0.06250000000022748 -0.09374999999985946 0
545 -0.06250000000015166 -0.06249999999984845 0
546 -0.06250000000007583 -0.03124999999983769 0
547 -0.0625 1.718625242119742e-13 0
548 -0.06249999999992417 0.03125000000016243 0
549 -0.06249999999984845 0.06250000000015177 0
550 -0.06249999999977265 0.09375000000014067 0
551 -0.06249999999969691 0.12500000000013 0
552 -0.062499999999621 0.1562500000001192 0
553 -0.06249999999954525 0.1875000000001086 0
554 -0.06249999999946942 0.2187500000000977 0
555 -0.06249999999939357 0.2500000000000868 0
556 -0.06249999999931791 0.2812500000000759 0
557 -0.06249999999924216 0.3125000000000651 0
558 -0.06249999999916631 0.3437500000000542 0
559 -0.06249999999909048 0.3750000000000432 0
560 -0.06249999999901465 0.4062500000000325 0
561 -0.06249999999893885 0.4375000000000216 0
562 -0.06249999999886313 0.4687500000000109 0
563 -0.03125000000121815 -0.4687499999999944 0
564 -0.03125000000113697 -0.4374999999999891 0
565 -0.03125000000105581 -0.4062499999999838 0
566 -0.03125000000097466 -0.3749999999999785 0
567 -0.0312500000008934 -0.3437499999999729 0
568 -0.0312500000008121 -0.3124999999999676 0
569 -0.03125000000073085 -0.2812499999999623 0
570 -0.03125000000064968 -0.249999999999957 0
571 -0.03125000000056863 -0.2187499999999514 0
572 -0.03125000000048739 -0.187499999999946 0
573 -0.03125000000040609 -0.1562499999999407 0
574 -0.03125000000032496 -0.1249999999999351 0
575 -0.03125000000024364 -0.09374999999992982 0
576 -0.03125000000016256 -0.06249999999992427 0
577 -0.03125000000008127 -0.03124999999991884 0
578 -0.03125 8.593126210598712e-14 0
579 -0.03124999999991873 0.03125000000008116 0
580 -0.03124999999983757 0.06250000000007583 0
581 -0.03124999999975644 0.0937500000000705 0
582 -0.03124999999967515 0.1250000000000652 0
583 -0.03124999999959391 0.1562500000000597 0
584 -0.03124999999951283 0.1875000000000544 0
585 -0.03124999999943159 0.2187500000000488 0
586 -0.03124999999935033 0.2500000000000435 0
587 -0.03124999999926925 0.281250000000038 0
588 -0.03124999999918798 0.3125000000000326 0
589 -0.03124999999910669 0.3437500000000271 0
590 -0.03124999999902553 0.3750000000000219 0
591 -0.03124999999894437 0.4062500000000161 0
592 -0.03124999999886313 0.4375000000000108 0
593 -0.03124999999878189 0.4687500000000056 0
594 -1.289151944916522e-12 -0.46875 0
595 -1.203273591876552e-12 -0.4375 0
596 -1.117231307468103e-12 -0.40625 0
597 -1.031369434301155e-12 -0.3749999999999999 0
598 -9.453549054683208e-13 -0.34375 0
599 -8.594826239605169e-13 -0.3124999999999999 0
600 -7.734923812563466e-13 -0.2812500000000001 0
601 -6.875333635747438e-13 -0.2500000000000002 0
602 -6.016298570443723e-13 -0.2187500000000001 0
603 -5.156985949383852e-13 -0.1875000000000002 0
604 -4.296198813369401e-13 -0.1562500000000002 0
605 -3.438985207715461e-13 -0.1250000000000003 0
606 -2.57821541893577e-13 -0.09375000000000022 0
607 -1.718347686363586e-13 -0.06250000000000001 0
608 -8.595901768160275e-14 -0.03124999999999999 0
609 0 0 0
610 8.595901768160275e-14 0.03124999999999989 0
611 1.718902797875899e-13 0.06249999999999989 0
612 2.57821541893577e-13 0.09374999999999989 0
613 3.437250484239485e-13 0.1250000000000001 0
614 4.296840661055512e-13 0.1562500000000002 0
615 5.155598170603071e-13 0.1875000000000002 0
616 6.017686349224505e-13 0.2187500000000002 0
617 6.874500968478969e-13 0.2500000000000002 0
618 7.735756479831934e-13 0.2812500000000002 0
619 8.595069100891806e-13 0.3125000000000002 0
620 9.454381721951677e-13 0.34375 0
621 1.031258411998692e-12 0.3750000000000001 0
622 1.117328451982758e-12 0.4062500000000001 0
623 1.203259714088745e-12 0.4375000000000001 0
624 1.289218731770347e-12 0.4687500000000001 0
625 0.03124999999878199 -0.4687500000000053 0
626 0.03124999999886303 -0.4375000000000109 0
627 0.0312499999989445 -0.4062500000000162 0
628 0.03124999999902559 -0.3750000000000218 0
629 0.03124999999910683 -0.3437500000000271 0
630 0.0312499999991879 -0.3125000000000326 0
631 0.03124999999926917 -0.281250000000038 0
632 0.03124999999935041 -0.2500000000000435 0
633 0.03124999999943168 -0.218750000000049 0
634 0.0312499999995127 -0.1875000000000543 0
635 0.0312499999995941 -0.1562500000000598 0
636 0.03124999999967534 -0.1250000000000651 0
637 0.03124999999975656 -0.09375000000007039 0
638 0.0312499999998378 -0.06250000000007583 0
639 0.03124999999991884 -0.03125000000008127 0
640 0.0312500000000001 -8.594513989379493e-14 0
641 0.03125000000008116 0.03124999999991884 0
642 0.03125000000016245 0.06249999999992439 0
643 0.03125000000024369 0.09374999999992972 0
644 0.03125000000032496 0.1249999999999351 0
645 0.03125000000040604 0.1562499999999405 0
646 0.0312500000004873 0.187499999999946 0
647 0.03125000000056855 0.2187499999999514 0
648 0.03125000000064959 0.2499999999999567 0
649 0.03125000000073083 0.2812499999999623 0
650 0.0312500000008121 0.3124999999999676 0
651 0.0312500000008934 0.3437499999999729 0
652 0.03125000000097466 0.3749999999999784 0
653 0.03125000000105596 0.4062499999999837 0
654 0.03125000000113695 0.437499999999989 0
655 0.03125000000121803 0.4687499999999946 0
656 0.06249999999886299 -0.4687500000000108 0
657 0.06249999999893896 -0.4375000000000216 0
658 0.06249999999901489 -0.4062500000000325 0
659 0.06249999999909064 -0.3750000000000432 0
660 0.06249999999916631 -0.3437500000000542 0
661 0.06249999999924193 -0.3125000000000651 0
662 0.06249999999931777 -0.2812500000000759 0
663 0.06249999999939371 -0.2500000000000868 0
664 0.06249999999946942 -0.2187500000000975 0
665 0.06249999999954538 -0.1875000000001085 0
666 0.06249999999962105 -0.1562500000001192 0
667 0.06249999999969701 -0.1250000000001302 0
668 0.06249999999977275 -0.09375000000014098 0
669 0.06249999999984845 -0.06250000000015166 0
670 0.06249999999992441 -0.03125000000016244 0
671 0.0624999999999999 -1.71876401999782e-13 0
672 0.06250000000007583 0.03124999999983757 0
673 0.06250000000015155 0.06249999999984845 0
674 0.06250000000022746 0.09374999999985911 0
675 0.06250000000030317 0.1249999999998702 0
676 0.06250000000037914 0.156249999999881 0
677 0.06250000000045483 0.1874999999998919 0
678 0.0625000000005306 0.2187499999999027 0
679 0.06250000000060651 0.2499999999999136 0
680 0.06250000000068223 0.2812499999999243 0
681 0.06250000000075792 0.3124999999999352 0
682 0.06250000000083389 0.343749999999946 0
683 0.06250000000090961 0.3749999999999566 0
684 0.06250000000098532 0.4062499999999675 0
685 0.06250000000106129 0.4374999999999782 0
686 0.06250000000113701 0.468749999999989 0
687 0.0937499999989443 -0.4687500000000162 0
688 0.09374999999901487 -0.4375000000000324 0
689 0.09374999999908509 -0.4062500000000487 0
690 0.09374999999915531 -0.3750000000000651 0
691 0.09374999999922581 -0.3437500000000813 0
692 0.0937499999992962 -0.3125000000000976 0
693 0.09374999999936638 -0.2812500000001139 0
694 0.09374999999943701 -0.2500000000001301 0
695 0.09374999999950739 -0.2187500000001464 0
696 0.09374999999957774 -0.1875000000001627 0
697 0.09374999999964816 -0.1562500000001789 0
698 0.09374999999971859 -0.1250000000001949 0
699 0.09374999999978906 -0.09375000000021139 0
700 0.09374999999985935 -0.06250000000022736 0
701 0.09374999999992972 -0.03125000000024369 0
702 0.09375000000000012 -2.578076641057692e-13 0
703 0.09375000000007049 0.03124999999975654 0
704 0.09375000000014087 0.06249999999977253 0
705 0.09375000000021129 0.09374999999978896 0
706 0.09375000000028166 0.1249999999998052 0
707 0.09375000000035208 0.1562499999998215 0
708 0.09375000000042241 0.1874999999998377 0
709 0.09375000000049286 0.2187499999998539 0
710 0.09375000000056322 0.2499999999998701 0
711 0.09375000000063363 0.2812499999998863 0
712 0.09375000000070377 0.3124999999999025 0
713 0.09375000000077441 0.343749999999919 0
714 0.09375000000084455 0.3749999999999353 0
715 0.09375000000091513 0.4062499999999513 0
716 0.09375000000098535 0.4374999999999675 0
717 0.09375000000105593 0.4687499999999838 0
718 0.1249999999990253 -0.4687500000000215 0
719 0.1249999999990906 -0.4375000000000433 0
720 0.1249999999991555 -0.406250000000065 0
721 0.1249999999992205 -0.3750000000000867 0
722 0.1249999999992853 -0.3437500000001084 0
723 0.1249999999993502 -0.3125000000001301 0
724 0.1249999999994152 -0.2812500000001518 0
725 0.1249999999994803 -0.2500000000001734 0
726 0.1249999999995451 -0.2187500000001951 0
727 0.1249999999996102 -0.1875000000002167 0
728 0.1249999999996753 -0.1562500000002385 0
729 0.1249999999997402 -0.1250000000002599 0
730 0.1249999999998053 -0.09375000000028177 0
731 0.1249999999998702 -0.06250000000030331 0
732 0.1249999999999351 -0.03125000000032485 0
733 0.1249999999999999 -3.437250484239485e-13 0
734 0.1250000000000649 0.03124999999967527 0
735 0.12500000000013 0.06249999999969702 0
736 0.1250000000001948 0.09374999999971857 0
737 0.1250000000002599 0.1249999999997401 0
738 0.125000000000325 0.156249999999762 0
739 0.1250000000003898 0.1874999999997835 0
740 0.1250000000004548 0.2187499999998053 0
741 0.12500000000052 0.2499999999998268 0
742 0.1250000000005847 0.2812499999998486 0
743 0.1250000000006498 0.3124999999998701 0
744 0.1250000000007149 0.3437499999998916 0
745 0.1250000000007798 0.3749999999999135 0
746 0.1250000000008445 0.4062499999999349 0
747 0.1250000000009096 0.4374999999999565 0
748 0.1250000000009747 0.4687499999999785 0
749 0.1562499999991067 -0.4687500000000271 0
750 0.1562499999991662 -0.4375000000000542 0
751 0.1562499999992257 -0.4062500000000813 0
752 0.1562499999992855 -0.3750000000001084 0
753 0.156249999999345 -0.3437500000001354 0
754 0.1562499999994047 -0.3125000000001625 0
755 0.1562499999994642 -0.2812500000001896 0
756 0.1562499999995237 -0.2500000000002167 0
757 0.1562499999995832 -0.2187500000002438 0
758 0.1562499999996427 -0.1875000000002709 0
759 0.1562499999997025 -0.1562500000002979 0
760 0.156249999999762 -0.125000000000325 0
761 0.1562499999998215 -0.09375000000035207 0
762 0.156249999999881 -0.06250000000037903 0
763 0.1562499999999407 -0.03125000000040611 0
764 0.1562500000000002 -4.297534550445903e-13 0
765 0.1562500000000597 0.03124999999959399 0
766 0.1562500000001192 0.06249999999962107 0
767 0.1562500000001787 0.09374999999964816 0
768 0.1562500000002383 0.1249999999996753 0
769 0.156250000000298 0.1562499999997022 0
770 0.1562500000003575 0.1874999999997293 0
771 0.156250000000417 0.2187499999997564 0
772 0.1562500000004765 0.2499999999997835 0
773 0.1562500000005362 0.2812499999998106 0
774 0.1562500000005958 0.3124999999998377 0
775 0.1562500000006553 0.3437499999998646 0
776 0.1562500000007147 0.3749999999998916 0
777 0.1562500000007743 0.406249999999919 0
778 0.1562500000008338 0.4374999999999459 0
779 0.1562500000008933 0.4687499999999729 0
780 0.1874999999991879 -0.4687500000000324 0
781 0.1874999999992419 -0.4375000000000651 0
782 0.1874999999992961 -0.4062500000000975 0
783 0.1874999999993505 -0.3750000000001301 0
784 0.1874999999994044 -0.3437500000001625 0
785 0.1874999999994589 -0.3125000000001949 0
786 0.1874999999995129 -0.2812500000002276 0
787 0.187499999999567 -0.2500000000002601 0
788 0.1874999999996212 -0.2187500000002925 0
789 0.1874999999996751 -0.1875000000003251 0
790 0.1874999999997293 -0.1562500000003575 0
791 0.1874999999997836 -0.1250000000003898 0
792 0.1874999999998377 -0.09375000000042256 0
793 0.1874999999998919 -0.06250000000045484 0
794 0.187499999999946 -0.03125000000048729 0
795 0.1875000000000002 -5.156985949383852e-13 0
796 0.1875000000000542 0.03124999999951271 0
797 0.1875000000001084 0.06249999999954513 0
798 0.1875000000001628 0.09374999999957777 0
799 0.1875000000002169 0.1249999999996102 0
800 0.1875000000002708 0.1562499999996427 0
801 0.1875000000003251 0.1874999999996754 0
802 0.187500000000379 0.2187499999997078 0
803 0.1875000000004332 0.2499999999997402 0
804 0.1875000000004874 0.2812499999997728 0
805 0.1875000000005416 0.3124999999998053 0
806 0.1875000000005957 0.3437499999998375 0
807 0.18750000000065 0.3749999999998699 0
808 0.1875000000007041 0.4062499999999024 0
809 0.1875000000007583 0.4374999999999349 0
810 0.1875000000008125 0.4687499999999675 0
811 0.218749999999269 -0.468750000000038 0
812 0.2187499999993179 -0.4375000000000757 0
813 0.2187499999993665 -0.4062500000001137 0
814 0.2187499999994154 -0.3750000000001517 0
815 0.218749999999464 -0.3437500000001896 0
816 0.2187499999995131 -0.3125000000002276 0
817 0.2187499999995617 -0.2812500000002655 0
818 0.2187499999996103 -0.2500000000003034 0
819 0.218749999999659 -0.2187500000003413 0
820 0.2187499999997078 -0.1875000000003791 0
821 0.2187499999997564 -0.156250000000417 0
822 0.2187499999998053 -0.125000000000455 0
823 0.2187499999998539 -0.0937500000004927 0
824 0.2187499999999027 -0.06250000000053058 0
825 0.2187499999999514 -0.03125000000056855 0
826 0.2187500000000002 -6.016298570443723e-13 0
827 0.2187500000000488 0.03124999999943145 0
828 0.2187500000000975 0.06249999999946942 0
829 0.2187500000001463 0.09374999999950739 0
830 0.2187500000001952 0.1249999999995451 0
831 0.2187500000002438 0.1562499999995832 0
832 0.2187500000002924 0.187499999999621 0
833 0.2187500000003413 0.2187499999996592 0
834 0.2187500000003902 0.2499999999996969 0
835 0.2187500000004388 0.2812499999997347 0
836 0.2187500000004874 0.3124999999997726 0
837 0.2187500000005362 0.3437499999998106 0
838 0.2187500000005851 0.3749999999998483 0
839 0.2187500000006337 0.4062499999998863 0
840 0.2187500000006823 0.4374999999999242 0
841 0.2187500000007312 0.4687499999999619 0
842 0.2499999999993503 -0.4687500000000433 0
843 0.2499999999993936 -0.4375000000000865 0
844 0.2499999999994368 -0.40625000000013 0
845 0.2499999999994804 -0.3750000000001733 0
846 0.2499999999995237 -0.3437500000002167 0
847 0.249999999999567 -0.31250000000026 0
848 0.2499999999996103 -0.2812500000003033 0
849 0.2499999999996536 -0.2500000000003467 0
850 0.2499999999996969 -0.21875000000039 0
851 0.2499999999997402 -0.1875000000004333 0
852 0.2499999999997835 -0.1562500000004766 0
853 0.2499999999998268 -0.1250000000005199 0
854 0.24999999999987 -0.09375000000056311 0
855 0.2499999999999136 -0.0625000000006064 0
856 0.2499999999999569 -0.0312500000006497 0
857 0.2500000000000002 -6.875472413625516e-13 0
858 0.2500000000000435 0.03124999999935019 0
859 0.2500000000000868 0.06249999999939371 0
860 0.2500000000001301 0.09374999999943701 0
861 0.2500000000001734 0.1249999999994803 0
862 0.2500000000002167 0.1562499999995237 0
863 0.25000000000026 0.187499999999567 0
864 0.2500000000003035 0.2187499999996103 0
865 0.2500000000003466 0.2499999999996536 0
866 0.2500000000003901 0.2812499999996969 0
867 0.2500000000004334 0.3124999999997402 0
868 0.2500000000004767 0.3437499999997835 0
869 0.25000000000052 0.3749999999998268 0
870 0.2500000000005633 0.4062499999998701 0
871 0.2500000000006069 0.4374999999999134 0
872 0.2500000000006499 0.4687499999999566 0
873 0.2812499999994313 -0.4687500000000486 0
874 0.2812499999994693 -0.4375000000000975 0
875 0.2812499999995073 -0.4062500000001462 0
876 0.2812499999995453 -0.375000000000195 0
877 0.2812499999995832 -0.3437500000002438 0
878 0.281249999999621 -0.3125000000002925 0
879 0.2812499999996588 -0.2812500000003413 0
880 0.2812499999996969 -0.25000000000039 0
881 0.2812499999997347 -0.2187500000004387 0
882 0.2812499999997726 -0.1875000000004875 0
883 0.2812499999998106 -0.1562500000005362 0
884 0.2812499999998483 -0.1250000000005848 0
885 0.2812499999998863 -0.09375000000063366 0
886 0.2812499999999243 -0.06250000000068223 0
887 0.2812499999999623 -0.03125000000073098 0
888 0.2812500000000002 -7.734923812563466e-13 0
889 0.281250000000038 0.03124999999926935 0
890 0.2812500000000759 0.06249999999931777 0
891 0.2812500000001139 0.09374999999936663 0
892 0.2812500000001517 0.1249999999994155 0
893 0.2812500000001894 0.1562499999994642 0
894 0.2812500000002277 0.1874999999995128 0
895 0.2812500000002653 0.2187499999995615 0
896 0.2812500000003033 0.2499999999996103 0
897 0.2812500000003413 0.2812499999996589 0
898 0.2812500000003793 0.3124999999997076 0
899 0.2812500000004172 0.3437499999997564 0
900 0.281250000000455 0.3749999999998053 0
901 0.2812500000004929 0.4062499999998538 0
902 0.2812500000005309 0.4374999999999024 0
903 0.2812500000005687 0.4687499999999512 0
904 0.3124999999995126 -0.4687500000000542 0
905 0.312499999999545 -0.4375000000001084 0
906 0.3124999999995774 -0.4062500000001625 0
907 0.31249999999961 -0.3750000000002166 0
908 0.3124999999996427 -0.3437500000002709 0
909 0.312499999999675 -0.3125000000003251 0
910 0.3124999999997076 -0.2812500000003793 0
911 0.3124999999997401 -0.2500000000004335 0
912 0.3124999999997726 -0.2187500000004874 0
913 0.3124999999998052 -0.1875000000005416 0
914 0.3124999999998378 -0.1562500000005957 0
915 0.31249999999987 -0.1250000000006499 0
916 0.3124999999999025 -0.09375000000070394 0
917 0.3124999999999352 -0.06250000000075807 0
918 0.3124999999999675 -0.03125000000081211 0
919 0.3125 -8.594236433623337e-13 0
920 0.3125000000000327 0.03124999999918809 0
921 0.3125000000000651 0.06249999999924206 0
922 0.3125000000000975 0.09374999999929623 0
923 0.3125000000001301 0.1249999999993502 0
924 0.3125000000001628 0.1562499999994047 0
925 0.3125000000001952 0.1874999999994587 0
926 0.3125000000002276 0.2187499999995128 0
927 0.31250000000026 0.249999999999567 0
928 0.3125000000002924 0.281249999999621 0
929 0.3125000000003251 0.3124999999996751 0
930 0.3125000000003577 0.3437499999997293 0
931 0.3125000000003902 0.3749999999997835 0
932 0.3125000000004226 0.4062499999998376 0
933 0.3125000000004549 0.4374999999998918 0
934 0.3125000000004874 0.4687499999999459 0
935 0.3437499999995937 -0.4687500000000595 0
936 0.3437499999996207 -0.4375000000001192 0
937 0.3437499999996478 -0.4062500000001788 0
938 0.3437499999996752 -0.3750000000002383 0
939 0.3437499999997022 -0.343750000000298 0
940 0.3437499999997292 -0.3125000000003575 0
941 0.3437499999997565 -0.2812500000004171 0
942 0.3437499999997833 -0.2500000000004767 0
943 0.3437499999998104 -0.2187500000005362 0
944 0.3437499999998375 -0.1875000000005958 0
945 0.3437499999998646 -0.1562500000006551 0
946 0.3437499999998916 -0.1250000000007147 0
947 0.3437499999999187 -0.09375000000077433 0
948 0.3437499999999458 -0.06250000000083378 0
949 0.3437499999999729 -0.0312500000008934 0
950 0.3437500000000002 -9.453549054683208e-13 0
951 0.3437500000000273 0.03124999999910684 0
952 0.3437500000000544 0.06249999999916633 0
953 0.3437500000000815 0.09374999999922587 0
954 0.3437500000001086 0.1249999999992853 0
955 0.3437500000001354 0.156249999999345 0
956 0.3437500000001625 0.1874999999994044 0
957 0.3437500000001896 0.2187499999994642 0
958 0.3437500000002169 0.2499999999995237 0
959 0.3437500000002435 0.2812499999995832 0
960 0.3437500000002707 0.3124999999996427 0
961 0.3437500000002978 0.3437499999997022 0
962 0.3437500000003251 0.3749999999997617 0
963 0.343750000000352 0.4062499999998213 0
964 0.343750000000379 0.4374999999998809 0
965 0.3437500000004061 0.4687499999999404 0
966 0.3749999999996751 -0.468750000000065 0
967 0.374999999999697 -0.4375000000001299 0
968 0.3749999999997186 -0.406250000000195 0
969 0.37499999999974 -0.37500000000026 0
970 0.3749999999997616 -0.343750000000325 0
971 0.3749999999997834 -0.3125000000003899 0
972 0.374999999999805 -0.2812500000004551 0
973 0.3749999999998268 -0.25000000000052 0
974 0.3749999999998487 -0.218750000000585 0
975 0.3749999999998701 -0.1875000000006499 0
976 0.3749999999998919 -0.1562500000007149 0
977 0.3749999999999136 -0.1250000000007797 0
978 0.3749999999999352 -0.09375000000084473 0
979 0.3749999999999568 -0.06250000000090961 0
980 0.3749999999999784 -0.03125000000097456 0
981 0.3750000000000001 -1.031279228680404e-12 0
982 0.3750000000000216 0.03124999999902557 0
983 0.3750000000000434 0.06249999999909039 0
984 0.3750000000000649 0.09374999999915547 0
985 0.3750000000000867 0.1249999999992205 0
986 0.3750000000001084 0.1562499999992855 0
987 0.3750000000001298 0.1874999999993505 0
988 0.3750000000001517 0.2187499999994154 0
989 0.3750000000001733 0.2499999999994802 0
990 0.3750000000001952 0.281249999999545 0
991 0.3750000000002167 0.3124999999996101 0
992 0.3750000000002385 0.3437499999996751 0
993 0.3750000000002599 0.3749999999997401 0
994 0.3750000000002817 0.4062499999998052 0
995 0.3750000000003034 0.43749999999987 0
996 0.375000000000325 0.4687499999999348 0
997 0.4062499999997563 -0.4687500000000704 0
998 0.4062499999997727 -0.4375000000001408 0
999 0.4062499999997889 -0.4062500000002112 0
1000 0.4062499999998052 -0.3750000000002816 0
1001 0.4062499999998211 -0.3437500000003521 0
1002 0.4062499999998374 -0.3125000000004225 0
1003 0.4062499999998538 -0.2812500000004929 0
1004 0.4062499999998702 -0.2500000000005634 0
1005 0.4062499999998864 -0.2187500000006339 0
1006 0.4062499999999027 -0.1875000000007041 0
1007 0.4062499999999189 -0.1562500000007744 0
1008 0.4062499999999351 -0.1250000000008448 0
1009 0.4062499999999514 -0.09375000000091512 0
1010 0.4062499999999675 -0.06250000000098543 0
1011 0.4062499999999836 -0.03125000000105581 0
1012 0.4062500000000001 -1.117328451982758e-12 0
1013 0.4062500000000163 0.03124999999894429 0
1014 0.4062500000000325 0.06249999999901466 0
1015 0.4062500000000487 0.09374999999908508 0
1016 0.4062500000000648 0.1249999999991555 0
1017 0.4062500000000815 0.1562499999992258 0
1018 0.4062500000000974 0.1874999999992963 0
1019 0.4062500000001137 0.2187499999993665 0
1020 0.4062500000001299 0.2499999999994369 0
1021 0.4062500000001462 0.2812499999995073 0
1022 0.4062500000001626 0.3124999999995777 0
1023 0.4062500000001785 0.3437499999996481 0
1024 0.4062500000001949 0.3749999999997186 0
1025 0.4062500000002111 0.4062499999997887 0
1026 0.4062500000002274 0.4374999999998593 0
1027 0.4062500000002437 0.4687499999999295 0
1028 0.4374999999998377 -0.4687500000000757 0
1029 0.4374999999998485 -0.4375000000001517 0
1030 0.4374999999998593 -0.4062500000002274 0
1031 0.43749999999987 -0.3750000000003034 0
1032 0.4374999999998807 -0.3437500000003791 0
1033 0.4374999999998916 -0.3125000000004551 0
1034 0.4374999999999024 -0.2812500000005308 0
1035 0.4374999999999136 -0.2500000000006066 0
1036 0.4374999999999243 -0.2187500000006824 0
1037 0.4374999999999351 -0.1875000000007582 0
1038 0.4374999999999458 -0.1562500000008339 0
1039 0.4374999999999567 -0.1250000000009096 0
1040 0.4374999999999676 -0.09375000000098548 0
1041 0.4374999999999784 -0.06250000000106115 0
1042 0.437499999999989 -0.03125000000113697 0
1043 0.4374999999999999 -1.203266652982649e-12 0
1044 0.4375000000000109 0.03124999999886303 0
1045 0.4375000000000216 0.06249999999893899 0
1046 0.4375000000000325 0.09374999999901465 0
1047 0.4375000000000433 0.1249999999990904 0
1048 0.4375000000000543 0.1562499999991662 0
1049 0.4375000000000651 0.1874999999992422 0
1050 0.4375000000000761 0.2187499999993179 0
1051 0.4375000000000868 0.2499999999993936 0
1052 0.4375000000000974 0.2812499999994695 0
1053 0.4375000000001085 0.312499999999545 0
1054 0.4375000000001191 0.343749999999621 0
1055 0.4375000000001301 0.3749999999996968 0
1056 0.4375000000001409 0.4062499999997727 0
1057 0.4375000000001515 0.4374999999998482 0
1058 0.4375000000001624 0.4687499999999242 0
1059 0.4687499999999187 -0.4687500000000813 0
1060 0.4687499999999241 -0.4375000000001625 0
1061 0.4687499999999297 -0.4062500000002437 0
1062 0.4687499999999349 -0.3750000000003249 0
1063 0.4687499999999403 -0.3437500000004062 0
1064 0.4687499999999459 -0.3125000000004874 0
1065 0.4687499999999514 -0.2812500000005688 0
1066 0.4687499999999568 -0.25000000000065 0
1067 0.4687499999999621 -0.2187500000007312 0
1068 0.4687499999999675 -0.1875000000008124 0
1069 0.4687499999999729 -0.1562500000008934 0
1070 0.4687499999999782 -0.1250000000009747 0
1071 0.4687499999999838 -0.09375000000105599 0
1072 0.4687499999999891 -0.06250000000113708 0
1073 0.4687499999999947 -0.03125000000121814 0
1074 0.4687500000000002 -1.289197915088636e-12 0
1075 0.4687500000000054 0.03124999999878197 0
1076 0.4687500000000107 0.062499999998863 0
1077 0.4687500000000162 0.09374999999894428 0
1078 0.4687500000000215 0.1249999999990255 0
1079 0.4687500000000269 0.1562499999991067 0
1080 0.4687500000000323 0.187499999999188 0
1081 0.4687500000000379 0.2187499999992693 0
1082 0.4687500000000431 0.2499999999993503 0
1083 0.4687500000000486 0.2812499999994316 0
1084 0.468750000000054 0.3124999999995126 0
1085 0.4687500000000594 0.3437499999995939 0
1086 0.468750000000065 0.374999999999675 0
1087 0.4687500000000703 0.4062499999997563 0
1088 0.4687500000000756 0.4374999999998376 0
1089 0.4687500000000812 0.4687499999999188 0
$EndNodes
$Elements
1120
1 1 2 2 1 1 5
2 1 2 2 1 5 6
3 1 2 2 1 6 7
4 1 2 2 1 7 8
5 1 2 2 1 8 9
6 1 2 2 1 9 10
7 1 2 2 1 10 11
8 1 2 2 1 11 12
9 1 2 2 1 12 13
10 1 2 2 1 13 14
11 1 2 2 1 14 15
12 1 2 2 1 15 16
13 1 2 2 1 16 17
14 1 2 2 1 17 18
15 1 2 2 1 18 19
16 1 2 2 1 19 20
17 1 2 2 1 20 21
18 1 2 2 1 21 22
19 1 2 2 1 22 23
20 1 2 2 1 23 24
21 1 2 2 1 24 25
22 1 2 2 1 25 26
23 1 2 2 1 26 27
24 1 2 2 1 27 28
25 1 2 2 1 28 29
26 1 2 2 1 29 30
27 1 2 2 1 30 31
28 1 2 2 1 31 32
29 1 2 2 1 32 33
30 1 2 2 1 33 34
31 1 2 2 1 34 35
32 1 2 2 1 35 2
33 1 2 4 3 3 67
34 1 2 4 3 67 68
35 1 2 4 3 68 69
36 1 2 4 3 69 70
37 1 2 4 3 70 71
38 1 2 4 3 71 72
39 1 2 4 3 72 73
40 1 2 4 3 73 74
41 1 2 4 3 74 75
42 1 2 4 3 75 76
43 1 2 4 3 76 77
44 1 2 4 3 77 78
45 1 2 4 3 78 79
46 1 2 4 3 79 80
47 1 2 4 3 80 81
48 1 2 4 3 81 82
49 1 2 4 3 82 83
50 1 2 4 3 83 84
51 1 2 4 3 84 85
52 1 2 4 3 85 86
53 1 2 4 3 86 87
54 1 2 4 3 87 88
55 1 2 4 3 88 89
56 1 2 4 3 89 90
57 1 2 4 3 90 91
58 1 2 4 3 91 92
59 1 2 4 3 92 93
60 1 2 4 3 93 94
61 1 2 4 3 94 95
62 1 2 4 3 95 96
63 1 2 4 3 96 97
64 1 2 4 3 97 4
65 1 2 5 4 4 98
66 1 2 5 4 98 99
67 1 2 5 4 99 100
68 1 2 5 4 100 101
69 1 2 5 4 101 102
70 1 2 5 4 102 103
71 1 2 5 4 103 104
72 1 2 5 4 104 105
73 1 2 5 4 105 106
74 1 2 5 4 106 107
75 1 2 5 4 107 108
76 1 2 5 4 108 109
77 1 2 5 4 109 110
78 1 2 5 4 110 111
79 1 2 5 4 111 112
80 1 2 5 4 112 113
81 1 2 5 4 113 114
82 1 2 5 4 114 115
83 1 2 5 4 115 116
84 1 2 5 4 116 117
85 1 2 5 4 117 118
86 1 2 5 4 118 119
87 1 2 5 4 119 120
88 1 2 5 4 120 121
89 1 2 5 4 121 122
90 1 2 5 4 122 123
91 1 2 5 4 123 124
92 1 2 5 4 124 125
93 1 2 5 4 125 126
94 1 2 5 4 126 127
95 1 2 5 4 127 128
96 1 2 5 4 128 1
97 3 2 1 1 1 5 129 128
98 3 2 1 1 128 129 130 127
99 3 2 1 1 127 130 131 126
100 3 2 1 1 126 131 132 125
101 3 2 1 1 125 132 133 124
102 3 2 1 1 124 133 134 123
103 3 2 1 1 123 134 135 122
104 3 2 1 1 122 135 136 121
105 3 2 1 1 121 136 137 120
106 3 2 1 1 120 137 138 119
107 3 2 1 1 119 138 139 118
108 3 2 1 1 118 139 140 117
109 3 2 1 1 117 140 141 116
110 3 2 1 1 116 141 142 115
111 3 2 1 1 115 142 143 114
112 3 2 1 1 114 143 144 113
113 3 2 1 1 113 144 145 112
114 3 2 1 1 112 145 146 111
115 3 2 1 1 111 146 147 110
116 3 2 1 1 110 147 148 109
117 3 2 1 1 109 148 149 108
118 3 2 1 1 108 149 150 107
119 3 2 1 1 107 150 151 106
120 3 2 1 1 106 151 152 105
121 3 2 1 1 105 152 153 104
122 3 2 1 1 104 153 154 103
123 3 2 1 1 103 154 155 102
124 3 2 1 1 102 155 156 101
125 3 2 1 1 101 156 157 100
126 3 2 1 1 100 157 158 99
127 3 2 1 1 99 158 159 98
128 3 2 1 1 98 159 97 4
129 3 2 1 1 5 6 160 129
130 3 2 1 1 129 160 161 130
131 3 2 1 1 130 161 162 131
132 3 2 1 1 131 162 163 132
133 3 2 1 1 132 163 164 133
134 3 2 1 1 133 164 165 134
135 3 2 1 1 134 165 166 135
136 3 2 1 1 135 166 167 136
137 3 2 1 1 136 167 168 137
138 3 2 1 1 137 168 169 138
139 3 2 1 1 138 169 170 139
140 3 2 1 1 139 170 171 140
141 3 2 1 1 140 171 172 141
142 3 2 1 1 141 172 173 142
143 3 2 1 1 142 173 174 143
144 3 2 1 1 143 174 175 144
145 3 2 1 1 144 175 176 145
146 3 2 1 1 145 176 177 146
147 3 2 1 1 146 177 178 147
148 3 2 1 1 147 178 179 148
149 3 2 1 1 148 179 180 149
150 3 2 1 1 149 180 181 150
151 3 2 1 1 150 181 182 151
152 3 2 1 1 151 182 183 152
153 3 2 1 1 152 183 184 153
154 3 2 1 1 153 184 185 154
155 3 2 1 1 154 185 186 155
156 3 2 1 1 155 186 187 156
157 3 2 1 1 156 187 188 157
158 3 2 1 1 157 188 189 158
159 3 2 1 1 158 189 190 159
160 3 2 1 1 159 190 96 97
161 3 2 1 1 6 7 191 160
162 3 2 1 1 160 191 192 161
163 3 2 1 1 161 192 193 162
164 3 2 1 1 162 193 194 163
165 3 2 1 1 163 194 195 164
166 3 2 1 1 164 195 196 165
167 3 2 1 1 165 196 197 166
168 3 2 1 1 166 197 198 167
169 3 2 1 1 167 198 199 168
170 3 2 1 1 168 199 200 169
171 3 2 1 1 169 200 201 170
172 3 2 1 1 170 201 202 171
173 3 2 1 1 171 202 203 172
174 3 2 1 1 172 203 204 173
175 3 2 1 1 173 204 205 174
176 3 2 1 1 174 205 206 175
177 3 2 1 1 175 206 207 176
178 3 2 1 1 176 207 208 177
179 3 2 1 1 177 208 209 178
180 3 2 1 1 178 209 210 179
181 3 2 1 1 179 210 211 180
182 3 2 1 1 180 211 212 181
183 3 2 1 1 181 212 213 182
184 3 2 1 1 182 213 214 183
185 3 2 1 1 183 214 215 184
186 3 2 1 1 184 215 216 185
187 3 2 1 1 185 216 217 186
188 3 2 1 1 186 217 218 187
189 3 2 1 1 187 218 219 188
190 3 2 1 1 188 219 220 189
191 3 2 1 1 189 220 221 190
192 3 2 1 1 190 221 95 96
193 3 2 1 1 7 8 222 191
194 3 2 1 1 191 222 223 192
195 3 2 1 1 192 223 224 193
196 3 2 1 1 193 224 225 194
197 3 2 1 1 194 225 226 195
198 3 2 1 1 195 226 227 196
199 3 2 1 1 196 227 228 197
200 3 2 1 1 197 228 229 198
201 3 2 1 1 198 229 230 199
202 3 2 1 1 199 230 231 200
203 3 2 1 1 200 231 232 201
204 3 2 1 1 201 232 233 202
205 3 2 1 1 202 233 234 203
206 3 2 1 1 203 234 235 204
207 3 2 1 1 204 235 236 205
208 3 2 1 1 205 236 237 206
209 3 2 1 1 206 237 238 207
210 3 2 1 1 207 238 239 208
211 3 2 1 1 208 239 240 209
212 3 2 1 1 209 240 241 210
213 3 2 1 1 210 241 242 211
214 3 2 1 1 211 242 243 212
215 3 2 1 1 212 243 244 213
216 3 2 1 1 213 244 245 214
217 3 2 1 1 214 245 246 215
218 3 2 1 1 215 246 247 216
219 3 2 1 1 216 247 248 217
220 3 2 1 1 217 248 249 218
221 3 2 1 1 218 249 250 219
222 3 2 1 1 219 250 251 220
223 3 2 1 1 220 251 252 221
224 3 2 1 1 221 252 94 95
225 3 2 1 1 8 9 253 222
226 3 2 1 1 222 253 254 223
227 3 2 1 1 223 254 255 224
228 3 2 1 1 224 255 256 225
229 3 2 1 1 225 256 257 226
230 3 2 1 1 226 257 258 227
231 3 2 1 1 227 258 259 228
232 3 2 1 1 228 259 260 229
233 3 2 1 1 229 260 261 230
234 3 2 1 1 230 261 262 231
235 3 2 1 1 231 262 263 232
236 3 2 1 1 232 263 264 233
237 3 2 1 1 233 264 265 234
238 3 2 1 1 234 265 266 235
239 3 2 1 1 235 266 267 236
240 3 2 1 1 236 267 268 237
241 3 2 1 1 237 268 269 238
242 3 2 1 1 238 269 270 239
243 3 2 1 1 239 270 271 240
244 3 2 1 1 240 271 272 241
245 3 2 1 1 241 272 273 242
246 3 2 1 1 242 273 274 243
247 3 2 1 1 243 274 275 244
248 3 2 1 1 244 275 276 245
249 3 2 1 1 245 276 277 246
250 3 2 1 1 246 277 278 247
251 3 2 1 1 247 278 279 248
252 3 2 1 1 248 279 280 249
253 3 2 1 1 249 280 281 250
254 3 2 1 1 250 281 282 251
255 3 2 1 1 251 282 283 252
256 3 2 1 1 252 283 93 94
257 3 2 1 1 9 10 284 253
258 3 2 1 1 253 284 285 254
259 3 2 1 1 254 285 286 255
260 3 2 1 1 255 286 287 256
261 3 2 1 1 256 287 288 257
262 3 2 1 1 257 288 289 258
263 3 2 1 1 258 289 290 259
264 3 2 1 1 259 290 291 260
265 3 2 1 1 260 291 292 261
266 3 2 1 1 261 292 293 262
267 3 2 1 1 262 293 294 263
268 3 2 1 1 263 294 295 264
269 3 2 1 1 264 295 296 265
270 3 2 1 1 265 296 297 266
271 3 2 1 1 266 297 298 267
272 3 2 1 1 267 298 299 268
273 3 2 1 1 268 299 300 269
274 3 2 1 1 269 300 301 270
275 3 2 1 1 270 301 302 271
276 3 2 1 1 271 302 303 272
277 3 2 1 1 272 303 304 273
278 3 2 1 1 273 304 305 274
279 3 2 1 1 274 305 306 275
280 3 2 1 1 275 306 307 276
281 3 2 1 1 276 307 308 277
282 3 2 1 1 277 308 309 278
283 3 2 1 1 278 309 310 279
284 3 2 1 1 279 310 311 280
285 3 2 1 1 280 311 312 281
286 3 2 1 1 281 312 313 282
287 3 2 1 1 282 313 314 283
288 3 2 1 1 283 314 92 93
289 3 2 1 1 10 11 315 284
290 3 2 1 1 284 315 316 285
291 3 2 1 1 285 316 317 286
292 3 2 1 1 286 317 318 287
293 3 2 1 1 287 318 319 288
294 3 2 1 1 288 319 320 289
295 3 2 1 1 289 320 321 290
296 3 2 1 1 290 321 322 291
297 3 2 1 1 291 322 323 292
298 3 2 1 1 292 323 324 293
299 3 2 1 1 293 324 325 294
300 3 2 1 1 294 325 326 295
301 3 2 1 1 295 326 327 296
302 3 2 1 1 296 327 328 297
303 3 2 1 1 297 328 329 298
304 3 2 1 1 298 329 330 299
305 3 2 1 1 299 330 331 300
306 3 2 1 1 300 331 332 301
307 3 2 1 1 301 332 333 302
308 3 2 1 1 302 333 334 303
309 3 2 1 1 303 334 335 304
310 3 2 1 1 304 335 336 305
311 3 2 1 1 305 336 337 306
312 3 2 1 1 306 337 338 307
313 3 2 1 1 307 338 339 308
314 3 2 1 1 308 339 340 309
315 3 2 1 1 309 340 341 310
316 3 2 1 1 310 341 342 311
317 3 2 1 1 311 342 343 312
318 3 2 1 1 312 343 344 313
319 3 2 1 1 313 344 345 314
320 3 2 1 1 314 345 91 92
321 3 2 1 1 11 12 346 315
322 3 2 1 1 315 346 347 316
323 3 2 1 1 316 347 348 317
324 3 2 1 1 317 348 349 318
325 3 2 1 1 318 349 350 319
326 3 2 1 1 319 350 351 320
327 3 2 1 1 320 351 352 321
328 3 2 1 1 321 352 353 322
329 3 2 1 1 322 353 354 323
330 3 2 1 1 323 354 355 324
331 3 2 1 1 324 355 356 325
332 3 2 1 1 325 356 357 326
333 3 2 1 1 326 357 358 327
334 3 2 1 1 327 358 359 328
335 3 2 1 1 328 359 360 329
336 3 2 1 1 329 360 361 330
337 3 2 1 1 330 361 362 331
338 3 2 1 1 331 362 363 332
339 3 2 1 1 332 363 364 333
340 3 2 1 1 333 364 365 334
341 3 2 1 1 334 365 366 335
342 3 2 1 1 335 366 367 336
343 3 2 1 1 336 367 368 337
344 3 2 1 1 337 368 369 338
345 3 2 1 1 338 369 370 339
346 3 2 1 1 339 370 371 340
347 3 2 1 1 340 371 372 341
348 3 2 1 1 341 372 373 342
349 3 2 1 1 342 373 374 343
350 3 2 1 1 343 374 375 344
351 3 2 1 1 344 375 376 345
352 3 2 1 1 345 376 90 91
353 3 2 1 1 12 13 377 346
354 3 2 1 1 346 377 378 347
355 3 2 1 1 347 378 379 348
356 3 2 1 1 348 379 380 349
357 3 2 1 1 349 380 381 350
358 3 2 1 1 350 381 382 351
359 3 2 1 1 351 382 383 352
360 3 2 1 1 352 383 384 353
361 3 2 1 1 353 384 385 354
362 3 2 1 1 354 385 386 355
363 3 2 1 1 355 386 387 356
364 3 2 1 1 356 387 388 357
365 3 2 1 1 357 388 389 358
366 3 2 1 1 358 389 390 359
367 3 2 1 1 359 390 391 360
368 3 2 1 1 360 391 392 361
369 3 2 1 1 361 392 393 362
370 3 2 1 1 362 393 394 363
371 3 2 1 1 363 394 395 364
372 3 2 1 1 364 395 396 365
373 3 2 1 1 365 396 397 366
374 3 2 1 1 366 397 398 367
375 3 2 1 1 367 398 399 368
376 3 2 1 1 368 399 400 369
377 3 2 1 1 369 400 401 370
378 3 2 1 1 370 401 402 371
379 3 2 1 1 371 402 403 372
380 3 2 1 1 372 403 404 373
381 3 2 1 1 373 404 405 374
382 3 2 1 1 374 405 406 375
383 3 2 1 1 375 406 407 376
384 3 2 1 1 376 407 89 90
385 3 2 1 1 13 14 408 377
386 3 2 1 1 377 408 409 378
387 3 2 1 1 378 409 410 379
388 3 2 1 1 379 410 411 380
389 3 2 1 1 380 411 412 381
390 3 2 1 1 381 412 413 382
391 3 2 1 1 382 413 414 383
392 3 2 1 1 383 414 415 384
393 3 2 1 1 384 415 416 385
394 3 2 1 1 385 416 417 386
395 3 2 1 1 386 417 418 387
396 3 2 1 1 387 418 419 388
397 3 2 1 1 388 419 420 389
398 3 2 1 1 389 420 421 390
399 3 2 1 1 390 421 422 391
400 3 2 1 1 391 422 423 392
401 3 2 1 1 392 423 424 393
402 3 2 1 1 393 424 425 394
403 3 2 1 1 394 425 426 395
404 3 2 1 1 395 426 427 396
405 3 2 1 1 396 427 428 397
406 3 2 1 1 397 428 429 398
407 3 2 1 1 398 429 430 399
408 3 2 1 1 399 430 431 400
409 3 2 1 1 400 431 432 401
410 3 2 1 1 401 432 433 402
411 3 2 1 1 402 433 434 403
412 3 2 1 1 403 434 435 404
413 3 2 1 1 404 435 436 405
414 3 2 1 1 405 436 437 406
415 3 2 1 1 406 437 438 407
416 3 2 1 1 407 438 88 89
417 3 2 1 1 14 15 439 408
418 3 2 1 1 408 439 440 409
419 3 2 1 1 409 440 441 410
420 3 2 1 1 410 441 442 411
421 3 2 1 1 411 442 443 412
422 3 2 1 1 412 443 444 413
423 3 2 1 1 413 444 445 414
424 3 2 1 1 414 445 446 415
425 3 2 1 1 415 446 447 416
426 3 2 1 1 416 447 448 417
427 3 2 1 1 417 448 449 418
428 3 2 1 1 418 449 450 419
429 3 2 1 1 419 450 451 420
430 3 2 1 1 420 451 452 421
431 3 2 1 1 421 452 453 422
432 3 2 1 1 422 453 454 423
433 3 2 1 1 423 454 455 424
434 3 2 1 1 424 455 456 425
435 3 2 1 1 425 456 457 426
436 3 2 1 1 426 457 458 427
437 3 2 1 1 427 458 459 428
438 3 2 1 1 428 459 460 429
439 3 2 1 1 429 460 461 430
440 3 2 1 1 430 461 462 431
441 3 2 1 1 431 462 463 432
442 3 2 1 1 432 463 464 433
443 3 2 1 1 433 464 465 434
444 3 2 1 1 434 465 466 435
445 3 2 1 1 435 466 467 436
446 3 2 1 1 436 467 468 437
447 3 2 1 1 437 468 469 438
448 3 2 1 1 438 469 87 88
449 3 2 1 1 15 16 470 439
450 3 2 1 1 439 470 471 440
451 3 2 1 1 440 471 472 441
452 3 2 1 1 441 472 473 442
453 3 2 1 1 442 473 474 443
454 3 2 1 1 443 474 475 444
455 3 2 1 1 444 475 476 445
456 3 2 1 1 445 476 477 446
457 3 2 1 1 446 477 478 447
458 3 2 1 1 447 478 479 448
459 3 2 1 1 448 479 480 449
460 3 2 1 1 449 480 481 450
461 3 2 1 1 450 481 482 451
462 3 2 1 1 451 482 483 452
463 3 2 1 1 452 483 484 453
464 3 2 1 1 453 484 485 454
465 3 2 1 1 454 485 486 455
466 3 2 1 1 455 486 487 456
467 3 2 1 1 456 487 488 457
468 3 2 1 1 457 488 489 458
469 3 2 1 1 458 489 490 459
470 3 2 1 1 459 490 491 460
471 3 2 1 1 460 491 492 461
472 3 2 1 1 461 492 493 462
473 3 2 1 1 462 493 494 463
474 3 2 1 1 463 494 495 464
475 3 2 1 1 464 495 496 465
476 3 2 1 1 465 496 497 466
477 3 2 1 1 466 497 498 467
478 3 2 1 1 467 498 499 468
479 3 2 1 1 468 499 500 469
480 3 2 1 1 469 500 86 87
481 3 2 1 1 16 17 501 470
482 3 2 1 1 470 501 502 471
483 3 2 1 1 471 502 503 472
484 3 2 1 1 472 503 504 473
485 3 2 1 1 473 504 505 474
486 3 2 1 1 474 505 506 475
487 3 2 1 1 475 506 507 476
488 3 2 1 1 476 507 508 477
489 3 2 1 1 477 508 509 478
490 3 2 1 1 478 509 510 479
491 3 2 1 1 479 510 511 480
492 3 2 1 1 480 511 512 481
493 3 2 1 1 481 512 513 482
494 3 2 1 1 482 513 514 483
495 3 2 1 1 483 514 515 484
496 3 2 1 1 484 515 516 485
497 3 2 1 1 485 516 517 486
498 3 2 1 1 486 517 518 487
499 3 2 1 1 487 518 519 488
500 3 2 1 1 488 519 520 489
501 3 2 1 1 489 520 521 490
502 3 2 1 1 490 521 522 491
503 3 2 1 1 491 522 523 492
504 3 2 1 1 492 523 524 493
505 3 2 1 1 493 524 525 494
506 3 2 1 1 494 525 526 495
507 3 2 1 1 495 526 527 496
508 3 2 1 1 496 527 528 497
509 3 2 1 1 497 528 529 498
510 3 2 1 1 498 529 530 499
511 3 2 1 1 499 530 531 500
512 3 2 1 1 500 531 85 86
513 3 2 1 1 17 18 532 501
514 3 2 1 1 501 532 533 502
515 3 2 1 1 502 533 534 503
516 3 2 1 1 503 534 535 504
517 3 2 1 1 504 535 536 505
518 3 2 1 1 505 536 537 506
519 3 2 1 1 506 537 538 507
520 3 2 1 1 507 538 539 508
521 3 2 1 1 508 539 540 509
522 3 2 1 1 509 540 541 510
523 3 2 1 1 510 541 542 511
524 3 2 1 1 511 542 543 512
525 3 2 1 1 512 543 544 513
526 3 2 1 1 513 544 545 514
527 3 2 1 1 514 545 546 515
528 3 2 1 1 515 546 547 516
529 3 2 1 1 516 547 548 517
530 3 2 1 1 517 548 549 518
531 3 2 1 1 518 549 550 519
532 3 2 1 1 519 550 551 520
533 3 2 1 1 520 551 552 521
534 3 2 1 1 521 552 553 522
535 3 2 1 1 522 553 554 523
536 3 2 1 1 523 554 555 524
537 3 2 1 1 524 555 556 525
538 3 2 1 1 525 556 557 526
539 3 2 1 1 526 557 558 527
540 3 2 1 1 527 558 559 528
541 3 2 1 1 528 559 560 529
542 3 2 1 1 529 560 561 530
543 3 2 1 1 530 561 562 531
544 3 2 1 1 531 562 84 85
545 3 2 1 1 18 19 563 532
546 3 2 1 1 532 563 564 533
547 3 2 1 1 533 564 565 534
548 3 2 1 1 534 565 566 535
549 3 2 1 1 535 566 567 536
550 3 2 1 1 536 567 568 537
551 3 2 1 1 537 568 569 538
552 3 2 1 1 538 569 570 539
553 3 2 1 1 539 570 571 540
554 3 2 1 1 540 571 572 541
555 3 2 1 1 541 572 573 542
556 3 2 1 1 542 573 574 543
557 3 2 1 1 543 574 575 544
558 3 2 1 1 544 575 576 545
559 3 2 1 1 545 576 577 546
560 3 2 1 1 546 577 578 547
561 3 2 1 1 547 578 579 548
562 3 2 1 1 548 579 580 549
563 3 2 1 1 549 580 581 550
564 3 2 1 1 550 581 582 551
565 3 2 1 1 551 582 583 552
566 3 2 1 1 552 583 584 553
567 3 2 1 1 553 584 585 554
568 3 2 1 1 554 585 586 555
569 3 2 1 1 555 586 587 556
570 3 2 1 1 556 587 588 557
571 3 2 1 1 557 588 589 558
572 3 2 1 1 558 589 590 559
573 3 2 1 1 559 590 591 560
574 3 2 1 1 560 591 592 561
575 3 2 1 1 561 592 593 562
576 3 2 1 1 562 593 83 84
577 3 2 1 1 19 20 594 563
578 3 2 1 1 563 594 595 564
579 3 2 1 1 564 595 596 565
580 3 2 1 1 565 596 597 566
581 3 2 1 1 566 597 598 567
582 3 2 1 1 567 598 599 568
583 3 2 1 1 568 599 600 569
584 3 2 1 1 569 600 601 570
585 3 2 1 1 570 601 602 571
586 3 2 1 1 571 602 603 572
587 3 2 1 1 572 603 604 573
588 3 2 1 1 573 604 605 574
589 3 2 1 1 574 605 606 575
590 3 2 1 1 575 606 607 576
591 3 2 1 1 576 607 608 577
592 3 2 1 1 577 608 609 578
593 3 2 1 1 578 609 610 579
594 3 2 1 1 579 610 611 580
595 3 2 1 1 580 611 612 581
596 3 2 1 1 581 612 613 582
597 3 2 1 1 582 613 614 583
598 3 2 1 1 583 614 615 584
599 3 2 1 1 584 615 616 585
600 3 2 1 1 585 616 617 586
601 3 2 1 1 586 617 618 587
602 3 2 1 1 587 618 619 588
603 3 2 1 1 588 619 620 589
604 3 2 1 1 589 620 621 590
605 3 2 1 1 590 621 622 591
606 3 2 1 1 591 622 623 592
607 3 2 1 1 592 623 624 593
608 3 2 1 1 593 624 82 83
609 3 2 1 1 20 21 625 594
610 3 2 1 1 594 625 626 595
611 3 2 1 1 595 626 627 596
612 3 2 1 1 596 627 628 597
613 3 2 1 1 597 628 629 598
614 3 2 1 1 598 629 630 599
615 3 2 1 1 599 630 631 600
616 3 2 1 1 600 631 632 601
617 3 2 1 1 601 632 633 602
618 3 2 1 1 602 633 634 603
619 3 2 1 1 603 634 635 604
620 3 2 1 1 604 635 636 605
621 3 2 1 1 605 636 637 606
622 3 2 1 1 606 637 638 607
623 3 2 1 1 607 638 639 608
624 3 2 1 1 608 639 640 609
625 3 2 1 1 609 640 641 610
626 3 2 1 1 610 641 642 611
627 3 2 1 1 611 642 643 612
628 3 2 1 1 612 643 644 613
629 3 2 1 1 613 644 645 614
630 3 2 1 1 614 645 646 615
631 3 2 1 1 615 646 647 616
632 3 2 1 1 616 647 648 617
633 3 2 1 1 617 648 649 618
634 3 2 1 1 618 649 650 619
635 3 2 1 1 619 650 651 620
636 3 2 1 1 620 651 652 621
637 3 2 1 1 621 652 653 622
638 3 2 1 1 622 653 654 623
639 3 2 1 1 623 654 655 624
640 3 2 1 1 624 655 81 82
641 3 2 1 1 21 22 656 625
642 3 2 1 1 625 656 657 626
643 3 2 1 1 626 657 658 627
644 3 2 1 1 627 658 659 628
645 3 2 1 1 628 659 660 629
646 3 2 1 1 629 660 661 630
647 3 2 1 1 630 661 662 631
648 3 2 1 1 631 662 663 632
649 3 2 1 1 632 663 664 633
650 3 2 1 1 633 664 665 634
651 3 2 1 1 634 665 666 635
652 3 2 1 1 635 666 667 636
653 3 2 1 1 636 667 668 637
654 3 2 1 1 637 668 669 638
655 3 2 1 1 638 669 670 639
656 3 2 1 1 639 670 671 640
657 3 2 1 1 640 671 672 641
658 3 2 1 1 641 672 673 642
659 3 2 1 1 642 673 674 643
660 3 2 1 1 643 674 675 644
661 3 2 1 1 644 675 676 645
662 3 2 1 1 645 676 677 646
663 3 2 1 1 646 677 678 647
664 3 2 1 1 647 678 679 648
665 3 2 1 1 648 679 680 649
666 3 2 1 1 649 680 681 650
667 3 2 1 1 650 681 682 651
668 3 2 1 1 651 682 683 652
669 3 2 1 1 652 683 684 653
670 3 2 1 1 653 684 685 654
671 3 2 1 1 654 685 686 655
672 3 2 1 1 655 686 80 81
673 3 2 1 1 22 23 687 656
674 3 2 1 1 656 687 688 657
675 3 2 1 1 657 688 689 658
676 3 2 1 1 658 689 690 659
677 3 2 1 1 659 690 691 660
678 3 2 1 1 660 691 692 661
679 3 2 1 1 661 692 693 662
680 3 2 1 1 662 693 694 663
681 3 2 1 1 663 694 695 664
682 3 2 1 1 664 695 696 665
683 3 2 1 1 665 696 697 666
684 3 2 1 1 666 697 698 667
685 3 2 1 1 667 698 699 668
686 3 2 1 1 668 699 700 669
687 3 2 1 1 669 700 701 670
688 3 2 1 1 670 701 702 671
689 3 2 1 1 671 702 703 672
690 3 2 1 1 672 703 704 673
691 3 2 1 1 673 704 705 674
692 3 2 1 1 674 705 706 675
693 3 2 1 1 675 706 707 676
694 3 2 1 1 676 707 708 677
695 3 2 1 1 677 708 709 678
696 3 2 1 1 678 709 710 679
697 3 2 1 1 679 710 711 680
698 3 2 1 1 680 711 712 681
699 3 2 1 1 681 712 713 682
700 3 2 1 1 682 713 714 683
701 3 2 1 1 683 714 715 684
702 3 2 1 1 684 715 716 685
703 3 2 1 1 685 716 717 686
704 3 2 1 1 686 717 79 80
705 3 2 1 1 23 24 718 687
706 3 2 1 1 687 718 719 688
707 3 2 1 1 688 719 720 689
708 3 2 1 1 689 720 721 690
709 3 2 1 1 690 721 722 691
710 3 2 1 1 691 722 723 692
711 3 2 1 1 692 723 724 693
712 3 2 1 1 693 724 725 694
713 3 2 1 1 694 725 726 695
714 3 2 1 1 695 726 727 696
715 3 2 1 1 696 727 728 697
716 3 2 1 1 697 728 729 698
717 3 2 1 1 698 729 730 699
718 3 2 1 1 699 730 731 700
719 3 2 1 1 700 731 732 701
720 3 2 1 1 701 732 733 702
721 3 2 1 1 702 733 734 703
722 3 2 1 1 703 734 735 704
723 3 2 1 1 704 735 736 705
724 3 2 1 1 705 736 737 706
725 3 2 1 1 706 737 738 707
726 3 2 1 1 707 738 739 708
727 3 2 1 1 708 739 740 709
728 3 2 1 1 709 740 741 710
729 3 2 1 1 710 741 742 711
730 3 2 1 1 711 742 743 712
731 3 2 1 1 712 743 744 713
732 3 2 1 1 713 744 745 714
733 3 2 1 1 714 745 746 715
734 3 2 1 1 715 746 747 716
735 3 2 1 1 716 747 748 717
736 3 2 1 1 717 748 78 79
737 3 2 1 1 24 25 749 718
738 3 2 1 1 718 749 750 719
739 3 2 1 1 719 750 751 720
740 3 2 1 1 720 751 752 721
741 3 2 1 1 721 752 753 722
742 3 2 1 1 722 753 754 723
743 3 2 1 1 723 754 755 724
744 3 2 1 1 724 755 756 725
745 3 2 1 1 725 756 757 726
746 3 2 1 1 726 757 758 727
747 3 2 1 1 727 758 759 728
748 3 2 1 1 728 759 760 729
749 3 2 1 1 729 760 761 730
750 3 2 1 1 730 761 762 731
751 3 2 1 1 731 762 763 732
752 3 2 1 1 732 763 764 733
753 3 2 1 1 733 764 765 734
754 3 2 1 1 734 765 766 735
755 3 2 1 1 735 766 767 736
756 3 2 1 1 736 767 768 737
757 3 2 1 1 737 768 769 738
758 3 2 1 1 738 769 770 739
759 3 2 1 1 739 770 771 740
760 3 2 1 1 740 771 772 741
761 3 2 1 1 741 772 773 742
762 3 2 1 1 742 773 774 743
763 3 2 1 1 743 774 775 744
764 3 2 1 1 744 775 776 745
765 3 2 1 1 745 776 777 746
766 3 2 1 1 746 777 778 747
767 3 2 1 1 747 778 779 748
768 3 2 1 1 748 779 77 78
769 3 2 1 1 25 26 780 749
770 3 2 1 1 749 780 781 750
771 3 2 1 1 750 781 782 751
772 3 2 1 1 751 782 783 752
773 3 2 1 1 752 783 784 753
774 3 2 1 1 753 784 785 754
775 3 2 1 1 754 785 786 755
776 3 2 1 1 755 786 787 756
777 3 2 1 1 756 787 788 757
778 3 2 1 1 757 788 789 758
779 3 2 1 1 758 789 790 759
780 3 2 1 1 759 790 791 760
781 3 2 1 1 760 791 792 761
782 3 2 1 1 761 792 793 762
783 3 2 1 1 762 793 794 763
784 3 2 1 1 763 794 795 764
785 3 2 1 1 764 795 796 765
786 3 2 1 1 765 796 797 766
787 3 2 1 1 766 797 798 767
788 3 2 1 1 767 798 799 768
789 3 2 1 1 768 799 800 769
790 3 2 1 1 769 800 801 770
791 3 2 1 1 770 801 802 771
792 3 2 1 1 771 802 803 772
793 3 2 1 1 772 803 804 773
794 3 2 1 1 773 804 805 774
795 3 2 1 1 774 805 806 775
796 3 2 1 1 775 806 807 776
797 3 2 1 1 776 807 808 777
798 3 2 1 1 777 808 809 778
799 3 2 1 1 778 809 810 779
800 3 2 1 1 779 810 76 77
801 3 2 1 1 26 27 811 780
802 3 2 1 1 780 811 812 781
803 3 2 1 1 781 812 813 782
804 3 2 1 1 782 813 814 783
805 3 2 1 1 783 814 815 784
806 3 2 1 1 784 815 816 785
807 3 2 1 1 785 816 817 786
808 3 2 1 1 786 817 818 787
809 3 2 1 1 787 818 819 788
810 3 2 1 1 788 819 820 789
811 3 2 1 1 789 820 821 790
812 3 2 1 1 790 821 822 791
813 3 2 1 1 791 822 823 792
814 3 2 1 1 792 823 824 793
815 3 2 1 1 793 824 825 794
816 3 2 1 1 794 825 826 795
817 3 2 1 1 795 826 827 796
818 3 2 1 1 796 827 828 797
819 3 2 1 1 797 828 829 798
820 3 2 1 1 798 829 830 799
821 3 2 1 1 799 830 831 800
822 3 2 1 1 800 831 832 801
823 3 2 1 1 801 832 833 802
824 3 2 1 1 802 833 834 803
825 3 2 1 1 803 834 835 804
826 3 2 1 1 804 835 836 805
827 3 2 1 1 805 836 837 806
828 3 2 1 1 806 837 838 807
829 3 2 1 1 807 838 839 808
830 3 2 1 1 808 839 840 809
831 3 2 1 1 809 840 841 810
832 3 2 1 1 810 841 75 76
833 3 2 1 1 27 28 842 811
834 3 2 1 1 811 842 843 812
835 3 2 1 1 812 843 844 813
836 3 2 1 1 813 844 845 814
837 3 2 1 1 814 845 846 815
838 3 2 1 1 815 846 847 816
839 3 2 1 1 816 847 848 817
840 3 2 1 1 817 848 849 818
841 3 2 1 1 818 849 850 819
842 3 2 1 1 819 850 851 820
843 3 2 1 1 820 851 852 821
844 3 2 1 1 821 852 853 822
845 3 2 1 1 822 853 854 823
846 3 2 1 1 823 854 855 824
847 3 2 1 1 824 855 856 825
848 3 2 1 1 825 856 857 826
849 3 2 1 1 826 857 858 827
850 3 2 1 1 827 858 859 828
851 3 2 1 1 828 859 860 829
852 3 2 1 1 829 860 861 830
853 3 2 1 1 830 861 862 831
854 3 2 1 1 831 862 863 832
855 3 2 1 1 832 863 864 833
856 3 2 1 1 833 864 865 834
857 3 2 1 1 834 865 866 835
858 3 2 1 1 835 866 867 836
859 3 2 1 1 836 867 868 837
860 3 2 1 1 837 868 869 838
861 3 2 1 1 838 869 870 839
862 3 2 1 1 839 870 871 840
863 3 2 1 1 840 871 872 841
864 3 2 1 1 841 872 74 75
865 3 2 1 1 28 29 873 842
866 3 2 1 1 842 873 874 843
867 3 2 1 1 843 874 875 844
868 3 2 1 1 844 875 876 845
869 3 2 1 1 845 876 877 846
870 3 2 1 1 846 877 878 847
871 3 2 1 1 847 878 879 848
872 3 2 1 1 848 879 880 849
873 3 2 1 1 849 880 881 850
874 3 2 1 1 850 881 882 851
875 3 2 1 1 851 882 883 852
876 3 2 1 1 852 883 884 853
877 3 2 1 1 853 884 885 854
878 3 2 1 1 854 885 886 855
879 3 2 1 1 855 886 887 856
880 3 2 1 1 856 887 888 857
881 3 2 1 1 857 888 889 858
882 3 2 1 1 858 889 890 859
883 3 2 1 1 859 890 891 860
884 3 2 1 1 860 891 892 861
885 3 2 1 1 861 892 893 862
886 3 2 1 1 862 893 894 863
887 3 2 1 1 863 894 895 864
888 3 2 1 1 864 895 896 865
889 3 2 1 1 865 896 897 866
890 3 2 1 1 866 897 898 867
891 3 2 1 1 867 898 899 868
892 3 2 1 1 868 899 900 869
893 3 2 1 1 869 900 901 870
894 3 2 1 1 870 901 902 871
895 3 2 1 1 871 902 903 872
896 3 2 1 1 872 903 73 74
897 3 2 1 1 29 30 904 873
898 3 2 1 1 873 904 905 874
899 3 2 1 1 874 905 906 875
900 3 2 1 1 875 906 907 876
901 3 2 1 1 876 907 908 877
902 3 2 1 1 877 908 909 878
903 3 2 1 1 878 909 910 879
904 3 2 1 1 879 910 911 880
905 3 2 1 1 880 911 912 881
906 3 2 1 1 881 912 913 882
907 3 2 1 1 882 913 914 883
908 3 2 1 1 883 914 915 884
909 3 2 1 1 884 915 916 885
910 3 2 1 1 885 916 917 886
911 3 2 1 1 886 917 918 887
912 3 2 1 1 887 918 919 888
913 3 2 1 1 888 919 920 889
914 3 2 1 1 889 920 921 890
915 3 2 1 1 890 921 922 891
916 3 2 1 1 891 922 923 892
917 3 2 1 1 892 923 924 893
918 3 2 1 1 893 924 925 894
919 3 2 1 1 894 925 926 895
920 3 2 1 1 895 926 927 896
921 3 2 1 1 896 927 928 897
922 3 2 1 1 897 928 929 898
923 3 2 1 1 898 929 930 899
924 3 2 1 1 899 930 931 900
925 3 2 1 1 900 931 932 901
926 3 2 1 1 901 932 933 902
927 3 2 1 1 902 933 934 903
928 3 2 1 1 903 934 72 73
929 3 2 1 1 30 31 935 904
930 3 2 1 1 904 935 936 905
931 3 2 1 1 905 936 937 906
932 3 2 1 1 906 937 938 907
933 3 2 1 1 907 938 939 908
934 3 2 1 1 908 939 940 909
935 3 2 1 1 909 940 941 910
936 3 2 1 1 910 941 942 911
937 3 2 1 1 911 942 943 912
938 3 2 1 1 912 943 944 913
939 3 2 1 1 913 944 945 914
940 3 2 1 1 914 945 946 915
941 3 2 1 1 915 946 947 916
942 3 2 1 1 916 947 948 917
943 3 2 1 1 917 948 949 918
944 3 2 1 1 918 949 950 919
945 3 2 1 1 919 950 951 920
946 3 2 1 1 920 951 952 921
947 3 2 1 1 921 952 953 922
948 3 2 1 1 922 953 954 923
949 3 2 1 1 923 954 955 924
950 3 2 1 1 924 955 956 925
951 3 2 1 1 925 956 957 926
952 3 2 1 1 926 957 958 927
953 3 2 1 1 927 958 959 928
954 3 2 1 1 928 959 960 929
955 3 2 1 1 929 960 961 930
956 3 2 1 1 930 961 962 931
957 3 2 1 1 931 962 963 932
958 3 2 1 1 932 963 964 933
959 3 2 1 1 933 964 965 934
960 3 2 1 1 934 965 71 72
961 3 2 1 1 31 32 966 935
962 3 2 1 1 935 966 967 936
963 3 2 1 1 936 967 968 937
964 3 2 1 1 937 968 969 938
965 3 2 1 1 938 969 970 939
966 3 2 1 1 939 970 971 940
967 3 2 1 1 940 971 972 941
968 3 2 1 1 941 972 973 942
969 3 2 1 1 942 973 974 943
970 3 2 1 1 943 974 975 944
971 3 2 1 1 944 975 976 945
972 3 2 1 1 945 976 977 946
973 3 2 1 1 946 977 978 947
974 3 2 1 1 947 978 979 948
975 3 2 1 1 948 979 980 949
976 3 2 1 1 949 980 981 950
977 3 2 1 1 950 981 982 951
978 3 2 1 1 951 982 983 952
979 3 2 1 1 952 983 984 953
980 3 2 1 1 953 984 985 954
981 3 2 1 1 954 985 986 955
982 3 2 1 1 955 986 987 956
983 3 2 1 1 956 987 988 957
984 3 2 1 1 957 988 989 958
985 3 2 1 1 958 989 990 959
986 3 2 1 1 959 990 991 960
987 3 2 1 1 960 991 992 961
988 3 2 1 1 961 992 993 962
989 3 2 1 1 962 993 994 963
990 3 2 1 1 963 994 995 964
991 3 2 1 1 964 995 996 965
992 3 2 1 1 965 996 70 71
993 3 2 1 1 32 33 997 966
994 3 2 1 1 966 997 998 967
995 3 2 1 1 967 998 999 968
996 3 2 1 1 968 999 1000 969
997 3 2 1 1 969 1000 1001 970
998 3 2 1 1 970 1001 1002 971
999 3 2 1 1 971 1002 1003 972
1000 3 2 1 1 972 1003 1004 973
1001 3 2 1 1 973 1004 1005 974
1002 3 2 1 1 974 1005 1006 975
1003 3 2 1 1 975 1006 1007 976
1004 3 2 1 1 976 1007 1008 977
1005 3 2 1 1 977 1008 1009 978
1006 3 2 1 1 978 1009 1010 979
1007 3 2 1 1 979 1010 1011 980
1008 3 2 1 1 980 1011 1012 981
1009 3 2 1 1 981 1012 1013 982
1010 3 2 1 1 982 1013 1014 983
1011 3 2 1 1 983 1014 1015 984
1012 3 2 1 1 984 1015 1016 985
1013 3 2 1 1 985 1016 1017 986
1014 3 2 1 1 986 1017 1018 987
1015 3 2 1 1 987 1018 1019 988
1016 3 2 1 1 988 1019 1020 989
1017 3 2 1 1 989 1020 1021 990
1018 3 2 1 1 990 1021 1022 991
1019 3 2 1 1 991 1022 1023 992
1020 3 2 1 1 992 1023 1024 993
1021 3 2 1 1 993 1024 1025 994
1022 3 2 1 1 994 1025 1026 995
1023 3 2 1 1 995 1026 1027 996
1024 3 2 1 1 996 1027 69 70
1025 3 2 1 1 33 34 1028 997
1026 3 2 1 1 997 1028 1029 998
1027 3 2 1 1 998 1029 1030 999
1028 3 2 1 1 999 1030 1031 1000
1029 3 2 1 1 1000 1031 1032 1001
1030 3 2 1 1 1001 1032 1033 1002
1031 3 2 1 1 1002 1033 1034 1003
1032 3 2 1 1 1003 1034 1035 1004
1033 3 2 1 1 1004 1035 1036 1005
1034 3 2 1 1 1005 1036 1037 1006
1035 3 2 1 1 1006 1037 1038 1007
1036 3 2 1 1 1007 1038 1039 1008
1037 3 2 1 1 1008 1039 1040 1009
1038 3 2 1 1 1009 1040 1041 1010
1039 3 2 1 1 1010 1041 1042 1011
1040 3 2 1 1 1011 1042 1043 1012
1041 3 2 1 1 1012 1043 1044 1013
1042 3 2 1 1 1013 1044 1045 1014
1043 3 2 1 1 1014 1045 1046 1015
1044 3 2 1 1 1015 1046 1047 1016
1045 3 2 1 1 1016 1047 1048 1017
1046 3 2 1 1 1017 1048 1049 1018
1047 3 2 1 1 1018 1049 1050 1019
1048 3 2 1 1 1019 1050 1051 1020
1049 3 2 1 1 1020 1051 1052 1021
1050 3 2 1 1 1021 1052 1053 1022
1051 3 2 1 1 1022 1053 1054 1023
1052 3 2 1 1 1023 1054 1055 1024
1053 3 2 1 1 1024 1055 1056 1025
1054 3 2 1 1 1025 1056 1057 1026
1055 3 2 1 1 1026 1057 1058 1027
1056 3 2 1 1 1027 1058 68 69
1057 3 2 1 1 34 35 1059 1028
1058 3 2 1 1 1028 1059 1060 1029
1059 3 2 1 1 1029 1060 1061 1030
1060 3 2 1 1 1030 1061 1062 1031
1061 3 2 1 1 1031 1062 1063 1032
1062 3 2 1 1 1032 1063 1064 1033
1063 3 2 1 1 1033 1064 1065 1034
1064 3 2 1 1 1034 1065 1066 1035
1065 3 2 1 1 1035 1066 1067 1036
1066 3 2 1 1 1036 1067 1068 1037
1067 3 2 1 1 1037 1068 1069 1038
1068 3 2 1 1 1038 1069 1070 1039
1069 3 2 1 1 1039 1070 1071 1040
1070 3 2 1 1 1040 1071 1072 1041
1071 3 2 1 1 1041 1072 1073 1042
1072 3 2 1 1 1042 1073 1074 1043
1073 3 2 1 1 1043 1074 1075 1044
1074 3 2 1 1 1044 1075 1076 1045
1075 3 2 1 1 1045 1076 1077 1046
1076 3 2 1 1 1046 1077 1078 1047
1077 3 2 1 1 1047 1078 1079 1048
1078 3 2 1 1 1048 1079 1080 1049
1079 3 2 1 1 1049 1080 1081 1050
1080 3 2 1 1 1050 1081 1082 1051
1081 3 2 1 1 1051 1082 1083 1052
1082 3 2 1 1 1052 1083 1084 1053
1083 3 2 1 1 1053 1084 1085 1054
1084 3 2 1 1 1054 1085 1086 1055
1085 3 2 1 1 1055 1086 1087 1056
1086 3 2 1 1 1056 1087 1088 1057
1087 3 2 1 1 1057 1088 1089 1058
1088 3 2 1 1 1058 1089 67 68
1089 3 2 1 1 35 2 36 1059
1090 3 2 1 1 1059 36 37 1060
1091 3 2 1 1 1060 37 38 1061
1092 3 2 1 1 1061 38 39 1062
1093 3 2 1 1 1062 39 40 1063
1094 3 2 1 1 1063 40 41 1064
1095 3 2 1 1 1064 41 42 1065
1096 3 2 1 1 1065 42 43 1066
1097 3 2 1 1 1066 43 44 1067
1098 3 2 1 1 1067 44 45 1068
1099 3 2 1 1 1068 45 46 1069
1100 3 2 1 1 1069 46 47 1070
1101 3 2 1 1 1070 47 48 1071
1102 3 2 1 1 1071 48 49 1072
1103 3 2 1 1 1072 49 50 1073
1104 3 2 1 1 1073 50 51 1074
1105 3 2 1 1 1074 51 52 1075
1106 3 2 1 1 1075 52 53 1076
1107 3 2 1 1 1076 53 54 1077
1108 3 2 1 1 1077 54 55 1078
1109 3 2 1 1 1078 55 56 1079
1110 3 2 1 1 1079 56 57 1080
1111 3 2 1 1 1080 57 58 1081
1112 3 2 1 1 1081 58 59 1082
1113 3 2 1 1 1082 59 60 1083
1114 3 2 1 1 1083 60 61 1084
1115 3 2 1 1 1084 61 62 1085
1116 3 2 1 1 1085 62 63 1086
1117 3 2 1 1 1086 63 64 1087
1118 3 2 1 1 1087 64 65 1088
1119 3 2 1 1 1088 65 66 1089
1120 3 2 1 1 1089 66 3 67
$EndElements
