# vtk DataFile Version 3.0
Broken Mesh Solution
ASCII
DATASET UNSTRUCTURED_GRID

POINTS 97 float
0.3750000000002599 0.3749999999997401 0.0
0.3750000000001733 0.2499999999994802 0.0
0.3750000000000867 0.1249999999992205 0.0
0.3750000000000001 -1.031279228680404e-12 0.0
0.3749999999999136 -0.1250000000007797 0.0
0.3749999999998268 -0.25000000000052 0.0
0.37499999999974 -0.37500000000026 0.0
0.25000000000052 0.3749999999998268 0.0
0.2499999999994804 -0.3750000000001733 0.0
0.1250000000007798 0.3749999999999135 0.0
0.1250000000002599 0.1249999999997401 0.0
0.1249999999999999 -3.437250484239485e-13 0.0
0.1249999999997402 -0.1250000000002599 0.0
0.1249999999992205 -0.3750000000000867 0.0
1.031258411998692e-12 0.3750000000000001 0.0
3.437250484239485e-13 0.1250000000000001 0.0
0.0 0.0 0.0
-3.438985207715461e-13 -0.1250000000000003 0.0
-1.031369434301155e-12 -0.3749999999999999 0.0
-0.1249999999992204 0.3750000000000868 0.0
-0.1249999999997402 0.12500000000026 0.0
-0.125 3.437250484239485e-13 0.0
-0.12500000000026 -0.1249999999997402 0.0
-0.1250000000007798 -0.3749999999999134 0.0
-0.2499999999994803 0.3750000000001732 0.0
-0.25000000000052 -0.3749999999998269 0.0
-0.3749999999997401 0.3750000000002599 0.0
-0.3749999999998269 0.25000000000052 0.0
-0.3749999999999134 0.1250000000007797 0.0
-0.375 1.031369434301155e-12 0.0
-0.3750000000000867 -0.1249999999992204 0.0
-0.3750000000001733 -0.2499999999994802 0.0
-0.3750000000002601 -0.3749999999997402 0.0
-0.5 -0.3749999999996535 0.0
-0.5 -0.249999999999307 0.0
-0.5 -0.1249999999989605 0.0
-0.5 1.375122238300719e-12 0.0
-0.5 0.1250000000010397 0.0
-0.5 0.2500000000006933 0.0
-0.5 0.3750000000003466 0.0
-0.3749999999996535 0.5 0.0
-0.249999999999307 0.5 0.0
-0.1249999999989605 0.5 0.0
1.375122238300719e-12 0.5 0.0
0.1250000000010397 0.5 0.0
0.2500000000006933 0.5 0.0
0.3750000000003466 0.5 0.0
0.5 0.3749999999996535 0.0
0.5 0.249999999999307 0.0
0.5 0.1249999999989605 0.0
0.5 -1.375122238300719e-12 0.0
0.5 -0.1250000000010397 0.0
0.5 -0.2500000000006933 0.0
0.5 -0.3750000000003466 0.0
0.3749999999996535 -0.5 0.0
0.249999999999307 -0.5 0.0
0.1249999999989605 -0.5 0.0
-1.375122238300719e-12 -0.5 0.0
-0.1250000000010397 -0.5 0.0
-0.2500000000006933 -0.5 0.0
-0.3750000000003466 -0.5 0.0
-0.5 0.5 0.0
0.5 0.5 0.0
0.5 -0.5 0.0
-0.5 -0.5 0.0
-0.2500000000003467 -0.2499999999996536 0.0
-0.2500000000001734 -0.1249999999994804 0.0
-0.2500000000000002 6.875333635747438e-13 0.0
-0.2499999999998269 0.1250000000005199 0.0
-0.2499999999996536 0.2500000000003468 0.0
-0.1250000000005198 -0.2499999999998269 0.0
-0.1249999999994804 0.2500000000001734 0.0
-6.875333635747438e-13 -0.2500000000000002 0.0
6.874500968478969e-13 0.2500000000000002 0.0
0.1249999999994803 -0.2500000000001734 0.0
0.12500000000052 0.2499999999998268 0.0
0.2499999999996536 -0.2500000000003467 0.0
0.2499999999998268 -0.1250000000005199 0.0
0.2500000000000002 -6.875472413625516e-13 0.0
0.2500000000001734 0.1249999999994803 0.0
0.2500000000003466 0.2499999999996536 0.0
-0.2500000000003467 -0.2499999999996536 0.0
-0.2500000000001734 -0.1249999999994804 0.0
-0.2500000000000002 6.875333635747438e-13 0.0
-0.2499999999998269 0.1250000000005199 0.0
-0.2499999999996536 0.2500000000003468 0.0
-0.1250000000005198 -0.2499999999998269 0.0
-0.1249999999994804 0.2500000000001734 0.0
-6.875333635747438e-13 -0.2500000000000002 0.0
6.874500968478969e-13 0.2500000000000002 0.0
0.1249999999994803 -0.2500000000001734 0.0
0.12500000000052 0.2499999999998268 0.0
0.2499999999996536 -0.2500000000003467 0.0
0.2499999999998268 -0.1250000000005199 0.0
0.2500000000000002 -6.875472413625516e-13 0.0
0.2500000000001734 0.1249999999994803 0.0
0.2500000000003466 0.2499999999996536 0.0

CELLS 64 320
4 64 60 32 33
4 33 32 31 34
4 34 31 30 35
4 35 30 29 36
4 36 29 28 37
4 37 28 27 38
4 38 27 26 39
4 39 26 40 61
4 60 59 25 32
4 32 25 65 31
4 47 81 66 30
4 46 82 67 29
4 45 83 68 28
4 44 84 69 27
4 27 69 24 26
4 26 24 41 40
4 59 58 23 25
4 41 39 70 65
4 65 70 22 66
4 66 22 21 67
4 67 21 20 68
4 68 20 71 69
4 85 87 19 24
4 24 19 42 41
4 58 57 18 23
4 39 34 72 70
4 70 72 17 22
4 22 17 16 21
4 21 16 15 20
4 20 15 73 71
4 87 89 14 19
4 19 14 43 42
4 57 56 13 18
4 34 29 74 72
4 72 74 12 17
4 17 12 11 16
4 16 11 10 15
4 15 10 75 73
4 89 91 9 14
4 14 9 44 43
4 56 55 8 13
4 29 24 76 74
4 74 76 77 12
4 12 77 78 11
4 11 78 79 10
4 10 79 80 75
4 91 96 7 9
4 9 7 45 44
4 55 54 6 8
4 8 6 5 76
4 92 21 4 77
4 93 20 3 78
4 94 19 2 79
4 95 18 1 80
4 80 1 0 7
4 7 0 46 45
4 54 63 53 6
4 6 53 52 5
4 5 52 51 4
4 4 51 50 3
4 3 50 49 2
4 2 49 48 1
4 1 48 47 0
4 0 47 62 46

CELL_TYPES 64
9
9
9
9
9
9
9
9
9
9
9
9
9
9
9
9
9
9
9
9
9
9
9
9
9
9
9
9
9
9
9
9
9
9
9
9
9
9
9
9
9
9
9
9
9
9
9
9
9
9
9
9
9
9
9
9
9
9
9
9
9
9
9
9

POINT_DATA 97
SCALARS U float
LOOKUP_TABLE default
-2.1912443964016726e-12
0.07812499999350837
0.12499999999833364
0.14062500000003866
0.12500000000173686
0.07812500000652123
2.2063787546055363e-12
-0.07812500000372527
-0.07812499999624486
-0.12500000000443734
-3.287429167077314e-12
0.1562500000000882
3.454291996707259e-12
-0.12499999999551899
-0.14062499999997014
-0.1562499999998841
1.0537781793575207e-13
-0.15624999999992206
-0.1406249999999765
-0.12499999999551777
3.4990140753513793e-12
0.15625000000011371
-3.307467153293531e-12
-0.12500000000443665
-0.07812499999621071
-0.07812500000372244
2.2187126291568946e-12
0.07812500000654315
0.1250000000017857
0.14062500000007627
0.1249999999983392
0.07812499999350914
-2.190021125549228e-12
0.10937500000025988
0.1875000000003465
0.23437500000025988
0.25
0.23437499999974007
0.18749999999965336
0.10937499999974004
-0.10937500000025988
-0.1875000000003465
-0.23437500000025988
-0.25
-0.23437499999974007
-0.18749999999965336
-0.10937499999974004
0.10937500000025988
0.1875000000003465
0.23437500000025988
0.25
0.23437499999974007
0.18749999999965336
0.10937499999974004
-0.10937500000025988
-0.1875000000003465
-0.23437500000025988
-0.25
-0.23437499999974007
-0.18749999999965336
-0.10937499999974004
0.0
0.0
0.0
0.0
-5.406809284580485e-12
0.46874999999924105
0.6250000000001775
0.4687500000010066
5.509571799432749e-12
-0.4687500000110521
-0.4687499999888423
-0.6249999999999496
-0.6249999999999208
-0.4687499999888512
-0.4687500000110295
5.4749500219985204e-12
0.46875000000090233
0.625000000000082
0.4687499999992512
-5.412935356897142e-12
-8.626172084507494e-12
0.04687499999734442
0.06250000000017793
0.0468750000029023
8.73261686259264e-12
-0.04687500001333514
-0.04687499998656378
-0.06249999999994533
-0.06249999999991666
-0.04687499998657198
-0.046875000013312476
8.697801292242224e-12
0.046875000002795895
0.06250000000008231
0.046874999997356115
-8.63324587492514e-12
