# vtk DataFile Version 3.0
Broken Mesh Solution
ASCII
DATASET UNSTRUCTURED_GRID

POINTS 58 float
-0.5 -0.5 0.0
0.5 -0.5 0.0
0.5 0.5 0.0
-0.5 0.5 0.0
-0.3 -0.5 0.0
-0.09999999999999998 -0.5 0.0
0.09999999999999998 -0.5 0.0
0.3 -0.5 0.0
0.5 -0.3 0.0
0.5 -0.09999999999999998 0.0
0.5 0.09999999999999998 0.0
0.5 0.3 0.0
0.3 0.5 0.0
0.09999999999999998 0.5 0.0
-0.09999999999999998 0.5 0.0
-0.3 0.5 0.0
-0.5 0.3 0.0
-0.5 0.09999999999999998 0.0
-0.5 -0.09999999999999998 0.0
-0.5 -0.3 0.0
-0.3 -0.3 0.0
-0.3 -0.09999999999999998 0.0
-0.3 0.1 0.0
-0.3 0.3 0.0
-0.1 -0.3000000000000001 0.0
-0.09999999999999998 -0.09999999999999998 0.0
-0.09999999999999998 0.09999999999999998 0.0
-0.1 0.3 0.0
0.1 -0.3 0.0
0.09999999999999998 -0.09999999999999998 0.0
0.09999999999999998 0.09999999999999998 0.0
0.09999999999999998 0.3 0.0
0.3 -0.3 0.0
0.3 -0.09999999999999999 0.0
0.3 0.09999999999999999 0.0
0.3 0.3 0.0
0.0 -0.5 0.0
-1.3877787807814457e-17 -0.4 0.0
0.0 -0.30000000000000004 0.0
1.3877787807814457e-17 -0.19999999999999998 0.0
0.0 -0.09999999999999998 0.0
0.0 0.0 0.0
0.0 0.09999999999999998 0.0
-1.3877787807814457e-17 0.19999999999999998 0.0
-1.3877787807814457e-17 0.3 0.0
0.0 0.4 0.0
0.0 0.5 0.0
0.0 -0.5 0.0
-1.3877787807814457e-17 -0.4 0.0
0.0 -0.30000000000000004 0.0
1.3877787807814457e-17 -0.19999999999999998 0.0
0.0 -0.09999999999999998 0.0
0.0 0.0 0.0
0.0 0.09999999999999998 0.0
-1.3877787807814457e-17 0.19999999999999998 0.0
-1.3877787807814457e-17 0.3 0.0
0.0 0.4 0.0
0.0 0.5 0.0

CELLS 60 250
3 0 4 19
3 19 4 20
3 19 20 18
3 18 20 21
3 18 21 17
3 17 21 22
3 17 22 16
3 16 22 23
3 16 23 3
3 3 23 15
3 4 5 20
3 20 5 24
3 20 24 21
3 21 24 25
3 21 25 22
3 22 25 26
3 22 26 23
3 23 26 27
3 23 27 15
3 15 27 14
3 6 7 28
3 28 7 32
3 28 32 29
3 29 32 33
3 29 33 30
3 30 33 34
3 30 34 31
3 31 34 35
3 31 35 13
3 13 35 12
3 7 1 32
3 32 1 8
3 32 8 33
3 33 8 9
3 33 9 34
3 34 9 10
3 34 10 35
3 35 10 11
3 35 11 12
3 12 11 2
3 48 47 6
4 36 37 24 5
3 37 38 24
4 49 48 6 28
3 50 49 28
4 38 39 25 24
3 39 40 25
4 51 50 28 29
3 52 51 29
4 40 41 26 25
3 41 42 26
4 53 52 29 30
3 54 53 30
4 42 43 27 26
3 43 44 27
4 55 54 30 31
3 56 55 31
4 44 45 14 27
3 45 46 14
4 57 56 31 13

CELL_TYPES 60
5
5
5
5
5
5
5
5
5
5
5
5
5
5
5
5
5
5
5
5
5
5
5
5
5
5
5
5
5
5
5
5
5
5
5
5
5
5
5
5
5
9
5
9
5
9
5
9
5
9
5
9
5
9
5
9
5
9
5
9

POINT_DATA 58
SCALARS U float
LOOKUP_TABLE default
-0.9999999999999999
0.9999999999999999
1.0000000000000002
-1.0
-0.4545454545454547
0.09090909090909081
0.8909090909090909
0.9454545454545455
1.0000000000000004
1.0000000000000002
1.0000000000000004
0.9999999999999999
0.9454545454545453
0.8909090909090909
0.09090909090909086
-0.45454545454545453
-1.0
-1.0
-1.0
-1.0
-0.45454545454545414
-0.4545454545454542
-0.4545454545454542
-0.4545454545454544
0.09090909090909172
0.09090909090909181
0.09090909090909119
0.090909090909091
0.8909090909090918
0.8909090909090909
0.8909090909090914
0.8909090909090913
0.9454545454545457
0.9454545454545458
0.9454545454545459
0.9454545454545458
0.3636363636363637
0.36363636363636426
0.363636363636365
0.363636363636365
0.3636363636363648
0.3636363636363645
0.36363636363636387
0.36363636363636387
0.3636363636363637
0.363636363636364
0.3636363636363634
0.8636363636363634
0.8636363636363638
0.8636363636363638
0.8636363636363638
0.8636363636363638
0.8636363636363639
0.8636363636363641
0.8636363636363641
0.863636363636364
0.8636363636363639
0.8636363636363636
